<svg xmlns="http://www.w3.org/2000/svg" width="112.051" height="113.157" viewBox="0 0 112.051 113.157"><defs><filter id="a" width="112.051" height="113.157" x="0" y="0" filterUnits="userSpaceOnUse"><feOffset dy="3"/><feGaussianBlur result="b" stdDeviation="3"/><feFlood flood-opacity=".161"/><feComposite in2="b" operator="in"/><feComposite in="SourceGraphic"/></filter></defs><g transform="translate(-6328.274 9811.992)"><g filter="url(#a)" transform="translate(6328.27 -9811.99)"><ellipse cx="47.025" cy="47.579" fill="#fff" rx="47.025" ry="47.579" transform="translate(9 6)"/></g><g transform="translate(6364.31 -9784.439)"><path fill="#ff9500" d="M44.838 28.621a26 26 0 0 0-2.655-1.221 5.753 5.753 0 0 0-7.285 4.477l-3.022 16.37a2.707 2.707 0 0 0 2.157 3.164 2.753 2.753 0 0 1-3.012-2.961l1.272-16.869a5.86 5.86 0 0 1 7.824-5.057c1.191.52 3.775 1.191 4.721 2.097"/><path fill="#ffb508" d="m45.866 36.536-9.859 13.735c-1.587 2.32-4.568.58-4.141-2.025l3.022-16.37a5.757 5.757 0 0 1 7.285-4.477 21 21 0 0 1 2.655 1.221 5.827 5.827 0 0 1 1.038 7.916"/><path fill="#a3e72e" d="M36.322 5.982v20.491a5.83 5.83 0 0 0-4.039 5.118l-1.262 16.747a2.745 2.745 0 0 0 2.554 3.083c-.234.051-26.636 0-26.891.02a3.3 3.3 0 0 1-1.414-.356c0-.01 0-.01.01-.02a2.97 2.97 0 0 1-1.587-2.615V5.982A2.987 2.987 0 0 1 6.684 3h4.385V1.312A.7.7 0 0 1 11.781.6H25.13a.71.71 0 0 1 .712.712V3h7.488a2.987 2.987 0 0 1 2.991 2.981Z"/><path fill="#f9f9f7" d="M33.229 7.58v21.254a5.86 5.86 0 0 0-.936 2.757l-1.262 16.747H3.693V7.58Z"/><path fill="#80cf00" d="M6.155 51.381a3 3 0 0 0 .529.051h-3.1a3.3 3.3 0 0 1-1.414-.356c0-.01 0-.01.01-.02A2.97 2.97 0 0 1 .59 48.44V5.983a2.987 2.987 0 0 1 2.991-2.981h3.1A2.987 2.987 0 0 0 3.69 5.983V48.45a2.99 2.99 0 0 0 1.587 2.615c-.01.01-.01.01-.01.02a3.6 3.6 0 0 0 .885.3ZM39.67 25.445c.112.376.244.733.376 1.068a7 7 0 0 0-.885-.234c-1.17-2.035-2.442-7.936-1-8.282.519-.153 1.211.5 1.892 1.658-1.496-.345-1.258 2.809-.383 5.79"/><path fill="#a3e72e" d="M48.063 22.149a16.5 16.5 0 0 1-4.823 5.535 1 1 0 0 1-.112-.051l-3.012-1.1c-.02-.01-.041-.01-.061-.02-.956-2.421-1.831-7.356.01-6.857a14.4 14.4 0 0 1 .916 1.933c1.892-5.911 4.019-4.385 3.174.733 1.344-1.424 5.506-3.957 3.908-.173"/><path fill="#231f20" d="M8.485 21.417h1.781a.6.6 0 1 0 0-1.2l-1.77.01-.01-3.541 3.541-.01a.6.6 0 0 0 1.2 0 1.19 1.19 0 0 0-1.19-1.19H8.485a1.19 1.19 0 0 0-1.19 1.19v3.551a1.185 1.185 0 0 0 1.19 1.19"/><path fill="#231f20" d="M10.683 17.795a.6.6 0 0 0-.844.844l2.126 2.126a.6.6 0 0 0 .844 0l4.243-4.243a.6.6 0 0 0-.844-.844l-3.815 3.815ZM8.485 30.92h1.781a.6.6 0 1 0 0-1.2l-1.77.01-.011-3.542 3.541-.01a.6.6 0 0 0 1.2 0 1.19 1.19 0 0 0-1.19-1.19H8.485a1.19 1.19 0 0 0-1.19 1.19v3.551a1.185 1.185 0 0 0 1.19 1.191"/><path fill="#231f20" d="m16.198 25.182-3.816 3.812-1.7-1.7a.6.6 0 0 0-.844.844l2.126 2.126a.6.6 0 0 0 .844 0l4.243-4.243a.6.6 0 0 0-.853-.839M8.485 40.433h1.781a.6.6 0 0 0 0-1.2l-1.77.01-.01-3.541 3.541-.01a.6.6 0 0 0 1.2 0 1.19 1.19 0 0 0-1.19-1.19H8.485a1.19 1.19 0 0 0-1.19 1.19v3.551a1.19 1.19 0 0 0 1.19 1.19"/><path fill="#231f20" d="M16.198 34.685 12.383 38.5l-1.7-1.7a.6.6 0 0 0-.844.844l2.126 2.126a.6.6 0 0 0 .844 0l4.243-4.243a.6.6 0 0 0-.855-.844Zm4.864-16.809h8.709a.6.6 0 0 0 0-1.2h-8.709a.6.6 0 0 0 0 1.2m0 2.36h8.709a.6.6 0 0 0 0-1.2h-8.709a.6.6 0 0 0 0 1.2m0 7.143h7a.6.6 0 0 0 0-1.2h-7a.6.6 0 0 0 0 1.2m0 2.36h7a.6.6 0 0 0 0-1.2h-7a.6.6 0 0 0 0 1.2m0 7.142h4.751a.6.6 0 0 0 0-1.2h-4.751a.6.6 0 0 0 0 1.2m0 2.361h4.751a.6.6 0 0 0 0-1.2h-4.751a.6.6 0 0 0 0 1.2"/><path fill="#231f20" d="M46.11 25.954c1.557-1.679 3.846-4.843 2.544-6.064-.9-.834-2.554.122-3.754 1.028.376-4.5-2.36-5.118-3.988-.916-.672-1.333-1.75-2.92-2.92-2.564-.753.214-1.038 1.2-1.068 2.116V5.993a3.59 3.59 0 0 0-3.593-3.582h-6.877v-1.1a1.3 1.3 0 0 0-1.313-1.31H11.792a1.31 1.31 0 0 0-1.312 1.312v1.088H3.592a3.59 3.59 0 0 0-3.59 3.592V48.46a3.636 3.636 0 0 0 3.59 3.581h29.76a3.4 3.4 0 0 0 3.15-1.414c.651-.916 3.917-5.443 4.619-6.44 1-1.394 4.294-5.972 5.24-7.295a6.46 6.46 0 0 0-1.984-9.309 18 18 0 0 0 1.73-1.628Zm-8.475-1.953c.173.549.366 1.1.58 1.608a6 6 0 0 0-1.272.112v-5.444a14.7 14.7 0 0 0 .692 3.724m-34.45 26.8a4 4 0 0 1-.509-.142l-.02.051c-.02-.02-.031-.041-.051-.061l.01-.02a2.42 2.42 0 0 1-1.413-2.169V5.993a2.386 2.386 0 0 1 2.39-2.381h7.488a.6.6 0 0 0 .6-.6l.01-1.74a.11.11 0 0 1 .1-.061h13.351c.051 0 .092.031.112.112v1.688a.6.6 0 0 0 .6.6h7.489a2.386 2.386 0 0 1 2.39 2.382v20.073a6.7 6.7 0 0 0-1.9 1.18V7.58a.6.6 0 0 0-.6-.6H3.702a.6.6 0 0 0-.6.6v40.758a.6.6 0 0 0 .6.6h26.72a3.36 3.36 0 0 0 .773 1.9H3.592a2.5 2.5 0 0 1-.407-.037m29.444-22.13a6.6 6.6 0 0 0-.926 2.747 3.4 3.4 0 0 1-.071.916.53.53 0 0 0-.041.478l-.346 4.548a.5.5 0 0 0-.031.417l-.753 9.971H4.302V8.18h28.327Zm13.532 2.971a5.18 5.18 0 0 1-.773 4.548l-1.086 1.511-1.485-.437a.6.6 0 0 0-.336 1.15l1.089.315-3.218 4.481-2.6-.865a.6.6 0 0 0-.376 1.14l2.249.743-2.997 4.173-1.211-.4a.6.6 0 0 0-.376 1.14l.855.285-.366.509a2.157 2.157 0 0 1-3.9-1.546l.265-3.48c.1.02 1.384.437 1.455.407a.6.6 0 0 0 .173-1.17l-1.535-.445.4-5.26c.132.031 1.272.448 1.384.427a.6.6 0 0 0 .193-1.17l-1.475-.488.285-3.754c.071.01 2.432.834 2.442.773a.6.6 0 0 0 .193-1.17l-2.533-.834a5.307 5.307 0 0 1 7.061-5.1l2.964 1.076a1 1 0 0 0 .132.051 5.19 5.19 0 0 1 3.124 3.388Zm-3.012-4.619c-.56-.193-3.042-1.14-3.571-1.251a17 17 0 0 1-.8-2.126c-.946-3.062-.672-4.873-.448-5.057.285.02 1.231 1.017 2.086 3.235a.59.59 0 0 0 .58.387.6.6 0 0 0 .549-.427c.7-2.31 1.577-3.378 1.821-3.429.244.163.56 1.506.183 3.887a.6.6 0 0 0 1 .529c1.709-1.587 2.961-2.086 3.276-2 .112.356-.458 2.065-2.594 4.365a14.6 14.6 0 0 1-2.076 1.892Z"/></g></g></svg>