<svg xmlns="http://www.w3.org/2000/svg" width="104.125" height="104.125" viewBox="0 0 104.125 104.125"><defs><filter id="a" width="104.125" height="104.125" x="0" y="0" filterUnits="userSpaceOnUse"><feOffset dy="3"/><feGaussianBlur result="b" stdDeviation="3"/><feFlood flood-opacity=".161"/><feComposite in2="b" operator="in"/><feComposite in="SourceGraphic"/></filter></defs><g transform="translate(-2978.199 9899.666)"><g filter="url(#a)" transform="translate(2978.199 -9899.666)"><circle cx="43.062" cy="43.062" r="43.062" fill="#fff" transform="translate(9 6)"/></g><g transform="translate(3006.227 -9875.203)"><g transform="translate(.775 .775)"><path fill="#656d78" d="M3.877 7.846v1.458l-.457-.155a2.8 2.8 0 0 1-1.357-.992 2.74 2.74 0 0 1 .178-3.412 2.8 2.8 0 0 0 .9.7l1.287.644a3.1 3.1 0 0 0-.55 1.76Z"/><path fill="#4fc1e9" d="m5.086 18.282 2.667 3.427H6.2a4.6 4.6 0 0 0-2.807.946l-.124-.171H0v-2.682a4.76 4.76 0 0 1 1.4-3.365 4.7 4.7 0 0 1 1.481-1Zm10.42 1.52v2.683H11.63l-.777-.318a5.2 5.2 0 0 0-2.132-.457h-.968l2.667-3.427 2.21-2.845a4.7 4.7 0 0 1 1.481 1 4.76 4.76 0 0 1 1.395 3.364"/><path fill="#e6e9ed" d="m10.42 18.282-2.667 3.427-2.667-3.427 2.667-2Z"/><path fill="#ccd1d9" d="m12.63 15.437-2.21 2.845-2.667-2 2.326-1.551 1.822.457a5 5 0 0 1 .729.249m-4.877.845-2.667 2-2.21-2.845a5 5 0 0 1 .729-.248l1.822-.458Z"/><path fill="#fcd770" d="m20.592 18.282 2.667 3.427h-1.553a4.6 4.6 0 0 0-2.248.581l-.853.194h-3.099v-2.682a4.76 4.76 0 0 1 1.4-3.365 4.7 4.7 0 0 1 1.481-1Zm10.42 1.52v2.683h-3.876l-.054.085a5.07 5.07 0 0 0-2.853-.861h-.97l2.667-3.427 2.21-2.845a4.7 4.7 0 0 1 1.481 1 4.76 4.76 0 0 1 1.4 3.365Z"/><path fill="#a0d468" d="m25.926 18.282-2.667 3.427-2.667-3.427 2.667-2Z"/><path fill="#a0d468" d="m28.136 15.437-2.21 2.845-2.667-2 2.326-1.551 1.822.457a5 5 0 0 1 .729.249"/><path fill="#a0d468" d="m23.26 16.282-2.667 2-2.21-2.845a5 5 0 0 1 .729-.248l1.822-.458Z"/><path fill="#656d78" d="M13.651 7.117A6 6 0 0 1 12.1 9.551l-.55.527a3.7 3.7 0 0 0 .078-.775v-1.55A1.555 1.555 0 0 0 10.079 6.2H7.751a1.55 1.55 0 0 1-1.533-1.354 3.1 3.1 0 0 0-1.791 1.24L3.14 5.443a2.8 2.8 0 0 1-.9-.7A2.876 2.876 0 0 1 4.427 0h4.3a5.24 5.24 0 0 1 5.224 5.233 6 6 0 0 1-.3 1.884m5.259 2.435a5.92 5.92 0 0 1-1.853-4.319v-.581A4.656 4.656 0 0 1 21.709 0h5.427a2.323 2.323 0 0 1 2.321 2.326v2.907a5.92 5.92 0 0 1-1.853 4.318l-.55.527a3.7 3.7 0 0 0 .078-.775v-1.55A1.555 1.555 0 0 0 25.585 6.2h-2.328a1.55 1.55 0 0 1-1.535-1.357 3.09 3.09 0 0 0-2.341 3V9.3a3.7 3.7 0 0 0 .078.775Zm25.753 19.274a6 6 0 0 1-1.551 2.434l-.55.527a3.7 3.7 0 0 0 .078-.775v-1.76a1.56 1.56 0 0 0-1.334-1.535l-1.791-.256a2.65 2.65 0 0 1-1.76-1.047l-.008.008-.512.124a3.11 3.11 0 0 0-2.349 3.008v1.455a3.7 3.7 0 0 0 .078.775l-.55-.527a5.92 5.92 0 0 1-1.851-4.315v-.581a4.65 4.65 0 0 1 4.652-4.652h5.427a2.335 2.335 0 0 1 2.321 2.326v2.907a6 6 0 0 1-.3 1.884"/><path fill="#fcd770" d="M46.519 41.51v5.009h-7.753v-3.1l2.667-3.427 2.21-2.845a4.7 4.7 0 0 1 1.481 1 4.76 4.76 0 0 1 1.4 3.365Zm-7.754 1.907v3.1h-7.753V41.51a4.76 4.76 0 0 1 1.4-3.365 4.7 4.7 0 0 1 1.481-1l2.21 2.845Z"/><path fill="#b4dd7f" d="m41.433 39.99-2.667 3.427-2.667-3.427 2.667-2Z"/><path fill="#a0d468" d="m43.643 37.146-2.21 2.845-2.667-2 2.326-1.551 1.822.457a5 5 0 0 1 .729.249m-4.877.845-2.667 2-2.21-2.845a5 5 0 0 1 .729-.248l1.822-.458Z"/><path fill="#e6e9ed" d="M31.012 41.51v5.009h-7.753v-3.1l2.667-3.427 2.21-2.845a4.7 4.7 0 0 1 1.481 1 4.76 4.76 0 0 1 1.4 3.365Zm-7.753 1.907v3.1h-7.753V41.51a4.76 4.76 0 0 1 1.4-3.365 4.7 4.7 0 0 1 1.481-1l2.21 2.845Z"/><path fill="#ff826e" d="m25.926 39.99-2.667 3.427-2.667-3.427 2.667-2Z"/><path fill="#fc6e51" d="m28.136 37.146-2.21 2.845-2.667-2 2.326-1.551 1.822.457a5 5 0 0 1 .729.249"/><path fill="#fc6e51" d="m23.26 37.991-2.667 2-2.21-2.845a5 5 0 0 1 .729-.248l1.822-.458Z"/><path fill="#fcd770" d="M18.91 31.261a5.92 5.92 0 0 1-1.853-4.319v-.581a4.657 4.657 0 0 1 4.652-4.652h2.52a5.07 5.07 0 0 1 2.853.861 4.4 4.4 0 0 1 .845.675 5.2 5.2 0 0 1 1.535 3.7 5.92 5.92 0 0 1-1.853 4.318l-.55.527a3.7 3.7 0 0 0 .078-.775v-1.77a.79.79 0 0 0-.527-.737 8 8 0 0 1-3.14-1.938l-.209-.209-.209.209a8 8 0 0 1-3.14 1.938.79.79 0 0 0-.527.737v1.764a3.7 3.7 0 0 0 .078.775Z"/><path fill="#b27946" d="m45.356 13.157-.388 3.125-.008.008a4.6 4.6 0 0 0-1.318-.853 5 5 0 0 0-.729-.248l-.465-.116a2.33 2.33 0 0 1-1.7-1.7l-.163-.651a3.8 3.8 0 0 0 .923-.675A3.9 3.9 0 0 0 42.642 9.3V7.544a1.56 1.56 0 0 0-1.334-1.535l-1.79-.256a2.65 2.65 0 0 1-1.76-1.047l-.008.008-.512.124a3.11 3.11 0 0 0-2.35 3.008V9.3a3.87 3.87 0 0 0 2.055 3.419l-.163.651a2.33 2.33 0 0 1-1.7 1.7l-.465.116a5 5 0 0 0-.729.248 4.6 4.6 0 0 0-1.318.853l-.008-.008-.388-3.125a50 50 0 0 1-.384-6.176 6.978 6.978 0 0 1 13.956 0 50 50 0 0 1-.388 6.179"/><path fill="#ff826e" d="M46.519 20.934v1.551h-2.148a2.28 2.28 0 0 0-1.729-.775h-3.876l3.016-3.877 1.861-2.4a4.6 4.6 0 0 1 1.318.853c.054.047.109.093.163.147a4.76 4.76 0 0 1 1.4 3.365Zm-10.77-3.101 3.016 3.877h-1.553a4.64 4.64 0 0 0-2.574.775h-3.626v-2.683a4.76 4.76 0 0 1 1.4-3.365c.054-.054.109-.1.163-.147a4.6 4.6 0 0 1 1.318-.853Z"/><path fill="#656d78" d="M13.651 28.826A6 6 0 0 1 12.1 31.26l-.55.527a3.7 3.7 0 0 0 .078-.775v-1.891a1.544 1.544 0 0 0-1.171-1.5l-.171-.039a2 2 0 0 1-.5-.2v.008a2.6 2.6 0 0 1-1.574.527h-.461a2.32 2.32 0 0 1-2.031-1.194 3.11 3.11 0 0 0-1.845 2.838v1.448a3.7 3.7 0 0 0 .078.775l-.55-.527c-.039-.039-.085-.078-.124-.124v-.004a6.05 6.05 0 0 1-1.427-2.3 6 6 0 0 1-.301-1.887v-.581a4.65 4.65 0 0 1 1.845-3.706 4.6 4.6 0 0 1 2.807-.946h2.52a5.2 5.2 0 0 1 2.132.457 5.24 5.24 0 0 1 3.1 4.776 6 6 0 0 1-.3 1.884Z"/><path fill="#656d78" d="m3.4 31.261.55.527a3.9 3.9 0 0 0 1.054 1.969 3.8 3.8 0 0 0 .923.675l-.163.651a2.33 2.33 0 0 1-1.7 1.7l-.465.116a4.8 4.8 0 0 0-1.706.814v-.008l-.372-.248a3.43 3.43 0 0 1 1.239-6.219l.512-.1h.008c.039.047.085.085.124.124Z"/><path fill="#b4dd7f" d="m4.931 41.091 2.822 5.427H0V41.51a4.76 4.76 0 0 1 1.4-3.365l.5-.434a4.7 4.7 0 0 1 .977-.566Zm10.575.419v5.009H7.753l2.822-5.427 2.055-3.946a4.7 4.7 0 0 1 1.481 1 4.76 4.76 0 0 1 1.395 3.364"/><path fill="#ffeaa7" d="m41.782 17.832-3.016 3.877-3.016-3.877Zm-31.211 23.26-2.822 5.427-2.818-5.427Z"/><path fill="#f0d0b4" d="m12.629 37.146-2.054 3.946H4.931l-2.055-3.946a5 5 0 0 1 .729-.248l.465-.116a2.33 2.33 0 0 0 1.7-1.7l.163-.651a3.86 3.86 0 0 0 3.644 0l.163.651a2.33 2.33 0 0 0 1.7 1.7l.465.116a5 5 0 0 1 .724.248"/><path fill="#f0d0b4" d="M10.459 27.616a1.544 1.544 0 0 1 1.171 1.5v1.892a3.7 3.7 0 0 1-.078.775 3.86 3.86 0 0 1-1.975 2.648 3.91 3.91 0 0 1-4.568-.674 3.9 3.9 0 0 1-1.054-1.969 3.7 3.7 0 0 1-.078-.776v-1.455a3.11 3.11 0 0 1 1.845-2.84 2.32 2.32 0 0 0 2.031 1.194h.457a2.6 2.6 0 0 0 1.574-.527v-.008a2 2 0 0 0 .5.2Zm12.8 7.273a3.8 3.8 0 0 0 1.822-.457l.5 2.008-2.326 1.551-2.322-1.551.5-2.008Z"/><path fill="#f0d0b4" d="M27.136 29.245v1.768a3.7 3.7 0 0 1-.078.775 3.86 3.86 0 0 1-1.975 2.644 3.8 3.8 0 0 1-1.822.457l-1.822-.457a3.8 3.8 0 0 1-.923-.675 3.9 3.9 0 0 1-1.054-1.969 3.7 3.7 0 0 1-.079-.775v-1.768a.79.79 0 0 1 .527-.737 8 8 0 0 0 3.14-1.938l.21-.209.209.209a8 8 0 0 0 3.14 1.938.79.79 0 0 1 .527.737m11.63 5.644 1.822-.457.5 2.008-2.326 1.551-2.322-1.551.5-2.008a3.8 3.8 0 0 0 1.826.457"/><path fill="#f0d0b4" d="M37.758 26.415a2.65 2.65 0 0 0 1.76 1.047l1.791.256a1.56 1.56 0 0 1 1.334 1.535v1.76a3.7 3.7 0 0 1-.078.775 3.9 3.9 0 0 1-1.054 1.969 3.8 3.8 0 0 1-.923.675l-1.822.457a3.8 3.8 0 0 1-1.822-.457 3.86 3.86 0 0 1-1.977-2.644 3.7 3.7 0 0 1-.078-.775v-1.458a3.11 3.11 0 0 1 2.349-3.01l.512-.124Zm5.884-10.978-1.861 2.4H35.75l-1.861-2.4a5 5 0 0 1 .729-.248l.465-.116a2.33 2.33 0 0 0 1.7-1.7l.163-.651a3.86 3.86 0 0 0 3.644 0l.163.651a2.33 2.33 0 0 0 1.7 1.7l.465.116a5 5 0 0 1 .729.248Z"/><path fill="#f0d0b4" d="M37.758 4.706a2.65 2.65 0 0 0 1.76 1.047l1.791.256a1.56 1.56 0 0 1 1.334 1.535v1.76a3.9 3.9 0 0 1-1.132 2.745 3.88 3.88 0 0 1-4.567.675 3.87 3.87 0 0 1-2.055-3.42V7.846a3.11 3.11 0 0 1 2.349-3.01l.512-.124ZM23.259 13.18l1.822-.457.5 2.008-2.326 1.551-2.322-1.551.5-2.008a3.8 3.8 0 0 0 1.826.457"/><path fill="#f0d0b4" d="M27.136 7.753v1.551a3.7 3.7 0 0 1-.078.775 3.9 3.9 0 0 1-1.054 1.969 3.8 3.8 0 0 1-.923.675l-1.822.457a3.8 3.8 0 0 1-1.822-.457 3.86 3.86 0 0 1-1.977-2.644 3.7 3.7 0 0 1-.077-.775V7.846a3.09 3.09 0 0 1 2.341-3 1.55 1.55 0 0 0 1.535 1.357h2.324a1.555 1.555 0 0 1 1.551 1.551ZM7.753 13.18l1.822-.457.5 2.008-2.326 1.551-2.322-1.551.5-2.008a3.8 3.8 0 0 0 1.826.457"/><path fill="#f0d0b4" d="M11.63 7.753v1.551a3.7 3.7 0 0 1-.078.775 3.9 3.9 0 0 1-1.054 1.969 3.8 3.8 0 0 1-.923.675l-1.822.457a3.8 3.8 0 0 1-1.822-.457 3.87 3.87 0 0 1-2.054-3.419V7.846a3.1 3.1 0 0 1 2.341-3 1.55 1.55 0 0 0 1.535 1.357h2.324a1.555 1.555 0 0 1 1.551 1.551Z"/></g><path d="M48.069 23.259v-2.68a5.5 5.5 0 0 0-1.511-3.792l.345-2.759a51 51 0 0 0 .391-6.275 7.753 7.753 0 1 0-15.506 0 51 51 0 0 0 .391 6.275l.345 2.759a5.6 5.6 0 0 0-.736.975 5.5 5.5 0 0 0-3.417-2.552L27 14.867l-.254-1.016a4.66 4.66 0 0 0 1.782-2.587l.394-.375a6.74 6.74 0 0 0 2.09-4.879V3.1a3.1 3.1 0 0 0-3.1-3.1h-5.428a5.434 5.434 0 0 0-5.427 5.427v.583a6.74 6.74 0 0 0 2.09 4.878l.395.376a4.66 4.66 0 0 0 1.782 2.587l-.254 1.016-1.37.343a5.5 5.5 0 0 0-3.417 2.552 5.5 5.5 0 0 0-3.417-2.552l-1.372-.343-.254-1.016a4.66 4.66 0 0 0 1.782-2.587l.394-.375a6.74 6.74 0 0 0 2.09-4.879A6.017 6.017 0 0 0 9.5 0H5.2a3.649 3.649 0 0 0-3.138 5.512 3.5 3.5 0 0 0 1.854 5.136 4.65 4.65 0 0 0 1.9 3.2l-.254 1.016-1.372.343A5.535 5.535 0 0 0 0 20.579v2.68h1.551v-2.68A3.92 3.92 0 0 1 3.437 17.2l3.508 4.51a5.433 5.433 0 0 0-5.394 5.426v.583a6.64 6.64 0 0 0 1.14 3.735 4.206 4.206 0 0 0-1.237 7.1A5.5 5.5 0 0 0 0 42.288v5.782h48.069v-5.782a5.534 5.534 0 0 0-4.192-5.369l-1.372-.343-.254-1.016a4.66 4.66 0 0 0 1.782-2.587l.394-.375a6.74 6.74 0 0 0 2.091-4.879V24.81a3.1 3.1 0 0 0-3.1-3.1h-2.292l3.507-4.51a3.92 3.92 0 0 1 1.886 3.378v2.68Zm-9.959-3.876h2.86l-1.43 1.838Zm-1.21-1.551-.944-1.213.088-.022a3.09 3.09 0 0 0 2.191-2.055 4.57 4.57 0 0 0 2.6 0 3.09 3.09 0 0 0 2.19 2.055l.089.022-.944 1.213Zm2.636-4.652a3.1 3.1 0 0 1-3.1-3.1V8.624A2.32 2.32 0 0 1 38.2 6.368l.065-.016a3.44 3.44 0 0 0 1.917.948l1.793.257a.78.78 0 0 1 .666.766v1.757a3.1 3.1 0 0 1-3.1 3.1Zm0-11.63a6.21 6.21 0 0 1 6.2 6.2 49 49 0 0 1-.378 6.082l-.226 1.868a5.5 5.5 0 0 0-1.254-.49l-.469-.117a1.55 1.55 0 0 1-1.128-1.128l-.028-.113a4.65 4.65 0 0 0 1.94-3.773V8.322a2.34 2.34 0 0 0-2-2.3L40.4 5.763a1.914 1.914 0 0 1-1.637-1.886V3.1h-1.548v.775a3.4 3.4 0 0 0 .185 1.119 3.87 3.87 0 0 0-2.514 3.63v1.455a4.64 4.64 0 0 0 1.941 3.773l-.028.113a1.55 1.55 0 0 1-1.129 1.128l-.468.117a5.5 5.5 0 0 0-1.254.49l-.233-1.865a49 49 0 0 1-.378-6.082 6.21 6.21 0 0 1 6.2-6.2Zm-8.524 19.029v2.68h1.551v-2.68a3.92 3.92 0 0 1 1.886-3.379l3.508 4.51a5.433 5.433 0 0 0-5.394 5.426v.583a6.74 6.74 0 0 0 2.09 4.878l.395.376a4.66 4.66 0 0 0 1.782 2.587l-.254 1.016-1.372.343a5.5 5.5 0 0 0-3.417 2.552 5.5 5.5 0 0 0-3.417-2.552L27 36.576l-.254-1.016a4.66 4.66 0 0 0 1.782-2.587l.394-.375a6.74 6.74 0 0 0 2.091-4.879 6.02 6.02 0 0 0-5.416-5.98l3.53-4.538a3.92 3.92 0 0 1 1.886 3.378Zm8.528 19.156 1.57 1.177-1.57 2.018-1.57-2.018ZM6.306 28.517a3.1 3.1 0 0 0 2.222.945h.454a3.44 3.44 0 0 0 1.661-.438c.079.026.154.06.236.081l.163.04a.775.775 0 0 1 .588.753v1.89a3.1 3.1 0 1 1-6.2 0v-1.455a2.32 2.32 0 0 1 .879-1.816Zm.921 7.735a4.6 4.6 0 0 0 2.6 0 3.09 3.09 0 0 0 2.19 2.055l.278.07-1.414 2.716H6.174L4.76 38.375l.277-.07a3.09 3.09 0 0 0 2.191-2.054Zm2.848 6.391-1.547 2.973-1.547-2.974Zm3.653-3.66a4 4 0 0 1 .61.489 3.95 3.95 0 0 1 1.167 2.817v4.231h-5.7Zm3.328 3.306a3.92 3.92 0 0 1 1.886-3.379l4.316 5.55v2.06h-6.2Zm3.387-13.739a1.55 1.55 0 0 0-1.061 1.472v.418a5.1 5.1 0 0 1-.775-2.72v-.583a3.88 3.88 0 0 1 3.877-3.877H25a4.464 4.464 0 0 1 4.46 4.46 5.1 5.1 0 0 1-.775 2.72v-.418a1.55 1.55 0 0 0-1.06-1.47A7.3 7.3 0 0 1 24.8 26.8l-.761-.761-.76.76a7.3 7.3 0 0 1-2.831 1.75Zm3.591-10.523L25.6 19.2l-1.57 2.018-1.565-2.018Zm-3.1 11.995a8.8 8.8 0 0 0 3.1-1.806 8.8 8.8 0 0 0 3.1 1.806v1.767a3.1 3.1 0 1 1-6.2 0Zm3.1 12.909-1.57-2.018 1.57-1.177 1.57 1.177Zm2.521-3.242-1.18-.885 1.13-.753 1.109.278Zm-2.52-3.249a4.6 4.6 0 0 0 1.287-.185l.154.618-1.441.961-1.441-.961.154-.618a4.6 4.6 0 0 0 1.287.185m-2.471 1.61 1.13.753-1.18.885-1.058-1.361Zm3.246 6.409 4.316-5.549a3.92 3.92 0 0 1 1.886 3.378v4.231h-6.2Zm7.753-2.171a3.92 3.92 0 0 1 1.886-3.379l4.316 5.55v2.06h-6.2Zm4.456-2.6-1.058-1.361 1.109-.278 1.13.753Zm-9.4-23.069-1.062 1.361-1.18-.885 1.13-.753ZM18.873 7.65a5.2 5.2 0 0 1-.266-1.64v-.583a3.88 3.88 0 0 1 3.877-3.877h5.427a1.55 1.55 0 0 1 1.551 1.55v2.91a5.1 5.1 0 0 1-.775 2.72v-.2a2.33 2.33 0 0 0-2.326-2.33h-2.326a.776.776 0 0 1 0-1.551h.775V3.1h-.775a2.33 2.33 0 0 0-2.3 1.956 3.87 3.87 0 0 0-2.355 3.566v.108a5.2 5.2 0 0 1-.507-1.08m2.06.974a2.33 2.33 0 0 1 1.115-1.987 2.33 2.33 0 0 0 1.986 1.116h2.326a.776.776 0 0 1 .775.775v1.551a3.1 3.1 0 1 1-6.2 0Zm3.1 6.107a4.6 4.6 0 0 0 1.287-.185l.154.618-1.441.961-1.441-.961.154-.618a4.6 4.6 0 0 0 1.287.185m-2.471 1.61 1.13.753-1.18.885-1.058-1.361Zm-6.058 4.238v2.68h1.551v-2.68a3.92 3.92 0 0 1 1.888-3.379l3.508 4.51a5.433 5.433 0 0 0-5.394 5.426v.583a6.74 6.74 0 0 0 2.09 4.878l.395.376a4.66 4.66 0 0 0 1.782 2.587l-.254 1.016-1.372.343a5.5 5.5 0 0 0-3.417 2.552 5.5 5.5 0 0 0-3.416-2.552L12.4 36.8a1.55 1.55 0 0 1-1.128-1.128l-.028-.113a4.66 4.66 0 0 0 1.782-2.587l.394-.375a6.73 6.73 0 0 0 2.09-4.879 6.02 6.02 0 0 0-5.416-5.98l3.53-4.538a3.92 3.92 0 0 1 1.886 3.378Zm-6.976-2.553L10.1 19.2l-1.57 2.018L6.958 19.2Zm3.58-1.407-1.057 1.361-1.18-.885L11 16.341ZM5.2 1.551h4.3a4.464 4.464 0 0 1 4.46 4.46 5.1 5.1 0 0 1-.775 2.72v-.2A2.33 2.33 0 0 0 10.854 6.2H8.528a.776.776 0 0 1 0-1.551H9.3V3.1h-.772a2.33 2.33 0 0 0-2.3 1.956 3.9 3.9 0 0 0-1.223.844l-.743-.371A2.1 2.1 0 0 1 5.2 1.551M3.1 7.334a2 2 0 0 1 .109-.63 4 4 0 0 0 .358.212l.585.293a3.9 3.9 0 0 0-.278 1.415v.269A1.96 1.96 0 0 1 3.1 7.334m2.327 1.29a2.33 2.33 0 0 1 1.115-1.987 2.33 2.33 0 0 0 1.986 1.116h2.326a.776.776 0 0 1 .775.775v1.551a3.1 3.1 0 1 1-6.2 0Zm3.1 6.107a4.6 4.6 0 0 0 1.287-.185l.154.618-1.441.961-1.441-.961.154-.618a4.6 4.6 0 0 0 1.288.185Zm-2.471 1.61 1.13.753-1.181.885-1.057-1.36ZM3.1 27.136a3.88 3.88 0 0 1 3.877-3.877H9.5a4.464 4.464 0 0 1 4.46 4.46 5.1 5.1 0 0 1-.775 2.72V29.9a2.324 2.324 0 0 0-1.763-2.257l-.164-.04a1.55 1.55 0 0 1-1.175-1.5V24.81H8.528v1.285a3.1 3.1 0 0 0 .588 1.806c-.044 0-.088.011-.133.011h-.455a1.55 1.55 0 0 1-1.551-1.551h-1.55a3 3 0 0 0 .116.8 3.87 3.87 0 0 0-1.667 3.176v.106a5.1 5.1 0 0 1-.775-2.72Zm.586 5.636.113-.022.236.224a4.66 4.66 0 0 0 1.782 2.587l-.028.113A1.55 1.55 0 0 1 4.661 36.8l-.468.117a5.5 5.5 0 0 0-1.5.631 2.651 2.651 0 0 1 1-4.778Zm-2.135 9.516a3.9 3.9 0 0 1 1.777-3.307l3.923 7.538h-5.7Zm44.968 0v4.231h-6.2v-2.06l4.316-5.549a3.92 3.92 0 0 1 1.886 3.378Zm-3.4-3.96-1.058 1.361-1.18-.885 1.13-.753Zm-2.139-1.454-1.441.961-1.439-.963.154-.618a4.56 4.56 0 0 0 2.574 0Zm1.66-5.085a3.1 3.1 0 1 1-6.2 0v-1.456a2.32 2.32 0 0 1 1.76-2.257l.065-.016a3.44 3.44 0 0 0 1.917.948l1.793.257a.78.78 0 0 1 .666.766Zm2.326-6.978v2.909a5.1 5.1 0 0 1-.775 2.72v-.408a2.34 2.34 0 0 0-2-2.3l-1.791-.26a1.914 1.914 0 0 1-1.637-1.886v-.776h-1.548v.775A3.4 3.4 0 0 0 37.4 26.7a3.87 3.87 0 0 0-2.514 3.63v.106a5.1 5.1 0 0 1-.775-2.72v-.583a3.88 3.88 0 0 1 3.877-3.877h5.427a1.55 1.55 0 0 1 1.553 1.554Z"/></g></g></svg>