<svg xmlns="http://www.w3.org/2000/svg" width="120.125" height="120.125" viewBox="0 0 120.125 120.125"><defs><filter id="a" width="120.125" height="120.125" x="0" y="0" filterUnits="userSpaceOnUse"><feOffset dy="3"/><feGaussianBlur result="b" stdDeviation="3"/><feFlood flood-opacity=".161"/><feComposite in2="b" operator="in"/><feComposite in="SourceGraphic"/></filter></defs><g transform="translate(-2732.199 9780.167)"><g filter="url(#a)" transform="translate(2732.199 -9780.167)"><circle cx="51.062" cy="51.062" r="51.062" fill="#fff" transform="translate(9 6)"/></g><g transform="translate(2759.262 -9756.104)"><path fill="#feda9b" d="M21.741 54.643a17.8 17.8 0 0 0-7.486-11.113l-4.349-2.924a3.2 3.2 0 0 0-.467.431 3.475 3.475 0 0 0-.011 4.594 7.75 7.75 0 0 1-2.087-5.291v-.333a3.22 3.22 0 0 0-1.818 1.03 3.475 3.475 0 0 0-.011 4.594 7.75 7.75 0 0 1-2.087-5.291V24.483a3.02 3.02 0 0 0-1.069-2.305 3 3 0 0 0-1.069 2.305V44.47a11.26 11.26 0 0 0 2.079 6.52l2.3 3.238 5.5 7.747 1.941 2.734h10.746Zm42.032-32.344a3.02 3.02 0 0 0-.935 2.184V40.34a7.75 7.75 0 0 1-2.087 5.291 3.475 3.475 0 0 0-.011-4.594 3.22 3.22 0 0 0-2.086-1.069v.372a7.75 7.75 0 0 1-2.087 5.291 3.475 3.475 0 0 0-.011-4.594 3 3 0 0 0-.345-.332l-4.2 2.825a17.8 17.8 0 0 0-7.486 11.113l-2.111 10.062h10.477l1.941-2.734 5.5-7.747 2.3-3.238a11.26 11.26 0 0 0 2.079-6.52V24.483a3 3 0 0 0-.938-2.184"/><path fill="#7d9bff" d="M36.11 27.286a4.76 4.76 0 0 1 2.322-1.329l3.291-.789v-2.009h4.019v2.016l3.283.784a4.77 4.77 0 0 1 3.661 4.639v2.407h-7.277Zm-8.532-1.335-2.34-.561-2.356.563a4.77 4.77 0 0 0-3.661 4.639v2.407H20.6l9.3-5.719a4.76 4.76 0 0 0-2.322-1.329"/><path fill="#fff" d="m33.224 28.307 3.564-.854-.986-.236-5.6-.009-4.585 1.1a6.64 6.64 0 0 0-5.095 6.46v4.635h7.605v-4.635a6.64 6.64 0 0 1 5.097-6.461"/><path fill="#72d8ff" d="m40.375 28.309-3.586-.857-3.564.854a6.64 6.64 0 0 0-5.095 6.46v4.635h17.344V34.77a6.64 6.64 0 0 0-5.099-6.461"/><path fill="#fff" d="M32.937 24.409h-2.733v2.8l2.8 6.372 1.367-3.108-1.434-3.263Z"/><path fill="#fcb17e" d="M35.803 24.409h-2.866v2.8l1.434 3.263 1.431-3.254Z"/><path fill="#ffefd5" d="M35.254 24.468a6.24 6.24 0 0 0 4-5.825v-3.877h-8.005v3.877a6.24 6.24 0 0 0 4.005 5.825"/><path fill="#b3b6c3" d="M35.254 8.665a6.24 6.24 0 0 0-4 5.825v1.356a6.85 6.85 0 0 0 3.831-2.3l2.627 1.544a7 7 0 0 0 1.519-1.181 6.24 6.24 0 0 0-3.977-5.244"/><path fill="#ffb954" d="M26.764 16.031a4.48 4.48 0 0 0-2.579-4.057 4.48 4.48 0 0 0-2.579 4.057v1.054a10.7 10.7 0 0 0 4.776-1.5l.333 1.325.049-.009v-.875Z"/><path fill="#ffefd5" d="M24.185 23.07a4.48 4.48 0 0 0 2.579-4.057v-2.787h-5.158v2.783a4.48 4.48 0 0 0 2.579 4.061"/><path fill="#ffb954" d="M45.568 11.952a4.48 4.48 0 0 0-2.644 4.086v.849l.055.012.327-1.3a10.7 10.7 0 0 0 4.905 1.5v-1.061a4.48 4.48 0 0 0-2.643-4.086"/><path fill="#ffefd5" d="M45.488 23.142a4.48 4.48 0 0 0 2.724-4.122v-2.783h-5.448v2.783a4.48 4.48 0 0 0 2.724 4.122"/><path d="M4.616 54.975a1.289 1.289 0 1 0 2.1-1.492l-2.3-3.238a9.92 9.92 0 0 1-1.841-5.774V24.484a1.737 1.737 0 1 1 3.474 0v15.857a9 9 0 0 0 2.323 6.047q.096.116.2.227c.856.907 1.863 1.976 2.81 2.983l1.327 1.412.013.013 1.99 2.118a1.289 1.289 0 1 0 1.879-1.765l-3.256-3.463-2.956-3.146-.022-.024a2.175 2.175 0 0 1 .042-2.851 1.95 1.95 0 0 1 2.538-.324l4.509 3.032a16.42 16.42 0 0 1 6.953 10.308l2.112 10.066a1.289 1.289 0 1 0 2.523-.53l-2.112-10.066a18.98 18.98 0 0 0-8.028-11.918l-4.509-3.032a4.536 4.536 0 0 0-5.75.587V24.484a4.315 4.315 0 0 0-7.02-3.368 4.3 4.3 0 0 0-1.616 3.368v19.987a12.5 12.5 0 0 0 2.317 7.266Zm5.804 5.95a1.29 1.29 0 0 0-.3 1.8l1.941 2.734a1.289 1.289 0 0 0 2.1-1.492l-1.941-2.734a1.29 1.29 0 0 0-1.8-.308"/><path d="M7.744 57.16a1.29 1.29 0 0 0-.3 1.8l.008.012a1.29 1.29 0 0 0 2.1-1.5l-.008-.012a1.29 1.29 0 0 0-1.8-.3m58.254-12.689V24.484a4.315 4.315 0 1 0-8.63 0v15.531a4.536 4.536 0 0 0-5.75-.587l-4.509 3.032a18.98 18.98 0 0 0-8.028 11.918l-2.112 10.066a1.289 1.289 0 1 0 2.523.529l2.112-10.066a16.42 16.42 0 0 1 6.944-10.308l4.509-3.032a1.95 1.95 0 0 1 2.538.324 2.175 2.175 0 0 1 .045 2.848l-.024.027-3.008 3.2c-1.7 1.808-3.18 3.382-3.2 3.407a1.289 1.289 0 1 0 1.879 1.765l1.99-2.118.013-.013 1.327-1.412c.948-1.008 1.954-2.076 2.81-2.983q.105-.111.2-.227a9 9 0 0 0 2.323-6.047V24.484a1.737 1.737 0 1 1 3.474 0v19.987a9.92 9.92 0 0 1-1.841 5.774l-9.739 13.719a1.289 1.289 0 1 0 2.1 1.492l9.739-13.719a12.5 12.5 0 0 0 2.315-7.266M34.07 38.686a1.2 1.2 0 0 0-.16-.2 1.2 1.2 0 0 0-.2-.161 1.3 1.3 0 0 0-.223-.119 1.3 1.3 0 0 0-.241-.073 1.3 1.3 0 0 0-.5 0 1.3 1.3 0 0 0-.463.192 1.3 1.3 0 0 0-.357.357 1.3 1.3 0 0 0-.192.463 1.3 1.3 0 0 0 .073.745 1.3 1.3 0 0 0 .119.223 1.3 1.3 0 0 0 .357.356 1.3 1.3 0 0 0 .715.218 1.3 1.3 0 0 0 .251-.026 1.3 1.3 0 0 0 .241-.073 1.3 1.3 0 0 0 .223-.119 1.3 1.3 0 0 0 .356-.356 1.3 1.3 0 0 0 .119-.223 1.3 1.3 0 0 0 .073-.241 1.3 1.3 0 0 0 .026-.251 1.3 1.3 0 0 0-.1-.494 1.3 1.3 0 0 0-.117-.218"/><path d="M40.346 34.161a1.29 1.29 0 0 0-1.289 1.289v2.664h-1.461a1.289 1.289 0 1 0 0 2.578h7.877a1.29 1.29 0 0 0 1.289-1.289V34.77q0-.24-.016-.476h5.94a1.29 1.29 0 0 0 1.289-1.289v-2.407a6.04 6.04 0 0 0-4.651-5.892l-2.293-.548v-.411a5.77 5.77 0 0 0 2.468-4.727v-2.982a5.765 5.765 0 0 0-9.512-4.385 7.526 7.526 0 0 0-13.949.01 5.765 5.765 0 0 0-9.524 4.374v2.982a5.77 5.77 0 0 0 2.468 4.727v.415l-2.293.548a6.04 6.04 0 0 0-4.651 5.892v2.407a1.29 1.29 0 0 0 1.289 1.289h5.919a8 8 0 0 0-.015.472v4.635a1.29 1.29 0 0 0 1.289 1.289h7.748a1.289 1.289 0 1 0 0-2.578h-1.332v-2.666a1.289 1.289 0 0 0-2.578 0v2.664h-2.549v-3.346a5.34 5.34 0 0 1 4.106-5.206l3.537-.848 2.367 5.386a1.29 1.29 0 0 0 1.18.77 1.29 1.29 0 0 0 1.18-.77l2.367-5.378 3.526.842a5.34 5.34 0 0 1 4.11 5.207v3.342h-2.549v-2.663a1.29 1.29 0 0 0-1.287-1.288m-11.432-9.108a6 6 0 0 0-1.032-.348l-2.3-.552v-.4a5.8 5.8 0 0 0 1.117-1.021 7.6 7.6 0 0 0 2.218 2.223Zm-9.822-6.032v-.614h1.8a12 12 0 0 0 4.583-.913v1.527a3.191 3.191 0 0 1-6.382 0Zm8.972-.377v-1.363h1.762a8.12 8.12 0 0 0 5.477-2.116l2.658 1.562v2.1a4.951 4.951 0 0 1-9.9-.189Zm9.027 6.413v-.087a7.6 7.6 0 0 0 2.236-2.228 5.8 5.8 0 0 0 1.108 1.01v.4l-2.3.552a6 6 0 0 0-1.044.357Zm3.449-6.037v-1.525a12 12 0 0 0 4.578.911h1.8v.614a3.191 3.191 0 1 1-6.382 0Zm3.191-6.173a3.2 3.2 0 0 1 3.184 2.981h-1.792a9.4 9.4 0 0 1-4.322-1.053 3.2 3.2 0 0 1 2.93-1.928M28.064 14.49a4.951 4.951 0 0 1 9.84-.787l-2.17-1.275a1.29 1.29 0 0 0-1.641.284 5.55 5.55 0 0 1-4.267 1.991h-1.762zm-5.781-1.643a3.2 3.2 0 0 1 2.93 1.927 9.4 9.4 0 0 1-4.322 1.053h-1.792a3.2 3.2 0 0 1 3.184-2.98m3.035 14.206a7.9 7.9 0 0 0-5.478 4.663h-5.224v-1.118a3.47 3.47 0 0 1 2.672-3.385l3.283-.784a1.29 1.29 0 0 0 .99-1.254v-.433a5.6 5.6 0 0 0 1.441 0v.426a1.29 1.29 0 0 0 1.047 1.268l1.923.461Zm7.686 3.324-1.512-3.44v-.92a7.6 7.6 0 0 0 3.02 0v.924Zm7.67-3.321-.647-.155 1.933-.463a1.29 1.29 0 0 0 1.053-1.269v-.43a5.6 5.6 0 0 0 1.441 0v.433a1.29 1.29 0 0 0 .99 1.254l3.283.784a3.47 3.47 0 0 1 2.672 3.385v1.118h-5.243a7.9 7.9 0 0 0-5.482-4.657M34.287 3.218V1.289a1.289 1.289 0 1 0-2.578 0v1.929a1.289 1.289 0 1 0 2.578 0m-7.859 2.811a1.29 1.29 0 1 0 1.822-1.824l-1.353-1.351a1.29 1.29 0 1 0-1.822 1.824Zm11.299-1.798a1.29 1.29 0 1 0 1.824 1.822l1.342-1.343a1.29 1.29 0 1 0-1.824-1.822Z"/></g></g></svg>