<svg xmlns="http://www.w3.org/2000/svg" width="120.125" height="120.125" viewBox="0 0 120.125 120.125"><defs><filter id="a" width="120.125" height="120.125" x="0" y="0" filterUnits="userSpaceOnUse"><feOffset dy="3"/><feGaussianBlur result="b" stdDeviation="3"/><feFlood flood-opacity=".161"/><feComposite in2="b" operator="in"/><feComposite in="SourceGraphic"/></filter><path id="b" fill="#ffb09e" d="M6.822 0v5.8l2.3 1.535a.58.58 0 0 0 .642 0l2.3-1.535V0Z"/></defs><g transform="translate(-2732.199 9895.167)"><g filter="url(#a)" transform="translate(2732.199 -9895.167)"><circle cx="51.062" cy="51.062" r="51.062" fill="#fff" transform="translate(9 6)"/></g><g transform="translate(2759.576 -9871.104)"><g transform="translate(.967 .997)"><g transform="translate(16.949)"><path fill="#eaf6ff" d="M29.355 15.083a13.47 13.47 0 0 1-5.212 11.171 13.77 13.77 0 0 1-9.06 2.959c-3.577 0-6.862-.292-9.447-2.373A15.083 15.083 0 0 1 24.383 3.206c3.521 2.757 4.972 7.057 4.972 11.877"/><path fill="#d8ecfe" d="M24.498 26.866a15.082 15.082 0 0 0-.115-23.659 15.1 15.1 0 0 1-6.078 23.225"/><g transform="translate(5.636 19.294)"><path fill="#8ac9fe" d="M18.178 7.556a12.9 12.9 0 0 1-8.731 2.959A14.75 14.75 0 0 1 0 7.546l.42-.265a3.5 3.5 0 0 1 .48-.216 3.5 3.5 0 0 1 .572-.171l5.349-1.093h5.253l2.332.476 2.334.6a3.4 3.4 0 0 1 1.187.491Z"/><path fill="#60b7ff" d="m17.425 6.894-3.019-.617a15 15 0 0 1-7.538 2.016c-2.119 0-5.04.042-6.869-.747a15.08 15.08 0 0 0 18.862.026l-.25-.187a3.4 3.4 0 0 0-1.186-.491"/><use href="#b"/></g><g transform="translate(6.223 3.516)"><path fill="#b98080" d="m1.534 17.405-.62-.811a2.5 2.5 0 1 1 3.971-3.034l.62.811a2.5 2.5 0 1 1-3.971 3.034m14.615 0 .62-.811a2.5 2.5 0 0 0-3.971-3.034l-.62.811a2.5 2.5 0 1 0 3.971 3.034"/><path fill="#c59191" d="M16.396 6.633c0 1.741-.222 3.4-1.522 4.6a8.9 8.9 0 0 1-6.017 2.225c-4.477 0-8.108-3.023-8.108-6.752 0-3.453 3.113-6.3 7.13-6.7.121-.012.762.3.967.3a5.6 5.6 0 0 0 .967-.293c2.99.579 6.583 3.194 6.583 6.62"/><path fill="#b98080" d="M16.965 6.705a6.15 6.15 0 0 1-2.092 4.527 5.5 5.5 0 0 1-.385-2.177c0-7.342-4.677-9.044-4.677-9.044 4.191.261 7.154 3.136 7.154 6.694"/><path fill="#ffb09e" d="M15.134 13.628H2.573A2.573 2.573 0 0 1 0 11.055v-.72a1.36 1.36 0 0 1 1.358-1.358h14.987a1.36 1.36 0 0 1 1.358 1.358v.72a2.573 2.573 0 0 1-2.569 2.573"/><path fill="#ffcebf" d="M3.099 11.075v-.922c0-3.253 3.34-5.472 5.689-5.947a.4.4 0 0 1 .138 0c2.386.477 5.689 2.643 5.689 5.947v1.175A8.03 8.03 0 0 1 9.57 18.78a1.92 1.92 0 0 1-1.426 0 8.03 8.03 0 0 1-5.045-7.452Z"/></g></g><g transform="translate(33.887 29.239)"><path fill="#eaf6ff" d="M29.355 15.083a13.47 13.47 0 0 1-5.212 11.171 13.77 13.77 0 0 1-9.06 2.959c-3.577 0-6.862-.292-9.447-2.373a15.2 15.2 0 0 1-2.434-2.466A15.084 15.084 0 0 1 24.383 3.206c3.521 2.762 4.972 7.055 4.972 11.877"/><path fill="#d8ecfe" d="M24.499 26.864a15.082 15.082 0 0 0-.116-23.659 15.1 15.1 0 0 1-4.8 22.619"/><path fill="#ffd15b" d="M20.688 17.167a8.34 8.34 0 0 1 2.2 5.646v.628l-.619 2.92H7.288v-3.548a8.34 8.34 0 0 1 2.2-5.646Z"/><path fill="#ffc344" d="M22.891 26.361v-2.92q-.468.444-.972.847a15 15 0 0 1-3.456 2.073Z"/><g transform="translate(5.636 19.294)"><path fill="#fe93bb" d="M18.178 7.557a12.9 12.9 0 0 1-8.73 2.959A14.74 14.74 0 0 1 .001 7.547l.3-.182a6 6 0 0 1 .6-.3 3.5 3.5 0 0 1 .572-.171l5.349-1.093h5.253l2.332.476 2.334.6a3.4 3.4 0 0 1 1.187.491Z"/><path fill="#fe76a8" d="m17.425 6.894-3.019-.617a15 15 0 0 1-7.538 2.016c-2.119 0-5.04.042-6.869-.747a15.08 15.08 0 0 0 18.862.026l-.25-.187a3.4 3.4 0 0 0-1.187-.491Z"/><path fill="#b98080" d="M6.822 0v5.8l2.3 1.535a.58.58 0 0 0 .642 0l2.3-1.535V0Z"/></g><g transform="translate(6.02 3.393)"><path fill="#ffe177" d="M16.758 6.78c0 1.78-.227 3.476-1.556 4.7a9.08 9.08 0 0 1-6.15 2.274c-4.576 0-8.287-3.089-8.287-6.9 0-3.53 3.182-6.441 7.287-6.852.124-.012.779.31.988.31a5.7 5.7 0 0 0 .988-.3c3.058.598 6.73 3.267 6.73 6.768"/><path fill="#ffd15b" d="M17.34 6.852a6.28 6.28 0 0 1-2.139 4.627 5.7 5.7 0 0 1-.393-2.225c0-7.5-4.781-9.243-4.781-9.243 4.285.267 7.313 3.205 7.313 6.841"/><path fill="#b98080" d="M15.463 13.927H2.63A2.63 2.63 0 0 1 0 11.297v-.736a1.387 1.387 0 0 1 1.388-1.388H16.71a1.387 1.387 0 0 1 1.387 1.388v.736a2.63 2.63 0 0 1-2.634 2.63"/><path fill="#c59191" d="M3.168 11.32v-.943c0-3.325 3.414-5.593 5.814-6.078a.4.4 0 0 1 .141 0c2.439.488 5.814 2.7 5.814 6.078v1.2a8.2 8.2 0 0 1-5.156 7.616 1.96 1.96 0 0 1-1.457 0 8.2 8.2 0 0 1-5.156-7.616v-.258Z"/></g></g><g transform="translate(0 29.239)"><path fill="#eaf6ff" d="M29.356 15.083a13.47 13.47 0 0 1-5.212 11.171 13.77 13.77 0 0 1-9.06 2.959c-3.577 0-6.862-.292-9.447-2.373a15.2 15.2 0 0 1-2.434-2.466 15.084 15.084 0 0 1 21.18-21.168c3.517 2.762 4.973 7.055 4.973 11.877"/><path fill="#d8ecfe" d="M24.498 26.864a15.082 15.082 0 0 0-.115-23.659 15.1 15.1 0 0 1-6.238 23.291"/><g transform="translate(5.636 3.213)"><g transform="translate(0 16.081)"><path fill="#d9b1ee" d="M18.18 7.556a12.9 12.9 0 0 1-8.731 2.959A14.74 14.74 0 0 1 .002 7.546l.4-.238a4 4 0 0 1 .5-.243 3.5 3.5 0 0 1 .572-.171l5.349-1.093h5.253l2.332.476 2.334.6a3.4 3.4 0 0 1 1.187.491Z"/><path fill="#cb97e7" d="m17.425 6.894-3.019-.617a15 15 0 0 1-7.538 2.016c-2.119 0-5.04.042-6.869-.747a15.08 15.08 0 0 0 18.862.026l-.25-.187a3.4 3.4 0 0 0-1.187-.491Z"/><use href="#b"/></g><path fill="#918291" d="m16.947 10.349-.391 1.022H1.847l-.383-1.022A8.14 8.14 0 0 1 7.128.311a9 9 0 0 1 3.279-.256 7.4 7.4 0 0 1 1.246.419c4.455 1.2 6.467 5.659 5.294 9.875"/><path fill="#7a6d79" d="m17.433 10.349-.391 1.022h-3l.892-3.226c0-5.067-4.528-8.094-4.528-8.094a8.4 8.4 0 0 1 1.363.256 8.14 8.14 0 0 1 5.664 10.042"/><path fill="#ffb09e" d="M8.786 10.349h7.939a1.15 1.15 0 0 1 1.154 1.151v.711a2.266 2.266 0 0 1-2.266 2.266H3.287a2.266 2.266 0 0 1-2.266-2.266V11.5a1.15 1.15 0 0 1 1.151-1.151Z"/><path fill="#ffcebf" d="m12.944 17.411-1.336 1.041a3.515 3.515 0 0 1-4.32 0l-1.336-1.041a5.16 5.16 0 0 1-1.989-4.072V10.35a1.76 1.76 0 0 1 1.868-1.756l1.837.114a5.67 5.67 0 0 0 3.3-.819l1.678-1.025a1.5 1.5 0 0 1 2.285 1.282v5.193a5.16 5.16 0 0 1-1.987 4.072"/></g></g></g><path d="M31.037 19.862a3.95 3.95 0 0 0 3.894 0 .967.967 0 0 0-.958-1.679 2 2 0 0 1-1.978 0 .967.967 0 0 0-.958 1.679"/><path d="M65.006 46.619a.966.966 0 0 0-1.1.813 14.1 14.1 0 0 1-4.814 8.639q-.187-.09-.381-.162v-2.86a9.3 9.3 0 0 0-1.279-4.706 3.58 3.58 0 0 0 2.558-3.427v-.671a2.34 2.34 0 0 0-1.029-1.938 6.8 6.8 0 0 0 .247-1.815c0-4.344-4.156-7.878-9.265-7.878s-9.265 3.534-9.265 7.878a6.8 6.8 0 0 0 .246 1.807 2.34 2.34 0 0 0-1.04 1.946v.671a3.58 3.58 0 0 0 2.568 3.43 9.3 9.3 0 0 0-1.277 4.7v2.859q-.187.07-.369.158a14.113 14.113 0 1 1 23.1-12.859.967.967 0 0 0 1.912-.287A16.05 16.05 0 0 0 54.95 30.068a22.4 22.4 0 0 0-.95-3.062.967.967 0 0 0-1.8.7c.232.6.437 1.2.612 1.818a16.042 16.042 0 0 0-15.4 25.8 20.7 20.7 0 0 1-8.822 0 16.045 16.045 0 0 0-15.4-25.8 20.5 20.5 0 0 1 4.622-8.248 16.051 16.051 0 0 0 30.359-.026 21 21 0 0 1 2.054 2.628.967.967 0 0 0 1.615-1.063 22.6 22.6 0 0 0-3.09-3.743A16.05 16.05 0 0 0 21.539 4.797a.967.967 0 1 0 1.379 1.355 14.113 14.113 0 1 1 19.616 20.283 4.4 4.4 0 0 0-1.277-.478l-4.647-.95v-1.572a3.4 3.4 0 0 0 1.665.432 4 4 0 0 0 .466-.031 3.44 3.44 0 0 0 2.291-1.329l.618-.81a3.46 3.46 0 0 0 .262-3.8 3.5 3.5 0 0 0 .9-2.34v-.66a2.31 2.31 0 0 0-1-1.9 6.7 6.7 0 0 0 .237-1.756c0-4.25-4.065-7.709-9.062-7.709s-9.062 3.458-9.062 7.709a6.7 6.7 0 0 0 .235 1.749 2.31 2.31 0 0 0-1.013 1.907v.662a3.5 3.5 0 0 0 .884 2.327 3.46 3.46 0 0 0 .254 3.811l.619.81a3.44 3.44 0 0 0 2.296 1.329 4 4 0 0 0 .466.031 3.4 3.4 0 0 0 1.694-.45v1.59l-4.646.949a4.4 4.4 0 0 0-1.277.478 14.11 14.11 0 0 1-3-16.86.967.967 0 1 0-1.718-.888 16.07 16.07 0 0 0-1.494 10.411 22.43 22.43 0 0 0-6.177 10.97A16 16 0 0 0 7.7 31.609a.967.967 0 1 0 1.007 1.65 14.113 14.113 0 0 1 16.682 22.638 4.3 4.3 0 0 0-1.167-.419l-4.578-.935v-2.5l.5-.392a6.1 6.1 0 0 0 1.971-2.673h.285a3.307 3.307 0 0 0 3.3-3.3v-.733a2.14 2.14 0 0 0-.585-1.471 9.27 9.27 0 0 0-1.015-6.415 8.94 8.94 0 0 0-5.467-4.236 9.94 9.94 0 0 0-5.16 0A8.94 8.94 0 0 0 8 37.059a9.27 9.27 0 0 0-1.02 6.408 2.14 2.14 0 0 0-.585 1.471v.733a3.307 3.307 0 0 0 3.3 3.3h.286a6.1 6.1 0 0 0 1.972 2.673l.5.391v2.5l-4.576.935a4.3 4.3 0 0 0-1.166.422 14.1 14.1 0 0 1-1.243-19.915.967.967 0 1 0-1.449-1.28A16.045 16.045 0 0 0 27.1 56.951a22.6 22.6 0 0 0 11.8 0 16.045 16.045 0 0 0 26.918-9.233.967.967 0 0 0-.813-1.1Zm-32.024-36.9c1.993.447 4.783 2.269 4.783 4.964v1.173a7.01 7.01 0 0 1-4.429 6.541.95.95 0 0 1-.705 0 7.01 7.01 0 0 1-4.431-6.543V14.68c0-1.671 1.66-4.288 4.78-4.964Zm7.515 4.8a.38.38 0 0 1 .378.378v.662a1.584 1.584 0 0 1-1.263 1.549 9 9 0 0 0 .087-1.251c0-.107 0-1.265-.005-1.337h.8Zm-9.208 10.778v-1.383q.3.149.624.277a2.87 2.87 0 0 0 2.141 0q.318-.127.622-.276v1.382l-1.694 1.212Zm8.825-4.777-.619.81a1.525 1.525 0 0 1-1.975.4 8.9 8.9 0 0 0 1.589-2.658h.185a3.5 3.5 0 0 0 .982-.141 1.53 1.53 0 0 1-.162 1.593Zm0-9.286a4.7 4.7 0 0 1-.2 1.346h-.608a8.4 8.4 0 0 0-5.357-4.609V5.517c3.475.384 6.162 2.8 6.162 5.72Zm-8.1-5.72v2.462a8.6 8.6 0 0 0-5.343 4.6h-.622a4.7 4.7 0 0 1-.2-1.346c.006-2.912 2.693-5.333 6.168-5.713ZM25.08 15.556v-.659a.38.38 0 0 1 .378-.378h.815c-.009.068 0 1.235-.005 1.337a9 9 0 0 0 .088 1.253 1.58 1.58 0 0 1-1.276-1.553m2.371 6.364a1.52 1.52 0 0 1-1.011-.587l-.619-.81a1.53 1.53 0 0 1-.159-1.6 3.5 3.5 0 0 0 1 .145h.2a8.9 8.9 0 0 0 1.579 2.646 1.5 1.5 0 0 1-.985.2Zm2.649 4.909 2.317 1.659a.97.97 0 0 0 1.125 0l2.317-1.659 4.892 1a14.09 14.09 0 0 1-15.543 0ZM14.391 54.813v-1.494a4.47 4.47 0 0 0 3.319 0v1.494l-1.66 1.105Zm9.383-9.142a1.37 1.37 0 0 1-1.269 1.365c0-.076.006-.152.006-.229v-2.088h1.043a.22.22 0 0 1 .22.22Zm-15.446 0v-.733a.22.22 0 0 1 .22-.22h1.043v2.089q-.002.115.006.229a1.37 1.37 0 0 1-1.269-1.365m2.122-3.846a2.7 2.7 0 0 0-.657.96h-.974a7.33 7.33 0 0 1 .862-4.769 7.03 7.03 0 0 1 4.3-3.33 8.1 8.1 0 0 1 4.138 0 7.02 7.02 0 0 1 4.3 3.328 7.33 7.33 0 0 1 .862 4.769h-.772v-1.18a2.471 2.471 0 0 0-3.757-2.106l-1.681 1.026a4.7 4.7 0 0 1-2.744.681l-1.84-.114a2.74 2.74 0 0 0-2.038.735Zm1.074 4.982v-2.994a.8.8 0 0 1 .794-.8h.051l1.84.114a6.6 6.6 0 0 0 3.871-.961l1.681-1.026a.538.538 0 0 1 .818.459v5.2a4.18 4.18 0 0 1-1.62 3.315l-1.339 1.05a2.55 2.55 0 0 1-3.139 0l-1.338-1.042a4.18 4.18 0 0 1-1.62-3.315ZM8.6 57.304l4.624-.945 2.291 1.526a.97.97 0 0 0 1.072 0l2.291-1.526 4.624.945a14.09 14.09 0 0 1-14.9 0Zm36.417-12.08v-1.2c0-2.655 2.8-4.634 4.927-5.113 2.051.459 4.925 2.335 4.925 5.113v1.2a7.3 7.3 0 0 1-.272 1.978 7.2 7.2 0 0 1-4.283 4.75 1 1 0 0 1-.741 0 7.2 7.2 0 0 1-4.284-4.755 7.3 7.3 0 0 1-.272-1.977Zm1.345 7.037v2.536l-3.254.665v-2.413a7.35 7.35 0 0 1 .97-3.654 9.1 9.1 0 0 0 2.284 2.867Zm1.938 2.784v-1.548q.274.131.559.246a2.92 2.92 0 0 0 2.177 0q.284-.115.557-.246v1.542l-1.647 1.015Zm5.227-2.782a9.1 9.1 0 0 0 2.281-2.866 7.35 7.35 0 0 1 .97 3.654v2.412l-3.256-.666v-2.534Zm4.534-7.347a1.644 1.644 0 0 1-1.347 1.614 9 9 0 0 0 .093-1.306v-1.2q.001-.094-.006-.186h.85a.41.41 0 0 1 .41.41Zm-.782-4.425a4.9 4.9 0 0 1-.21 1.41h-.653a8.59 8.59 0 0 0-5.5-4.736v-2.568c3.587.385 6.365 2.879 6.365 5.891Zm-8.3-5.891v2.568a8.8 8.8 0 0 0-5.49 4.729h-.667a4.9 4.9 0 0 1-.21-1.41c-.001-3.007 2.777-5.501 6.364-5.89Zm-7.161 10.317v-.671a.41.41 0 0 1 .41-.41h.862c0 .062-.006.123-.006.186v1.2a9 9 0 0 0 .093 1.308 1.64 1.64 0 0 1-1.359-1.616Zm.994 12.58 4.335-.886 2.288 1.41a.97.97 0 0 0 1.014 0l2.288-1.41 4.349.889a14.1 14.1 0 0 1-14.274 0Z"/><path d="M47.96 49.313a4.02 4.02 0 0 0 3.967 0 .967.967 0 1 0-.958-1.68 2.08 2.08 0 0 1-2.051 0 .967.967 0 0 0-.958 1.68m-33.747-.063a3.72 3.72 0 0 0 3.675 0 .967.967 0 0 0-.958-1.679 1.78 1.78 0 0 1-1.759 0 .967.967 0 0 0-.958 1.679"/></g></g></svg>