<svg xmlns="http://www.w3.org/2000/svg" width="112.113" height="112.788" viewBox="0 0 112.113 112.788"><g transform="translate(6319 2607.923)"><ellipse cx="56.056" cy="56.394" fill="#fff" rx="56.056" ry="56.394" transform="translate(-6319 -2607.923)"/><path fill="#fff" d="M-6262.944-2604.923a52.7 52.7 0 0 0-37.51 15.632 53.567 53.567 0 0 0 0 75.523 53.089 53.089 0 0 0 90.567-37.762 53.41 53.41 0 0 0-32.413-49.201 52.4 52.4 0 0 0-20.644-4.192m0-3a56.4 56.4 0 1 1-56.056 56.394 56.226 56.226 0 0 1 56.056-56.394"/><g transform="translate(-6293 -2581)"><circle cx="3" cy="3" r="3" fill="#fcc369" transform="translate(27 46)"/><circle cx="3" cy="3" r="3" fill="#58d6d3" transform="translate(27 33)"/><circle cx="3" cy="3" r="3" fill="#f86b7f" transform="translate(27 20)"/><circle cx="3" cy="3" r="3" fill="#387ed3" transform="translate(27 7)"/><path fill="#387ed3" d="M57 18H40.908a2 2 0 0 1-1.506-.683L33 10l6.4-7.317A2 2 0 0 1 40.908 2H57a2 2 0 0 1 2 2v12a2 2 0 0 1-2 2"/><path fill="#58d6d3" d="M57 44H40.908a2 2 0 0 1-1.506-.683L33 36l6.4-7.317A2 2 0 0 1 40.908 28H57a2 2 0 0 1 2 2v12a2 2 0 0 1-2 2"/><path fill="#f86b7f" d="M3 31h16.092a2 2 0 0 0 1.506-.683L27 23l-6.4-7.317A2 2 0 0 0 19.092 15H3a2 2 0 0 0-2 2v12a2 2 0 0 0 2 2"/><path fill="#fcc369" d="M3 57h16.092a2 2 0 0 0 1.506-.683L27 49l-6.4-7.317A2 2 0 0 0 19.092 41H3a2 2 0 0 0-2 2v12a2 2 0 0 0 2 2"/><path fill="#373737" d="M57 1H40.907a3 3 0 0 0-2.258 1.025l-5.214 5.959A4 4 0 0 0 31 6.142V1a1 1 0 0 0-2 0v5.142a3.981 3.981 0 0 0 0 7.716v5.284a4 4 0 0 0-2.435 1.842l-5.215-5.961A3 3 0 0 0 19.092 14H3a3 3 0 0 0-3 3v12a3 3 0 0 0 3 3h16.092a3 3 0 0 0 2.258-1.025l5.215-5.959A4 4 0 0 0 29 26.858v5.284A4 4 0 0 0 26 36a1 1 0 0 0 2 0 2 2 0 1 1 2 2 1 1 0 0 0-1 1v6.142a4 4 0 0 0-2.435 1.842l-5.215-5.961A3 3 0 0 0 19.092 40H3a3 3 0 0 0-3 3v12a3 3 0 0 0 3 3h16.092a3 3 0 0 0 2.258-1.025l5.215-5.959A4 4 0 0 0 29 52.858V59a1 1 0 0 0 2 0v-6.142a3.981 3.981 0 0 0 0-7.716v-5.284a4 4 0 0 0 2.435-1.842l5.215 5.961A3 3 0 0 0 40.907 45H57a3 3 0 0 0 3-3V30a3 3 0 0 0-3-3H40.907a3 3 0 0 0-2.258 1.025l-5.214 5.959A4 4 0 0 0 31 32.142v-5.284a3.981 3.981 0 0 0 0-7.716v-5.284a4 4 0 0 0 2.435-1.842l5.215 5.961A3 3 0 0 0 40.907 19H57a3 3 0 0 0 3-3V4a3 3 0 0 0-3-3M19.846 55.658a1 1 0 0 1-.754.342H3a1 1 0 0 1-1-1V43a1 1 0 0 1 1-1h16.092a1 1 0 0 1 .753.341L25.671 49ZM32 49a2 2 0 1 1-2-2 2 2 0 0 1 2 2m8.154-19.658a1 1 0 0 1 .753-.342H57a1 1 0 0 1 1 1v12a1 1 0 0 1-1 1H40.907a1 1 0 0 1-.752-.341L34.329 36Zm-20.308.316a1 1 0 0 1-.754.342H3a1 1 0 0 1-1-1V17a1 1 0 0 1 1-1h16.092a1 1 0 0 1 .753.341L25.671 23ZM32 23a2 2 0 1 1-2-2 2 2 0 0 1 2 2m-2-11a2 2 0 1 1 2-2 2 2 0 0 1-2 2m28 4a1 1 0 0 1-1 1H40.907a1 1 0 0 1-.752-.341L34.329 10l5.825-6.658A1 1 0 0 1 40.907 3H57a1 1 0 0 1 1 1Z"/><path fill="#373737" d="M42 9h1a1 1 0 0 0 0-2h-1a1 1 0 0 0 0 2m13-2h-8a1 1 0 0 0 0 2h8a1 1 0 0 0 0-2m-5 4h-8a1 1 0 0 0 0 2h8a1 1 0 0 0 0-2m-8 24h1a1 1 0 0 0 0-2h-1a1 1 0 0 0 0 2m5 0h8a1 1 0 0 0 0-2h-8a1 1 0 0 0 0 2m-5 4h8a1 1 0 0 0 0-2h-8a1 1 0 0 0 0 2M5 22h1a1 1 0 0 0 0-2H5a1 1 0 0 0 0 2m13-2h-8a1 1 0 0 0 0 2h8a1 1 0 0 0 0-2m-5 4H5a1 1 0 0 0 0 2h8a1 1 0 0 0 0-2M5 48h1a1 1 0 0 0 0-2H5a1 1 0 0 0 0 2m13-2h-8a1 1 0 0 0 0 2h8a1 1 0 0 0 0-2m-5 4H5a1 1 0 0 0 0 2h8a1 1 0 0 0 0-2"/></g></g></svg>