<svg xmlns="http://www.w3.org/2000/svg" width="112.113" height="112.788" viewBox="0 0 112.113 112.788"><g transform="translate(9275.732 -4630)"><ellipse cx="56.056" cy="56.394" fill="#fff" rx="56.056" ry="56.394" transform="translate(-9275.732 4630)"/><path fill="#fff" d="M-9219.676 4633a52.7 52.7 0 0 0-37.51 15.632 53.567 53.567 0 0 0 0 75.523 53.089 53.089 0 0 0 90.567-37.762 53.41 53.41 0 0 0-32.413-49.201 52.4 52.4 0 0 0-20.644-4.192m0-3a56.4 56.4 0 1 1-56.056 56.394 56.226 56.226 0 0 1 56.056-56.394"/><g transform="translate(-9254.856 4651.064)"><path fill="#9ce6ed" d="M55.89 26.832a25.71 25.71 0 0 1-51.419 0q0-1.13.1-2.236a25.71 25.71 0 0 1 51.319 2.236"/><path fill="#02c26a" d="M55.89 26.827a25.69 25.69 0 0 1-12.215 21.886l-5.67-6.237v-8.942h-4.471l-4.471-6.707 4.471-3.353h5.589l3.353-4.471-2.236-5.589 6.993-5.827a25.65 25.65 0 0 1 8.656 19.24Z"/><path fill="#4367e0" d="M39.123 53.654h8.942v11.178h-8.942z"/><path fill="#4976f2" d="M48.065 44.712h8.942v20.12h-8.942z"/><path fill="#548aff" d="M57.008 33.534h8.942v31.298h-8.942z"/><path fill="#02c26a" d="m40.375 3.219-7.959 7.959v6.707l-6.707 4.471-4.471-4.471h-5.589v-4.472l-5.171-3.1a25.73 25.73 0 0 1 29.9-7.091ZM26.827 34.652l-4.471 3.353v13.319A25.72 25.72 0 0 1 4.471 26.828q0-1.13.1-2.236h6.61l3.353 4.471h8.937Z"/><path fill="#ffc431" d="M12.296 35.77c0-1.235-2.5-2.236-5.589-2.236s-5.589 1-5.589 2.236v27.945c0 1.235 2.5 2.236 5.589 2.236s5.589-1 5.589-2.236Z"/><ellipse cx="5.589" cy="2.236" fill="#ffd873" rx="5.589" ry="2.236" transform="translate(1.118 33.534)"/><path fill="#ffc431" d="M23.474 46.948c0-1.235-2.5-2.236-5.589-2.236s-5.589 1-5.589 2.236v16.764c0 1.235 2.5 2.236 5.589 2.236s5.589-1 5.589-2.236Z"/><ellipse cx="5.589" cy="2.236" fill="#ffd873" rx="5.589" ry="2.236" transform="translate(12.296 44.712)"/><path fill="#ffc431" d="M34.652 52.537c0-1.235-2.5-2.236-5.589-2.236s-5.589 1-5.589 2.236v11.178c0 1.235 2.5 2.236 5.589 2.236s5.589-1 5.589-2.236Z"/><ellipse cx="5.589" cy="2.236" fill="#ffd873" rx="5.589" ry="2.236" transform="translate(23.474 50.301)"/><path d="M65.95 32.416h-8.942a1.12 1.12 0 0 0-1.118 1.118v10.06h-7.825a1.12 1.12 0 0 0-1.118 1.118v7.825h-7.824a1.12 1.12 0 0 0-1.118 1.118v10.061H35.77v-11.18c0-.628-.3-1.8-2.34-2.619a13.35 13.35 0 0 0-8.734 0l-.1.043v-3.014c0-.628-.3-1.8-2.34-2.619a12.1 12.1 0 0 0-4.367-.735 12.1 12.1 0 0 0-4.367.735l-.1.043v-8.6c0-.628-.3-1.8-2.34-2.619a12.1 12.1 0 0 0-4.375-.735 12.1 12.1 0 0 0-4.367.735C.304 33.965 0 35.141 0 35.77v27.946c0 .628.3 1.8 2.34 2.619a12.1 12.1 0 0 0 4.367.735 12.1 12.1 0 0 0 4.367-.735 5.4 5.4 0 0 0 1.222-.662 5.4 5.4 0 0 0 1.222.662 12.1 12.1 0 0 0 4.367.735 12.1 12.1 0 0 0 4.367-.735 5.4 5.4 0 0 0 1.222-.662 5.4 5.4 0 0 0 1.222.662 13.35 13.35 0 0 0 8.734 0 6 6 0 0 0 .795-.383H65.95a1.12 1.12 0 0 0 1.118-1.118v-31.3a1.12 1.12 0 0 0-1.118-1.118m-63.714 22.7.1.043a12.1 12.1 0 0 0 4.367.735 12.1 12.1 0 0 0 4.367-.735l.1-.043v2.971c-.194.346-1.741 1.16-4.471 1.16s-4.277-.814-4.471-1.16Zm0-5.589.1.043a12.1 12.1 0 0 0 4.367.735 12.1 12.1 0 0 0 4.367-.735l.1-.043v2.971c-.194.346-1.741 1.16-4.471 1.16s-4.277-.814-4.471-1.16Zm0-5.589.1.043a12.1 12.1 0 0 0 4.367.735 12.1 12.1 0 0 0 4.367-.735l.1-.043v2.971c-.194.346-1.741 1.16-4.471 1.16s-4.277-.814-4.471-1.16Zm0-5.589.1.043a12.1 12.1 0 0 0 4.367.735 12.1 12.1 0 0 0 4.367-.735l.1-.043v2.967c-.194.346-1.741 1.16-4.471 1.16s-4.277-.814-4.471-1.16Zm15.649 15.31c-2.73 0-4.277-.814-4.471-1.16v-2.971l.1.043a12.1 12.1 0 0 0 4.367.735 12.1 12.1 0 0 0 4.367-.735l.1-.043v2.971c-.186.341-1.733 1.155-4.463 1.155Zm-4.471 1.457.1.043a12.1 12.1 0 0 0 4.367.735 12.1 12.1 0 0 0 4.367-.735l.1-.043v2.971c-.194.346-1.741 1.16-4.471 1.16s-4.277-.814-4.471-1.16Zm11.178 0 .1.043a13.35 13.35 0 0 0 8.734 0l.1-.043v2.971c-.194.346-1.741 1.16-4.471 1.16s-4.277-.814-4.471-1.16Zm4.471-3.7c2.63 0 4.159.755 4.442 1.119-.291.366-1.821 1.116-4.442 1.116s-4.151-.75-4.442-1.116c.279-.362 1.811-1.119 4.442-1.119m-11.178-5.589c2.63 0 4.159.755 4.442 1.119-.291.366-1.821 1.116-4.442 1.116s-4.155-.752-4.443-1.118c.287-.362 1.818-1.114 4.443-1.114ZM6.707 34.652c2.63 0 4.159.755 4.442 1.119-.291.366-1.821 1.116-4.442 1.116s-4.151-.75-4.442-1.116c.283-.365 1.811-1.119 4.442-1.119m0 30.181c-2.726 0-4.273-.811-4.471-1.159v-2.973l.1.043a12.1 12.1 0 0 0 4.367.735 12.1 12.1 0 0 0 4.367-.735l.1-.043v2.973c-.191.342-1.738 1.158-4.463 1.158Zm11.178 0c-2.73 0-4.277-.814-4.471-1.16v-2.971l.1.043a12.1 12.1 0 0 0 4.367.735 12.1 12.1 0 0 0 4.367-.735l.1-.043v2.973c-.191.341-1.738 1.157-4.463 1.157Zm11.178 0c-2.726 0-4.273-.811-4.471-1.159v-2.973l.1.043a13.35 13.35 0 0 0 8.734 0l.1-.043v2.973c-.191.342-1.738 1.158-4.463 1.158Zm11.178-10.06h6.707v8.943h-6.707Zm8.942-8.942h6.707v17.885h-6.707Zm8.942 17.885V34.652h6.707v29.064Z"/><path d="M29.063 44.712h2.236v2.236h-2.236zm4.471 0v2.236h5.589a1.12 1.12 0 0 0 .79-.327l22.683-22.683v1.773h2.238V21.24a1.12 1.12 0 0 0-1.119-1.12h-4.471v2.236h1.773L38.661 44.712Z"/><path d="M48.362 7.1A26.827 26.827 0 0 0 3.353 26.827a27 27 0 0 0 .226 3.5l2.217-.288a25 25 0 0 1-.207-3.209q.001-.562.026-1.118h5l3.018 4.024a1.12 1.12 0 0 0 .894.447h8.31l2.516 4.179-3.665 2.749a1.12 1.12 0 0 0-.447.894v3.353h2.232v-2.794l4.024-3.018a1.12 1.12 0 0 0 .288-1.469l-3.353-5.589a1.12 1.12 0 0 0-.958-.543H15.09l-3.018-4.024a1.12 1.12 0 0 0-.894-.447h-5.36a24.5 24.5 0 0 1 4.928-11.7l3.784 2.271v3.838A1.12 1.12 0 0 0 15.653 19h5.126l4.144 4.144a1.12 1.12 0 0 0 1.41.14l6.707-4.471a1.12 1.12 0 0 0 .5-.93v-6.242l7.085-7.085a24.5 24.5 0 0 1 4.873 3.027l-5.967 4.972a1.12 1.12 0 0 0-.322 1.274l2 5.006-2.641 3.521h-5.03a1.1 1.1 0 0 0-.671.223l-4.471 3.353a1.12 1.12 0 0 0-.259 1.514l4.471 6.707a1.12 1.12 0 0 0 .93.5h3.353v6.707h2.232v-7.826a1.12 1.12 0 0 0-1.118-1.118h-3.873l-3.553-5.329 3.327-2.5h5.217a1.12 1.12 0 0 0 .894-.447l3.353-4.471a1.12 1.12 0 0 0 .144-1.086l-1.934-4.835 5.615-4.679a24.5 24.5 0 0 1 7.485 15.614l2.227-.192A26.74 26.74 0 0 0 48.362 7.1m-16.737 3.287a1.12 1.12 0 0 0-.327.79v6.109l-5.445 3.632-3.823-3.823a1.12 1.12 0 0 0-.79-.327h-4.473v-3.355a1.12 1.12 0 0 0-.543-.959l-4.007-2.4A24.58 24.58 0 0 1 38.375 3.64Z"/></g></g></svg>