<svg xmlns="http://www.w3.org/2000/svg" width="112.113" height="112.788" viewBox="0 0 112.113 112.788"><g transform="translate(9098.299 -4475)"><ellipse cx="56.056" cy="56.394" fill="#fff" rx="56.056" ry="56.394" transform="translate(-9098.299 4475)"/><path fill="#fff" d="M-9042.243 4478a52.7 52.7 0 0 0-37.51 15.632 53.567 53.567 0 0 0 0 75.523 53.089 53.089 0 0 0 90.567-37.762 53.41 53.41 0 0 0-32.413-49.201 52.4 52.4 0 0 0-20.644-4.192m0-3a56.4 56.4 0 1 1-56.056 56.394 56.226 56.226 0 0 1 56.056-56.394"/><g transform="translate(-9074.242 4499.396)"><path fill="#ffa0af" d="M32 16v4a34.04 34.04 0 0 1 16 28.868V50a12 12 0 0 1-12 12H14A12 12 0 0 1 2 50v-1.132A34.04 34.04 0 0 1 18 20v-4Z"/><path fill="#ffb8c7" d="M32 20v-4H18v4A34.04 34.04 0 0 0 3.72 38.186a26.99 26.99 0 0 0 44.033 14.147A12 12 0 0 0 48 50v-1.132A34.04 34.04 0 0 0 32 20"/><path fill="#ffa0af" d="m32 16 7-14-8 3-.437-.655A5.27 5.27 0 0 0 26.181 2h-.025a5.2 5.2 0 0 0-3.681 1.525A5.04 5.04 0 0 1 18.913 5a5 5 0 0 1-1.767-.321L10 2l8 14Z"/><path fill="#ee61a0" d="M25 39a3 3 0 1 1 3-3h4a7 7 0 0 0-5-6.706V25h-4v4.294A7 7 0 0 0 25 43a3 3 0 1 1-3 3h-4a7 7 0 0 0 5 6.706V57h4v-4.294A7 7 0 0 0 25 39"/><rect width="12" height="4" fill="#f5b347" rx="2" transform="translate(2 58)"/><rect width="12" height="4" fill="#f5b347" rx="2" transform="translate(3 54)"/><rect width="12" height="4" fill="#f5b347" rx="2" transform="translate(2 50)"/><path fill="#ff919c" d="M30.563 4.345A5.27 5.27 0 0 0 26.181 2h-.025a5.2 5.2 0 0 0-3.681 1.525 5 5 0 0 1-1.009.758V4.3L22 16h6l3-11Z"/><path fill="#ffc05f" d="M12 58H4a2 2 0 0 0-1.723 1A2 2 0 0 0 4 60h8a2 2 0 0 0 1.723-1A2 2 0 0 0 12 58m1-4H5a2 2 0 0 0-1.723 1A2 2 0 0 0 5 56h8a2 2 0 0 0 1.723-1A2 2 0 0 0 13 54m-1-4H4a2 2 0 0 0-1.723 1A2 2 0 0 0 4 52h8a2 2 0 0 0 1.723-1A2 2 0 0 0 12 50"/><path fill="#f68088" d="M18 16h14v4H18Z"/><path fill="#384282" d="M36 30h26v32H36Z"/><path fill="#3c4f9d" d="M36 30v28.916A26 26 0 0 0 60 33v-3Z"/><path fill="#ffbbea" d="M40 34h18v24H40Z"/><path fill="#40e9ee" d="M40 34h18v6H40Z"/><path fill="#ee61a0" d="M41 41h4v4h-4Zm6 0h4v4h-4Zm6 0h4v4h-4Zm-12 6h4v4h-4Zm6 0h4v4h-4Zm6 0h4v10h-4Zm-12 6h4v4h-4Zm6 0h4v4h-4Z"/><path fill="#68fbfa" d="M56 34H40v6h10a6 6 0 0 0 6-6"/><path d="M25 34a2 2 0 0 1 2 2 1 1 0 0 0 1 1h4a1 1 0 0 0 1-1 8.01 8.01 0 0 0-5-7.411V25a1 1 0 0 0-1-1h-4a1 1 0 0 0-1 1v3.589A8 8 0 0 0 25 44a2 2 0 1 1-2 2 1 1 0 0 0-1-1h-4a1 1 0 0 0-1 1 8.01 8.01 0 0 0 5 7.411V57a1 1 0 0 0 1 1h4a1 1 0 0 0 1-1v-3.589A8 8 0 0 0 25 38a2 2 0 0 1 0-4m-1-8h2v2.069a7.3 7.3 0 0 0-2 0Zm2 30h-2v-2.069a7.3 7.3 0 0 0 2 0Zm-1-16a6 6 0 1 1-5.917 7h2.044A4 4 0 1 0 25 42a6 6 0 1 1 5.917-7h-2.044A4 4 0 1 0 25 40m15 19h18a1 1 0 0 0 1-1V34a1 1 0 0 0-1-1H40a1 1 0 0 0-1 1v24a1 1 0 0 0 1 1m1-6h4v4h-4Zm16-12v4h-4v-4Zm-6 4h-4v-4h4Zm0 12h-4v-4h4Zm0-6h-4v-4h4Zm-6-6h-4v-4h4Zm0 2v4h-4v-4Zm8 10V47h4v10Zm4-22v4H41v-4Z"/><path d="M62 29H42.812A34.8 34.8 0 0 0 33 19.451v-3.215l6.9-13.789a1 1 0 0 0-1.247-1.384l-7.261 2.722A6.27 6.27 0 0 0 26.156 1a6.16 6.16 0 0 0-4.387 1.817 4.08 4.08 0 0 1-4.273.926l-7.144-2.68A1 1 0 0 0 9.132 2.5L17 16.265v3.186A34.84 34.84 0 0 0 1 48.868V50a13 13 0 0 0 .08 1.337A3 3 0 0 0 1 52a3 3 0 0 0 1.4 2.529 2.9 2.9 0 0 0 0 2.942A2.994 2.994 0 0 0 4 63h8a3 3 0 0 0 .662-.079A13 13 0 0 0 14 63h48a1 1 0 0 0 1-1V30a1 1 0 0 0-1-1M31 19H19v-2h12Zm.382-4h-2.073l2.521-9.243 5.137-1.926Zm-5.2-12a4.26 4.26 0 0 1 3.549 1.9l.184.276L27.236 15h-4.28l-.463-10.182a6 6 0 0 0 .69-.587 4.2 4.2 0 0 1 3-1.231Zm-9.389 2.615a6.04 6.04 0 0 0 3.74.136l.42 9.249H18.58L12.242 3.909ZM4 56a1 1 0 0 1 1-1h8a1 1 0 1 1 0 2H5a1 1 0 0 1-1-1m8-3H4a1 1 0 1 1 0-2h8a1 1 0 1 1 0 2m-8 8a1 1 0 1 1 0-2h8a1 1 0 1 1 0 2Zm31-31v31H14.816a2.86 2.86 0 0 0-.217-2.471 2.983 2.983 0 0 0 0-5.058A2.97 2.97 0 0 0 15 52a3 3 0 0 0-3-3H4a3 3 0 0 0-1 .184v-.316A32.85 32.85 0 0 1 18.3 21h13.4a32.8 32.8 0 0 1 8.658 8H36a1 1 0 0 0-1 1m26 31H37V31h24Z"/></g></g></svg>