<svg xmlns="http://www.w3.org/2000/svg" width="112.051" height="113.157" viewBox="0 0 112.051 113.157"><defs><filter id="a" width="112.051" height="113.157" x="0" y="0" filterUnits="userSpaceOnUse"><feOffset dy="3"/><feGaussianBlur result="b" stdDeviation="3"/><feFlood flood-opacity=".161"/><feComposite in2="b" operator="in"/><feComposite in="SourceGraphic"/></filter></defs><g transform="translate(9 6)"><g filter="url(#a)" transform="translate(-9 -6)"><ellipse cx="47.025" cy="47.579" fill="#fff" rx="47.025" ry="47.579" transform="translate(9 6)"/></g><g transform="translate(17.949 21.18)"><g transform="translate(1.183 1.075)"><path fill="#fce8d0" d="M17.2 15.053V4.301a2.15 2.15 0 1 0-4.3 0v-2.15a2.15 2.15 0 0 0-4.3 0v2.15a2.15 2.15 0 0 0-4.3 0v2.15a2.15 2.15 0 0 0-4.3 0v11.591a16.1 16.1 0 0 0 2.15 7.759v9.9h12.9v-9.9a7.77 7.77 0 0 0 4.3-6.967v-3.781Zm34.153 13.251-.6-1.2v-9.9H37.847v9.892a7.77 7.77 0 0 0-4.3 6.967v3.785h2.15v10.756a2.15 2.15 0 1 0 4.3 0v2.15a2.15 2.15 0 1 0 4.3 0v-2.15a2.15 2.15 0 0 0 4.3 0v-2.15a2.15 2.15 0 1 0 4.3 0V34.858a14.8 14.8 0 0 0-1.544-6.554"/><path fill="#c86e59" d="M50.75 8.601h-2.147a2.15 2.15 0 1 0 0-4.3h-2.15a2.15 2.15 0 0 0 0-4.3H34.858a14.8 14.8 0 0 0-6.559 1.548l-1.2.6h-9.896v12.9h9.892a7.77 7.77 0 0 0 6.967 4.3h3.785v-2.148h10.756a2.15 2.15 0 1 0 0-4.3h2.15a2.15 2.15 0 0 0 0-4.3ZM25.805 37.847a7.77 7.77 0 0 0-6.967-4.3h-3.785v2.15H4.3a2.15 2.15 0 1 0 0 4.3H2.15a2.15 2.15 0 0 0 0 4.3H4.3a2.15 2.15 0 1 0 0 4.3h2.15a2.15 2.15 0 0 0 0 4.3h13.742a14.8 14.8 0 0 0 6.559-1.548l1.2-.6H35.7V37.847Z"/></g><path d="M55.051 11.827a3.23 3.23 0 0 0-2.378-3.112 3.223 3.223 0 0 0-2.15-4.3 3.224 3.224 0 0 0-3-4.414H35.934a16 16 0 0 0-7.04 1.662l-.977.489H16.128a3.2 3.2 0 0 0-1.189.228 3.225 3.225 0 0 0-6.224 0 3.223 3.223 0 0 0-4.3 2.15A3.224 3.224 0 0 0 0 7.526v11.591a16.7 16.7 0 0 0 2.15 8.017v11.789a3.2 3.2 0 0 0 .228 1.189 3.225 3.225 0 0 0 0 6.224 3.223 3.223 0 0 0 2.15 4.3 3.224 3.224 0 0 0 3 4.414h2.591a1.075 1.075 0 0 0 0-2.15H7.526a1.075 1.075 0 0 1 0-2.15h2.15a1.075 1.075 0 1 0 0-2.15h-4.3a1.075 1.075 0 1 1 0-2.15h4.3a1.075 1.075 0 1 0 0-2.15h-6.45a1.075 1.075 0 1 1 0-2.15h6.451a1.075 1.075 0 0 0 0-2.15h-4.3a1.075 1.075 0 1 1 0-2.15h10.751a1.075 1.075 0 0 0 1.072-1.078V35.7h2.71a6.65 6.65 0 0 1 6 3.7 1.08 1.08 0 0 0 .963.6H35.7v9.677a3.2 3.2 0 0 0 .185 1.075h-6.854a1.1 1.1 0 0 0-.481.114l-1.2.6a13.8 13.8 0 0 1-6.082 1.434h-1.495a1.075 1.075 0 1 0 0 2.15h1.494a16 16 0 0 0 7.04-1.662l.977-.489h9.638a3.2 3.2 0 0 0 1.189-.228 3.225 3.225 0 0 0 6.224 0 3.223 3.223 0 0 0 4.3-2.15 3.224 3.224 0 0 0 4.414-3v-12.9a1.1 1.1 0 0 0-.1-.456 16.1 16.1 0 0 0-1.559-5.272l-.489-.977V16.128a3.2 3.2 0 0 0-.228-1.189 3.23 3.23 0 0 0 2.378-3.112m-40 23.87H5.376a3.2 3.2 0 0 0-1.075.185v-9a1.1 1.1 0 0 0-.114-.481 15.15 15.15 0 0 1-2.037-7.284V7.526a1.075 1.075 0 1 1 2.15 0v2.15a1.075 1.075 0 1 0 2.15 0v-4.3a1.075 1.075 0 1 1 2.15 0v4.3a1.075 1.075 0 1 0 2.15 0v-6.45a1.075 1.075 0 1 1 2.15 0v6.451a1.075 1.075 0 1 0 2.15 0v-4.3a1.075 1.075 0 1 1 2.15 0v10.751a1.075 1.075 0 0 0 1.079 1.072h1.075v2.71a6.74 6.74 0 0 1-3.7 6 1.08 1.08 0 0 0-.6.963Zm4.86-2.15H17.2v-6.028a8.79 8.79 0 0 0 4.3-7.606V17.2h6.028a8.79 8.79 0 0 0 7.606 4.3h2.71v6.028a8.79 8.79 0 0 0-4.3 7.606v2.71h-6.025a8.79 8.79 0 0 0-7.606-4.3ZM52.9 47.524a1.075 1.075 0 0 1-2.15 0v-2.15a1.075 1.075 0 1 0-2.15 0v4.3a1.075 1.075 0 0 1-2.15 0v-4.3a1.075 1.075 0 1 0-2.15 0v6.451a1.075 1.075 0 0 1-2.15 0v-6.451a1.075 1.075 0 0 0-2.15 0v4.3a1.075 1.075 0 0 1-2.15 0V38.923a1.075 1.075 0 0 0-1.075-1.075H35.7v-2.71a6.65 6.65 0 0 1 3.7-6 1.08 1.08 0 0 0 .6-.963v-8.821h9.677a3.2 3.2 0 0 0 1.075-.185v9a1.1 1.1 0 0 0 .114.481l.6 1.2a13.8 13.8 0 0 1 1.434 6.084ZM51.825 12.9h-6.451a1.075 1.075 0 0 0 0 2.15h4.3a1.075 1.075 0 1 1 0 2.15H38.923a1.075 1.075 0 0 0-1.075 1.075v1.075h-2.71a6.74 6.74 0 0 1-6-3.7 1.08 1.08 0 0 0-.963-.6h-8.821V5.376a3.2 3.2 0 0 0-.185-1.076h9a1.1 1.1 0 0 0 .481-.114 15.15 15.15 0 0 1 7.284-2.036h11.59a1.075 1.075 0 0 1 0 2.15h-2.15a1.075 1.075 0 0 0 0 2.15h4.3a1.075 1.075 0 1 1 0 2.15h-4.3a1.075 1.075 0 0 0 0 2.15h6.451a1.075 1.075 0 1 1 0 2.15"/><ellipse cx="1.274" cy=".85" rx="1.274" ry=".85" transform="translate(13.593 52.674)"/></g></g></svg>