<svg xmlns="http://www.w3.org/2000/svg" width="104.051" height="105.063" viewBox="0 0 104.051 105.063"><defs><filter id="a" width="104.051" height="105.063" x="0" y="0" filterUnits="userSpaceOnUse"><feOffset dy="3"/><feGaussianBlur result="b" stdDeviation="3"/><feFlood flood-opacity=".161"/><feComposite in2="b" operator="in"/><feComposite in="SourceGraphic"/></filter></defs><g transform="translate(9 6)"><g filter="url(#a)" transform="translate(-9 -6)"><ellipse cx="43.025" cy="43.532" fill="#fff" rx="43.025" ry="43.532" transform="translate(9 6)"/></g><g transform="translate(18.224 18.73)"><path fill="#79b2ff" d="M3.294.968h32.553a2.325 2.325 0 0 1 2.322 2.325v43.016a2.325 2.325 0 0 1-2.325 2.325H3.294a2.325 2.325 0 0 1-2.325-2.325V3.293A2.325 2.325 0 0 1 3.294.968m0 0"/><path fill="#fff" d="M27.159 4.843h7.137v39.915H4.844V4.843h7.137"/><path fill="#ff6977" d="M14.346 7.944h10.447a2.06 2.06 0 0 0 2.059-2.059V.968H12.287v4.917a2.06 2.06 0 0 0 2.059 2.059m0 0"/><path fill="#bdd9ff" d="M14.346 7.944h10.447a2.06 2.06 0 0 0 2.059-2.059V.968H12.287v4.917a2.06 2.06 0 0 0 2.059 2.059m0 0"/><path fill="#ffc15a" d="M32.909 25.243 44.26 13.896a2.563 2.563 0 0 1 3.624 3.624L36.536 28.866l-6.532 2.908Zm0 0"/><path fill="#98a1b3" d="m36.536 28.866-3.624-3.624-2.908 6.532Zm0 0"/><path fill="#ff6977" d="m46.638 18.761 1.246-1.246a2.563 2.563 0 1 0-3.624-3.624l-1.246 1.245Zm0 0"/><path fill="#cbe558" d="M9.494 12.594h6.2v6.2h-6.2Zm0 10.657h6.2v6.2h-6.2Zm0 0"/><path fill="#ff6977" d="M9.494 33.908h6.2v6.2h-6.2Zm0 0"/><path d="M19.57 43.79a.969.969 0 1 0 .685.284.98.98 0 0 0-.685-.284m0 0"/><path d="M48.569 13.206a3.535 3.535 0 0 0-4.994 0l-4.435 4.436V3.293A3.3 3.3 0 0 0 35.846 0H3.294A3.3 3.3 0 0 0 0 3.293v43.016A3.3 3.3 0 0 0 3.294 49.6h32.552a3.3 3.3 0 0 0 3.294-3.294V27.629l9.429-9.429a3.535 3.535 0 0 0 0-4.994M37.2 3.293v16.286l-1.938 1.938V4.843a.97.97 0 0 0-.969-.969h-6.472V1.937h8.025A1.36 1.36 0 0 1 37.2 3.293m-5.29 26.569 1.308-2.938 1.63 1.63ZM25.883 1.937v3.948a1.09 1.09 0 0 1-1.09 1.09H14.346a1.09 1.09 0 0 1-1.09-1.09V1.937Zm9.963 45.728H3.294a1.36 1.36 0 0 1-1.356-1.356V3.293a1.36 1.36 0 0 1 1.356-1.356h8.025v1.938H4.844a.97.97 0 0 0-.969.969v39.915a.97.97 0 0 0 .969.969h10.851a.969.969 0 1 0 0-1.938H5.813V5.812h5.506v.073a3.03 3.03 0 0 0 3.028 3.028h10.447a3.03 3.03 0 0 0 3.028-3.028v-.073h5.506v17.643l-1.1 1.1a1 1 0 0 0-.2.291l-2.912 6.534a.969.969 0 0 0 1.279 1.28l2.932-1.306V43.79h-9.882a.969.969 0 1 0 0 1.938H34.3a.97.97 0 0 0 .969-.969V30.491l1.662-.74a1 1 0 0 0 .276-.186v16.744a1.36 1.36 0 0 1-1.356 1.356Zm7.742-27.225-7.055 7.06-2.254-2.254 8.736-8.736 2.254 2.254Zm3.612-3.61-.561.56-2.253-2.253.56-.56A1.593 1.593 0 0 1 47.2 16.83m0 0"/><path d="M15.694 11.625h-6.2a.97.97 0 0 0-.969.969v6.2a.97.97 0 0 0 .969.969h6.2a.97.97 0 0 0 .969-.969v-6.2a.97.97 0 0 0-.969-.969m-.969 6.2h-4.262v-4.263h4.262Zm.969 4.457h-6.2a.97.97 0 0 0-.969.969v6.2a.97.97 0 0 0 .969.969h6.2a.97.97 0 0 0 .969-.969v-6.2a.97.97 0 0 0-.969-.969m-.969 6.2h-4.262v-4.263h4.262Zm.969 4.457h-6.2a.97.97 0 0 0-.969.969v6.2a.97.97 0 0 0 .969.969h6.2a.97.97 0 0 0 .969-.969v-6.2a.97.97 0 0 0-.969-.969m-.969 6.2h-4.262v-4.263h4.262Zm7.904-20.573a.97.97 0 0 0 1.37 0l4.374-4.374a.969.969 0 0 0-1.37-1.37l-3.689 3.689-1.47-1.47a.969.969 0 0 0-1.37 1.37Zm0 10.658a.97.97 0 0 0 1.37 0l4.374-4.374a.969.969 0 0 0-1.37-1.37l-3.689 3.689-1.47-1.47a.969.969 0 0 0-1.37 1.37Zm1.794 9.155 1.5 1.5a.969.969 0 1 0 1.37-1.37l-1.5-1.5 1.5-1.5a.969.969 0 0 0-1.37-1.37l-1.5 1.5-1.5-1.5a.969.969 0 1 0-1.37 1.37l1.5 1.5-1.5 1.5a.969.969 0 1 0 1.37 1.37Zm0 0"/></g></g></svg>