<svg xmlns="http://www.w3.org/2000/svg" width="104.051" height="105.063" viewBox="0 0 104.051 105.063"><defs><filter id="a" width="104.051" height="105.063" x="0" y="0" filterUnits="userSpaceOnUse"><feOffset dy="3"/><feGaussianBlur result="b" stdDeviation="3"/><feFlood flood-opacity=".161"/><feComposite in2="b" operator="in"/><feComposite in="SourceGraphic"/></filter></defs><g transform="translate(9 6)"><g filter="url(#a)" transform="translate(-9 -6)"><ellipse cx="43.025" cy="43.532" fill="#fff" rx="43.025" ry="43.532" transform="translate(9 6)"/></g><g transform="translate(20.949 62.919)"><g transform="translate(4.81 -51.201)"><path fill="#aee69c" d="M23.193 28.259h7.022v26.174h-7.022Z"/><path fill="#89daa4" d="M27.276 28.259h2.942v26.174h-2.939Z"/><path fill="#3d6d93" d="m24.816 27.241 2.424-2.424 5.77 5.77-2.423 2.425Z"/><path fill="#d1a08f" d="M42.177 42.172a3.28 3.28 0 0 0 0-4.642l-7.923-7.923a.707.707 0 0 0-1 0l-3.642 3.642a.707.707 0 0 0 0 1l7.923 7.923a3.28 3.28 0 0 0 4.642 0"/><path fill="#c68d7a" d="m42.178 37.531-7.923-7.923a.707.707 0 0 0-1 0l-1.7 1.7 7.688 7.688a3.28 3.28 0 0 1 .42 4.127 3.282 3.282 0 0 0 2.518-5.6Z"/><ellipse cx="13.943" cy="13.81" fill="#eaf6ff" rx="13.943" ry="13.81" transform="rotate(-45 23.798 9.857)"/><path fill="#d8ecfe" d="M29.484 9.761a13.74 13.74 0 0 0-11.2-3.933 13.66 13.66 0 0 1 8.259 3.933 13.963 13.963 0 0 1-8.521 23.651A13.964 13.964 0 0 0 29.481 9.761Z"/><ellipse cx="11.004" cy="10.872" fill="#ffe179" rx="11.004" ry="10.872" transform="rotate(-45 25.876 4.842)"/><path fill="#fbd268" d="M27.406 11.842a10.8 10.8 0 0 0-9.117-3.058 10.74 10.74 0 0 1 6.179 3.058 11.032 11.032 0 0 1-6.445 18.62 11.032 11.032 0 0 0 9.383-18.62"/><path fill="#aee69c" d="M7.355 54.433H.333V42.462a.98.98 0 0 1 .98-.98h5.063a.98.98 0 0 1 .98.98Z"/><path fill="#89daa4" d="M6.376 41.482H3.437a.98.98 0 0 1 .98.98v11.971h2.934V42.462a.98.98 0 0 0-.975-.98"/><path fill="#aee69c" d="M18.785 54.434h-7.022V38.055a.98.98 0 0 1 .98-.98h5.063a.98.98 0 0 1 .98.98Z"/><path fill="#89daa4" d="M17.806 37.075h-2.939a.98.98 0 0 1 .98.98v16.379h2.939V38.055a.98.98 0 0 0-.98-.98"/></g><path d="M16.228-39.787a11.687 11.687 0 0 0-.094 16.508 11.46 11.46 0 0 0 8.239 3.372 11.673 11.673 0 1 0-8.145-19.88m15.472.944a10.3 10.3 0 0 1-7.332 17.465 10 10 0 0 1-7.191-2.942 10.293 10.293 0 0 1 7.395-17.46 10.04 10.04 0 0 1 7.128 2.937M23.156-26.63a1.306 1.306 0 0 1-1.184-1.4.735.735 0 1 0-1.469 0 2.77 2.77 0 0 0 2.653 2.867h.544v.88a.735.735 0 0 0 1.469 0v-.88h.544a2.77 2.77 0 0 0 2.653-2.867v-1.419a2.77 2.77 0 0 0-2.653-2.867h-.543v-4.217h.544a1.306 1.306 0 0 1 1.184 1.4.735.735 0 1 0 1.469 0A2.77 2.77 0 0 0 25.714-38h-.544v-.88a.735.735 0 1 0-1.469 0v.88h-.544a2.77 2.77 0 0 0-2.657 2.865v1.422a2.77 2.77 0 0 0 2.653 2.867h.547v4.217Zm2.014-4.217h.544a1.306 1.306 0 0 1 1.184 1.4v1.42a1.306 1.306 0 0 1-1.184 1.4h-.544Zm-2.014-1.469a1.306 1.306 0 0 1-1.184-1.4v-1.419a1.306 1.306 0 0 1 1.184-1.4h.544v4.217h-.544ZM49.418 2.497H35.759v-17.074l6.067 6.067a4.053 4.053 0 0 0 5.681 0 4.06 4.06 0 0 0 0-5.681l-7.923-7.923a1.464 1.464 0 0 0-2.128.089l-1.148-1.148a14.61 14.61 0 0 0-1.494-18.787 14.46 14.46 0 0 0-5.827-3.544.735.735 0 0 0-.444 1.4 12.8 12.8 0 0 1 5.232 3.183 13.206 13.206 0 0 1-.094 18.585 13.16 13.16 0 0 1-18.585.094 13.23 13.23 0 0 1 10.229-22.453.735.735 0 1 0 .085-1.467 14.7 14.7 0 0 0-11.353 24.959 14.4 14.4 0 0 0 10.315 4.226 15 15 0 0 0 2.9-.3V2.497h-2.943v-15.644a1.716 1.716 0 0 0-1.714-1.714h-5.063a1.716 1.716 0 0 0-1.714 1.714v6.487a.735.735 0 1 0 1.469 0v-6.487a.245.245 0 0 1 .245-.245h5.063a.245.245 0 0 1 .245.245V2.497h-5.553v-5.729a.735.735 0 1 0-1.469 0v5.729H12.9V-8.739a1.716 1.716 0 0 0-1.714-1.714H6.122a1.716 1.716 0 0 0-1.714 1.714V2.497H2.694a1.226 1.226 0 0 1-1.225-1.224v-46.724a.735.735 0 1 0-1.469 0V1.273a2.7 2.7 0 0 0 2.694 2.694h46.724a.735.735 0 0 0 0-1.469Zm-37.988 0H5.877V-8.739a.245.245 0 0 1 .245-.245h5.063a.245.245 0 0 1 .245.245Zm23.29-23.793q.349-.349.669-.716l1.028 1.025-1.385 1.385L34-20.627q.371-.322.72-.669m-.43 23.793h-5.553v-20.153a14.6 14.6 0 0 0 4.109-2.051l1.147 1.147a1.454 1.454 0 0 0-.09 2.128l.387.387Zm.672-19.949 3.6-3.6 7.9 7.9a2.548 2.548 0 0 1-3.6 3.6c-.069-.069-7.936-7.922-7.9-7.9"/></g></g></svg>