<svg xmlns="http://www.w3.org/2000/svg" width="96.051" height="96.969" viewBox="0 0 96.051 96.969"><defs><filter id="a" width="96.051" height="96.969" x="0" y="0" filterUnits="userSpaceOnUse"><feOffset dy="3"/><feGaussianBlur result="b" stdDeviation="3"/><feFlood flood-opacity=".161"/><feComposite in2="b" operator="in"/><feComposite in="SourceGraphic"/></filter></defs><g transform="translate(9 6)"><g filter="url(#a)" transform="translate(-9 -6)"><ellipse cx="39.025" cy="39.485" fill="#fff" rx="39.025" ry="39.485" transform="translate(9 6)"/></g><g transform="translate(14 -20.308)"><g transform="translate(.761 37.669)"><path fill="#bb696a" d="M23.6 7.675H2.028A2.03 2.03 0 0 0 0 9.699v27.978a2.03 2.03 0 0 0 2.028 2.028h43.14a2.03 2.03 0 0 0 2.028-2.028V9.699a2.03 2.03 0 0 0-2.028-2.028Z"/><path fill="#fef2e2" d="M44.079 36.465H23.598V7.474a2.03 2.03 0 0 1 2.028-2.028h18.446Z"/><path fill="#ffe1ba" d="M42.048 5.442h2.028v31.023h-2.028Z"/><path fill="#fef2e2" d="M23.604 36.466H3.127V5.443l4.279-2.024a15.57 15.57 0 0 1 14.771.887 3.04 3.04 0 0 1 1.421 2.572Z"/><path fill="#ffe1ba" d="M23.598 6.882a3.04 3.04 0 0 0-1.424-2.577 15 15 0 0 0-2.284-1.168q.128.075.256.154a3.04 3.04 0 0 1 1.424 2.577l.006 30.6h2.028Z"/><path fill="#ffe1ba" d="M44.079 36.462H23.598v-2.694a2.03 2.03 0 0 1 2.028-2.028h18.446Z"/><path fill="#ffe1ba" d="M23.598 32.947a3.04 3.04 0 0 0-1.424-2.577 15.57 15.57 0 0 0-14.771-.887l-4.279 2.024v4.957h20.475Z"/><path fill="#ffc277" d="m7.402 29.484-4.275 2.024v.235h20.221a3 3 0 0 0-1.175-1.372 15.57 15.57 0 0 0-14.771-.887"/><path fill="#f88fa4" d="M10.683 0h6.085v11.939l-3.043-.811-3.043.811Z"/><path fill="#f05475" d="M14.74 0v11.393l2.028.541V0Z"/></g><g transform="translate(0 36.908)"><path d="M48.718 29.017V10.464a2.79 2.79 0 0 0-2.789-2.789h-.334V5.442H26.387a2.77 2.77 0 0 0-1.649.541q-.044-.092-.093-.181a3.8 3.8 0 0 0-1.308-1.382 16.1 16.1 0 0 0-5.047-2.058V0h-7.607v2.47a16 16 0 0 0-2.845 1.022l-4.715 2.23v1.953h-.334A2.79 2.79 0 0 0 0 10.464v27.978a2.79 2.79 0 0 0 2.789 2.789h43.14a2.79 2.79 0 0 0 2.789-2.789v-7.794H47.2v7.794a1.27 1.27 0 0 1-1.268 1.268H2.789a1.27 1.27 0 0 1-1.268-1.268V10.464a1.27 1.27 0 0 1 1.268-1.272h.334v28.794H45.6l-.005-28.794h.334a1.27 1.27 0 0 1 1.271 1.272v18.553ZM12.2 1.521h4.564v10.188l-2.282-.609-2.282.609ZM8.489 4.867a14 14 0 0 1 2.195-.822v9.647l3.8-1.014 3.8 1.014V3.924a14.6 14.6 0 0 1 4.242 1.787 2.3 2.3 0 0 1 .782.826 2.3 2.3 0 0 1 .285 1.106v4.606h1.527V8.226a1.27 1.27 0 0 1 1.267-1.262h17.686v24.779H26.387a2.8 2.8 0 0 0-1.268.306V13.871H23.6v16.8a3 3 0 0 0-.261-.18 16.35 16.35 0 0 0-15.5-.929l-3.194 1.51V6.685Zm-3.844 31.6v-3.716l3.844-1.818a14.81 14.81 0 0 1 13.986.81H12.2v1.521h11.356c.028.142.043 3.2.043 3.2H4.645Zm20.475 0v-1.935a1.27 1.27 0 0 1 1.268-1.268h17.69v3.2Z"/><path d="M9.145 31.743h1.521v1.519H9.145ZM30.372 9.977l9.128-.073.012 1.521-9.128.073Zm-2.23 4.664 12.915-.103.012 1.52-12.915.104Zm5.243 3.001 7.673-.061.012 1.52-7.673.062Zm-5.244.044 3.755-.03.012 1.52-3.755.031Zm.002 3.041 12.915-.103.012 1.52-12.915.104Zm0 2.943 12.915-.103.012 1.52-12.915.104Zm-.018 3.11 8.316-.091.017 1.52-8.316.092Z"/></g></g></g></svg>