<svg xmlns="http://www.w3.org/2000/svg" width="112.051" height="113.157" viewBox="0 0 112.051 113.157"><defs><filter id="a" width="112.051" height="113.157" x="0" y="0" filterUnits="userSpaceOnUse"><feOffset dy="3"/><feGaussianBlur result="b" stdDeviation="3"/><feFlood flood-opacity=".161"/><feComposite in2="b" operator="in"/><feComposite in="SourceGraphic"/></filter></defs><g transform="translate(9 6)"><g filter="url(#a)" transform="translate(-9 -6)"><ellipse cx="47.025" cy="47.579" fill="#fff" rx="47.025" ry="47.579" transform="translate(9 6)"/></g><g transform="translate(15 15.157)"><path fill="#00b4d8" d="m17.6 11.9-5.7 5.7a3.984 3.984 0 0 0 0 5.7l4.9 4.9a2 2 0 0 0 2.6.3 2.02 2.02 0 0 0 .3-3l1.4 1.4 5.7-5.7-1.4-1.4a1.884 1.884 0 0 0 3-.3 2 2 0 0 0-.3-2.6L23.2 12a3.79 3.79 0 0 0-5.6-.1"/><circle cx="3" cy="3" r="3" fill="#edb88e" transform="translate(9.6 9.6)"/><path fill="#da9367" d="M14.7 11.9a2.9 2.9 0 0 1-4.2 0 3 3 0 0 1-.5-.7 3.04 3.04 0 0 0 .5 3.5 2.96 2.96 0 0 0 4.7-3.5 1.8 1.8 0 0 1-.5.7"/><path fill="#0096c7" d="M25.3 16.9a3.05 3.05 0 0 0 2.1.9 3.6 3.6 0 0 0 1.1-.2 1.85 1.85 0 0 1-.2 1.9 2.02 2.02 0 0 1-3 .3l1.4 1.4-5.7 5.7-1.4-1.4a1.936 1.936 0 0 1-.2 3 2.13 2.13 0 0 1-2.7-.3l-4.9-4.9a3.984 3.984 0 0 1 0-5.7l.7-.7a2.9 2.9 0 0 0 4.2 0l2.8-2.8a1.933 1.933 0 0 1 2.8 0Z"/><path fill="#00b4d8" d="m52.1 46.4-5.7 5.7a3.984 3.984 0 0 1-5.7 0l-4.9-4.9a2 2 0 0 1-.3-2.6 2.02 2.02 0 0 1 3-.3l-1.4-1.4 5.7-5.7 1.4 1.4a1.884 1.884 0 0 1 .3-3 2 2 0 0 1 2.6.3l4.9 4.9a3.79 3.79 0 0 1 .1 5.6"/><circle cx="3" cy="3" r="3" fill="#edb88e" transform="translate(48.4 48.4)"/><path fill="#da9367" d="M52.1 49.3a2.9 2.9 0 0 0 0 4.2 3 3 0 0 0 .7.5 3.04 3.04 0 0 1-3.5-.5 2.96 2.96 0 0 1 3.5-4.7 1.8 1.8 0 0 0-.7.5"/><path fill="#0096c7" d="M47.1 38.7a3.05 3.05 0 0 1-.9-2.1 3.6 3.6 0 0 1 .2-1.1 1.85 1.85 0 0 0-1.9.2 2.02 2.02 0 0 0-.3 3l-1.4-1.4-5.7 5.7 1.4 1.4a1.936 1.936 0 0 0-3 .2 2.13 2.13 0 0 0 .3 2.7l4.9 4.9a3.984 3.984 0 0 0 5.7 0l.7-.7a2.9 2.9 0 0 1 0-4.2l2.8-2.8a1.933 1.933 0 0 0 0-2.8Z"/><path fill="#e53935" d="m11.9 46.4 5.7 5.7a3.984 3.984 0 0 0 5.7 0l4.9-4.9a2 2 0 0 0 .3-2.6 2.02 2.02 0 0 0-3-.3l1.4-1.4-5.7-5.7-1.4 1.4a1.884 1.884 0 0 0-.3-3 2 2 0 0 0-2.6.3L12 40.8a3.79 3.79 0 0 0-.1 5.6"/><circle cx="3" cy="3" r="3" fill="#edb88e" transform="translate(9.6 48.4)"/><path fill="#da9367" d="M11.9 49.3a2.9 2.9 0 0 1 0 4.2 3 3 0 0 1-.7.5 3.04 3.04 0 0 0 3.5-.5 2.96 2.96 0 0 0-3.5-4.7 1.8 1.8 0 0 1 .7.5"/><path fill="#c62828" d="M16.9 38.7a3.05 3.05 0 0 0 .9-2.1 3.6 3.6 0 0 0-.2-1.1 1.85 1.85 0 0 1 1.9.2 2.02 2.02 0 0 1 .3 3l1.4-1.4 5.7 5.7-1.4 1.4a1.936 1.936 0 0 1 3 .2 2.13 2.13 0 0 1-.3 2.7l-4.9 4.9a3.984 3.984 0 0 1-5.7 0l-.7-.7a2.9 2.9 0 0 0 0-4.2l-2.9-3a1.933 1.933 0 0 1 0-2.8Z"/><path fill="#e53935" d="m46.4 11.9 5.7 5.7a3.984 3.984 0 0 1 0 5.7l-4.9 4.9a2 2 0 0 1-2.6.3 2.02 2.02 0 0 1-.3-3l-1.4 1.4-5.7-5.7 1.4-1.4a1.884 1.884 0 0 1-3-.3 2 2 0 0 1 .3-2.6l4.9-4.9a3.79 3.79 0 0 1 5.6-.1"/><circle cx="3" cy="3" r="3" fill="#edb88e" transform="translate(48.4 9.6)"/><path fill="#da9367" d="M49.3 11.9a2.9 2.9 0 0 0 4.2 0 3 3 0 0 0 .5-.7 3.04 3.04 0 0 1-.5 3.5 2.96 2.96 0 0 1-4.7-3.5 1.8 1.8 0 0 0 .5.7"/><path fill="#c62828" d="M38.7 16.9a3.05 3.05 0 0 1-2.1.9 3.6 3.6 0 0 1-1.1-.2 1.85 1.85 0 0 0 .2 1.9 2.02 2.02 0 0 0 3 .3l-1.4 1.4 5.7 5.7 1.4-1.4a1.936 1.936 0 0 0 .2 3 2.13 2.13 0 0 0 2.7-.3l4.9-4.9a3.984 3.984 0 0 0 0-5.7l-.7-.7a2.9 2.9 0 0 1-4.2 0l-3-2.9a1.933 1.933 0 0 0-2.8 0Z"/><path fill="#95d5b2" d="M36 9h-8a4.01 4.01 0 0 0-4 4v6.9a2.14 2.14 0 0 0 1.7 2.1 1.98 1.98 0 0 0 2.3-2v2h8v-2a2.025 2.025 0 0 0 2.3 2 2.14 2.14 0 0 0 1.7-2.1V13a4.01 4.01 0 0 0-4-4"/><circle cx="3" cy="3" r="3" fill="#f9dbaf" transform="translate(29 3)"/><path fill="#edb88e" d="M34 7a2.946 2.946 0 0 1-3-3c0-.3.1-.6.1-.9A3.03 3.03 0 0 0 29 6a2.946 2.946 0 0 0 3 3 3.03 3.03 0 0 0 2.9-2.1c-.3 0-.6.1-.9.1"/><path fill="#52b788" d="M38 18a2.72 2.72 0 0 0 .9 2.1 2.36 2.36 0 0 0 .9.6 2.04 2.04 0 0 1-1.5 1.2 1.98 1.98 0 0 1-2.3-2v2h-8v-2a2.025 2.025 0 0 1-2.3 2 2.14 2.14 0 0 1-1.7-2.1v-6.9a4.01 4.01 0 0 1 4-4h1a2.946 2.946 0 0 0 3 3h4a2.006 2.006 0 0 1 2 2Z"/><path fill="#95d5b2" d="M36 55h-8a4.01 4.01 0 0 1-4-4v-6.9a2.14 2.14 0 0 1 1.7-2.1 1.98 1.98 0 0 1 2.3 2v-2h8v2a2.025 2.025 0 0 1 2.3-2 2.14 2.14 0 0 1 1.7 2.1V51a4.01 4.01 0 0 1-4 4"/><circle cx="3" cy="3" r="3" fill="#f9dbaf" transform="translate(29 55)"/><path fill="#edb88e" d="M34 57a2.946 2.946 0 0 0-3 3c0 .3.1.6.1.9A3.03 3.03 0 0 1 29 58a2.946 2.946 0 0 1 3-3 3.03 3.03 0 0 1 2.9 2.1c-.3 0-.6-.1-.9-.1"/><path fill="#52b788" d="M38 46a2.72 2.72 0 0 1 .9-2.1 2.36 2.36 0 0 1 .9-.6 2.04 2.04 0 0 0-1.5-1.2 1.98 1.98 0 0 0-2.3 2v-2h-8v2a2.025 2.025 0 0 0-2.3-2 2.14 2.14 0 0 0-1.7 2.1v6.9a4.01 4.01 0 0 0 4 4h1a2.946 2.946 0 0 1 3-3h4a2.006 2.006 0 0 0 2-2Z"/><path fill="#ff7373" d="M9 28v8a4.01 4.01 0 0 0 4 4h6.9a2.14 2.14 0 0 0 2.1-1.7 1.98 1.98 0 0 0-2-2.3h2v-8h-2a2.025 2.025 0 0 0 2-2.3 2.14 2.14 0 0 0-2.1-1.7H13a4.01 4.01 0 0 0-4 4"/><circle cx="3" cy="3" r="3" fill="#f9dbaf" transform="translate(3 29)"/><path fill="#edb88e" d="M7 30a2.946 2.946 0 0 1-3 3c-.3 0-.6-.1-.9-.1A3.03 3.03 0 0 0 6 35a2.946 2.946 0 0 0 3-3 3.03 3.03 0 0 0-2.1-2.9c0 .3.1.6.1.9"/><path fill="#ef5350" d="M18 26a2.72 2.72 0 0 0 2.1-.9 2.36 2.36 0 0 0 .6-.9 2.04 2.04 0 0 1 1.2 1.5 1.98 1.98 0 0 1-2 2.3h2v8h-2a2.025 2.025 0 0 1 2 2.3 2.14 2.14 0 0 1-2.1 1.7H13a4.01 4.01 0 0 1-4-4v-1a2.946 2.946 0 0 0 3-3v-4a2.006 2.006 0 0 1 2-2Z"/><path fill="#ff7373" d="M55 28v8a4.01 4.01 0 0 1-4 4h-6.9a2.14 2.14 0 0 1-2.1-1.7 1.98 1.98 0 0 1 2-2.3h-2v-8h2a2.025 2.025 0 0 1-2-2.3 2.14 2.14 0 0 1 2.1-1.7H51a4.01 4.01 0 0 1 4 4"/><circle cx="3" cy="3" r="3" fill="#f9dbaf" transform="translate(55 29)"/><path fill="#edb88e" d="M57 30a2.946 2.946 0 0 0 3 3c.3 0 .6-.1.9-.1A3.03 3.03 0 0 1 58 35a2.946 2.946 0 0 1-3-3 3.03 3.03 0 0 1 2.1-2.9c0 .3-.1.6-.1.9"/><path fill="#ef5350" d="M46 26a2.72 2.72 0 0 1-2.1-.9 2.36 2.36 0 0 1-.6-.9 2.04 2.04 0 0 0-1.2 1.5 1.98 1.98 0 0 0 2 2.3h-2v8h2a2.025 2.025 0 0 0-2 2.3 2.14 2.14 0 0 0 2.1 1.7H51a4.01 4.01 0 0 0 4-4v-1a2.946 2.946 0 0 1-3-3v-4a2.006 2.006 0 0 0-2-2Z"/><circle cx="15" cy="15" r="15" fill="#48cae4" transform="translate(17 17)"/><path fill="#00b4d8" d="M46.3 36.6a15.008 15.008 0 1 1-20.6-18.2A14.3 14.3 0 0 0 25 23a14.977 14.977 0 0 0 21.3 13.6"/><path fill="#ff7373" d="m32 27.5-1.1-1.1a5.233 5.233 0 0 0-7.4 7.4l6.6 6.6a2.657 2.657 0 0 0 3.7 0l6.6-6.6a5.233 5.233 0 1 0-7.4-7.4Z"/><path fill="#ef5350" d="m36.6 37.6-2.8 2.8a2.657 2.657 0 0 1-3.7 0l-6.6-6.6a5.14 5.14 0 0 1-1.5-3.7 5.3 5.3 0 0 1 1.5-3.7 4.2 4.2 0 0 1 1.6-1.1 15.07 15.07 0 0 0 11.5 12.3"/><path fill="#464a51" d="M58 28a3.6 3.6 0 0 0-2 .6V28a4.98 4.98 0 0 0-2.9-4.5 4.91 4.91 0 0 0-.3-6.6l-.4-.4a4 4 0 0 0 1.8-1 3.95 3.95 0 0 0 1.2-2.8 3.78 3.78 0 0 0-1.2-2.8 4.17 4.17 0 0 0-5.7 0 4 4 0 0 0-1 1.8l-.4-.4a4.916 4.916 0 0 0-6.6-.3A4.91 4.91 0 0 0 36 8h-.6a3.6 3.6 0 0 0 .6-2 4 4 0 1 0-8 0 3.6 3.6 0 0 0 .6 2H28a4.95 4.95 0 0 0-5 5v2.9l-1.2-1.2a.99.99 0 1 0-1.4 1.4l2.6 2.6a15.3 15.3 0 0 0-4.2 4.2l-2.6-2.6a.99.99 0 0 0-1.4 1.4l1.2 1.2h-2.8l-.5-.5a2.9 2.9 0 0 1 0-4.2l2.8-2.8 2.8-2.8a2.88 2.88 0 0 1 2.1-.9.945.945 0 0 0 1-1 .945.945 0 0 0-1-1 4.7 4.7 0 0 0-3.5 1.5l-.4.4a4 4 0 0 0-1-1.8 4.17 4.17 0 0 0-5.7 0 3.95 3.95 0 0 0-1.2 2.8 3.78 3.78 0 0 0 1.2 2.8 4 4 0 0 0 1.8 1l-.4.4a4.916 4.916 0 0 0-.3 6.6A5.25 5.25 0 0 0 8 28v.6a3.6 3.6 0 0 0-2-.6 4 4 0 1 0 0 8 3.6 3.6 0 0 0 2-.6v.6a4.98 4.98 0 0 0 2.9 4.5 4.91 4.91 0 0 0 .3 6.6l.4.4a4 4 0 0 0-1.8 1 3.95 3.95 0 0 0-1.2 2.8 3.78 3.78 0 0 0 1.2 2.8 3.95 3.95 0 0 0 2.8 1.2 3.78 3.78 0 0 0 2.8-1.2 4 4 0 0 0 1-1.8l.4.4a5.1 5.1 0 0 0 3.5 1.5h.4a.9.9 0 0 0 .9-1.1.955.955 0 0 0-1.1-.9 2.81 2.81 0 0 1-2.3-.9l-2.8-2.8-2.8-2.8a2.9 2.9 0 0 1 0-4.2l.5-.5h2.8l-1.2 1.2a.967.967 0 0 0 0 1.4 1.08 1.08 0 0 0 .7.3.9.9 0 0 0 .7-.3l2.6-2.6a15.3 15.3 0 0 0 4.2 4.2l-2.6 2.6a.967.967 0 0 0 0 1.4.967.967 0 0 0 1.4 0l1.2-1.2v3a4.95 4.95 0 0 0 5 5h.6a4.66 4.66 0 0 0-.6 2 4 4 0 0 0 8 0 3.6 3.6 0 0 0-.6-2h.7a4.98 4.98 0 0 0 4.5-2.9 5.1 5.1 0 0 0 3.1 1.1 4.7 4.7 0 0 0 3.5-1.5l.4-.4a4 4 0 0 0 1 1.8 3.95 3.95 0 0 0 2.8 1.2 3.78 3.78 0 0 0 2.8-1.2 3.95 3.95 0 0 0 1.2-2.8 3.78 3.78 0 0 0-1.2-2.8 4 4 0 0 0-1.8-1l.4-.4a4.916 4.916 0 0 0 .3-6.6 4.91 4.91 0 0 0 3-4.5v-.6a4.66 4.66 0 0 0 2 .6 4 4 0 0 0 0-8m-8.6-15.4a2 2 0 1 1 3.4 1.4 1.933 1.933 0 0 1-2.8 0 1.97 1.97 0 0 1-.6-1.4m-3.7 0 2.8 2.8 2.8 2.8a2.9 2.9 0 0 1 0 4.2l-.4.6h-2.8l1.2-1.2a.99.99 0 1 0-1.4-1.4L45.2 23a15.3 15.3 0 0 0-4.2-4.2l2.6-2.6a.99.99 0 1 0-1.4-1.4L41 15.9v-2.8l.5-.5a2.987 2.987 0 0 1 4.2 0M30 6a2 2 0 1 1 2 2 2.006 2.006 0 0 1-2-2m-2 4h8a2.946 2.946 0 0 1 3 3v4.6a12 12 0 0 0-2-.8V14a1 1 0 1 0-2 0v2.3a15.15 15.15 0 0 0-6 0V14a1 1 0 1 0-2 0v2.8a12 12 0 0 0-2 .8V13a2.946 2.946 0 0 1 3-3m-16.8 4a2 2 0 1 1 2.8 0 1.933 1.933 0 0 1-2.8 0M6 34a2 2 0 1 1 2-2 2.006 2.006 0 0 1-2 2m4-6a2.946 2.946 0 0 1 3-3h4.6a12 12 0 0 0-.8 2H14a1 1 0 1 0 0 2h2.3a15.15 15.15 0 0 0 0 6H14a1 1 0 1 0 0 2h2.8a12 12 0 0 0 .8 2H13a2.946 2.946 0 0 1-3-3Zm4.6 23.4a1.97 1.97 0 0 1-.6 1.4 1.933 1.933 0 0 1-2.8 0 1.98 1.98 0 1 1 3.4-1.4M34 58a2 2 0 1 1-2-2 2.006 2.006 0 0 1 2 2m2-4h-8a2.946 2.946 0 0 1-3-3v-4.6a12 12 0 0 0 2 .8V50a1 1 0 0 0 2 0v-2.3a15.15 15.15 0 0 0 6 0V50a1 1 0 0 0 2 0v-2.8a12 12 0 0 0 2-.8V51a2.946 2.946 0 0 1-3 3m9.7-2.6a2.9 2.9 0 0 1-4.2 0l-.5-.5v-2.8l1.2 1.2a.967.967 0 0 0 1.4 0 .967.967 0 0 0 0-1.4L41 45.2c.3-.2.7-.5 1-.7a1 1 0 1 0-1.2-1.6 13.8 13.8 0 0 1-8.7 3.1 14 14 0 1 1 14-14 13.45 13.45 0 0 1-2.7 8.2 1 1 0 1 0 1.6 1.2c.1-.1.2-.3.3-.4l2.6 2.6a1.08 1.08 0 0 0 .7.3.9.9 0 0 0 .7-.3.967.967 0 0 0 0-1.4L48.1 41h2.8l.5.5a2.9 2.9 0 0 1 0 4.2l-2.8 2.8Zm5.7-2a1.98 1.98 0 0 1 1.4 3.4 1.933 1.933 0 0 1-2.8 0 2 2 0 0 1 1.4-3.4M54 36a2.946 2.946 0 0 1-3 3h-4.6a17 17 0 0 0 .8-2H50a1 1 0 0 0 0-2h-2.3a15.15 15.15 0 0 0 0-6H50a1 1 0 0 0 0-2h-2.8a12 12 0 0 0-.8-2H51a2.946 2.946 0 0 1 3 3Zm4-2a2 2 0 1 1 2-2 2.006 2.006 0 0 1-2 2"/><path fill="#464a51" d="M36.8 23.9a6.04 6.04 0 0 0-4.4 1.8l-.4.4-.4-.4a6.28 6.28 0 0 0-8.8 0 6.28 6.28 0 0 0 0 8.8l1.9 1.9a.99.99 0 0 0 1.4-1.4l-1.9-1.9a4.226 4.226 0 0 1 0-5.9 4.35 4.35 0 0 1 6 0l1.1 1.1a.967.967 0 0 0 1.4 0l1.1-1.1a4.35 4.35 0 0 1 6 0 4.226 4.226 0 0 1 0 5.9l-6.6 6.6a1.693 1.693 0 0 1-2.3 0L29 37.8a.99.99 0 0 0-1.4 1.4l1.9 1.9a3.39 3.39 0 0 0 5 0l6.6-6.6a6.28 6.28 0 0 0 0-8.8 5.66 5.66 0 0 0-4.3-1.8"/><path fill="#464a51" d="M36.9 31.6a.967.967 0 0 0 1.4 0 2.116 2.116 0 0 0 0-3.1 2.3 2.3 0 0 0-3.1 0 .99.99 0 0 0 1.4 1.4.212.212 0 1 1 .3.3.965.965 0 0 0 0 1.4"/></g></g></svg>