<svg xmlns="http://www.w3.org/2000/svg" width="112.051" height="113.157" viewBox="0 0 112.051 113.157"><defs><filter id="a" width="112.051" height="113.157" x="0" y="0" filterUnits="userSpaceOnUse"><feOffset dy="3"/><feGaussianBlur result="b" stdDeviation="3"/><feFlood flood-opacity=".161"/><feComposite in2="b" operator="in"/><feComposite in="SourceGraphic"/></filter></defs><g transform="translate(9 6)"><g filter="url(#a)" transform="translate(-9 -6)"><ellipse cx="47.025" cy="47.579" fill="#fff" rx="47.025" ry="47.579" transform="translate(9 6)"/></g><g transform="translate(14.412 15.206)"><path fill="#fcd770" d="M14 38v2H2v-2a6 6 0 0 1 12 0m21.19 16.92A5.99 5.99 0 0 1 38 60v2H26v-2a6 6 0 0 1 9.19-5.08"/><path fill="#ff826e" d="M20 58v2H8v-2a6 6 0 0 1 12 0m42-20v2H50v-2a6 6 0 0 1 12 0"/><path fill="#e6e9ed" d="M17.19 12.92A5.99 5.99 0 0 1 20 18v2H8v-2a6 6 0 0 1 9.19-5.08m29.62 0A6 6 0 0 1 56 18v2H44v-2a5.99 5.99 0 0 1 2.81-5.08"/><path fill="#b4dd7f" d="M38 16v2H26v-2a6 6 0 0 1 12 0m0 22v2H26v-2a6 6 0 0 1 12 0m18 20v2H44v-2a6 6 0 0 1 12 0"/><path fill="#f0d0b4" d="M46.63 50.15A3.96 3.96 0 0 1 46 48a4 4 0 0 1 4-4 4.015 4.015 0 0 1 4 4 4 4 0 0 1-7.37 2.15"/><circle cx="4" cy="4" r="4" fill="#f0d0b4" transform="translate(28 46)"/><path fill="#f0d0b4" d="M17.37 50.15A4 4 0 0 1 10 48a4.015 4.015 0 0 1 4-4 4 4 0 0 1 4 4 3.96 3.96 0 0 1-.63 2.15"/><circle cx="4" cy="4" r="4" fill="#f0d0b4" transform="translate(28 24)"/><path fill="#f0d0b4" d="M56 24a4 4 0 1 1-.97.12A4 4 0 0 1 56 24"/><circle cx="4" cy="4" r="4" fill="#f0d0b4" transform="translate(46 4)"/><path fill="#f0d0b4" d="M35.37 8.15A4 4 0 1 1 36 6a4 4 0 0 1-.63 2.15"/><circle cx="4" cy="4" r="4" fill="#f0d0b4" transform="translate(10 4)"/><path fill="#f0d0b4" d="M8.97 24.12A4 4 0 1 1 8 24a4 4 0 0 1 .97.12"/><path d="M63 41v-3a7 7 0 0 0-3.779-6.208A4.978 4.978 0 0 0 56 23c-.124 0-.241.028-.363.037L54.618 21H57v-3a7 7 0 0 0-3.779-6.208 5 5 0 1 0-6.442 0l-.036.018-10.038-4.183A5 5 0 0 0 37 6a5 5 0 0 0-10 0 5 5 0 0 0 .3 1.627L17.258 11.81q-.019-.008-.036-.018a5 5 0 1 0-6.443 0A7 7 0 0 0 7 18v3h2.382l-1.018 2.037C8.241 23.028 8.124 23 8 23a4.978 4.978 0 0 0-3.221 8.792A7 7 0 0 0 1 38v3h7.371l1.823 3.8a4.915 4.915 0 0 0 .585 7A7 7 0 0 0 7 58v3h14v-3a7 7 0 0 0-3.779-6.208 5 5 0 0 0 .453-.428l9.234 3.848A6.97 6.97 0 0 0 25 60v3h14v-3a6.97 6.97 0 0 0-1.908-4.788l9.234-3.848a5 5 0 0 0 .453.428A7 7 0 0 0 43 58v3h14v-3a7 7 0 0 0-3.779-6.208 4.915 4.915 0 0 0 .585-7L55.629 41Zm-2-3v1H51v-1a5 5 0 0 1 10 0m-2-10a3 3 0 1 1-3-3 3 3 0 0 1 3 3m-5.319-4.4a4.936 4.936 0 0 0-1.655 7.4H35.974a4.95 4.95 0 0 0 .979-2.539L44.414 21h7.968ZM37 38v1H27v-1a5 5 0 0 1 10 0m-5 15a3 3 0 1 1 3-3 3 3 0 0 1-3 3m-3-25a3 3 0 1 1 3 3 3 3 0 0 1-3-3m-2-11v-1a5 5 0 0 1 10 0v1Zm28 1v1H45v-1a5 5 0 0 1 10 0M47 8a3 3 0 1 1 3 3 3 3 0 0 1-3-3m-2.092 5.212A6.97 6.97 0 0 0 43 18v1.586l-6.42 6.42A5.01 5.01 0 0 0 33 23.1V19h6v-3a7 7 0 0 0-3.779-6.208 5 5 0 0 0 .453-.428ZM32 3a3 3 0 1 1-3 3 3 3 0 0 1 3-3m-3.221 6.792A7 7 0 0 0 25 16v3h6v4.1a5.01 5.01 0 0 0-3.58 2.905L21 19.586V18a6.97 6.97 0 0 0-1.908-4.788l9.234-3.848a5 5 0 0 0 .453.428M11 8a3 3 0 1 1 3 3 3 3 0 0 1-3-3M9 18a5 5 0 0 1 10 0v1H9Zm2.618 3h7.968l7.461 7.461A4.95 4.95 0 0 0 28.026 31H11.974a4.936 4.936 0 0 0-1.655-7.4ZM5 28a3 3 0 1 1 3 3 3 3 0 0 1-3-3M3 38a5 5 0 0 1 10 0v1H3Zm12 3v-3a6.97 6.97 0 0 0-2.111-5H27.11a6.98 6.98 0 0 0-2.089 4.564L17.8 44.787a4.89 4.89 0 0 0-5.993-1.257L10.589 41Zm4 17v1H9v-1a5 5 0 0 1 10 0m-8-10a3 3 0 1 1 3 3 3 3 0 0 1-3-3m8 0a5 5 0 0 0-.215-1.371L25 40.414V41h6v4.1a4.975 4.975 0 0 0-2.221 8.691q-.019.008-.036.018l-10.037-4.181A5 5 0 0 0 19 48m18 13H27v-1a5 5 0 0 1 10 0Zm-1.742-7.19-.036-.018A4.975 4.975 0 0 0 33 45.1V41h6v-.586l6.215 6.215a4.56 4.56 0 0 0 .08 3ZM55 58v1H45v-1a5 5 0 0 1 10 0m-8-10a3 3 0 1 1 3 3 3 3 0 0 1-3-3m5.195-4.47a4.89 4.89 0 0 0-5.995 1.257l-7.223-7.223A6.98 6.98 0 0 0 36.889 33H51.11A6.98 6.98 0 0 0 49 38v3h4.411Z"/></g></g></svg>