<svg xmlns="http://www.w3.org/2000/svg" width="104.051" height="105.063" viewBox="0 0 104.051 105.063"><defs><filter id="a" width="104.051" height="105.063" x="0" y="0" filterUnits="userSpaceOnUse"><feOffset dy="3"/><feGaussianBlur result="b" stdDeviation="3"/><feFlood flood-opacity=".161"/><feComposite in2="b" operator="in"/><feComposite in="SourceGraphic"/></filter></defs><g transform="translate(9 6)"><g filter="url(#a)" transform="translate(-9 -6)"><ellipse cx="43.025" cy="43.532" fill="#fff" rx="43.025" ry="43.532" transform="translate(9 6)"/></g><g transform="translate(18.034 4.131)"><g transform="translate(.821 10.301)"><g transform="translate(0 7.235)"><path fill="#fca62f" d="m30.209.688-3.454 3.966a2 2 0 0 1-1.513.688H2.006A2.006 2.006 0 0 0 0 7.349v32.436a3.877 3.877 0 0 0 3.877 3.877H45.9V2.002a2.006 2.006 0 0 0-2.007-2H31.722a2 2 0 0 0-1.513.688Z"/><path fill="#f98824" d="M45.899 13.867v6.485L36.738 36.22a1.525 1.525 0 0 1-2.083.558L2.982 18.491a1.525 1.525 0 0 1-.558-2.084L8.812 5.343h16.432a2 2 0 0 0 1.512-.688l1.066-1.224Z"/><path fill="#f98824" d="M45.899 2.004v41.657h-4.361V2.004a2.006 2.006 0 0 0-2.006-2.006h4.361a2.006 2.006 0 0 1 2.006 2.006"/><g transform="translate(32.093 3.941)"><path fill="#a8e7ef" d="M8.911 4.518H1.174A1.174 1.174 0 0 1 0 3.344v-2.17A1.174 1.174 0 0 1 1.174 0h7.737a1.174 1.174 0 0 1 1.174 1.174v2.171a1.174 1.174 0 0 1-1.174 1.173"/><path fill="#70d9e6" d="M10.085 1.173v2.171a1.174 1.174 0 0 1-1.173 1.174H6.247a1.174 1.174 0 0 0 1.176-1.174V1.173A1.173 1.173 0 0 0 6.25 0h2.665a1.173 1.173 0 0 1 1.17 1.173"/></g></g><g transform="translate(2.888)"><path fill="#27e19d" d="M45.168 18.491 13.494.204a1.525 1.525 0 0 0-2.083.558L.204 20.173a1.525 1.525 0 0 0 .558 2.083l31.674 18.287a1.525 1.525 0 0 0 2.083-.558l11.206-19.41a1.525 1.525 0 0 0-.557-2.084"/><path fill="#26d192" d="m34.519 39.984 11.206-19.41a1.524 1.524 0 0 0-.558-2.083l-3.094-1.786a1.524 1.524 0 0 1 .558 2.083l-11.206 19.41a1.524 1.524 0 0 1-2.083.558l3.094 1.786a1.524 1.524 0 0 0 2.083-.558"/><g transform="translate(3.608 3.609)"><path fill="#cffbe8" d="M0 16.768 9.682 0l29.031 16.762-9.681 16.768Z"/><path fill="#9ff7d3" d="m26.47 32.052 9.682-16.768 2.561 1.479-9.681 16.768Z"/></g><g transform="translate(16.502 13.911)"><circle cx="6.463" cy="6.463" r="6.463" fill="#23f1a8"/><path fill="#26d192" d="M12.06 9.694A6.47 6.47 0 0 0 7.867.152a6.175 6.175 0 0 1-6.165 10.684A6.47 6.47 0 0 0 12.06 9.694"/></g><g transform="translate(10.679 12.323)"><g transform="translate(20.045 11.573)"><circle cx="2.264" cy="2.264" r="2.264" fill="#fee265"/><path fill="#f8c52d" d="M4.225 3.396A2.264 2.264 0 0 0 3.396.303a2.24 2.24 0 0 0-.98-.3A2.132 2.132 0 0 1 .384 3.522a2.24 2.24 0 0 0 .748.7 2.264 2.264 0 0 0 3.093-.826"/></g><circle cx="2.264" cy="2.264" r="2.264" fill="#fee265"/><path fill="#f8c52d" d="M4.225 3.397A2.264 2.264 0 0 0 3.396.304a2.24 2.24 0 0 0-.98-.3A2.132 2.132 0 0 1 .384 3.523a2.24 2.24 0 0 0 .748.7 2.264 2.264 0 0 0 3.093-.826"/></g><path fill="#1eb07c" d="m31.5 31.276-2.225-1.285a.45.45 0 0 0-.614.164l-2.029 3.514 3 1.734 2.029-3.514a.45.45 0 0 0-.161-.613M14.415 9.464l2.225 1.285a.45.45 0 0 0 .614-.164l2.029-3.514-3-1.734-2.029 3.514a.45.45 0 0 0 .161.613"/></g></g><g transform="translate(0 9.479)"><g transform="translate(4.738 22.987)"><path fill="#ffd496" d="M45.923 2.006v22.849a3.877 3.877 0 0 1-3.877 3.877H0a3.877 3.877 0 0 0 3.877-3.877V2.006A2.006 2.006 0 0 1 5.883 0h38.034a2.006 2.006 0 0 1 2.006 2.006"/><path fill="#fcc16d" d="M45.923 2.006v22.848a3.88 3.88 0 0 1-3.878 3.878h-3.929a3.877 3.877 0 0 0 3.877-3.878V2.006A2.005 2.005 0 0 0 39.987 0h3.93a2.006 2.006 0 0 1 2.006 2.006"/></g><g transform="translate(34.666 32.591)"><circle cx="10.273" cy="10.273" r="10.273" fill="#fca62f"/><path fill="#f98824" d="M20.546 10.273a10.282 10.282 0 0 1-13.356 9.8A9.815 9.815 0 0 0 7.195.465a10.283 10.283 0 0 1 13.351 9.8Z"/></g><circle cx="7.175" cy="7.175" r="7.175" fill="#fee265" transform="translate(37.764 35.689)"/><path fill="#fdd330" d="M52.114 42.864a7.182 7.182 0 0 1-9.329 6.847 6.856 6.856 0 0 0 0-13.7 7.182 7.182 0 0 1 9.325 6.848Z"/><path d="M18.194 12.738a3.085 3.085 0 1 0-1.548 5.758 3 3 0 0 0 .8-.106 3.085 3.085 0 0 0 .744-5.652Zm-.292 3.393a1.444 1.444 0 1 1-1.624-2.116 1.5 1.5 0 0 1 .376-.05 1.445 1.445 0 0 1 1.248 2.166M13.325 45.83h3.815a.821.821 0 0 0 0-1.642h-3.815a.821.821 0 0 0 0 1.642m10.819 1.084h-10.82a.821.821 0 0 0 0 1.642h10.82a.821.821 0 0 0 0-1.642"/><path d="M51.481 33.911v-8.918a2.83 2.83 0 0 0-1.681-2.584l.347-.6a2.344 2.344 0 0 0-.858-3.2l-1.749-1.014v-7.532a2.83 2.83 0 0 0-2.827-2.827h-12.17a2.83 2.83 0 0 0-1.809.655L17.613.316a2.345 2.345 0 0 0-3.2.858l-6.585 11.4h-5A2.83 2.83 0 0 0 0 15.406v24.34a.821.821 0 0 0 1.642 0v-24.34a1.187 1.187 0 0 1 1.185-1.185h4.05L3.2 20.584a2.344 2.344 0 0 0 .858 3.2l3.733 2.155v21.9a3.06 3.06 0 0 1-3.057 3.057H4.7a3.06 3.06 0 0 1-3.058-3.055v-4.449a.821.821 0 0 0-1.642 0v4.449a4.7 4.7 0 0 0 4.7 4.7h34.816a11.09 11.09 0 0 0 11.965-18.63M32.543 8.878h12.17a1.187 1.187 0 0 1 1.187 1.185v6.584l-2.082-1.2v-2.276a2 2 0 0 0-1.994-1.994h-5.4L32.45 8.883a1 1 0 0 1 .093-.005m9.635 5.621-2.91-1.68h2.557a.353.353 0 0 1 .352.352zM8.3 50.898a4.68 4.68 0 0 0 1.136-3.057V24.993a1.186 1.186 0 0 1 1.185-1.184h24.567a.821.821 0 0 0 0-1.642h-1.294a7.284 7.284 0 1 0-14.439 0h-4.039a.82.82 0 0 0-.391-.54L11.3 19.478a.821.821 0 0 0-.821 1.422l2.194 1.267h-2.039l-2.2-1.268L17.3 5.551l1.57.907-1.619 2.8a1.27 1.27 0 0 0 .465 1.735l2.225 1.285a1.26 1.26 0 0 0 .633.171 1.3 1.3 0 0 0 .331-.044 1.26 1.26 0 0 0 .771-.592l1.619-2.8 3.756 2.169a.821.821 0 1 0 .821-1.422L17.41 3.721a.82.82 0 0 0-1.121.3L6.606 20.789a.82.82 0 0 0 .3 1.121l1.778 1.027a2.8 2.8 0 0 0-.754 1.19l-3.049-1.761a.7.7 0 0 1-.257-.961l11.207-19.41a.7.7 0 0 1 .961-.258l31.675 18.284a.7.7 0 0 1 .257.961l-.681 1.181h-1.627l.326-.565a.82.82 0 0 0-.3-1.121l-15.411-8.9a.821.821 0 0 0-.821 1.422l14.7 8.487-.389.674h-1.246a.82.82 0 0 0-.409-.676l-3.722-2.149a.821.821 0 0 0-.821 1.422l2.43 1.4h-1.919a.821.821 0 1 0 0 1.642h9.82a1.186 1.186 0 0 1 1.185 1.184v7.921A11.089 11.089 0 0 0 37.3 50.898zm13.488-32.523a5.642 5.642 0 0 1 10.445 3.792h-3.696a2.2 2.2 0 0 0-1.064-1.521l-.722-.416a.56.56 0 0 1-.281-.486.55.55 0 0 1 .076-.279.56.56 0 0 1 .763-.205l.724.418a.56.56 0 0 1 .276.553.821.821 0 1 0 1.629.2 2.2 2.2 0 0 0-.754-1.944l.057-.1a.821.821 0 0 0-1.422-.821l-.057.1a2.2 2.2 0 0 0-1.832 3.985l.723.417a.6.6 0 0 1 .123.1h-1.685a.82.82 0 0 0-1.635 0h-2.34a5.6 5.6 0 0 1 .671-3.792Zm.086-10.183-1.434 2.482-1.582-.913 1.433-2.482Zm23.065 44.129a9.452 9.452 0 1 1 9.452-9.452 9.463 9.463 0 0 1-9.452 9.452"/><path d="M45.402 42.105h-.927a.712.712 0 0 1 0-1.423h.927a.71.71 0 0 1 .59.314.821.821 0 0 0 1.36-.919 2.35 2.35 0 0 0-1.593-1.009v-.325a.821.821 0 0 0-1.642 0v.326a2.352 2.352 0 0 0 .357 4.676h.927a.712.712 0 0 1 0 1.423h-.927a.71.71 0 0 1-.656-.435.821.821 0 0 0-1.512.64 2.35 2.35 0 0 0 1.81 1.41v.2a.821.821 0 1 0 1.642 0v-.2a2.352 2.352 0 0 0-.357-4.676Z"/><path d="M44.939 34.868a8 8 0 1 0 8 8 8.005 8.005 0 0 0-8-8m0 14.35a6.354 6.354 0 1 1 6.354-6.354 6.36 6.36 0 0 1-6.354 6.354"/></g></g></g></svg>