<svg xmlns="http://www.w3.org/2000/svg" width="112.113" height="112.788" viewBox="0 0 112.113 112.788"><g transform="translate(6270.113 -1171.182)"><ellipse cx="56.056" cy="56.394" fill="#fff" rx="56.056" ry="56.394" transform="translate(-6270.113 1171.182)"/><path fill="#fff" d="M-6214.057 1174.182a52.7 52.7 0 0 0-37.51 15.632 53.567 53.567 0 0 0 0 75.523 53.089 53.089 0 0 0 90.567-37.762 53.41 53.41 0 0 0-32.413-49.201 52.4 52.4 0 0 0-20.644-4.192m0-3a56.4 56.4 0 1 1-56.056 56.394 56.226 56.226 0 0 1 56.056-56.394"/><g transform="translate(-6254.96 1191.532)"><circle cx="5.031" cy="5.031" r="5.031" fill="#f3c5d2" transform="translate(20.63 59.015)"/><circle cx="3.081" cy="3.081" r="3.081" fill="#f8c091" transform="translate(22.58 54.593)"/><path fill="#ed6c8e" d="m36.091 65.379 1.579.993a13.8 13.8 0 0 0 2.235-7.537h-1.869a12 12 0 0 0-.283-2.59l1.829-.39a13.9 13.9 0 0 0-3.818-6.9l-1.33 1.3a12.4 12.4 0 0 0-3.508-2.438l.8-1.667a14.3 14.3 0 0 0-6.063-1.329 15 15 0 0 0-1.822.114l.237 1.824a12.4 12.4 0 0 0-4.1 1.263l-.864-1.635a14.16 14.16 0 0 0-5.777 5.414l1.621.926a12 12 0 0 0-1.482 3.97l-1.842-.321a14 14 0 0 0-.219 2.459 13.7 13.7 0 0 0 1.074 5.344l1.732-.7a12.2 12.2 0 0 0 2.306 3.563l-1.384 1.245a14.26 14.26 0 0 0 6.818 4.084l.485-1.778a12.5 12.5 0 0 0 3.215.417q.538 0 1.064-.046l.159 1.833a14.3 14.3 0 0 0 7.444-2.84l-1.143-1.47a12.4 12.4 0 0 0 2.906-3.108m-18.367-6.544a7.938 7.938 0 1 1 7.937 7.806 7.88 7.88 0 0 1-7.938-7.806Z"/><path fill="#de556f" d="M38.036 58.835a12 12 0 0 0-.283-2.59l1.829-.39a13.9 13.9 0 0 0-3.818-6.9l-1.33 1.3a12.4 12.4 0 0 0-3.508-2.438l.8-1.667a14.3 14.3 0 0 0-6.063-1.329q-.414 0-.83.025a14.846 14.846 0 0 1 2.017 27.529l.036.414a14.3 14.3 0 0 0 7.444-2.84l-1.145-1.461a12.4 12.4 0 0 0 2.905-3.111l1.579.993a13.8 13.8 0 0 0 2.235-7.537h-1.869Z"/><circle cx="6.074" cy="6.074" r="6.074" fill="#e9ac3f" transform="translate(53.349 43.13)"/><circle cx="3.72" cy="3.72" r="3.72" fill="#f8c091" transform="translate(55.704 37.791)"/><path fill="#f7c848" d="M79.877 41.609h-2.64a17.5 17.5 0 0 0-.4-3.719l2.583-.56a20.06 20.06 0 0 0-5.392-9.9l-1.879 1.867a17.6 17.6 0 0 0-4.955-3.5l1.128-2.394a19.95 19.95 0 0 0-8.564-1.909 20 20 0 0 0-2.573.163l.335 2.62a17.3 17.3 0 0 0-5.79 1.813l-1.218-2.35a20.14 20.14 0 0 0-8.159 7.775l2.289 1.33a17.4 17.4 0 0 0-2.092 5.7l-2.6-.461a20.3 20.3 0 0 0-.309 3.531 20 20 0 0 0 1.516 7.674l2.445-1.01a17.5 17.5 0 0 0 3.257 5.116l-1.956 1.787a20.1 20.1 0 0 0 9.629 5.865l.685-2.553a17.4 17.4 0 0 0 4.541.6q.76-.001 1.5-.065l.224 2.632a20.03 20.03 0 0 0 10.513-4.078l-1.613-2.1a17.6 17.6 0 0 0 4.1-4.468l2.23 1.426a20.06 20.06 0 0 0 3.165-10.832m-31.125 0a11.007 11.007 0 1 1 11.007 11.007 11.02 11.02 0 0 1-11.007-11.007"/><path fill="#e9ac3f" d="M53.191 60.63q.662.228 1.342.411l.081-.3q-.719-.03-1.423-.111m24.047-19.021a17.5 17.5 0 0 0-.4-3.719l2.583-.56a20.06 20.06 0 0 0-5.392-9.9l-1.879 1.867a17.6 17.6 0 0 0-4.955-3.5l1.128-2.394a19.95 19.95 0 0 0-8.564-1.909 20 20 0 0 0-2.573.163l.2 1.561a18.828 18.828 0 0 1 3.941 36.569l.159 1.871a20.03 20.03 0 0 0 10.513-4.078l-1.613-2.1a17.6 17.6 0 0 0 4.1-4.468l2.23 1.426a20.06 20.06 0 0 0 3.157-10.824Z"/><circle cx="5.896" cy="5.896" r="5.896" fill="#ccd8d3" transform="translate(21.843 17.714)"/><path fill="#76c6b6" d="m39.964 25.174 1.851 1.164a16.17 16.17 0 0 0 2.62-8.834h-2.191a14 14 0 0 0-.332-3.035l2.144-.457a16.3 16.3 0 0 0-4.474-8.084l-1.56 1.524a14.6 14.6 0 0 0-4.112-2.857l.936-1.954a16.8 16.8 0 0 0-7.107-1.558 17 17 0 0 0-2.135.133l.278 2.138a14.6 14.6 0 0 0-4.8 1.48l-1.016-1.918a16.6 16.6 0 0 0-6.771 6.346l1.9 1.086a14 14 0 0 0-1.736 4.649l-2.159-.376a16.3 16.3 0 0 0-.257 2.883 16.1 16.1 0 0 0 1.258 6.263l2.029-.824a14.3 14.3 0 0 0 2.7 4.176l-1.623 1.458a16.7 16.7 0 0 0 7.991 4.787l.569-2.084a14.7 14.7 0 0 0 3.768.489q.63-.001 1.247-.053l.186 2.148a16.8 16.8 0 0 0 8.725-3.328l-1.339-1.715a14.5 14.5 0 0 0 3.41-3.647m-21.528-7.671a9.3 9.3 0 1 1 9.3 9.15 9.24 9.24 0 0 1-9.3-9.15"/><path fill="#24ae98" d="m20.39 3.531-.328-.612a17 17 0 0 0-1.965 1.178 15 15 0 0 1 2.293-.566m21.854 13.972a14 14 0 0 0-.332-3.035l2.144-.457a16.3 16.3 0 0 0-4.475-8.083l-1.559 1.524a14.6 14.6 0 0 0-4.112-2.857l.936-1.954a16.8 16.8 0 0 0-7.107-1.558 17 17 0 0 0-2.135.133l.278 2.138q-.405.052-.8.127c7.4 1.06 14.248 6.847 14.248 14.542 0 6.243-4.9 12.187-10.266 14.557l.111 1.283a16.8 16.8 0 0 0 8.725-3.328l-1.339-1.715a14.5 14.5 0 0 0 3.405-3.647l1.851 1.164a16.17 16.17 0 0 0 2.62-8.834h-2.191Z"/><circle cx="3.611" cy="3.611" r="3.611" fill="#f8c091" transform="translate(24.128 12.531)"/><g transform="translate(9.96)"><path d="m2.749 24.77 1.073-.436a15.3 15.3 0 0 0 1.737 2.689l-.833.748a1.083 1.083 0 0 0-.069 1.543 17.8 17.8 0 0 0 8.508 5.1 1.083 1.083 0 0 0 1.321-.762l.3-1.083a16 16 0 0 0 3 .286h.259l.1 1.108a1.083 1.083 0 0 0 1.078.99h.092A17.86 17.86 0 0 0 28.59 31.4a1.083 1.083 0 0 0 .2-1.531l-.685-.878a15.5 15.5 0 0 0 2.193-2.353l.98.616a1.083 1.083 0 0 0 1.484-.327 17.25 17.25 0 0 0 2.8-9.424 1.083 1.083 0 0 0-1.083-1.083h-1.151q-.04-.558-.121-1.113l1.115-.238a1.083 1.083 0 0 0 .832-1.292 17.37 17.37 0 0 0-4.771-8.619 1.083 1.083 0 0 0-1.519 0l-.823.8a15.6 15.6 0 0 0-2.657-1.85l.479-1a1.083 1.083 0 0 0-.522-1.45A17.9 17.9 0 0 0 17.779 0a18 18 0 0 0-2.27.142 1.083 1.083 0 0 0-.939 1.214l.143 1.1a15.6 15.6 0 0 0-3.119.963l-.529-1a1.083 1.083 0 0 0-1.45-.46 17.7 17.7 0 0 0-7.211 6.76 1.083 1.083 0 0 0 .395 1.491l.979.56a15 15 0 0 0-1.115 2.99l-1.136-.2a1.083 1.083 0 0 0-1.252.875A17.4 17.4 0 0 0 0 17.5a17.2 17.2 0 0 0 1.34 6.686 1.083 1.083 0 0 0 1.409.584m-.5-8.891 1.06.185a1.083 1.083 0 0 0 1.252-.874 12.9 12.9 0 0 1 1.6-4.29 1.083 1.083 0 0 0-.394-1.492l-.912-.521a15.5 15.5 0 0 1 4.8-4.489l.5.941a1.083 1.083 0 0 0 1.451.46 13.5 13.5 0 0 1 4.448-1.37 1.083 1.083 0 0 0 .938-1.214l-.133-1.023q.458-.026.916-.026A15.7 15.7 0 0 1 23.419 3.2l-.446.931a1.083 1.083 0 0 0 .521 1.45A13.4 13.4 0 0 1 27.3 8.222a1.083 1.083 0 0 0 1.519 0l.772-.754a15.2 15.2 0 0 1 3.174 5.715l-1.039.221a1.083 1.083 0 0 0-.832 1.293 13 13 0 0 1 .306 2.8 1.083 1.083 0 0 0 1.083 1.083h1.07a15.1 15.1 0 0 1-1.857 6.247l-.916-.576a1.083 1.083 0 0 0-1.484.326 13.4 13.4 0 0 1-3.151 3.374 1.083 1.083 0 0 0-.2 1.53l.638.817a15.7 15.7 0 0 1-6.188 2.354l-.09-1.036a1.083 1.083 0 0 0-1.078-.99h-.092c-.39.033-.78.05-1.157.05a13.6 13.6 0 0 1-3.491-.453 1.083 1.083 0 0 0-1.322.762l-.276 1.013a15.6 15.6 0 0 1-5.667-3.387l.775-.7a1.083 1.083 0 0 0 .069-1.543 13.2 13.2 0 0 1-2.5-3.859 1.083 1.083 0 0 0-1.406-.583l-1 .407a15 15 0 0 1-.794-4.843 15 15 0 0 1 .087-1.611Z"/><path d="M17.779 27.736a10.233 10.233 0 1 0-4.634-19.389 1.083 1.083 0 1 0 .958 1.943 8.24 8.24 0 0 1 3.676-.853 8.154 8.154 0 0 1 8.22 8.067 7.9 7.9 0 0 1-1.421 4.528 7 7 0 0 0-2.532-3.94 4.694 4.694 0 1 0-8.535 0 7 7 0 0 0-2.532 3.94 7.93 7.93 0 0 1 .3-9.462 1.083 1.083 0 0 0-1.7-1.343 10.03 10.03 0 0 0-2.187 6.275 10.32 10.32 0 0 0 10.387 10.234m0-14.123a2.528 2.528 0 1 1-2.528 2.528 2.53 2.53 0 0 1 2.529-2.524ZM14.844 19.8a4.68 4.68 0 0 0 5.869 0 4.8 4.8 0 0 1 1.88 3.809c0 .149-.007.3-.021.441a8.32 8.32 0 0 1-9.585 0 5 5 0 0 1-.021-.441 4.8 4.8 0 0 1 1.879-3.808Zm.856 30.149a9.1 9.1 0 0 0-2.845.453 1.083 1.083 0 0 0 .675 2.058 7 7 0 0 1 2.169-.345 6.8 6.8 0 0 1 6.854 6.723 6.6 6.6 0 0 1-.992 3.481 6.13 6.13 0 0 0-2.027-3.023 4.163 4.163 0 1 0-7.671 0 6.13 6.13 0 0 0-2.027 3.022 6.605 6.605 0 0 1 .488-7.646 1.083 1.083 0 1 0-1.685-1.361 8.83 8.83 0 0 0-1.96 5.528 9.021 9.021 0 1 0 9.02-8.889Zm0 5.729a2 2 0 1 1-2 2 2 2 0 0 1 2-2.003Zm-3.936 8.659a4 4 0 0 1-.012-.29A3.94 3.94 0 0 1 13.197 61a4.154 4.154 0 0 0 5.006 0 3.94 3.94 0 0 1 1.445 3.049q-.001.148-.013.29a6.94 6.94 0 0 1-7.871 0Z"/><path d="M29.945 57.753h-.831q-.028-.334-.072-.666l.806-.172a1.083 1.083 0 0 0 .832-1.292 15 15 0 0 0-4.114-7.432 1.083 1.083 0 0 0-1.519 0l-.6.585a13.4 13.4 0 0 0-2.052-1.429l.344-.719a1.083 1.083 0 0 0-.522-1.45 15.4 15.4 0 0 0-6.519-1.43 16 16 0 0 0-1.957.122 1.083 1.083 0 0 0-.939 1.214l.1.79a13.5 13.5 0 0 0-2.412.744l-.384-.728a1.083 1.083 0 0 0-1.45-.46 15.24 15.24 0 0 0-6.217 5.828 1.083 1.083 0 0 0 .395 1.491l.706.4a13 13 0 0 0-.859 2.305l-.825-.144a1.083 1.083 0 0 0-1.252.875 15 15 0 0 0-.236 2.652A14.8 14.8 0 0 0 1.526 64.6a1.083 1.083 0 0 0 1.406.584l.781-.317a13 13 0 0 0 1.34 2.074l-.6.538a1.083 1.083 0 0 0-.069 1.543 15.34 15.34 0 0 0 7.335 4.394 1.083 1.083 0 0 0 1.321-.762l.214-.782a13.7 13.7 0 0 0 2.517.219l.069.8a1.083 1.083 0 0 0 1.078.99h.092a15.4 15.4 0 0 0 8.006-3.055 1.083 1.083 0 0 0 .2-1.531l-.493-.631a13.4 13.4 0 0 0 1.692-1.816l.713.448a1.083 1.083 0 0 0 1.484-.327 14.9 14.9 0 0 0 2.41-8.127 1.083 1.083 0 0 0-1.077-1.089m-2.6 7.112-.639-.4a1.083 1.083 0 0 0-1.484.326 11.2 11.2 0 0 1-2.651 2.838 1.083 1.083 0 0 0-.2 1.53l.437.56a13.2 13.2 0 0 1-4.9 1.864l-.062-.714a1.083 1.083 0 0 0-1.078-.99h-.092a12 12 0 0 1-.973.042 11.5 11.5 0 0 1-2.938-.381 1.083 1.083 0 0 0-1.322.762l-.191.7a13.2 13.2 0 0 1-4.49-2.682l.531-.478a1.083 1.083 0 0 0 .069-1.543 11 11 0 0 1-2.1-3.246 1.083 1.083 0 0 0-1.406-.583l-.7.284a12.7 12.7 0 0 1-.616-3.921q0-.6.056-1.2l.736.128a1.083 1.083 0 0 0 1.252-.874 10.9 10.9 0 0 1 1.348-3.608 1.083 1.083 0 0 0-.394-1.492l-.626-.358a13.1 13.1 0 0 1 3.8-3.554l.344.653a1.083 1.083 0 0 0 1.451.46 11.3 11.3 0 0 1 3.742-1.153 1.083 1.083 0 0 0 .938-1.214l-.091-.7q.3-.013.6-.013a13.3 13.3 0 0 1 4.594.809l-.305.637a1.083 1.083 0 0 0 .521 1.45 11.3 11.3 0 0 1 3.2 2.225 1.083 1.083 0 0 0 1.519 0l.538-.526a12.8 12.8 0 0 1 2.515 4.525l-.717.153a1.083 1.083 0 0 0-.832 1.293 11 11 0 0 1 .257 2.356 1.083 1.083 0 0 0 1.083 1.083h.741a12.7 12.7 0 0 1-1.464 4.951Zm42.572-24.338h-1.589q-.053-.9-.193-1.8l1.555-.337a1.083 1.083 0 0 0 .829-1.288 21.14 21.14 0 0 0-5.682-10.437 1.083 1.083 0 0 0-1.531 0l-1.133 1.126a18.6 18.6 0 0 0-3.51-2.48l.68-1.444a1.083 1.083 0 0 0-.518-1.441 21 21 0 0 0-9.025-2.012 22 22 0 0 0-2.71.172 1.083 1.083 0 0 0-.937 1.211l.2 1.578a18.4 18.4 0 0 0-4.105 1.286l-.734-1.416a1.083 1.083 0 0 0-1.46-.463 21.2 21.2 0 0 0-8.6 8.192 1.083 1.083 0 0 0 .392 1.48l1.379.8a18.4 18.4 0 0 0-1.484 4.039l-1.567-.278a1.083 1.083 0 0 0-1.255.877 21.4 21.4 0 0 0-.326 3.721 21.1 21.1 0 0 0 1.6 8.088 1.083 1.083 0 0 0 1.414.588l1.474-.609a18.5 18.5 0 0 0 2.307 3.625l-1.179 1.077a1.083 1.083 0 0 0-.069 1.53 21.16 21.16 0 0 0 10.148 6.18 1.083 1.083 0 0 0 1.327-.765l.413-1.538a18.6 18.6 0 0 0 3.768.386q.254 0 .513-.007l.135 1.583a1.083 1.083 0 0 0 1.079.991h.092a21.1 21.1 0 0 0 11.081-4.3 1.083 1.083 0 0 0 .2-1.518l-.973-1.267a18.6 18.6 0 0 0 2.906-3.164l1.345.86a1.083 1.083 0 0 0 1.5-.329 21.14 21.14 0 0 0 3.328-11.407 1.08 1.08 0 0 0-1.085-1.09m-3.512 10.395-1.292-.826a1.083 1.083 0 0 0-1.5.329 16.5 16.5 0 0 1-3.851 4.193 1.083 1.083 0 0 0-.2 1.518l.935 1.218a18.9 18.9 0 0 1-7.992 3.1l-.13-1.523a1.083 1.083 0 0 0-1.079-.991h-.092c-.476.041-.951.061-1.411.061a16.4 16.4 0 0 1-4.259-.562 1.083 1.083 0 0 0-1.328.765l-.4 1.478a19 19 0 0 1-7.32-4.46l1.134-1.036a1.083 1.083 0 0 0 .069-1.53 16.4 16.4 0 0 1-3.056-4.8 1.083 1.083 0 0 0-1.414-.587l-1.416.585a19 19 0 0 1-1.049-6.248 19 19 0 0 1 .134-2.271l1.5.267a1.083 1.083 0 0 0 1.255-.877 16.2 16.2 0 0 1 1.962-5.341 1.083 1.083 0 0 0-.392-1.481l-1.326-.771a19.05 19.05 0 0 1 6.2-5.911l.705 1.361a1.083 1.083 0 0 0 1.461.463 16.2 16.2 0 0 1 5.429-1.7 1.083 1.083 0 0 0 .936-1.211l-.194-1.515q.678-.048 1.357-.048a18.9 18.9 0 0 1 7.11 1.372l-.653 1.387a1.083 1.083 0 0 0 .517 1.441 16.4 16.4 0 0 1 4.649 3.285 1.083 1.083 0 0 0 1.531 0l1.089-1.083a19 19 0 0 1 4.1 7.528l-1.495.324a1.083 1.083 0 0 0-.829 1.289 16.4 16.4 0 0 1 .375 3.489 1.083 1.083 0 0 0 1.083 1.083h1.527a19 19 0 0 1-2.38 8.235Z"/><path d="M57.945 32.686a1.083 1.083 0 0 0-1.461 1.6 9.9 9.9 0 0 1 .124 14.535 7.15 7.15 0 0 0-2.79-5.287 4.8 4.8 0 1 0-8.71 0 7.16 7.16 0 0 0-2.73 4.656 9.921 9.921 0 0 1 10.471-16.023 1.083 1.083 0 0 0 .667-2.061 12.118 12.118 0 1 0 4.429 2.579Zm-8.482 6.191a2.637 2.637 0 1 1-2.637 2.637 2.64 2.64 0 0 1 2.637-2.64ZM44.54 50.022a4.97 4.97 0 0 1 1.9-4.781 4.79 4.79 0 0 0 6.046 0 4.98 4.98 0 0 1 1.81 5.212 9.89 9.89 0 0 1-9.756-.431"/></g></g></g></svg>