<svg xmlns="http://www.w3.org/2000/svg" width="112.113" height="112.788" viewBox="0 0 112.113 112.788"><g transform="translate(6671.051 -1121)"><ellipse cx="56.056" cy="56.394" fill="#fff" rx="56.056" ry="56.394" transform="translate(-6671.051 1121)"/><path fill="#fff" d="M-6614.995 1124a52.7 52.7 0 0 0-37.51 15.632 53.567 53.567 0 0 0 0 75.523 53.089 53.089 0 0 0 90.567-37.762 53.41 53.41 0 0 0-32.413-49.201 52.4 52.4 0 0 0-20.644-4.192m0-3a56.4 56.4 0 1 1-56.056 56.394 56.226 56.226 0 0 1 56.056-56.394"/><g transform="translate(-6650.4 1144.082)"><path fill="#72c2e9" d="m49.009 12.496-.863 10.286-9.336-4.4 2.341-1.351-4.309-7.466-1.443-2.5L39.076.698l1.443 2.5 6.146 10.647Z"/><path fill="#72c2e9" d="m39.075.7-3.677 6.367-8.295 14.372-5.521-3.183L31.724.7Z"/><path fill="#4ba5c8" d="M40.517 3.199 36.84 9.566l-1.443-2.5L39.074.699Z"/><path fill="#72c2e9" d="m51.282 58.153.009 2.744-8.494-5.867 8.462-5.911.009 2.7h11.536l3.654 6.329Z"/><path fill="#72c2e9" d="m70.111 51.824-3.654 6.329-3.654-6.329-7.591-13.146 5.481-3.163Z"/><path fill="#4ba5c8" d="M66.458 58.153h-2.886l-3.654-6.329h2.886Z"/><path fill="#72c2e9" d="m16.121 43.25-2.343-1.342-4.1 7.1-1.668 2.886H.701l1.665-2.886 5.922-10.25-2.381-1.368 9.328-4.422Zm7.065 8.647v6.329H4.355L.701 51.897Z"/><path fill="#4ba5c8" d="m9.677 49.01-1.668 2.883H.701l1.665-2.886Z"/><path fill="#f0c020" d="M13.819 23.922c-1.111-.367-2.258-.688-2.9-3.462-.593 2.555-1.544 3.013-2.9 3.462 2.216.732 2.55 1.944 2.9 3.462.605-2.616 1.609-3.039 2.9-3.462"/><path d="M10.192 27.554c-.322-1.387-.534-2.3-2.409-2.923a.747.747 0 0 1 0-1.417c1.129-.373 1.874-.619 2.409-2.923a.746.746 0 0 1 1.453 0c.547 2.355 1.364 2.578 2.409 2.923a.747.747 0 0 1 0 1.417c-1.088.36-1.875.62-2.409 2.923a.746.746 0 0 1-1.453 0m-.426-3.614a3.9 3.9 0 0 1 1.168 1.235 3.7 3.7 0 0 1 1.1-1.245 3.8 3.8 0 0 1-1.115-1.29 3.7 3.7 0 0 1-1.155 1.3Z"/><path fill="#f0c020" d="M64.68 23.922c-1.111-.367-2.258-.688-2.9-3.462-.593 2.555-1.544 3.013-2.9 3.462 2.216.732 2.55 1.944 2.9 3.462.608-2.616 1.608-3.039 2.9-3.462"/><path d="M61.051 27.554c-.322-1.387-.534-2.3-2.409-2.923a.747.747 0 0 1 0-1.417c1.129-.373 1.875-.619 2.409-2.923a.746.746 0 0 1 1.453 0c.547 2.355 1.364 2.578 2.409 2.923a.747.747 0 0 1 0 1.417c-1.088.36-1.875.62-2.409 2.923a.746.746 0 0 1-1.453 0m-.426-3.614a3.9 3.9 0 0 1 1.168 1.235 3.7 3.7 0 0 1 1.1-1.245 3.8 3.8 0 0 1-1.115-1.29 3.7 3.7 0 0 1-1.154 1.3Z"/><path fill="#f0c020" d="M38.467 63.627c-1.111-.367-2.258-.688-2.9-3.462-.593 2.555-1.544 3.013-2.9 3.462 2.215.732 2.55 1.944 2.9 3.462.605-2.617 1.609-3.035 2.9-3.462"/><path d="M34.839 67.259c-.322-1.387-.534-2.3-2.409-2.923a.747.747 0 0 1 0-1.417c1.129-.373 1.874-.619 2.409-2.923a.746.746 0 0 1 1.453 0c.547 2.355 1.364 2.578 2.409 2.923a.747.747 0 0 1 0 1.417c-1.088.36-1.875.62-2.409 2.923a.746.746 0 0 1-1.453 0m-.426-3.614a3.9 3.9 0 0 1 1.168 1.235 3.7 3.7 0 0 1 1.1-1.245 3.8 3.8 0 0 1-1.115-1.29 3.7 3.7 0 0 1-1.154 1.3Z"/><path fill="#13bf6d" d="M45.132 39.785a9.726 9.726 0 0 1-19.452 0c0-5.372 9.726-17 9.726-17s9.726 11.628 9.726 17"/><path fill="#c5e5ff" d="M24.971 17.6a.7.7 0 0 1-.256-.958l5.471-9.471a.7.7 0 0 1 1.214.7l-5.469 9.473a.7.7 0 0 1-.96.256m6.874-11.9a.7.7 0 0 1-.256-.958l.912-1.579a.7.7 0 1 1 1.214.7l-.912 1.579a.7.7 0 0 1-.955.259Zm34.628 47.015-5.471-9.471a.7.7 0 0 1 1.214-.7l5.471 9.471a.7.7 0 0 1-1.214.7m-6.874-11.9-.912-1.579a.7.7 0 0 1 1.214-.7l.912 1.579a.7.7 0 0 1-1.214.7M20.398 56.392H9.461a.7.7 0 1 1 0-1.4h10.937a.7.7 0 0 1 0 1.4m-13.742 0h-.688a.7.7 0 1 1 0-1.4h.688a.7.7 0 1 1 0 1.4"/><path fill="#76ffbb" d="M31.886 46.015a.7.7 0 0 1 .628-1.253 5.756 5.756 0 0 0 8.585-4.977c0-.454-.215-1.606-1.657-4.218a.7.7 0 1 1 1.227-.678c1.215 2.2 1.831 3.849 1.831 4.9a7.158 7.158 0 0 1-10.614 6.226m-2.444-1.733q-.318-.3-.627-.631a.7.7 0 1 1 1.027-.954q.276.299.559.562a.701.701 0 0 1-.959 1.023"/><path d="m48.845 22.842.861-10.284a.7.7 0 0 0-1.049-.667l-1.736 1L39.68.351A.7.7 0 0 0 39.074 0h-7.35a.71.71 0 0 0-.609.351L20.973 17.906a.7.7 0 0 0 .255.956.72.72 0 0 0 .959-.255l9.936-17.2h5.732l-3.068 5.314-8.291 14.368a.7.7 0 0 0 1.214.7l7.688-13.321 4.792 8.307-1.733 1a.7.7 0 0 0 .053 1.242l9.336 4.4a.7.7 0 0 0 1-.578Zm-8.526-4.518 1.181-.681a.706.706 0 0 0 .258-.959l-5.55-9.613 2.865-4.968 6.983 12.093a.72.72 0 0 0 .956.258l1.183-.681-.667 7.945Zm20.98 16.841a.72.72 0 0 0-.956-.258.7.7 0 0 0-.255.959l9.213 15.957-2.843 4.926L55.82 38.328a.72.72 0 0 0-.956-.258.7.7 0 0 0-.258.959l6.983 12.093h-9.622l-.006-2.005a.7.7 0 0 0-1.1-.572l-8.464 5.912a.7.7 0 0 0 .006 1.15l8.492 5.867a.7.7 0 0 0 1.1-.578l-.006-2.042H66.46a.71.71 0 0 0 .609-.351l3.652-6.33a.7.7 0 0 0 0-.7ZM51.281 57.452a.7.7 0 0 0-.7.7l.006 1.4-6.56-4.532 6.534-4.566.006 1.366a.7.7 0 0 0 .7.7h11.13l2.844 4.927ZM3.748 58.577a.71.71 0 0 0 .609.351h18.83a.7.7 0 0 0 0-1.4H4.759l-2.844-4.927h21.272a.7.7 0 1 0 0-1.4H9.223l4.814-8.332 1.736 1a.7.7 0 0 0 1.049-.67l-.886-10.281a.7.7 0 0 0-1-.575l-9.33 4.414a.7.7 0 0 0-.048 1.24l1.772 1.018L.093 51.546a.71.71 0 0 0 0 .7Zm5.149-19.469a.7.7 0 0 0-.258-.959l-1.22-.7 7.2-3.416.684 7.945-1.181-.679a.72.72 0 0 0-.956.258l-5.567 9.639H1.915Z"/><path d="M45.833 39.785c0-5.562-9.485-16.969-9.889-17.452a.724.724 0 0 0-1.076 0c-.4.483-9.889 11.89-9.889 17.452a10.44 10.44 0 0 0 9.726 10.4v3.947a.7.7 0 1 0 1.4 0v-3.946a10.44 10.44 0 0 0 9.728-10.401m-9.729 9v-12.86l3.256-3.256a.7.7 0 0 0 0-.99.716.716 0 0 0-.993 0l-2.263 2.263V28.69a.7.7 0 1 0-1.4 0v12.858l-3.682-3.682a.716.716 0 0 0-.993 0 .7.7 0 0 0 0 .99l4.675 4.672v5.251a9.035 9.035 0 0 1-8.324-9c0-4.349 7.006-13.38 9.025-15.892 2.019 2.512 9.025 11.543 9.025 15.892a9.035 9.035 0 0 1-8.325 9.001Z"/></g></g></svg>