<svg xmlns="http://www.w3.org/2000/svg" width="42.464" height="38.926" viewBox="0 0 42.464 38.926"><path fill="#a98e72" d="M41.049 38.925a.71.71 0 0 1-.708-.708v-7.785a.708.708 0 0 1 1.415 0v7.785a.71.71 0 0 1-.707.708"/><path fill="#69b9e7" d="m19.817 20.524-2.167 1.084a1.42 1.42 0 0 0-.768 1.066l-.6 4.22h9.908l-.6-4.22a1.42 1.42 0 0 0-.768-1.066l-2.174-1.084Z"/><path fill="#a98e72" d="M1.416 38.926a.71.71 0 0 1-.708-.708v-6.37a.708.708 0 0 1 1.415 0v6.37a.71.71 0 0 1-.707.708"/><path fill="#8e7760" d="M9.201 29.725h2.831v8.493H9.201Zm21.232 0h2.831v8.493h-2.831Z"/><path fill="#746250" d="M9.201 29.725h2.831v1.415H9.201Zm21.232 0h2.831v1.415h-2.831Z"/><path fill="#cdcdcd" d="M19.109 23.355h4.246v3.539h-4.246Z"/><path fill="#a8e6c7" d="m38.926 28.31-5.662 3.539 3.539 6.37h1.415l-1.415-5.662 4.954-2.123V28.31Z"/><path fill="#d9d9d9" d="M33.264 27.602h-3.539a.71.71 0 0 1-.7-.591l-.708-4.246a.71.71 0 1 1 1.4-.233l.609 3.655h2.939a.708.708 0 1 1 0 1.416Zm-24.063 0h3.539a.71.71 0 0 0 .7-.591l.708-4.246a.71.71 0 1 0-1.4-.233l-.609 3.655H9.2a.708.708 0 0 0 0 1.416Z"/><path fill="#bef5fa" d="m3.539 29.017 3.539 2.123 2.123 7.077H6.37l-1.415-4.954-4.247-1.415v-2.831Zm-.86-6.885 4.4 2.639h2.83v2.123H6.37l-2.831-1.415Z"/><path fill="#69b9e7" d="M22.647 38.218h-2.831l-.708-5.662-1-1a1.42 1.42 0 0 1-.415-1v-.831h7.077v.829a1.42 1.42 0 0 1-.415 1l-1 1Z"/><path fill="#fdb62f" d="M31.141.708h-7.077a1.415 1.415 0 0 0-1.416 1.415v4.246a1.415 1.415 0 0 0 1.415 1.415v2.831l4.246-2.831h2.831a1.416 1.416 0 0 0 1.415-1.415V2.123A1.416 1.416 0 0 0 31.141.708"/><path fill="#fcd795" d="M4.246 9.908v2.831l4.246-2.831h3.539a1.415 1.415 0 0 0 1.415-1.415V4.246a1.415 1.415 0 0 0-1.415-1.415H3.538a1.415 1.415 0 0 0-1.415 1.415v4.246a1.415 1.415 0 0 0 1.415 1.415Z"/><path fill="#fdb62f" d="M29.017 3.539h7.077a1.415 1.415 0 0 1 1.416 1.415V9.2a1.415 1.415 0 0 1-1.416 1.415v2.831l-4.246-2.831h-2.831a1.415 1.415 0 0 1-1.415-1.414V4.954a1.415 1.415 0 0 1 1.415-1.415"/><path fill="#ec9e15" d="M29.017 3.539a1.415 1.415 0 0 0-1.415 1.415v3.3l.708-.472h2.831a1.415 1.415 0 0 0 1.415-1.415V3.539Z"/><path fill="#fdb62f" d="M4.246 5.662h1.415v1.415H4.246Zm2.831 0h1.415v1.415H7.077Zm2.831 0h1.415v1.415H9.908Z"/><path fill="#746250" d="M0 37.51h42.464v1.415H0Z"/><ellipse cx="2.13" cy="2.839" fill="#69b9e7" rx="2.13" ry="2.839" transform="translate(19.166 13.487)"/><ellipse cx="1.775" cy="2.13" fill="#a8e6c7" rx="1.775" ry="2.13" transform="translate(37.622 15.617)"/><circle cx="2.13" cy="2.13" r="2.13" fill="#bef5fa" transform="translate(.71 15.617)"/><path fill="#bef5fa" d="M2.123 21.94a1.415 1.415 0 0 0-1.415 1.415v5.662h2.831v-5.662a1.415 1.415 0 0 0-1.416-1.415"/><path fill="#a8e6c7" d="M40.342 21.94a1.415 1.415 0 0 1 1.415 1.415v4.954h-2.831v-4.954a1.415 1.415 0 0 1 1.416-1.415"/><path fill="#a8e6c7" d="m39.633 22.223-4.246 2.548h-2.831v2.123h3.539l2.831-1.415Z"/><path fill="#a98e72" d="M8.493 26.894h25.479v2.831H8.493Z"/><path d="M40.341 21.232a2.8 2.8 0 0 0-1.86.857l-3.29 1.974h-2.635a.71.71 0 0 0-.708.708v1.415h-1.523l-.609-3.655a.71.71 0 0 0-1.4.233l.57 3.422H26.8l-.516-3.613a2.12 2.12 0 0 0-1.152-1.6l-2.167-1.084a.7.7 0 0 0-.317-.075h-2.831a.7.7 0 0 0-.317.075l-2.167 1.084a2.12 2.12 0 0 0-1.152 1.6l-.516 3.612h-2.09l.57-3.422a.71.71 0 0 0-1.4-.233l-.609 3.655h-1.52V24.77a.71.71 0 0 0-.708-.708H7.273l-3.29-1.974a2.8 2.8 0 0 0-1.86-.857A2.126 2.126 0 0 0 0 23.356v8.493a.71.71 0 0 0 .484.672l.224.075v4.916H0v1.415h42.464v-1.415h-.708v-6.308l.279-.12a.71.71 0 0 0 .429-.65v-7.077a2.126 2.126 0 0 0-2.123-2.125m-6.37 13.347 1.628 2.931h-1.628Zm0-6.978h2.123a.7.7 0 0 0 .317-.075l1.807-.9v1.291l-4.246 2.654Zm-16.39-4.827a.71.71 0 0 1 .385-.534l2.018-1.009h2.5l2.018 1.009a.71.71 0 0 1 .384.533l.487 3.412h-1.31v-2.831a.71.71 0 0 0-.708-.708h-4.246a.71.71 0 0 0-.708.708v2.831h-1.307Zm5.067 3.411h-2.831v-2.123h2.831Zm9.908 1.415v1.417H9.908v-1.415Zm-7.077 2.952v-.121h4.246v7.077h-6.276l.578-4.626.829-.829a2.1 2.1 0 0 0 .622-1.5Zm-7.871 1.5.829.829.578 4.626h-6.276V30.43h4.246v.121a2.1 2.1 0 0 0 .623 1.505Zm-9.115 1.34-.737-2.459a.7.7 0 0 0-.314-.4l-3.2-1.917v-1.993l1.807.9a.7.7 0 0 0 .317.075h2.123Zm-6.37-.329 2.253.751 1.056 3.693H2.123Zm4.78 4.444-1.269-4.441a.71.71 0 0 0-.456-.477l-3.763-1.254v-7.983a.71.71 0 0 1 .708-.708 1.5 1.5 0 0 1 .888.472.7.7 0 0 0 .163.135l3.539 2.123a.7.7 0 0 0 .364.1H9.2v.708H6.537l-2.681-1.341a.708.708 0 0 0-1.024.633v3.543a.71.71 0 0 0 .343.607l3.3 1.982 1.771 5.9Zm3 0V30.43h1.415v7.077Zm10.533 0-.63-5.042a.7.7 0 0 0-.2-.413l-1-1a.7.7 0 0 1-.207-.5v-.121h5.662v.121a.7.7 0 0 1-.207.5l-1 1a.7.7 0 0 0-.2.413l-.63 5.042Zm10.7 0V30.43h1.415v7.077Zm6.078 0-3.01-5.418 5.092-3.182a.71.71 0 0 0 .333-.6v-2.831a.708.708 0 0 0-1.024-.633l-2.681 1.341h-2.66v-.708h2.123a.7.7 0 0 0 .364-.1l3.539-2.123a.7.7 0 0 0 .163-.135 1.5 1.5 0 0 1 .888-.472.71.71 0 0 1 .708.708v6.611l-4.525 1.939a.71.71 0 0 0-.408.822l1.2 4.782Zm3.122 0h-1.565l-1.135-4.541 2.706-1.16ZM23.356 8.372v2.245a.708.708 0 0 0 1.1.589l2.474-1.649a2.12 2.12 0 0 0 2.088 1.768h2.617l4.068 2.712a.708.708 0 0 0 1.1-.589V11.2a2.13 2.13 0 0 0 1.415-2V4.954a2.126 2.126 0 0 0-2.123-2.123h-2.831v-.708A2.126 2.126 0 0 0 31.14 0h-7.077a2.126 2.126 0 0 0-2.123 2.123V6.37a2.13 2.13 0 0 0 1.416 2.002m12.739-4.125a.71.71 0 0 1 .708.708V9.2a.71.71 0 0 1-.708.708.71.71 0 0 0-.708.708v1.508l-3.146-2.1a.7.7 0 0 0-.393-.119h-2.831a.71.71 0 0 1-.708-.708v-.565l.214-.143h2.617a2.126 2.126 0 0 0 2.123-2.123v-2.12ZM28.31 7.078V4.954a.71.71 0 0 1 .708-.708h2.831V6.37a.71.71 0 0 1-.708.708Zm-4.954-4.954a.71.71 0 0 1 .708-.708h7.076a.71.71 0 0 1 .708.708v.708h-2.831a2.126 2.126 0 0 0-2.123 2.123v2.924l-2.123 1.415V7.785a.71.71 0 0 0-.708-.708.71.71 0 0 1-.708-.708ZM3.538 10.616v2.123a.708.708 0 0 0 1.1.589l4.068-2.712h3.324a2.126 2.126 0 0 0 2.123-2.123V4.246a2.126 2.126 0 0 0-2.122-2.123H3.538a2.126 2.126 0 0 0-2.123 2.123v4.247a2.126 2.126 0 0 0 2.123 2.123m-.708-6.37a.71.71 0 0 1 .708-.708h8.493a.71.71 0 0 1 .708.708v4.247a.71.71 0 0 1-.708.708H8.492a.7.7 0 0 0-.393.119l-3.146 2.1V9.908a.71.71 0 0 0-.708-.708h-.708a.71.71 0 0 1-.708-.708Z"/><path d="M4.246 5.662h1.415v1.415H4.246Zm2.831 0h1.415v1.415H7.077Zm2.831 0h1.415v1.415H9.908Zm11.324 13.447a2.831 2.831 0 1 0-2.831-2.831 2.83 2.83 0 0 0 2.831 2.831m0-4.246a1.415 1.415 0 1 1-1.415 1.415 1.415 1.415 0 0 1 1.415-1.416Zm15.57 2.831a2.831 2.831 0 1 0 2.831-2.831 2.83 2.83 0 0 0-2.831 2.831m2.831-1.415a1.415 1.415 0 1 1-1.415 1.415 1.415 1.415 0 0 1 1.415-1.416ZM2.831 20.525A2.831 2.831 0 1 0 0 17.694a2.83 2.83 0 0 0 2.831 2.831m0-4.246a1.415 1.415 0 1 1-1.415 1.415 1.415 1.415 0 0 1 1.415-1.416Z"/></svg>