<svg xmlns="http://www.w3.org/2000/svg" width="46.849" height="34.771" viewBox="0 0 46.849 34.771"><g transform="translate(.915 .915)"><g fill="#f1dbc8" transform="translate(13.643)"><ellipse cx="3.239" cy="3.264" rx="3.239" ry="3.264"/><ellipse cx="3.239" cy="3.264" rx="3.239" ry="3.264" transform="translate(11.255)"/></g><path fill="#ff916c" d="M21.986 8.847a4.38 4.38 0 0 0-3.844-2.319h-2.519a4.38 4.38 0 0 0-3.844 2.319 3.266 3.266 0 0 1-.524 6.485h1.259a4.38 4.38 0 0 1 3.844 2.319 3.2 3.2 0 0 1 1.047 0 4.38 4.38 0 0 1 3.85-2.319h1.259a3.266 3.266 0 0 1-.524-6.486Z"/><path fill="#c22c65" d="M26.877 6.528a4.38 4.38 0 0 0-3.844 2.319 3.266 3.266 0 0 1-.524 6.485h1.259a4.38 4.38 0 0 1 3.844 2.319 3.2 3.2 0 0 1 1.047 0 4.38 4.38 0 0 1 3.85-2.319h1.259a3.266 3.266 0 0 1-.524-6.486A4.38 4.38 0 0 0 29.4 6.527h-2.519Z"/><path fill="#f1dbc8" d="M14.494 12.068a3.239 3.239 0 1 0-3.239 3.264 3.26 3.26 0 0 0 3.239-3.264m7.492-3.222a3.251 3.251 0 1 0 .524-.042 3 3 0 0 0-.524.042m11.254 0a3.24 3.24 0 1 0 .524-.042 3 3 0 0 0-.524.042"/><path fill="#55cd8e" d="M16.358 17.651a4.38 4.38 0 0 0-3.844-2.319H9.995a4.38 4.38 0 0 0-3.844 2.319 3.266 3.266 0 0 1-.524 6.486h1.259a4.4 4.4 0 0 1 4.368 4.4 4.4 4.4 0 0 1 4.368-4.4h1.259a3.266 3.266 0 0 1-.524-6.486Z"/><path fill="#876e67" d="M21.25 15.332a4.38 4.38 0 0 0-3.844 2.319 3.266 3.266 0 0 1-.524 6.486h1.259a4.4 4.4 0 0 1 4.368 4.4 4.4 4.4 0 0 1 4.368-4.4h1.259a3.266 3.266 0 0 1-.524-6.485 4.38 4.38 0 0 0-3.844-2.319z"/><path fill="#4bc1d7" d="M28.661 17.651a3.266 3.266 0 0 1-.524 6.486h1.259a4.4 4.4 0 0 1 4.368 4.4 4.4 4.4 0 0 1 4.368-4.4h1.259a3.266 3.266 0 0 1-.524-6.485 4.38 4.38 0 0 0-3.844-2.319h-2.519a4.38 4.38 0 0 0-3.843 2.318"/><path fill="#f1dbc8" d="M5.627 24.136a3.264 3.264 0 1 0-3.242-3.266 3.25 3.25 0 0 0 3.242 3.266m8.013-3.266a3.238 3.238 0 1 0 2.715-3.222 3.25 3.25 0 0 0-2.715 3.222m11.253 0a3.24 3.24 0 1 0 3.239-3.264 3 3 0 0 0-.524.043 3.26 3.26 0 0 0-2.715 3.221m11.256 0a3.239 3.239 0 1 0 3.239-3.264 3 3 0 0 0-.524.043 3.26 3.26 0 0 0-2.715 3.221"/><path fill="#bdd377" d="M38.132 24.136a4.4 4.4 0 0 0-4.368 4.4v4.4h11.255v-4.4a4.4 4.4 0 0 0-4.368-4.4z"/><path fill="#ffbd50" d="M33.764 28.538a4.4 4.4 0 0 0-4.368-4.4h-2.519a4.4 4.4 0 0 0-4.368 4.4v4.4h11.255Z"/><path fill="#76c8d6" d="M22.51 28.538a4.4 4.4 0 0 0-4.368-4.4h-2.519a4.4 4.4 0 0 0-4.368 4.4v4.4H22.51Z"/><path fill="#f13d7c" d="M11.255 28.538a4.4 4.4 0 0 0-4.368-4.4H4.368A4.4 4.4 0 0 0 0 28.538v4.4h11.255Z"/></g><path d="M39.55 29.538h-.022a.915.915 0 0 0 0 1.83h.022a.915.915 0 0 0 0-1.83"/><path d="M45.933 34.77a.915.915 0 0 0 .915-.915v-4.4a5.325 5.325 0 0 0-3.386-4.955 4.181 4.181 0 0 0-3.155-6.892h-.039a5.3 5.3 0 0 0-2.428-1.918 4.181 4.181 0 0 0-3.161-6.89h-.039a5.3 5.3 0 0 0-2.427-1.919 4.154 4.154 0 1 0-6.322 0 5.3 5.3 0 0 0-2.427 1.92h-.078a5.3 5.3 0 0 0-2.427-1.92 4.154 4.154 0 1 0-6.322 0 5.3 5.3 0 0 0-2.427 1.92h-.04a4.181 4.181 0 0 0-3.161 6.889 5.3 5.3 0 0 0-2.427 1.919h-.04A4.181 4.181 0 0 0 3.387 24.5 5.325 5.325 0 0 0 0 29.453v4.4a.915.915 0 0 0 .915.915h45.018m-3.3-12.983a2.324 2.324 0 1 1-2.324-2.349 2.34 2.34 0 0 1 2.321 2.351Zm-6.478 0a4.17 4.17 0 0 0 1 2.713 5.35 5.35 0 0 0-2.472 1.974 5.35 5.35 0 0 0-2.476-1.972 4.188 4.188 0 0 0-1.16-6.377 3.43 3.43 0 0 1 2.372-.961h2.519a3.43 3.43 0 0 1 2.372.961 4.19 4.19 0 0 0-2.158 3.664Zm-12.731 4.69a5.35 5.35 0 0 0-2.472-1.975 4.188 4.188 0 0 0-1.16-6.377 3.43 3.43 0 0 1 2.372-.961h2.519a3.43 3.43 0 0 1 2.372.961A4.188 4.188 0 0 0 25.9 24.5a5.35 5.35 0 0 0-2.476 1.975m-7.951-4.687a2.324 2.324 0 1 1 2.327 2.348 2.34 2.34 0 0 1-2.327-2.349Zm7.951-11.153a2.349 2.349 0 1 1-2.324 2.348 2.34 2.34 0 0 1 2.324-2.349Zm3.3 11.153a2.324 2.324 0 1 1 2.324 2.349 2.34 2.34 0 0 1-2.32-2.35ZM37 12.983a2.324 2.324 0 1 1-2.324-2.349A2.34 2.34 0 0 1 37 12.983M29.052 1.83a2.349 2.349 0 1 1-2.324 2.349 2.34 2.34 0 0 1 2.324-2.349m-1.259 6.528h2.519a3.43 3.43 0 0 1 2.372.961 4.188 4.188 0 0 0-1.165 6.371 5.3 5.3 0 0 0-2.427 1.919h-.079a5.3 5.3 0 0 0-2.427-1.919 4.188 4.188 0 0 0-1.165-6.371 3.43 3.43 0 0 1 2.371-.961Zm-10-6.528a2.349 2.349 0 1 1-2.324 2.349A2.34 2.34 0 0 1 17.8 1.83Zm-1.259 6.528h2.519a3.43 3.43 0 0 1 2.372.962 4.188 4.188 0 0 0-1.165 6.371 5.3 5.3 0 0 0-2.427 1.919h-.079a5.3 5.3 0 0 0-2.427-1.919 4.188 4.188 0 0 0-1.165-6.371 3.42 3.42 0 0 1 2.376-.962Zm-4.364 2.276a2.349 2.349 0 1 1-2.324 2.349 2.34 2.34 0 0 1 2.324-2.349m-1.26 6.528h2.519a3.43 3.43 0 0 1 2.372.961 4.188 4.188 0 0 0-1.16 6.377 5.35 5.35 0 0 0-2.472 1.974A5.35 5.35 0 0 0 9.7 24.5a4.188 4.188 0 0 0-1.16-6.377 3.43 3.43 0 0 1 2.37-.961m-4.368 2.276a2.349 2.349 0 1 1-2.324 2.349 2.34 2.34 0 0 1 2.324-2.349M1.83 31.368h2.84a.915.915 0 1 0 0-1.83H1.83v-.085a3.49 3.49 0 0 1 3.487-3.487h2.45a3.49 3.49 0 0 1 3.487 3.487v3.487H1.83Zm11.255-1.915a3.49 3.49 0 0 1 3.487-3.487h2.45a3.49 3.49 0 0 1 3.487 3.487v3.487h-9.424Zm11.255 0a3.49 3.49 0 0 1 3.487-3.487h2.451a3.49 3.49 0 0 1 3.487 3.487v3.487h-9.426Zm11.254 3.487v-3.487a3.49 3.49 0 0 1 3.487-3.487h2.45a3.49 3.49 0 0 1 3.487 3.487v.085h-2.84a.915.915 0 1 0 0 1.83h2.84v1.572Z"/><path d="M7.318 29.538h-.022a.915.915 0 0 0 0 1.83h.022a.915.915 0 1 0 0-1.83"/></svg>