<svg xmlns="http://www.w3.org/2000/svg" width="43.718" height="43.718" viewBox="0 0 43.718 43.718"><g transform="translate(.705 .705)"><path fill="#656d78" d="M12.622 7.052h-6.91a3.527 3.527 0 0 1 6.91 0"/><path fill="#b27946" d="M24.609 2.821h-6.91a3.527 3.527 0 0 1 6.91 0"/><path fill="#e6e9ed" d="M34.142 4.372a3.53 3.53 0 0 1 2.454 2.679h-6.91a3.526 3.526 0 0 1 3.455-2.82 3.6 3.6 0 0 1 1.001.141"/><path fill="#e6e9ed" d="M39.487 5.642a2.82 2.82 0 0 1-2.821 2.821h-.071a3.6 3.6 0 0 0 0-1.41 3.53 3.53 0 0 0-2.453-2.681 2.824 2.824 0 0 1 5.345 1.269Z"/><path fill="#b4dd7f" d="M7.051 11.988a2.113 2.113 0 0 0 2.115 2.115H4.301a3.52 3.52 0 0 1 2.75-2.75Zm7.031 2.446a7.5 7.5 0 0 0-.55 1.77 4.25 4.25 0 0 0-3.66-2.1h-.705a2.12 2.12 0 0 0 2.115-2.115v-.636a3.53 3.53 0 0 1 2.8 3.081m23.995.374v.677a4.73 4.73 0 0 0-3.349-1.382h-1.587a2.12 2.12 0 0 0 2.115-2.115v-.635a3.526 3.526 0 0 1 2.821 3.455"/><path fill="#b4dd7f" d="M33.141 14.103h-.176a4.75 4.75 0 0 0-4.132 2.4h-.007a7.6 7.6 0 0 0-.6-2.073 3.53 3.53 0 0 1 2.8-3.081v.635a2.113 2.113 0 0 0 2.115 2.115Z"/><path fill="#ff826e" d="M19.039 7.757a2.113 2.113 0 0 0 2.115 2.115 7.72 7.72 0 0 0-4.936 1.77v-1.065a3.526 3.526 0 0 1 2.821-3.455Z"/><path fill="#ff826e" d="M26.09 10.577v1.065a7.72 7.72 0 0 0-4.936-1.77 2.12 2.12 0 0 0 2.115-2.115v-.635a3.51 3.51 0 0 1 2.82 3.455ZM5.169 30.553l1.65 3.06 1.643 3.053v5.641H0v-9.561a4.85 4.85 0 0 1 1.939-3.878 4.8 4.8 0 0 1 1.861-.853Zm6.114 6.114v5.641H8.462v-5.641l1.41-2.616v1.91a.707.707 0 0 0 .705.705Z"/><path fill="#e6e9ed" d="M7.757 31.731h2.348a7.4 7.4 0 0 0-.233 1.819v.5l-1.41 2.616-1.643-3.052Z"/><path fill="#ccd1d9" d="m8.461 28.91 2.327 1.163a6.8 6.8 0 0 0-.677 1.657H7.756l-.705-2.115Z"/><path fill="#fcd770" d="m7.757 31.73-.938 1.885-1.65-3.06 1.883-.94Z"/><path fill="#ffc729" d="m10.577 27.5 2.1.423a6.9 6.9 0 0 0-1.89 2.151L8.462 28.91Zm-2.115 1.41-1.41.705-1.883.938-1.368-2.538a.5.5 0 0 1 .1-.028l2.446-.487Z"/><path fill="#b27946" d="M13.398 21.535a5.3 5.3 0 0 1-.98 1.255l-.5.479a3.3 3.3 0 0 0 .071-.705v-1.325a2.83 2.83 0 0 0-2.138-2.736l-.465-.113-.007-.007a2.4 2.4 0 0 1-1.6.952l-1.629.233a1.42 1.42 0 0 0-1.213 1.4v1.6a3.3 3.3 0 0 0 .071.705l-.5-.479a5.4 5.4 0 0 1-1.687-3.931v-3.35a1.414 1.414 0 0 1 1.41-1.41h5.641a4.25 4.25 0 0 1 3.66 2.1 7.3 7.3 0 0 0-.134 1.424Zm23.974-.571a1.42 1.42 0 0 0-1.213-1.4l-1.629-.233a2.4 2.4 0 0 1-1.6-.952l-.007.007-.465.113a2.83 2.83 0 0 0-2.137 2.736v1.326a3.3 3.3 0 0 0 .071.705l-.5-.479a5.3 5.3 0 0 1-.98-1.255v-3.903a7.4 7.4 0 0 0-.086-1.126h.007a4.75 4.75 0 0 1 4.132-2.4h1.763a4.767 4.767 0 0 1 4.76 4.76 5.4 5.4 0 0 1-1.685 3.928l-.5.479a3.3 3.3 0 0 0 .071-.705Z"/><path fill="#e6e9ed" d="M39.487 42.308h-5.641v-5.641l1.643-3.053 1.65-3.06 1.368-2.538a4.83 4.83 0 0 1 3.286 2.56 4.9 4.9 0 0 1 .515 2.172v9.562Z"/><path fill="#e6e9ed" d="M33.847 36.667v5.641h-2.821v-5.641h.705a.707.707 0 0 0 .705-.705v-1.911Z"/><path fill="#fcd770" d="m34.551 31.731.938 1.883-1.643 3.053-1.413-2.616v-.5a7.4 7.4 0 0 0-.23-1.82Z"/><path fill="#ffc729" d="m35.256 29.615-.705 2.115h-2.355a6.8 6.8 0 0 0-.677-1.657l2.327-1.163Z"/><path fill="#ff826e" d="m37.139 30.553-1.65 3.062-.938-1.885.705-2.115Z"/><path fill="#fc6e51" d="m38.507 28.015-1.368 2.538-1.883-.938-1.41-.705 2.115-1.41 2.447.487a.5.5 0 0 1 .099.028m-4.661.895-2.327 1.164a6.9 6.9 0 0 0-1.89-2.151l2.1-.423Z"/><path fill="#f0d0b4" d="M15.513 40.193v2.115h-4.231v-5.641h2.969a8.5 8.5 0 0 0 .423 1.424Zm15.513-3.526v5.641h-4.231v-2.115l.839-2.1a8.5 8.5 0 0 0 .423-1.426Z"/><path fill="#b4dd7f" d="M14.251 36.667h-3.674a.707.707 0 0 1-.705-.705V33.55a7.4 7.4 0 0 1 .233-1.819h.007a6.8 6.8 0 0 1 .677-1.657 6.9 6.9 0 0 1 1.889-2.152 5 5 0 0 1 .726-.472 7.1 7.1 0 0 1 2.447-.867l.585-.092 2.06 3.831 2.658 4.936v7.051h-5.641v-2.116l-.839-2.1a8.5 8.5 0 0 1-.423-1.426m13.803 0a8.5 8.5 0 0 1-.423 1.424l-.839 2.1v2.115h-5.638v-7.049l2.658-4.935 2.059-3.829.585.092a7.1 7.1 0 0 1 2.447.867 5 5 0 0 1 .726.472 6.9 6.9 0 0 1 1.89 2.151 6.8 6.8 0 0 1 .677 1.657h.007a7.4 7.4 0 0 1 .233 1.819v2.411a.707.707 0 0 1-.705.705z"/><path fill="#ffeaa7" d="m23.812 30.32-2.658 4.936-2.659-4.936Z"/><path fill="#656d78" d="M21.153 14.103a6.16 6.16 0 0 1-3.906 2.616l-1.029.2v2.821a4.94 4.94 0 0 0 2.82 4.456v.078a2.11 2.11 0 0 1-1.791 2.087l-.811.127-.585.092a7.1 7.1 0 0 0-2.447.867l-.007-.003v-9.816a7.3 7.3 0 0 1 .134-1.424 7.5 7.5 0 0 1 .55-1.77 7.765 7.765 0 0 1 12.008-2.792 7 7 0 0 1 .55.5 7.8 7.8 0 0 1 1.587 2.292 7.6 7.6 0 0 1 .6 2.073 7.4 7.4 0 0 1 .085 1.121v9.815l-.007.007a7.1 7.1 0 0 0-2.447-.867l-.585-.092-.811-.127a2.11 2.11 0 0 1-1.791-2.087v-.021a4.79 4.79 0 0 0 2.821-4.365v-2.968l-1.029-.2a6.18 6.18 0 0 1-3.906-2.616Z"/><path fill="#f0d0b4" d="M11.282 11.353v.635a2.116 2.116 0 0 1-4.231 0v-.635a3.3 3.3 0 0 1 .705-.071h2.821a3.3 3.3 0 0 1 .705.071"/><path fill="#f0d0b4" d="M12.622 7.051a3.3 3.3 0 0 1 .071.705 3.526 3.526 0 1 1-7.051 0 3.3 3.3 0 0 1 .07-.705Zm10.647.071v.635a2.116 2.116 0 0 1-4.231 0v-.635a3.3 3.3 0 0 1 .705-.071h2.82a3.3 3.3 0 0 1 .706.071"/><path fill="#f0d0b4" d="M24.609 2.821a3.3 3.3 0 0 1 .071.705 3.526 3.526 0 1 1-7.051 0 3.3 3.3 0 0 1 .07-.705Zm10.648 8.532v.635a2.116 2.116 0 0 1-4.231 0v-.635a3.3 3.3 0 0 1 .705-.071h2.821a3.3 3.3 0 0 1 .705.071"/><path fill="#f0d0b4" d="M36.596 8.461a3.526 3.526 0 0 1-6.981-.705 3.3 3.3 0 0 1 .071-.705h6.91a3.6 3.6 0 0 1 0 1.41m-2.75 17.629a3.46 3.46 0 0 0 1.657-.416l.458 1.826-2.115 1.41-2.115-1.41.458-1.826Z"/><path fill="#f0d0b4" d="M32.929 18.383a2.4 2.4 0 0 0 1.6.952l1.629.233a1.42 1.42 0 0 1 1.213 1.4v1.6a3.3 3.3 0 0 1-.071.705 3.51 3.51 0 0 1-1.8 2.4 3.46 3.46 0 0 1-1.657.416l-1.657-.416a3.4 3.4 0 0 1-.839-.613 3.56 3.56 0 0 1-.959-1.791 3.3 3.3 0 0 1-.068-.705v-1.325a2.83 2.83 0 0 1 2.137-2.736l.465-.113ZM10.577 27.5l-2.115 1.41-2.116-1.41.458-1.826a3.46 3.46 0 0 0 1.657.416l1.657-.416Z"/><path fill="#f0d0b4" d="M9.851 18.503a2.83 2.83 0 0 1 2.137 2.736v1.326a3.3 3.3 0 0 1-.071.705 3.56 3.56 0 0 1-.959 1.791 3.4 3.4 0 0 1-.839.613l-1.657.416a3.46 3.46 0 0 1-1.657-.416 3.51 3.51 0 0 1-1.8-2.4 3.3 3.3 0 0 1-.069-.71v-1.6a1.42 1.42 0 0 1 1.213-1.4l1.629-.233a2.4 2.4 0 0 0 1.6-.952l.007.007Zm16.02 7.989-2.059 3.828h-5.317l-2.059-3.828.811-.127a2.11 2.11 0 0 0 1.791-2.085v-.08a4.9 4.9 0 0 0 2.137.479h.127a4.7 4.7 0 0 0 1.967-.423v.024a2.11 2.11 0 0 0 1.791 2.087Z"/><path fill="#f0d0b4" d="M26.09 16.924v2.969a4.79 4.79 0 0 1-2.821 4.365 4.7 4.7 0 0 1-1.967.423h-.127a4.945 4.945 0 0 1-4.957-4.937v-2.821l1.029-.2a6.16 6.16 0 0 0 3.907-2.62 6.18 6.18 0 0 0 3.906 2.616Z"/></g><path d="M41.5 29.006a5.6 5.6 0 0 0-2.244-1l-2.01-.4-.225-.9a4.24 4.24 0 0 0 1.62-2.353l.359-.348a6.13 6.13 0 0 0 1.9-4.437 5.44 5.44 0 0 0-1.41-3.652v-.4a4.23 4.23 0 0 0-2.76-3.961 4.24 4.24 0 0 0 1.12-1.728 3.518 3.518 0 1 0-3.336-5.535 4.222 4.222 0 0 0-3.548 7.261 4.2 4.2 0 0 0-2.211 1.895 8.5 8.5 0 0 0-1.253-1.4v-.762a4.23 4.23 0 0 0-2.76-3.961 4.231 4.231 0 1 0-5.762 0 4.23 4.23 0 0 0-2.76 3.961v.762a8.5 8.5 0 0 0-1.253 1.4 4.2 4.2 0 0 0-2.211-1.895 4.23 4.23 0 1 0-5.763 0 4.24 4.24 0 0 0-2.524 2.608 2.116 2.116 0 0 0-1.646 2.059v3.351A6.13 6.13 0 0 0 4.722 24l.359.342A4.24 4.24 0 0 0 6.7 26.7l-.225.9-2.01.4A5.56 5.56 0 0 0 0 33.45v10.268h43.718V33.45a5.59 5.59 0 0 0-2.218-4.444m-28.247-4.659.145-.138v3.54q-.096.06-.191.122l-1.35-.271-.225-.9a4.24 4.24 0 0 0 1.62-2.353Zm-1.823 4.607.444.089a8 8 0 0 0-.645.816l-.66-.33Zm-2.46 2.777-.351-1.053.548-.274 1.376.687q-.139.313-.25.639zm-1.625-.416.355 1.066-.2.4-.656-1.219ZM8.9 33.141h1.06a8 8 0 0 0-.085 1.113v.32l-.705 1.309-.85-1.58Zm.974 4.408.146-.271a1.41 1.41 0 0 0 1.264.8v4.231h-1.41Zm2.821.527H14.4a9 9 0 0 0 .318.978l.791 1.978v1.275h-2.817Zm3.339.454a7.25 7.25 0 0 1-.147-4.98l.3-.892-1.337-.446-.3.892a8.7 8.7 0 0 0-.444 2.737q0 .416.039.826h-2.86v-2.413a6.31 6.31 0 0 1 5.382-6.273l.09-.014 4.4 8.172v6.168h-4.234v-1.545Zm5.825-22.57a6.8 6.8 0 0 0 3.765 2.153l.466.093V20.6a4.09 4.09 0 0 1-4.083 4.083h-.124a4.25 4.25 0 0 1-4.255-4.232v-2.245l.466-.093a6.8 6.8 0 0 0 3.765-2.153m-1.558 9.9a5.7 5.7 0 0 0 1.582.228h.124a5.5 5.5 0 0 0 1.419-.192 2.79 2.79 0 0 0 2.066 1.829L24.1 30.32h-4.478l-1.4-2.594a2.79 2.79 0 0 0 2.078-1.864Zm1.558 8.612-1.477-2.744h2.954Zm.705 1.666 4.4-8.172.09.014a6.31 6.31 0 0 1 5.381 6.272v2.412h-2.859q.038-.41.039-.826a8.6 8.6 0 0 0-.444-2.737l-.3-.892-1.337.446.3.891a7.24 7.24 0 0 1-.147 4.981l-.892 2.231v1.546h-4.231Zm7.756-11.929.145.137a4.24 4.24 0 0 0 1.62 2.353l-.225.9-1.349.269q-.095-.062-.191-.122Zm4.427 7.522h-1.322q-.111-.327-.25-.639l1.376-.688.548.274Zm-2.259-1.873a8 8 0 0 0-.645-.816l.444-.089.862.574Zm-4.283 11.175L29 39.055a9 9 0 0 0 .318-.978h1.711v4.231h-2.824Zm4.231-2.956a1.41 1.41 0 0 0 1.264-.8l.146.271v4.758h-1.41Zm2.115-2.193-.705-1.309v-.32a8 8 0 0 0-.086-1.113h1.06l.58 1.158Zm1.668-3.1-.2-.4.355-1.067.5.252Zm1.921-3.567-.6 1.1-1.591-.8.862-.574Zm-2.278-1.325-1.311.874-1.311-.874.14-.562a4.15 4.15 0 0 0 2.341 0Zm1.51-4.625a2.821 2.821 0 1 1-5.641 0v-1.321a2.11 2.11 0 0 1 1.6-2.052l.058-.015a3.13 3.13 0 0 0 1.744.862l1.631.233a.71.71 0 0 1 .606.7Zm1.874-2.208a4.7 4.7 0 0 1-.463.982v-.371a2.125 2.125 0 0 0-1.816-2.094l-1.631-.233a1.74 1.74 0 0 1-1.489-1.716h-1.41a3.1 3.1 0 0 0 .171 1.017 3.52 3.52 0 0 0-2.286 3.3v-3.611a9 9 0 0 0-.057-.949 4.06 4.06 0 0 1 3.408-1.871h1.76a4.06 4.06 0 0 1 4.056 4.056 4.7 4.7 0 0 1-.242 1.492Zm-3.989-8.368a1.41 1.41 0 1 1-2.82 0Zm2.694 2.03a5.4 5.4 0 0 0-1.712-.554 2.8 2.8 0 0 0 .391-1.1 2.8 2.8 0 0 1 1.32 1.655Zm-4.1-3.44a2.823 2.823 0 0 1-2.82-2.821h5.641a2.823 2.823 0 0 1-2.826 2.822Zm3.526-7.051a2.105 2.105 0 0 1 .7 4.095 4.23 4.23 0 0 0-2.128-3.534 2.1 2.1 0 0 1 1.423-.56Zm-3.526 1.41a2.81 2.81 0 0 1 2.428 1.41h-4.861a2.81 2.81 0 0 1 2.428-1.409Zm-2.784 7.415a2.8 2.8 0 0 0 .624 1.429 5.5 5.5 0 0 0-1.811 1.16 8 8 0 0 0-.214-.584 2.8 2.8 0 0 1 1.4-2Zm-5-2.057a8.4 8.4 0 0 0-1.98-.821 2.8 2.8 0 0 0 .561-1.345A2.8 2.8 0 0 1 26.061 11Zm-5.618-2.536h2.821a1.41 1.41 0 0 1-2.821 0m1.41-1.41a2.823 2.823 0 0 1-2.821-2.821h5.641a2.823 2.823 0 0 1-2.82 2.82Zm0-5.641a2.81 2.81 0 0 1 2.428 1.41h-4.856a2.81 2.81 0 0 1 2.428-1.411Zm-2.783 7.422a2.8 2.8 0 0 0 .561 1.345 8.4 8.4 0 0 0-1.98.821 2.81 2.81 0 0 1 1.419-2.166m2.783 2.449a7.06 7.06 0 0 1 7.051 7.051v8.7a8 8 0 0 0-1.641-.444l-1.394-.214a1.4 1.4 0 0 1-1.14-1.017A5.49 5.49 0 0 0 27.5 20.6v-3.55l-1.6-.32a5.4 5.4 0 0 1-3.336-2.153v-1.885h-1.41v1.884a5.4 5.4 0 0 1-3.336 2.153l-1.6.32v3.4A5.64 5.64 0 0 0 19 25.295a1.4 1.4 0 0 1-1.157 1.079l-1.394.214a8 8 0 0 0-1.641.444v-8.7a7.06 7.06 0 0 1 7.051-7.051Zm-7.8 3.779c-.05.118-.088.242-.133.362a5 5 0 0 0-1.795-1.058 2.8 2.8 0 0 0 .526-1.31 2.8 2.8 0 0 1 1.4 2.006Zm-5.6-2.369h2.821a1.41 1.41 0 0 1-2.821 0m1.41-1.41a2.823 2.823 0 0 1-2.818-2.82h5.641a2.823 2.823 0 0 1-2.82 2.82Zm0-5.641a2.81 2.81 0 0 1 2.431 1.41H7.444a2.81 2.81 0 0 1 2.428-1.41Zm-2.781 7.412a2.8 2.8 0 0 0 .356 1.047h-1.42a2.83 2.83 0 0 1 1.064-1.047M4.473 21.06a4.7 4.7 0 0 1-.242-1.491v-3.351a.706.706 0 0 1 .705-.705h5.641a3.54 3.54 0 0 1 2.923 1.568 8.5 8.5 0 0 0-.1 1.252v3.612a3.52 3.52 0 0 0-2.286-3.3 3.1 3.1 0 0 0 .171-1.017h-1.41a1.74 1.74 0 0 1-1.489 1.717l-1.631.233a2.124 2.124 0 0 0-1.816 2.093v.371a4.7 4.7 0 0 1-.463-.982Zm1.874.611a.71.71 0 0 1 .6-.7l1.631-.233a3.13 3.13 0 0 0 1.744-.862l.059.015a2.114 2.114 0 0 1 1.6 2.053v1.324a2.821 2.821 0 1 1-5.641 0Zm2.82 5.829a4.2 4.2 0 0 0 1.171-.169l.14.562-1.311.874-1.311-.874.144-.562a4.2 4.2 0 0 0 1.167.169M6.9 28.954l.862.574-1.591.8-.6-1.1ZM1.41 33.45a4.115 4.115 0 0 1 2.746-3.9l4.3 8v4.757H4.231v-7.756h-1.41v7.756H1.41Zm40.9 8.857H40.9v-7.756h-1.41v7.756h-4.234V37.55l4.3-7.995a4.11 4.11 0 0 1 2.746 3.9Z"/><path d="M21.859 23.269a2.97 2.97 0 0 0 2.672-1.651l.074-.149-1.261-.631-.074.149a1.577 1.577 0 0 1-2.82 0l-.074-.149-1.261.631.074.148a2.97 2.97 0 0 0 2.67 1.652"/></svg>