<svg xmlns="http://www.w3.org/2000/svg" width="43.718" height="43.718" viewBox="0 0 43.718 43.718"><g transform="translate(.705 .705)"><path fill="#ff826e" d="m26.795 0 2.821 8.462h-8.462V0ZM15.513 0l-2.821 8.462H4.231L8.462 0Z"/><path fill="#ffeaa7" d="m33.846 0 4.231 8.462h-8.461L26.795 0ZM21.154 0v8.462h-8.462L15.513 0Z"/><path fill="#fcd770" d="M37.928 8.762a4.564 4.564 0 0 1-8.165 0l-.148-.3h8.462Zm-16.774-.3-.148.3a4.564 4.564 0 0 1-8.165 0l-.149-.3Z"/><path fill="#fc6e51" d="m29.616 8.462-.148.3a4.567 4.567 0 0 1-8.165 0l-.149-.3Zm-25.385 0h8.462l-.148.3a4.564 4.564 0 0 1-8.165 0Z"/><path fill="#e6e9ed" d="M31.73 16.924v.9a1.25 1.25 0 0 1-.367.881l-.677.677a1.24 1.24 0 0 0 .487 2.059l1.262.423v1.41a1.41 1.41 0 0 0 1.41 1.41h.705v2.821H7.756V24.68h.705a1.41 1.41 0 0 0 1.41-1.41v-1.408l1.262-.423a1.24 1.24 0 0 0 .487-2.059l-.677-.677a1.25 1.25 0 0 1-.367-.881v-.9a1.414 1.414 0 0 0-1.41-1.41h.705a2.116 2.116 0 1 0 0-4.231h-1.41a4.58 4.58 0 0 0 4.083-2.519l.148-.3.148.3a4.567 4.567 0 0 0 8.165 0l.151-.3.148.3a4.564 4.564 0 0 0 8.165 0l.148-.3.148.3a4.57 4.57 0 0 0 4.083 2.524h-1.41a2.116 2.116 0 0 0 0 4.231h.705a1.414 1.414 0 0 0-1.41 1.41Z"/><path fill="#656d78" d="M42.307 18.171a6.88 6.88 0 0 1-3.067 5.733l-1.163.776v-2.821l.8-.8a2.04 2.04 0 0 0 .613-1.467v-.028a2.02 2.02 0 0 0-1.156-1.819l-.254-.12a2.113 2.113 0 0 0-2.115-2.115h-3.53a2.116 2.116 0 1 1 0-4.231h2.985a6.885 6.885 0 0 1 6.889 6.889Z"/><path fill="#b27946" d="M9.872 11.282a2.116 2.116 0 0 1 0 4.231H6.346a2.113 2.113 0 0 0-2.115 2.115l-.254.12a2.02 2.02 0 0 0-1.156 1.819v.028a2.04 2.04 0 0 0 .613 1.467l.8.8v2.82l-1.163-.776a6.889 6.889 0 0 1 3.818-12.624z"/><path fill="#4fc1e9" d="M31.025 38.782V37.21a11.15 11.15 0 0 1 1.932-6.283 11.6 11.6 0 0 1 1.594-1.883l3.526-2.249a6.19 6.19 0 0 1 4.228 5.867 9.64 9.64 0 0 1-9.646 9.646h-4.454v-3.244Z"/><path fill="#b4dd7f" d="M5.549 35.828a4.9 4.9 0 0 1-3.885 2.242l-.007.007A9.64 9.64 0 0 1 0 32.662a6.19 6.19 0 0 1 4.231-5.867 11.2 11.2 0 0 1 3.526 2.249l1.594 1.883a11.15 11.15 0 0 1 1.932 6.283v1.572l-.733-.071a7 7 0 0 1-5-2.884Z"/><path fill="#fcd770" d="M23.974 33.846v1.41h-5.641v-1.41a1.414 1.414 0 0 1 1.41-1.41h2.821a1.414 1.414 0 0 1 1.41 1.41"/><path fill="#ffeaa7" d="m25.385 39.698.007.007a3.08 3.08 0 0 0-1.417 2.6h-5.642a3.08 3.08 0 0 0-1.417-2.6l.01-.007v-3.032a1.414 1.414 0 0 1 1.407-1.41h5.641a1.414 1.414 0 0 1 1.41 1.41Z"/><path fill="#f0d0b4" d="M18.333 42.307H9.646a9.65 9.65 0 0 1-7.989-4.231l.007-.007a4.9 4.9 0 0 0 3.885-2.242 7 7 0 0 0 5 2.884l.733.071 4.245.423a3 3 0 0 1 1.389.5 3.08 3.08 0 0 1 1.417 2.602m9.872-3.243v3.244h-4.231a3.08 3.08 0 0 1 1.417-2.6 3 3 0 0 1 1.389-.5ZM34.551 27.5v-2.82h-.705a1.41 1.41 0 0 1-1.41-1.41v-1.41l-1.262-.423a1.24 1.24 0 0 1-.487-2.059l.677-.677a1.25 1.25 0 0 0 .367-.881v-.9a1.414 1.414 0 0 1 1.41-1.407h2.821a2.113 2.113 0 0 1 2.115 2.115l.254.12a2.02 2.02 0 0 1 1.156 1.819v.028a2.04 2.04 0 0 1-.613 1.467l-.8.8v4.936l-3.526 2.249ZM7.757 24.68v4.365a11.2 11.2 0 0 0-3.526-2.25v-4.936l-.8-.8a2.04 2.04 0 0 1-.61-1.463v-.028a2.02 2.02 0 0 1 1.156-1.819l.254-.12a2.113 2.113 0 0 1 2.116-2.116h2.821a1.414 1.414 0 0 1 1.41 1.41v.9a1.25 1.25 0 0 0 .367.881l.677.677a1.24 1.24 0 0 1-.487 2.059l-1.262.423v1.41a1.41 1.41 0 0 1-1.41 1.41Z"/><ellipse cx="5.5" cy="5" fill="#69d6f4" rx="5.5" ry="5" transform="translate(15.449 14.012)"/></g><path d="M39.487 27.013v-1.251l.848-.566a7.589 7.589 0 0 0-2.44-13.7 5.3 5.3 0 0 0 1.369-1.72l.307-.613L34.987 0H8.731L4.148 9.167l.307.613a5.3 5.3 0 0 0 1.368 1.72 7.589 7.589 0 0 0-2.44 13.7l.848.566v1.251A6.88 6.88 0 0 0 0 33.369a10.36 10.36 0 0 0 10.348 10.349h23.021a10.36 10.36 0 0 0 10.349-10.349 6.88 6.88 0 0 0-4.231-6.356m-12.071 12.2a4 4 0 0 0-.621.121v-1.962a2.11 2.11 0 0 0-1.41-1.986v-.835a2.12 2.12 0 0 0-2.115-2.115h-2.821a2.12 2.12 0 0 0-2.115 2.115v.835a2.11 2.11 0 0 0-1.41 1.986v1.96a4 4 0 0 0-.621-.121l-3.61-.361v-.934a11.86 11.86 0 0 0-3.526-8.467v-.539h25.384v.537a11.87 11.87 0 0 0-3.526 8.467v.934Zm-3.442-3.953h-4.23v-.705a.705.705 0 0 1 .705-.705h2.821a.705.705 0 0 1 .705.705ZM5.434 22.065l-.8-.8a1.37 1.37 0 0 1-.4-.995 1.31 1.31 0 0 1 .748-1.18l.662-.312v-.448a1.41 1.41 0 0 1 1.41-1.41h2.821a.705.705 0 0 1 .705.705v.9a1.93 1.93 0 0 0 .571 1.378l.682.682a.53.53 0 0 1 .157.38.54.54 0 0 1-.367.511l-1.748.582v1.919a.705.705 0 0 1-.705.705H7.051v1.41h.705v2.165a12 12 0 0 0-2.115-1.213v-4.77Zm6.712-10.3a5.2 5.2 0 0 0 1.251-1.21 5.25 5.25 0 0 0 8.462 0 5.25 5.25 0 0 0 8.462 0 5.2 5.2 0 0 0 1.251 1.21 2.813 2.813 0 0 0 .4 4.9 2.1 2.1 0 0 0-.244.965v.9a.53.53 0 0 1-.158.381l-.682.682a1.947 1.947 0 0 0 .762 3.225l.783.262v.9a2.12 2.12 0 0 0 2.115 2.115V27.5H9.167v-1.41a2.12 2.12 0 0 0 2.115-2.115v-.9l.783-.262a1.947 1.947 0 0 0 .761-3.225l-.682-.682a.54.54 0 0 1-.157-.381v-.9a2.1 2.1 0 0 0-.244-.965 2.813 2.813 0 0 0 .4-4.9Zm19.432-1.889h5.946a3.838 3.838 0 0 1-5.946 0m-9.014-1.41V1.41h4.428l2.35 7.051Zm6.5 1.41a3.838 3.838 0 0 1-5.946 0Zm-7.909-1.41h-6.779l2.35-7.056h4.428Zm-.553 1.41a3.838 3.838 0 0 1-5.946 0Zm-11.434 1.41a3.83 3.83 0 0 1-2.973-1.41h5.946a3.83 3.83 0 0 1-2.974 1.406ZM35.961 26.09h.705v-1.41h-2.115a.705.705 0 0 1-.705-.705v-1.919l-1.746-.582a.538.538 0 0 1-.209-.891l.682-.682a1.93 1.93 0 0 0 .57-1.377v-.9a.705.705 0 0 1 .705-.705h2.821a1.41 1.41 0 0 1 1.41 1.41v.448l.661.311a1.32 1.32 0 0 1 .749 1.207 1.35 1.35 0 0 1-.4.968c-.384.379-.8.8-.8.8l-.207.207v4.77a12 12 0 0 0-2.115 1.213Zm.161-13.4a6.185 6.185 0 0 1 3.43 11.331l-.066.044v-1.208l.59-.586a2.77 2.77 0 0 0 .82-2 2.73 2.73 0 0 0-1.448-2.4 2.824 2.824 0 0 0-2.782-2.359h-3.525a1.41 1.41 0 1 1 0-2.821Zm1.518-4.231h-6.811L28.478 1.41h5.637ZM9.6 1.41h5.64l-2.351 7.052H6.077ZM4.164 24.023a6.185 6.185 0 0 1 3.43-11.331h2.982a1.41 1.41 0 0 1 0 2.821H7.051a2.825 2.825 0 0 0-2.782 2.359 2.768 2.768 0 0 0-.628 4.4c.211.209.434.429.589.585v1.211Zm.753 4.232a10.46 10.46 0 0 1 6.364 9.66v.793a6.29 6.29 0 0 1-5.641-6.272H4.231a7.7 7.7 0 0 0 1.16 4.084 4.24 4.24 0 0 1-2.658 1.507 8.87 8.87 0 0 1-1.323-4.658 5.48 5.48 0 0 1 3.507-5.114m12.711 14.053h-7.28a8.9 8.9 0 0 1-6.7-3.038 5.66 5.66 0 0 0 2.607-1.611 7.7 7.7 0 0 0 4.921 2.456l4.981.5a2.4 2.4 0 0 1 2.068 1.694Zm2.05 0a3.8 3.8 0 0 0-1.345-2.254v-2.682a.705.705 0 0 1 .705-.705h5.641a.705.705 0 0 1 .705.705v2.682a3.8 3.8 0 0 0-1.345 2.254Zm5.81 0a2.4 2.4 0 0 1 2.068-1.694l.649-.065v1.759zm7.881 0h-3.754v-1.9l2.923-.292a7.7 7.7 0 0 0 6.949-7.68h-1.41a6.29 6.29 0 0 1-5.641 6.272v-.793a10.46 10.46 0 0 1 6.364-9.66 5.475 5.475 0 0 1 3.507 5.114 8.95 8.95 0 0 1-8.938 8.938Z"/><path d="M21.859 26.089a6.346 6.346 0 1 0-6.346-6.346 6.353 6.353 0 0 0 6.346 6.346m1.12-8.462a8 8 0 0 1 .255 1.41h-2.75a8 8 0 0 1 .255-1.41Zm-1.7-1.41a8 8 0 0 1 .577-.983 8 8 0 0 1 .577.983Zm1.952 4.231a8 8 0 0 1-.255 1.41h-2.24a8 8 0 0 1-.255-1.41Zm-.8 2.821a8 8 0 0 1-.577.984 8 8 0 0 1-.577-.984Zm1.553 0h1.317a4.9 4.9 0 0 1-1.883 1.151 9 9 0 0 0 .571-1.151Zm.446-1.41a9 9 0 0 0 .218-1.41h2.086a4.9 4.9 0 0 1-.427 1.41Zm.218-2.821a9 9 0 0 0-.218-1.41h1.883a4.9 4.9 0 0 1 .427 1.41Zm-.664-2.821a9 9 0 0 0-.565-1.151 4.95 4.95 0 0 1 1.883 1.151Zm-4.26 0h-1.311a4.9 4.9 0 0 1 1.883-1.151 9 9 0 0 0-.567 1.152Zm-.446 1.41a9 9 0 0 0-.218 1.41h-2.08a4.9 4.9 0 0 1 .427-1.41Zm-.218 2.821a9 9 0 0 0 .218 1.41h-1.872a4.9 4.9 0 0 1-.427-1.41Zm.664 2.821a9 9 0 0 0 .565 1.151 4.95 4.95 0 0 1-1.876-1.151Z"/></svg>