<svg xmlns="http://www.w3.org/2000/svg" width="112.113" height="112.788" viewBox="0 0 112.113 112.788"><g transform="translate(-14512.97 8099.413)"><ellipse cx="56.056" cy="56.394" fill="#fff" rx="56.056" ry="56.394" transform="translate(14512.97 -8099.413)"/><path fill="#fff" d="M14569.026-8096.413a52.7 52.7 0 0 0-37.51 15.632 53.567 53.567 0 0 0 0 75.523 53.089 53.089 0 0 0 90.567-37.762 53.41 53.41 0 0 0-32.413-49.201 52.4 52.4 0 0 0-20.644-4.192m0-3a56.4 56.4 0 1 1-56.056 56.394 56.226 56.226 0 0 1 56.056-56.394"/><g transform="translate(14543.087 -8068.619)"><path fill="#d0d3da" d="M41 29.3V8.83a2 2 0 0 0-.59-1.42l-5.82-5.82A2 2 0 0 0 33.17 1H4a3 3 0 0 0-3 3v43a3 3 0 0 0 3 3h26.25Z"/><rect width="10" height="10" fill="#85c056" rx="2" transform="translate(6 7)"/><rect width="10" height="10" fill="#85c056" rx="2" transform="translate(6 21)"/><rect width="10" height="10" fill="#85c056" rx="2" transform="translate(6 35)"/><circle cx="15" cy="15" r="15" fill="#85c056" transform="translate(29 29)"/><path fill="#8e95a0" d="M40.82 8H37a3 3 0 0 1-3-3V1.18a2 2 0 0 1 .59.41l5.82 5.82a2 2 0 0 1 .41.59"/><path fill="#373737" d="M44 28a16 16 0 0 0-2 .139V8.83a3 3 0 0 0-.254-1.2c-.01-.024-.025-.044-.036-.066a3 3 0 0 0-.593-.861L35.3.883a3 3 0 0 0-.864-.593c-.022-.011-.042-.026-.066-.036A3 3 0 0 0 33.17 0H4a4 4 0 0 0-4 4v43a4 4 0 0 0 4 4h22a1 1 0 0 0 0-2H4a2 2 0 0 1-2-2V4a2 2 0 0 1 2-2h29v3a4 4 0 0 0 4 4h3v19.527A15.991 15.991 0 1 0 53.6 56.8a1 1 0 0 0-1.2-1.6 14 14 0 1 1 2.8-2.8 1 1 0 0 0 1.6 1.2A16 16 0 0 0 44 28M37 7a2 2 0 0 1-2-2V3.414L38.586 7Z"/><path fill="#373737" d="M19.707 5.293a1 1 0 0 0-1.414 0L16.385 7.2A2.99 2.99 0 0 0 14 6H8a3 3 0 0 0-3 3v6a3 3 0 0 0 3 3h6a3 3 0 0 0 3-3V9.414l2.707-2.707a1 1 0 0 0 0-1.414M15 15a1 1 0 0 1-1 1H8a1 1 0 0 1-1-1V9a1 1 0 0 1 1-1h6a.99.99 0 0 1 .93.656L12 11.586l-1.293-1.293a1 1 0 0 0-1.414 1.414l2 2a1 1 0 0 0 1.414 0L15 11.414Zm4.707 4.293a1 1 0 0 0-1.414 0L16.385 21.2A2.99 2.99 0 0 0 14 20H8a3 3 0 0 0-3 3v6a3 3 0 0 0 3 3h6a3 3 0 0 0 3-3v-5.586l2.707-2.707a1 1 0 0 0 0-1.414M15 29a1 1 0 0 1-1 1H8a1 1 0 0 1-1-1v-6a1 1 0 0 1 1-1h6a.99.99 0 0 1 .93.656L12 25.586l-1.293-1.293a1 1 0 0 0-1.414 1.414l2 2a1 1 0 0 0 1.414 0L15 25.414Zm3.293 4.293L16.385 35.2A2.99 2.99 0 0 0 14 34H8a3 3 0 0 0-3 3v6a3 3 0 0 0 3 3h6a3 3 0 0 0 3-3v-5.586l2.707-2.707a1 1 0 0 0-1.414-1.414M15 43a1 1 0 0 1-1 1H8a1 1 0 0 1-1-1v-6a1 1 0 0 1 1-1h6a.99.99 0 0 1 .93.656L12 39.586l-1.293-1.293a1 1 0 0 0-1.414 1.414l2 2a1 1 0 0 0 1.414 0L15 39.414Zm34.159-6.541L40.83 49.416l-2.123-2.123a1 1 0 0 0-1.414 1.414l3 3A1 1 0 0 0 41 52a1 1 0 0 0 .106-.006 1 1 0 0 0 .735-.453l9-14a1 1 0 0 0-1.682-1.082M23 10h7a1 1 0 0 0 0-2h-7a1 1 0 0 0 0 2m0 5h6a1 1 0 0 0 0-2h-6a1 1 0 0 0 0 2m0 9h13a1 1 0 0 0 0-2H23a1 1 0 0 0 0 2m0 5h6a1 1 0 0 0 0-2h-6a1 1 0 0 0 0 2m4 8a1 1 0 0 0-1-1h-3a1 1 0 0 0 0 2h3a1 1 0 0 0 1-1m-4 4a1 1 0 0 0 0 2h2a1 1 0 0 0 0-2Z"/></g></g></svg>