<svg xmlns="http://www.w3.org/2000/svg" width="112.113" height="112.788" viewBox="0 0 112.113 112.788"><g transform="translate(-14392.301 8099.414)"><ellipse cx="56.056" cy="56.394" fill="#fff" rx="56.056" ry="56.394" transform="translate(14392.301 -8099.414)"/><path fill="#fff" d="M14448.357-8096.414a52.7 52.7 0 0 0-37.51 15.632 53.567 53.567 0 0 0 0 75.523 53.089 53.089 0 0 0 90.567-37.762 53.41 53.41 0 0 0-32.413-49.201 52.4 52.4 0 0 0-20.644-4.192m0-3a56.4 56.4 0 1 1-56.056 56.394 56.226 56.226 0 0 1 56.056-56.394"/><g transform="translate(14423.727 -8069.276)"><path fill="#7bdaa9" d="M6.588.89h37.985v53.179H6.588Z"/><path fill="#fff" d="M.89 48.371V6.588h37.985v53.179H12.29Z"/><path fill="#e5ebf5" d="M36.026 6.588h2.849v53.179h-2.849Z"/><path fill="#dfa357" d="M32.228 53.12h-5.7l-6.647 6.647h18.992Z"/><path fill="#e07f66" d="M32.229 53.12h-3.8l6.647 6.647h3.8Z"/><path fill="#e2fc85" d="M.89 48.371h11.4v11.4"/><g transform="translate(10.386 19.883)"><path fill="#e2fc85" d="M12.8 3.805c2.94 2.94 3.175 7.2.692 9.686s-6.746 2.248-9.686-.692C.001 8.994.001-.001.001-.001S8.994 0 12.8 3.805"/><path fill="#7bdaa9" d="M12.8 3.805C8.995 0 0 0 0 0s0 .391.035 1.043c2.859.228 8.167 1.013 10.865 3.711 2.94 2.94 3.175 7.2.692 9.686a6 6 0 0 1-.59.512 5.74 5.74 0 0 0 2.489-1.461c2.484-2.484 2.249-6.745-.691-9.686"/><path fill="#fff" d="M4.748 4.807h1.9v1.781h-1.9Z"/><path fill="#e2fc85" d="M25.185 13.301c-2.94 2.94-3.175 7.2-.692 9.686s6.746 2.248 9.686-.692c3.805-3.805 3.805-12.8 3.805-12.8s-8.993.001-12.799 3.806"/><path fill="#7bdaa9" d="M34.179 22.296c3.805-3.805 3.805-12.8 3.805-12.8s-.391 0-1.043.035c-.228 2.859-1.013 8.167-3.711 10.865-2.94 2.94-7.2 3.175-9.686.692a6 6 0 0 1-.512-.59 5.74 5.74 0 0 0 1.466 2.489c2.479 2.484 6.741 2.249 9.681-.691"/><path fill="#fff" d="M31.338 14.304h1.9v1.781h-1.9Z"/></g><path d="M43.937 41.549a6.47 6.47 0 0 1-6.656 1.819l-.61 1.673a7 7 0 0 0 2.421.42 8.75 8.75 0 0 0 6.1-2.653c4.02-4.02 4.066-13.046 4.066-13.429v-.89h-.89c-.382 0-9.409.046-13.429 4.066a8.8 8.8 0 0 0-2.639 5.584 6.88 6.88 0 0 0 1.361 4.687l-3.4 3.4V30.329h-1.772v6.4l-3.4-3.4a6.88 6.88 0 0 0 1.361-4.687 8.8 8.8 0 0 0-2.639-5.585c-4.02-4.02-13.047-4.066-13.429-4.066H9.5v.89c0 .382.046 9.409 4.066 13.429a8.8 8.8 0 0 0 5.585 2.639q.258.017.512.017a6.8 6.8 0 0 0 4.175-1.378l4.654 4.654v12.987h-2.331l-6.647 6.647h-6.338v-11.4h-11.4v-40h36.2v20h1.781V5.7H7.478V1.781h36.2V26.53h1.781V0H5.7v5.7H0v43.04l11.917 11.917h27.848v-5.7h5.7v-9.434h-1.782v7.656h-3.918v-5.757h-1.78v10.2L32.6 52.229h-2.331V48.74L41.4 37.605l-1.259-1.259-5.201 5.206a5.16 5.16 0 0 1-.859-3.294 7 7 0 0 1 2.119-4.444C39.017 31 45.129 30.419 47.451 30.3a33 33 0 0 1-.437 3.927c-.592 3.369-1.656 5.9-3.077 7.322m-24.672-7.375a7 7 0 0 1-4.444-2.121c-2.815-2.815-3.395-8.927-3.514-11.25a33 33 0 0 1 3.927.437c3.369.592 5.9 1.656 7.322 3.077a7 7 0 0 1 2.121 4.444 5.16 5.16 0 0 1-.859 3.294l-5.205-5.205-1.259 1.259 5.205 5.205a5.17 5.17 0 0 1-3.294.859ZM11.4 57.618l-8.36-8.356h8.36Zm25.33 1.259H22.032L26.9 54.01h4.96Z"/><path d="M5.638 11.395H24.63v1.781H5.638Zm0 3.799h11.4v1.781h-11.4Z"/></g></g></svg>