<svg xmlns="http://www.w3.org/2000/svg" width="112.113" height="112.788" viewBox="0 0 112.113 112.788"><g transform="translate(-14442.626 7945.11)"><ellipse cx="56.056" cy="56.394" fill="#fff" rx="56.056" ry="56.394" transform="translate(14442.626 -7945.11)"/><path fill="#fff" d="M14498.682-7942.11a52.7 52.7 0 0 0-37.51 15.632 53.567 53.567 0 0 0 0 75.523 53.089 53.089 0 0 0 90.567-37.762 53.41 53.41 0 0 0-32.413-49.201 52.4 52.4 0 0 0-20.644-4.192m0-3a56.4 56.4 0 1 1-56.056 56.394 56.226 56.226 0 0 1 56.056-56.394"/><g transform="translate(14475.532 -7916.276)"><path fill="#b1d9ff" d="M2.206 10.043q.065-.079.133-.156zm8.677-8.667.16-.042zm-1.792.997.064-.057Zm1.288-.82a5 5 0 0 1 .487-.172 5 5 0 0 0-.487.172m-1.124.677.069-.057Zm1.827-.905q.08-.02.159-.034zm-9.006 8.889.092-.12zm6.858-7.687.052-.051Zm.904-.704.1-.057Zm.185-.102.111-.057zm.182-.091.122-.056Zm-.572.322.112-.072zm-.206.147.07-.052ZM1.729 10.77c.026-.048.051-.1.079-.142zm7.058-8.086L6.946 4.741l1.839-2.055Zm21.132 26.517a15.1 15.1 0 0 1 6.862 1.637V4.318a3.11 3.11 0 0 0-3.112-3.111H12.093a4.4 4.4 0 0 0-.817.077l.169-.029v6.31A3.835 3.835 0 0 1 7.61 11.4H1.456a4.4 4.4 0 0 0-.24 1.438v38.957a3.11 3.11 0 0 0 3.111 3.111h14.621a15.194 15.194 0 0 1 10.971-25.7ZM1.836 10.578q.039-.066.081-.13c-.028.043-.05.084-.081.13m-.297.603"/><path fill="#6e9fc5" d="M11.445 7.565v-6.31q-.085.013-.169.029l-.035.006-.16.034-.038.009-.16.042-.017.005a5 5 0 0 0-.487.172l-.053.022-.122.056-.071.034-.111.057-.08.044-.1.057-.095.058-.112.072-.137.094-.07.052-.1.079-.069.057-.1.086-.072.057a1 1 0 0 0-.1.1l-.052.051c-.051.051-.1.1-.148.157l-1.84 2.056-4.6 5.138-.006.008c-.045.051-.09.1-.133.156l-.04.051-.092.12-.04.057q-.043.06-.084.121l-.036.056-.081.13-.029.051-.079.142-.022.044c-.027.052-.052.1-.077.157l-.015.034q-.04.087-.075.175l-.008.02a5 5 0 0 0-.074.2H7.61a3.835 3.835 0 0 0 3.835-3.835Zm0 0"/><path fill="#f8f8f8" d="M36.781 30.837a15.2 15.2 0 1 0 8.332 13.559 15.13 15.13 0 0 0-8.332-13.559m-6.862 23.746a10.187 10.187 0 1 1 10.188-10.185A10.187 10.187 0 0 1 29.92 54.583Zm0 0"/><path fill="#63d9b8" d="M40.107 44.396A10.187 10.187 0 1 1 29.92 34.209a10.187 10.187 0 0 1 10.187 10.187m0 0"/><path d="M37.968 30.133V4.319a4.3 4.3 0 0 0-4.3-4.3C10.332.22 10.28-.762 7.901 1.895.938 9.678 1.023 9.461.555 10.467-.367 12.453.172 10.526.03 51.8a4.3 4.3 0 0 0 4.3 4.3h14.136a16.375 16.375 0 1 0 19.5-25.96Zm-27.71-27.17v4.6a2.65 2.65 0 0 1-2.648 2.649H3.639c5.517-6.047 5.844-6.724 6.619-7.252ZM4.327 53.72a1.927 1.927 0 0 1-1.926-1.92c0-40.976-.01-38.948.01-39.208h5.2a5.027 5.027 0 0 0 5.022-5.022V2.394H33.67a1.926 1.926 0 0 1 1.924 1.924v24.706a16.389 16.389 0 0 0-19.145 24.7ZM29.92 58.4a14.008 14.008 0 1 1 14.007-14 14.023 14.023 0 0 1-14.007 14m0 0"/><path d="M30.555 33.023a1.187 1.187 0 1 0-.13 2.37 9.016 9.016 0 1 1-6.774 2.523A1.187 1.187 0 1 0 22 36.211a11.389 11.389 0 1 0 8.555-3.188m0 0"/><path d="m24.591 46.767 3.432 2.91a2 2 0 0 0 3.252-1.108 15.35 15.35 0 0 1 4.5-7.881 1.187 1.187 0 1 0-1.631-1.724 17.83 17.83 0 0 0-5.05 8.51l-2.969-2.517a1.187 1.187 0 0 0-1.535 1.811ZM10.173 18.055h17.653a1.187 1.187 0 0 0 0-2.373H10.173a1.187 1.187 0 1 0 0 2.373m0 7.12h17.653a1.187 1.187 0 0 0 0-2.373H10.173a1.187 1.187 0 0 0 0 2.373m5.739 5.932a1.187 1.187 0 0 0-1.187-1.187h-4.553a1.187 1.187 0 0 0 0 2.374h4.554a1.187 1.187 0 0 0 1.186-1.187m10.435 4.916a1.187 1.187 0 1 0-1.189-1.187 1.185 1.185 0 0 0 1.189 1.187m0 0"/></g></g></svg>