<svg xmlns="http://www.w3.org/2000/svg" width="112.113" height="112.788" viewBox="0 0 112.113 112.788"><g transform="translate(-14323.626 7931.11)"><ellipse cx="56.056" cy="56.394" fill="#fff" rx="56.056" ry="56.394" transform="translate(14323.626 -7931.11)"/><path fill="#fff" d="M14379.682-7928.11a52.7 52.7 0 0 0-37.51 15.632 53.567 53.567 0 0 0 0 75.523 53.089 53.089 0 0 0 90.567-37.762 53.41 53.41 0 0 0-32.413-49.201 52.4 52.4 0 0 0-20.644-4.192m0-3a56.4 56.4 0 1 1-56.056 56.394 56.226 56.226 0 0 1 56.056-56.394"/><g transform="translate(14352.319 -7905.104)"><path fill="#97c9e8" d="M45.154 35.371A19.653 19.653 0 1 0 25.5 55.077a19.68 19.68 0 0 0 19.654-19.706m0 0"/><path fill="#60b6ff" d="M25.505 15.665a20 20 0 0 0-2.968.223 19.716 19.716 0 0 1 0 38.964 19.7 19.7 0 1 0 2.968-39.188Zm0 0"/><g fill="#baeb6c" transform="translate(5.847 15.704)"><path d="M17.099 7.619c-3.027 1.9-5.3 4.933-3.595 8.348s5.487 2.087 8.988 1.613.851 10.34 2.933 13 7.947-2.656 7.38-6.071c-.84-5.056-1.135-6.83 5.677-10.435l.019-.007A19.68 19.68 0 0 0 20.885.004v.03s-.757 5.692-3.785 7.589ZM6.597 28.583c-.909-1.386 1.608-4.648 2.176-7.114s-2.839-2.277-3.879-3.13-2.46-4.553-3.5-5.407l-.166-.132a19.76 19.76 0 0 0 6.783 22.742l.006-.413a9.07 9.07 0 0 0-1.419-6.546Zm0 0"/><path d="M32.801 24.504c0-.025-.008-.049-.012-.074a19.6 19.6 0 0 1-1.633 4.326 5.75 5.75 0 0 0 1.645-4.252m0 0"/></g><path fill="#96d629" d="M26.732 15.707v.03s-.064.475-.226 1.2a19.71 19.71 0 0 1 12.632 16.631c.868-1.188 2.457-2.34 5.192-3.787l.019-.006a19.68 19.68 0 0 0-17.617-14.068m0 0"/><path fill="#49cb5c" d="M20.069 22.428c-9.5-1.613-15.4-13.579-15.4-13.579s9.513-9.352 19.018-7.74 15.4 13.579 15.4 13.579-9.514 9.352-19.018 7.74m0 0"/><path fill="#07b128" d="M23.687 1.11a14.8 14.8 0 0 0-5.378.135c9.106 2.045 14.724 13.444 14.724 13.444s-6.228 6.121-13.639 7.6c.223.051.448.1.676.135 9.5 1.612 19.017-7.74 19.017-7.74s-5.9-11.966-15.4-13.579Zm0 0"/><path fill="#49cb5c" d="M45.551 10.812c2.55-6.033 11.383-8.064 11.383-8.064s4.7 7.75 2.151 13.783-11.383 8.068-11.383 8.068-4.7-7.75-2.151-13.783Zm0 0"/><path fill="#07b128" d="M56.935 2.747a23.6 23.6 0 0 0-4.387 1.6c1.22 2.585 3.154 7.831 1.315 12.183-1.334 3.156-4.387 5.216-7 6.464.471 1 .836 1.6.836 1.6s8.834-2.031 11.383-8.064-2.151-13.783-2.151-13.783Zm0 0"/><path d="M59.814 7.083a24.5 24.5 0 0 0-2.115-4.821.91.91 0 0 0-.961-.406A24.5 24.5 0 0 0 51.799 3.7c-3.5 1.747-5.944 4.079-7.07 6.744a13.06 13.06 0 0 0-.407 7.929 25.3 25.3 0 0 0-4.747-4.131 36.8 36.8 0 0 0-4.126-6.324.891.891 0 0 0-1.38 1.119 35.6 35.6 0 0 1 3.285 4.832l-8.11-1.581-7.706-10.51a12.6 12.6 0 0 1 2.246.23 15.4 15.4 0 0 1 6.955 3.585.892.892 0 0 0 1.16-1.356A17.1 17.1 0 0 0 24.127.26c-4.079-.8-8.837.249-13.76 3.032a35.5 35.5 0 0 0-6.226 4.447.94.94 0 0 0-.106 1.222 36.3 36.3 0 0 0 3.993 6.268 28 28 0 0 0 4.209 4.326q-.622.521-1.209 1.093a20.583 20.583 0 0 0 6.659 33.783.891.891 0 0 0 .67-1.65 18.8 18.8 0 0 1-3.851-2.119 10.03 10.03 0 0 0-1.512-7.022c-.282-.44.562-2.166 1.066-3.2a16.7 16.7 0 0 0 1.308-3.2 2.44 2.44 0 0 0-.869-2.66 6.6 6.6 0 0 0-2.117-.938 4.6 4.6 0 0 1-1.163-.455 12 12 0 0 1-1.507-2.453 15.2 15.2 0 0 0-1.627-2.675 18.9 18.9 0 0 1 5.62-7.405 15.57 15.57 0 0 0 7.5 2.788c-3.147 2.438-4.164 5.551-2.709 8.542 1.7 3.492 5.2 2.934 8.281 2.443.534-.085 1.086-.173 1.615-.239.2-.025.258.029.3.064.676.6.656 3.471.641 5.567-.02 2.9-.038 5.637 1.041 7.043a2.72 2.72 0 0 0 2.236 1.083 4.5 4.5 0 0 0 1.758-.4c2.685-1.15 5.477-4.611 5.051-7.349-.372-2.394-.619-3.976-.038-5.251.537-1.18 1.834-2.273 4.39-3.666a18.8 18.8 0 0 1-20.43 22.76.891.891 0 0 0-.195 1.77 20.7 20.7 0 0 0 16.664-5.744 20.57 20.57 0 0 0-3.167-31.948 35 35 0 0 0 2.539-1.985A23.639 23.639 0 1 1 2.099 31.507a.891.891 0 0 0-1.756-.29A25.41 25.41 0 0 0 21.279 60.43a26 26 0 0 0 4.2.345A25.43 25.43 0 0 0 48.73 25.214a25.6 25.6 0 0 0 4.1-1.617c3.5-1.747 5.944-4.079 7.07-6.744s1.1-6.044-.091-9.77ZM8.138 31.564a11.1 11.1 0 0 0 1.94 2.988 5.1 5.1 0 0 0 1.782.792c1.74.535 1.942.8 1.775 1.486a15.6 15.6 0 0 1-1.176 2.834c-.919 1.881-1.788 3.658-.965 4.941a8.47 8.47 0 0 1 1.347 4.724 18.98 18.98 0 0 1-5.487-19.2c.262.449.537.97.784 1.436Zm43.076-17.5-2.53-6.132a16.7 16.7 0 0 1 3.876-2.628 24 24 0 0 1 2.813-1.184Zm5.8-9.254a24 24 0 0 1 1.115 2.851 17 17 0 0 1 .806 4.292L53.006 14.4Zm-10.645 6.32a8.5 8.5 0 0 1 .994-1.728l2.88 6.979-2.585 6.18a24 24 0 0 1-1.154-2.932c-.728-2.3-1.342-5.645-.136-8.5Zm5.7 10.853a24 24 0 0 1-2.725 1.153l2.682-6.413 6.828-2.817a8.6 8.6 0 0 1-.6 2.25c-1.206 2.854-4.032 4.744-6.19 5.827Zm-32.1-.507a12 12 0 0 1-.931-.223l9.854-7.223 8.114 1.582c-2.956 2.329-10.149 7.214-17.036 5.864Zm-9.004-5.566a34.7 34.7 0 0 1-4.539-6.255l10.325 2.013Zm1.823-11.879 4.32 5.892L6.716 7.9a35 35 0 0 1 6.072-3.867Zm6.9 6.395-5.241-7.144A20 20 0 0 1 19.423 1.9l7.245 9.882Zm-.554 1.706 7.384 1.439-9.477 6.947a18.4 18.4 0 0 1-4.8-3.331Zm24.155 17.386c-3.21 1.71-4.782 3.053-5.527 4.692-.8 1.759-.507 3.648-.1 6.262.24 1.541-1.592 4.411-3.992 5.439-.888.38-1.52.335-1.881-.134-.708-.92-.688-3.707-.673-5.946.021-3.1.039-5.772-1.238-6.909a2.1 2.1 0 0 0-1.7-.5c-.56.07-1.128.16-1.676.248-3.273.522-5.332.73-6.4-1.463-1.729-3.553 1.771-6.184 3.355-7.15a5.6 5.6 0 0 0 .9-.687 25.9 25.9 0 0 0 10.674-4.159 18.9 18.9 0 0 1 8.259 10.31Zm0 0"/></g></g></svg>