<svg xmlns="http://www.w3.org/2000/svg" width="62" height="62" viewBox="0 0 62 62"><g transform="translate(-1 -1)"><path fill="#eaebef" d="M20 23.633V3a1 1 0 0 1 1-1h40a1 1 0 0 1 1 1v58a1 1 0 0 1-1 1H20Z"/><path fill="#f6f8ff" d="M61 2H32v37.391A12.61 12.61 0 0 0 44.609 52H62V3a1 1 0 0 0-1-1"/><rect width="30" height="8" fill="#bbbdc7" rx="1" transform="translate(2 54)"/><path fill="#aaadb9" d="M5 54v-4a1 1 0 0 1 1-1h22a1 1 0 0 1 1 1v4Z"/><path fill="#55575d" d="m21 49 2.47-18.936A6.254 6.254 0 0 0 17.267 23h-.534a6.254 6.254 0 0 0-6.2 7.064L13 49Z"/><circle cx="8" cy="8" r="8" fill="#c64635" transform="translate(42 42)"/><path fill="#aaadb9" d="M24 6h16v4H24Zm0 8h34v4H24Zm14 8h19v4H38Zm0 8h19v4H38Z"/><path fill="#77797d" d="M20.486 23.891A6.26 6.26 0 0 0 17.267 23h-.534a6.2 6.2 0 0 0-1.733.249V40.9a5.1 5.1 0 0 0 5.1 5.1h1.293l2.077-15.936a6.26 6.26 0 0 0-2.984-6.173" opacity=".5"/><path d="M61 1H21a2 2 0 0 0-2 2v19.221A7.3 7.3 0 0 0 17.268 22h-.536a7.255 7.255 0 0 0-7.193 8.193L11.862 48H6a2 2 0 0 0-2 2v3H3a2 2 0 0 0-2 2v6a2 2 0 0 0 2 2h28a2 2 0 0 0 1-.278V63h29a2 2 0 0 0 2-2V3a2 2 0 0 0-2-2M11.521 29.935A5.256 5.256 0 0 1 16.732 24h.536a5.256 5.256 0 0 1 5.211 5.936L20.122 48h-6.244ZM6 50h22v3H6ZM3 61v-6h28v6Zm58 0H33v-6a2 2 0 0 0-2-2h-1v-3a2 2 0 0 0-2-2h-5.862l2.323-17.806A7.25 7.25 0 0 0 21 23.034V3h40Z"/><path d="M50 41a9 9 0 1 0 9 9 9 9 0 0 0-9-9m0 16a7 7 0 1 1 7-7 7 7 0 0 1-7 7M24 11h16a1 1 0 0 0 1-1V6a1 1 0 0 0-1-1H24a1 1 0 0 0-1 1v4a1 1 0 0 0 1 1m1-4h14v2H25Zm-1 12h34a1 1 0 0 0 1-1v-4a1 1 0 0 0-1-1H24a1 1 0 0 0-1 1v4a1 1 0 0 0 1 1m1-4h32v2H25Zm13 12h19a1 1 0 0 0 1-1v-4a1 1 0 0 0-1-1H38a1 1 0 0 0-1 1v4a1 1 0 0 0 1 1m1-4h17v2H39Zm19 11v-4a1 1 0 0 0-1-1H38a1 1 0 0 0-1 1v4a1 1 0 0 0 1 1h19a1 1 0 0 0 1-1m-2-1H39v-2h17Z"/></g></svg>