<svg xmlns="http://www.w3.org/2000/svg" width="35.699" height="43.398" viewBox="0 0 35.699 43.398"><g fill-rule="evenodd" transform="translate(-58.58 -16)"><path fill="#121209" d="M90.6 19.2h1.936a1.74 1.74 0 0 1 1.23.513 1.74 1.74 0 0 1 .512 1.232v36.71a1.747 1.747 0 0 1-1.742 1.745H64a1.747 1.747 0 0 1-1.743-1.743V56.2h-1.934a1.747 1.747 0 0 1-1.743-1.743V22.179a.58.58 0 0 1 .165-.4l4.591-5.562A.57.57 0 0 1 63.78 16h25.077a1.74 1.74 0 0 1 1.23.513 1.74 1.74 0 0 1 .512 1.232Z"/><path fill="#e6e4e5" d="M64.647 38.053a.578.578 0 1 1 0-1.155h8.524a.6.6 0 0 1 .079-.2l1.013-1.61a2.484 2.484 0 0 1 3.417-.778l2.4 1.512c.361-.175.759-.271.963-.593l1.114-1.759h-17.51a.578.578 0 0 1 0-1.155h18.245l2.173-3.43H70.442a.578.578 0 1 1 0-1.155h15.354a.99.99 0 0 0 .209-.855 2.638 2.638 0 0 1 3.439-2.937v-6.194a.6.6 0 0 0-.173-.415.58.58 0 0 0-.416-.172H64.498v3.857a1.747 1.747 0 0 1-1.743 1.743h-3.02v31.7a.59.59 0 0 0 .588.588h28.534a.59.59 0 0 0 .588-.588V30.295l-4.631 7.311a2.03 2.03 0 0 0-.126 1.112l2.473 1.556a2.484 2.484 0 0 1 .778 3.417l-1.013 1.61a.576.576 0 0 1-.794.181l-.752-.474-.545.864a1.647 1.647 0 0 1-2.249.309l-8.249-5.19a1.64 1.64 0 0 1-.665-2.211l.457-.726Zm4.852-13.756a.578.578 0 0 1 0-1.155h15.615a.578.578 0 1 1 0 1.155Zm-6.24 23.077a5.886 5.886 0 1 1 5.886 5.886 5.886 5.886 0 0 1-5.886-5.886m1.389-18.487a.578.578 0 1 1 0-1.155h3.2a.578.578 0 1 1 0 1.155Z"/><path fill="#f6f8fc" d="M69.812 36.898h3.359a.6.6 0 0 1 .079-.2l1.013-1.61a2.484 2.484 0 0 1 3.417-.778l2.4 1.512c.361-.175.759-.271.963-.593l1.114-1.759H70.685a28 28 0 0 0-.873 3.43Zm1.272-4.585h11.808l2.173-3.43H72.626a28 28 0 0 0-1.541 3.43Zm2.191-4.585h12.521a.99.99 0 0 0 .209-.855 2.638 2.638 0 0 1 3.439-2.937v-6.192a.6.6 0 0 0-.173-.415.58.58 0 0 0-.416-.172h-4.54a28.5 28.5 0 0 0-7.658 5.985h8.455a.578.578 0 1 1 0 1.155h-9.445a28.5 28.5 0 0 0-2.393 3.43Zm-.881 27.32q-.555-1.089-1.015-2.231a5.887 5.887 0 0 0-2.052-11.33 29 29 0 0 1 .292-3.433h4.509l-.457.726a1.64 1.64 0 0 0 .665 2.211l8.249 5.19a1.647 1.647 0 0 0 2.249-.309l.545-.864.753.474a.576.576 0 0 0 .794-.181l1.013-1.61a2.484 2.484 0 0 0-.778-3.417l-2.473-1.556a2.03 2.03 0 0 1 .126-1.112l4.631-7.311v24.163a.59.59 0 0 1-.588.588Z"/><path fill="#c08f3d" d="M74.659 36.902a.58.58 0 0 1 .418.263l11.18 7.035.706-1.123a1.33 1.33 0 0 0-.416-1.829l-9.48-5.965a1.33 1.33 0 0 0-1.829.417l-.706 1.122Zm12.041-8.45a.6.6 0 0 1-.186.293L82.02 35.84a1.9 1.9 0 0 1-.77.714l2.274 1.431a1.9 1.9 0 0 1 .315-.993l4.835-7.633a2.1 2.1 0 0 1 1.271-.92 1.378 1.378 0 0 0 .964-1.841 2.3 2.3 0 0 0-.985-1.225c-1.387-.876-3.042-.155-2.782 1.3a2.1 2.1 0 0 1-.287 1.539Z"/><path fill="#e6e4e5" d="M63.414 56.202v1.454a.59.59 0 0 0 .588.588h28.534a.59.59 0 0 0 .588-.588V20.941a.6.6 0 0 0-.173-.415.58.58 0 0 0-.416-.172H90.6v4.085a3.46 3.46 0 0 1 1.406 1.813 2.525 2.525 0 0 1-1.406 3.182v25.024a1.747 1.747 0 0 1-1.743 1.743ZM60.38 21.601h2.374a.59.59 0 0 0 .588-.588v-3Z"/><path fill="#c08f3d" d="m84.403 44.394-9.245-5.817-.513.816c-.111.176.077.479.3.623l8.248 5.19c.225.142.582.18.693 0Z"/><path fill="#178b4b" d="M65.8 44.023a4.731 4.731 0 1 0 6.691 0 4.73 4.73 0 0 0-6.691 0m.187 3.916a.577.577 0 1 1 .713-.907l1.855 1.459 2.957-3.415a.576.576 0 1 1 .871.754l-3.3 3.806a.58.58 0 0 1-.814.1Z"/><path fill="#3cad66" d="M70.968 51.736a4.731 4.731 0 0 0-1.644-9.094 28.6 28.6 0 0 0 .422 4.473l1.764-2.039a.576.576 0 1 1 .871.754l-2.348 2.712a28 28 0 0 0 .934 3.193Z"/></g></svg>