<svg xmlns="http://www.w3.org/2000/svg" width="52.583" height="59.543" viewBox="0 0 52.583 59.543"><path fill="#efefef" d="M14.214.598v58.343h35.38a2.39 2.39 0 0 0 2.39-2.39V2.988a2.39 2.39 0 0 0-2.39-2.39Z"/><path fill="#fc5d3d" d="M14.214.598v58.346h-6.55a2.39 2.39 0 0 1-2.39-2.39V2.988a2.39 2.39 0 0 1 2.39-2.39Z"/><path fill="#b25035" d="M11.623 29.771a3.51 3.51 0 0 1-3.5 3.5H5.274v-7.004h2.845a3.51 3.51 0 0 1 3.504 3.504m0-9.77a3.51 3.51 0 0 1-3.5 3.5H5.274v-7.004h2.845a3.506 3.506 0 0 1 3.5 3.5Zm0-9.774a3.51 3.51 0 0 1-3.5 3.5H5.274v-7h2.845a3.506 3.506 0 0 1 3.504 3.5m0 29.313a3.506 3.506 0 0 1-3.5 3.5H5.274v-7.004h2.845a3.51 3.51 0 0 1 3.504 3.504m0 9.77a3.506 3.506 0 0 1-3.5 3.5H5.274v-7.004h2.845a3.51 3.51 0 0 1 3.504 3.504"/><path fill="#f0c020" d="M.598 29.771A1.83 1.83 0 0 0 2.429 31.6H8.12a1.831 1.831 0 1 0 0-3.662H2.429a1.83 1.83 0 0 0-1.831 1.833m0-9.769a1.83 1.83 0 0 0 1.831 1.831H8.12a1.831 1.831 0 1 0 0-3.662H2.429a1.83 1.83 0 0 0-1.831 1.831m0-9.771a1.83 1.83 0 0 0 1.831 1.831H8.12a1.831 1.831 0 1 0 0-3.662H2.429a1.83 1.83 0 0 0-1.831 1.831m0 29.311a1.83 1.83 0 0 0 1.831 1.831H8.12a1.831 1.831 0 1 0 0-3.662H2.429a1.83 1.83 0 0 0-1.831 1.831m0 9.77a1.83 1.83 0 0 0 1.831 1.831H8.12a1.831 1.831 0 1 0 0-3.662H2.429a1.83 1.83 0 0 0-1.831 1.831"/><path fill="#72c2e9" d="M18.189 15.3v3.916a1.2 1.2 0 0 0 1.2 1.2h3.91a1.2 1.2 0 0 0 1.2-1.2V15.3a1.2 1.2 0 0 0-1.2-1.2h-3.917a1.2 1.2 0 0 0-1.193 1.2m0 21.158v3.916a1.2 1.2 0 0 0 1.2 1.2h3.91a1.2 1.2 0 0 0 1.2-1.2v-3.916a1.2 1.2 0 0 0-1.2-1.2h-3.917a1.2 1.2 0 0 0-1.193 1.2m0 10.579v3.916a1.2 1.2 0 0 0 1.2 1.2h3.91a1.2 1.2 0 0 0 1.2-1.2v-3.916a1.2 1.2 0 0 0-1.2-1.2h-3.917a1.2 1.2 0 0 0-1.193 1.2m0-21.158v3.916a1.2 1.2 0 0 0 1.2 1.2h3.91a1.2 1.2 0 0 0 1.2-1.2v-3.916a1.2 1.2 0 0 0-1.2-1.2h-3.917a1.2 1.2 0 0 0-1.193 1.2"/><path fill="#fff" d="M48.909 3.586h-.717a.6.6 0 1 1 0-1.2h.717a.6.6 0 0 1 0 1.2m-3.108 0H14.215a.6.6 0 0 1 0-1.2h31.587a.6.6 0 1 1 0 1.2Zm3.108 53.566H14.215a.6.6 0 1 1 0-1.2h34.694a.6.6 0 0 1 0 1.2"/><path fill="#ffcbc3" d="M14.214 3.586H8.058a.6.6 0 0 1 0-1.2h6.157a.6.6 0 1 1 0 1.2Zm0 53.566h-3.049a.6.6 0 1 1 0-1.2h3.049a.6.6 0 1 1 0 1.2m-5.44 0h-.717a.6.6 0 1 1 0-1.2h.717a.6.6 0 1 1 0 1.2"/><path d="M2.429 46.884a2.429 2.429 0 0 0 0 4.857h2.248v4.813a2.99 2.99 0 0 0 2.988 2.989h41.929a2.99 2.99 0 0 0 2.99-3V31.215a.6.6 0 1 0-1.2 0v25.339a1.793 1.793 0 0 1-1.79 1.789H14.812V24.522a.6.6 0 0 0-1.2 0v33.821H7.665a1.8 1.8 0 0 1-1.793-1.793v-4.807H8.12a2.429 2.429 0 0 0 0-4.857H5.872V41.97H8.12a2.429 2.429 0 0 0 0-4.857H5.872V32.2H8.12a2.429 2.429 0 0 0 0-4.857H5.872V22.43H8.12a2.429 2.429 0 0 0 0-4.857H5.872v-4.914H8.12a2.429 2.429 0 0 0 0-4.857H5.872V2.989a1.8 1.8 0 0 1 1.793-1.793h5.952v18.547a.6.6 0 0 0 1.2 0V1.195h34.777a1.793 1.793 0 0 1 1.79 1.794v23.445a.6.6 0 1 0 1.2 0V2.988A2.99 2.99 0 0 0 49.594 0H7.665a2.99 2.99 0 0 0-2.988 2.988v4.813H2.429a2.429 2.429 0 0 0 0 4.857h2.248v4.915H2.429a2.429 2.429 0 1 0 0 4.857h2.248v4.913H2.429a2.429 2.429 0 0 0 0 4.857h2.248v4.913H2.429a2.429 2.429 0 1 0 0 4.857h2.248v4.913zM1.195 10.231a1.235 1.235 0 0 1 1.233-1.233h5.691a1.234 1.234 0 0 1 0 2.467h-5.69a1.235 1.235 0 0 1-1.234-1.234m0 9.77a1.235 1.235 0 0 1 1.233-1.233h5.691a1.234 1.234 0 0 1 0 2.467h-5.69a1.235 1.235 0 0 1-1.233-1.233Zm0 9.771a1.235 1.235 0 0 1 1.234-1.229H8.12a1.234 1.234 0 0 1 0 2.467H2.429a1.235 1.235 0 0 1-1.234-1.239Zm0 9.771a1.235 1.235 0 0 1 1.233-1.233h5.691a1.234 1.234 0 0 1 0 2.467h-5.69a1.235 1.235 0 0 1-1.234-1.234m8.158 9.77a1.235 1.235 0 0 1-1.233 1.23H2.429a1.234 1.234 0 0 1 0-2.467H8.12a1.235 1.235 0 0 1 1.233 1.236Z"/><path d="M41.916 7.395a.6.6 0 0 0-.6-.6H24.885a.6.6 0 1 0 0 1.2h16.438a.6.6 0 0 0 .593-.6m-4.475 6.71a.6.6 0 0 0-.6-.6h-7.527a.6.6 0 1 0 0 1.2h7.527a.6.6 0 0 0 .6-.6m10.571 5.709h-18.7a.6.6 0 0 0 0 1.2h18.7a.6.6 0 1 0 0-1.2m-11.168-1.957h11.168a.6.6 0 0 0 0-1.2H36.844a.6.6 0 0 0 0 1.2m-7.528 0H33.1a.6.6 0 0 0 0-1.2h-3.784a.6.6 0 0 0 0 1.2m7.528 16.808h-7.527a.6.6 0 1 0 0 1.2h7.527a.6.6 0 1 0 0-1.2m11.168 6.307h-18.7a.6.6 0 0 0 0 1.2h18.7a.6.6 0 1 0 0-1.2m-11.766-2.555a.6.6 0 0 0 .6.6h11.168a.6.6 0 0 0 0-1.2h-11.17a.6.6 0 0 0-.598.6m-6.93.597H33.1a.6.6 0 0 0 0-1.2h-3.784a.6.6 0 0 0 0 1.2m8.125 6.828a.6.6 0 0 0-.6-.6h-7.527a.6.6 0 1 0 0 1.2h7.527a.6.6 0 0 0 .6-.6m-8.126 6.904h10.753a.6.6 0 0 0 0-1.2H29.315a.6.6 0 0 0 0 1.2"/><circle cx=".598" cy=".598" r=".598" transform="translate(41.865 51.551)"/><path d="M48.013 51.551h-3.16a.6.6 0 1 0 0 1.2h3.16a.6.6 0 0 0 0-1.2m-.002-3.152H36.843a.6.6 0 1 0 0 1.2h11.168a.6.6 0 1 0 0-1.2m-18.695 0a.6.6 0 0 0 0 1.2H33.1a.6.6 0 0 0 0-1.2Zm-4.225-10.823 1.145-1.145a.6.6 0 0 0-.845-.845l-.372.372a1.8 1.8 0 0 0-1.721-1.293h-3.916a1.8 1.8 0 0 0-1.793 1.793v3.916a1.8 1.8 0 0 0 1.793 1.793h3.916a1.8 1.8 0 0 0 1.793-1.793v-2.8Zm-1.793 3.4h-3.916a.6.6 0 0 1-.6-.6V36.46a.6.6 0 0 1 .6-.6h3.916a.6.6 0 0 1 .6.6v.623l-1.462 1.462-1.266-1.265a.6.6 0 1 0-.845.845l1.688 1.688a.6.6 0 0 0 .845 0l1.04-1.04v1.6a.6.6 0 0 1-.6.599Zm0 4.268h-3.916a1.8 1.8 0 0 0-1.793 1.793v3.916a1.8 1.8 0 0 0 1.793 1.793h3.916a1.8 1.8 0 0 0 1.793-1.793v-3.916a1.8 1.8 0 0 0-1.793-1.793m.6 5.709a.6.6 0 0 1-.6.6h-3.916a.6.6 0 0 1-.6-.6v-3.916a.6.6 0 0 1 .6-.6h3.916a.6.6 0 0 1 .6.6zm12.946-26.867h-7.527a.6.6 0 1 0 0 1.2h7.527a.6.6 0 1 0 0-1.2m11.168 6.307h-18.7a.6.6 0 0 0 0 1.2h18.7a.6.6 0 1 0 0-1.2m-11.766-2.555a.6.6 0 0 0 .6.6h11.168a.6.6 0 0 0 0-1.2h-11.17a.6.6 0 0 0-.598.6m-6.93.597H33.1a.6.6 0 0 0 0-1.2h-3.784a.6.6 0 0 0 0 1.2m-3.08-13.922a.6.6 0 0 0-.845 0l-.355.355a1.794 1.794 0 0 0-1.738-1.36h-3.916a1.8 1.8 0 0 0-1.791 1.792v3.916a1.8 1.8 0 0 0 1.793 1.793H23.3a1.8 1.8 0 0 0 1.791-1.793v-2.713l1.145-1.145a.6.6 0 0 0 0-.845m-2.34 4.7a.6.6 0 0 1-.6.6h-3.914a.6.6 0 0 1-.6-.6V15.3a.6.6 0 0 1 .6-.6h3.916a.6.6 0 0 1 .6.6v.708l-1.462 1.462-1.266-1.265a.6.6 0 0 0-.845.845l1.688 1.688a.6.6 0 0 0 .845 0l1.04-1.04v1.518Zm2.34 5.864a.6.6 0 0 0-.845 0l-.358.358a1.794 1.794 0 0 0-1.735-1.349h-3.916a1.8 1.8 0 0 0-1.793 1.793v3.917a1.8 1.8 0 0 0 1.793 1.793h3.916a1.8 1.8 0 0 0 1.793-1.793V27.07l1.145-1.145a.6.6 0 0 0 0-.848m-2.34 4.718a.6.6 0 0 1-.6.6h-3.914a.6.6 0 0 1-.6-.6v-3.916a.6.6 0 0 1 .6-.6h3.916a.6.6 0 0 1 .6.6v.693l-1.462 1.462-1.268-1.264a.6.6 0 0 0-.845.845l1.688 1.688a.6.6 0 0 0 .845 0l1.04-1.04v1.533Z"/><circle cx=".598" cy=".598" r=".598" transform="translate(13.617 21.534)"/><circle cx=".598" cy=".598" r=".598" transform="translate(51.386 28.227)"/></svg>