<svg xmlns="http://www.w3.org/2000/svg" width="112.113" height="112.788" viewBox="0 0 112.113 112.788"><g transform="translate(-14260.301 8099.414)"><ellipse cx="56.056" cy="56.394" fill="#fff" rx="56.056" ry="56.394" transform="translate(14260.301 -8099.414)"/><path fill="#fff" d="M14316.357-8096.414a52.7 52.7 0 0 0-37.51 15.632 53.567 53.567 0 0 0 0 75.523 53.089 53.089 0 0 0 90.567-37.762 53.41 53.41 0 0 0-32.413-49.201 52.4 52.4 0 0 0-20.644-4.192m0-3a56.4 56.4 0 1 1-56.056 56.394 56.226 56.226 0 0 1 56.056-56.394"/><g transform="translate(14292.335 -8073.407)"><path fill="#c67d66" d="M40.661 59.885H7.688a6.8 6.8 0 0 1-6.8-6.8V12.532a6.8 6.8 0 0 1 6.8-6.8h32.973a6.8 6.8 0 0 1 6.8 6.8v40.554a6.8 6.8 0 0 1-6.8 6.799"/><path fill="#aa593d" d="M9.973 59.886H7.688a6.8 6.8 0 0 1-6.8-6.8V12.533a6.8 6.8 0 0 1 6.8-6.8h2.286a6.8 6.8 0 0 0-6.8 6.8v40.554a6.8 6.8 0 0 0 6.799 6.799"/><path fill="#dfeaef" d="M39.248 53.712H9.098a2.74 2.74 0 0 1-2.74-2.74V14.648a2.74 2.74 0 0 1 2.74-2.74h30.15a2.74 2.74 0 0 1 2.74 2.74v36.324a2.74 2.74 0 0 1-2.74 2.74"/><path fill="#f6e266" d="M33.048.89h-17.75a4.354 4.354 0 0 0-4.354 4.354v5.309a4.354 4.354 0 0 0 4.354 4.354h17.75a4.354 4.354 0 0 0 4.354-4.354V5.244A4.354 4.354 0 0 0 33.048.89"/><path fill="#ecc32e" d="M18.724 14.906h-3.427a4.353 4.353 0 0 1-4.353-4.353v-5.31A4.353 4.353 0 0 1 15.297.891h3.427a4.354 4.354 0 0 0-4.353 4.353v5.309a4.353 4.353 0 0 0 4.353 4.353"/><circle cx="2.938" cy="2.938" r="2.938" fill="#617881" transform="translate(15.517 4.883)"/><circle cx="2.938" cy="2.938" r="2.938" fill="#617881" transform="translate(26.953 4.883)"/><circle cx="9.438" cy="9.438" r="9.438" fill="#80e29d" transform="translate(40.218 .936)"/><path fill="#6ec186" d="M50.881 19.734a10 10 0 0 1-1.225.078 9.438 9.438 0 1 1 0-18.876 10 10 0 0 1 1.225.079 9.439 9.439 0 0 0 0 18.719"/><path d="M18.455 11.649a3.828 3.828 0 1 0-3.828-3.828 3.83 3.83 0 0 0 3.828 3.828m0-5.876a2.048 2.048 0 1 1-2.048 2.048 2.05 2.05 0 0 1 2.048-2.047Zm11.436 5.876a3.828 3.828 0 1 0-3.828-3.828 3.83 3.83 0 0 0 3.828 3.828m0-5.876a2.048 2.048 0 1 1-2.048 2.048 2.05 2.05 0 0 1 2.048-2.047Z"/><path d="M49.656.045a10.33 10.33 0 0 0-8.725 4.807c-.091 0-.181-.007-.273-.007h-2.383A5.25 5.25 0 0 0 33.048 0h-17.75a5.25 5.25 0 0 0-5.231 4.844H7.688A7.7 7.7 0 0 0 0 12.532v40.555a7.7 7.7 0 0 0 7.688 7.689h32.97a7.7 7.7 0 0 0 7.688-7.689V20.62a10 10 0 0 0 1.31.083 10.2 10.2 0 0 0 4.6-1.079.89.89 0 0 0-.794-1.594 8.46 8.46 0 0 1-3.805.892 8.548 8.548 0 1 1 6.331-2.8.892.892 0 0 0 1.319 1.2A10.329 10.329 0 0 0 49.656.045M39.349 11.02h-1.082q.022-.23.022-.464V6.625h1.74a10.3 10.3 0 0 0-.7 3.749q0 .326.021.646ZM11.834 5.244a3.467 3.467 0 0 1 3.464-3.464h17.75a3.467 3.467 0 0 1 3.463 3.464v5.309a3.467 3.467 0 0 1-3.463 3.464h-17.75a3.467 3.467 0 0 1-3.464-3.464zM46.567 20.23v32.857A5.915 5.915 0 0 1 40.658 59H7.688a5.915 5.915 0 0 1-5.907-5.909V12.532a5.914 5.914 0 0 1 5.907-5.907h2.366v3.928q0 .234.022.464h-.977a3.635 3.635 0 0 0-3.632 3.631V44.68a.89.89 0 1 0 1.781 0V14.648a1.85 1.85 0 0 1 1.85-1.848h1.461a5.25 5.25 0 0 0 4.738 3h17.75a5.25 5.25 0 0 0 4.738-3h1.463a2 2 0 0 1 .377.039 10.3 10.3 0 0 0 1.472 3.313v34.819a1.85 1.85 0 0 1-1.849 1.851H9.098a1.85 1.85 0 0 1-1.849-1.851v-2.73a.89.89 0 1 0-1.781 0v2.73a3.635 3.635 0 0 0 3.63 3.631h30.151a3.635 3.635 0 0 0 3.63-3.631v-32.81a10.3 10.3 0 0 0 3.688 2.069"/><path d="M55.232 5.506a.89.89 0 0 0-1.233.252l-5.111 7.74-3.146-3.146a.89.89 0 1 0-1.259 1.259l3.917 3.917a.9.9 0 0 0 .629.261h.09a.89.89 0 0 0 .653-.4l5.712-8.65a.89.89 0 0 0-.252-1.233m-43.3 16.082h24.482a.89.89 0 1 0 0-1.781H11.932a.89.89 0 0 0 0 1.781m0 9.918h24.482a.89.89 0 0 0 0-1.781H11.932a.89.89 0 0 0 0 1.781m0 4.897h24.482a.89.89 0 1 0 0-1.781H11.932a.89.89 0 1 0 0 1.781m0 4.898h24.482a.89.89 0 1 0 0-1.781H11.932a.89.89 0 1 0 0 1.781m0 4.894h12.512a.89.89 0 1 0 0-1.781H11.932a.89.89 0 1 0 0 1.781"/></g></g></svg>