<svg xmlns="http://www.w3.org/2000/svg" width="112.113" height="112.788" viewBox="0 0 112.113 112.788"><g transform="translate(-5865.887 7644.972)"><ellipse cx="56.056" cy="56.394" fill="#fff" rx="56.056" ry="56.394" transform="translate(5865.887 -7644.972)"/><path fill="#fff" d="M5921.943-7641.972a52.7 52.7 0 0 0-37.51 15.632 53.567 53.567 0 0 0 0 75.523 53.089 53.089 0 0 0 90.567-37.762 53.41 53.41 0 0 0-32.413-49.201 52.4 52.4 0 0 0-20.644-4.192m0-3a56.4 56.4 0 1 1-56.056 56.394 56.226 56.226 0 0 1 56.056-56.394"/><g transform="translate(5891.138 -7621.019)"><path fill="#f7b594" d="M43.873 8.734a3.159 3.159 0 1 1-3.16-3.159 3.16 3.16 0 0 1 3.16 3.159m0 0"/><path fill="#f0a479" d="M41.477 8.734a3.15 3.15 0 0 1 1.2-2.476 3.159 3.159 0 1 0 0 4.952 3.15 3.15 0 0 1-1.2-2.476m0 0"/><path fill="#f7b594" d="M24.083 8.734a3.159 3.159 0 1 1-3.159-3.159 3.16 3.16 0 0 1 3.159 3.159m0 0"/><path fill="#f0a479" d="M21.687 8.734a3.15 3.15 0 0 1 1.2-2.476 3.159 3.159 0 1 0 0 4.952 3.15 3.15 0 0 1-1.2-2.476m0 0"/><path fill="#00aaf0" d="M40.714 11.893a6.1 6.1 0 0 0-3.841 1.355 6.7 6.7 0 0 1 .414 2.327v6.374a.9.9 0 0 1-.9.9h9.02a.725.725 0 0 0 .725-.725v-4.813a5.42 5.42 0 0 0-5.418-5.418m0 0"/><path fill="#059adb" d="M36.388 22.848h4.941a5 5 0 0 0 .086-.9v-6.373a10.6 10.6 0 0 0-.661-3.681h-.04a6.1 6.1 0 0 0-3.841 1.355 6.7 6.7 0 0 1 .414 2.327v6.374a.9.9 0 0 1-.9.9Zm0 0"/><path fill="#ffc850" d="M24.352 21.949v-6.374a6.7 6.7 0 0 1 .414-2.327 6.1 6.1 0 0 0-3.841-1.355 5.42 5.42 0 0 0-5.418 5.418v4.813a.724.724 0 0 0 .724.724h9.02a.9.9 0 0 1-.9-.9Zm0 0"/><path fill="#feb644" d="M19.375 22.124v-4.813a5.42 5.42 0 0 1 3.542-5.084 6.4 6.4 0 0 0-1.994-.334 5.42 5.42 0 0 0-5.418 5.418v4.813a.724.724 0 0 0 .724.725h3.87a.725.725 0 0 1-.725-.725Zm0 0"/><path fill="#f7b594" d="M34.741 4.928a3.922 3.922 0 1 1-3.922-3.919 3.92 3.92 0 0 1 3.922 3.922Zm0 0"/><path fill="#f0a479" d="M30.82 4.928a3.92 3.92 0 0 1 1.961-3.4 3.922 3.922 0 1 0 0 6.792 3.92 3.92 0 0 1-1.961-3.4Zm0 0"/><path fill="#d665d3" d="M30.82 8.849a6.726 6.726 0 0 0-6.726 6.726v6.374a.9.9 0 0 0 .9.9h11.653a.9.9 0 0 0 .9-.9v-6.374a6.726 6.726 0 0 0-6.727-6.726m0 0"/><path fill="#c64ac6" d="M27.963 21.95v-6.374a6.73 6.73 0 0 1 4.791-6.442 6.726 6.726 0 0 0-8.661 6.442v6.374a.9.9 0 0 0 .9.9h3.869a.9.9 0 0 1-.9-.9Zm0 0"/><path fill="#f0a479" d="M53.506 26.545a1.7 1.7 0 0 1 .075.915l.767-.846a1.73 1.73 0 0 0 .453-1.161v-9.579a2.9 2.9 0 0 1 .473-1.593 3.25 3.25 0 0 0-3.189-.625 2.994 2.994 0 0 0-1.917 3.862Zm0 0"/><path fill="#e5966e" d="M53.425 17.521a2.97 2.97 0 0 1 1.341-3.6 3.26 3.26 0 0 0-2.681-.26 2.994 2.994 0 0 0-1.917 3.862l3.338 9.027a1.7 1.7 0 0 1 .075.915l.767-.846a1.73 1.73 0 0 0 .453-1.161v-4.213Zm0 0"/><path fill="#f7b594" d="m51.618 40.611 7.121-9.8a9.65 9.65 0 0 0 1.916-5.77v-9.1a3.08 3.08 0 0 0-3.083-3.093 3.025 3.025 0 0 0-2.966 3.024v9.579a1.77 1.77 0 0 1-.434 1.161L50.71 30.59a.114.114 0 0 1-.2-.108 3.33 3.33 0 0 0-.9-3.487 3.414 3.414 0 0 0-4.7.179l-9.406 9.724a5.93 5.93 0 0 0-1.667 4.121v9.444h14.25a19.6 19.6 0 0 1 3.527-9.861Zm0 0"/><path fill="#f0a479" d="M37.709 50.47v-9.444a5.93 5.93 0 0 1 1.664-4.121l9.406-9.724a3.3 3.3 0 0 1 .514-.433 3.43 3.43 0 0 0-4.384.433l-9.406 9.724a5.93 5.93 0 0 0-1.667 4.121v9.444h3.869ZM8.132 26.545a1.7 1.7 0 0 0-.074.915l-.767-.846a1.73 1.73 0 0 1-.452-1.161v-9.579a2.9 2.9 0 0 0-.473-1.593 3.25 3.25 0 0 1 3.189-.625 2.994 2.994 0 0 1 1.917 3.862Zm0 0"/><path fill="#e5966e" d="M9.554 13.658a3.25 3.25 0 0 0-3.189.626 2.9 2.9 0 0 1 .473 1.593v9.579a1.73 1.73 0 0 0 .453 1.161l.767.846a1.7 1.7 0 0 1 .074-.915l1.35-3.65v-7.021a2.9 2.9 0 0 0-.159-.952.933.933 0 0 1 .493-1.156h.009a3 3 0 0 0-.27-.106Zm0 0"/><path fill="#f7b594" d="m10.021 40.611-7.121-9.8a9.65 9.65 0 0 1-1.916-5.77v-9.1a3.08 3.08 0 0 1 3.083-3.093 3.025 3.025 0 0 1 2.966 3.024v9.579a1.77 1.77 0 0 0 .434 1.161l3.462 3.978a.114.114 0 0 0 .2-.108 3.33 3.33 0 0 1 .9-3.487 3.414 3.414 0 0 1 4.7.179l9.407 9.724a5.93 5.93 0 0 1 1.667 4.121v9.444H13.548a19.6 19.6 0 0 0-3.527-9.861Zm0 0"/><path fill="#f0a479" d="m13.89 40.611-7.121-9.8a9.65 9.65 0 0 1-1.916-5.77v-9.1a3.13 3.13 0 0 1 1.106-2.379 3 3 0 0 0-1.893-.713 3.08 3.08 0 0 0-3.083 3.092v9.1a9.65 9.65 0 0 0 1.916 5.77l7.121 9.8a19.6 19.6 0 0 1 3.527 9.861h3.869a19.6 19.6 0 0 0-3.527-9.861Zm0 0"/><path fill="#00aaf0" d="M30.821 55.044v8.7a1.365 1.365 0 0 1-1.365 1.365h-17.3a1.365 1.365 0 0 1-1.365-1.365v-8.7Zm0 0"/><path fill="#059adb" d="M14.664 63.743v-8.7h-3.869v8.7a1.365 1.365 0 0 0 1.365 1.365h3.869a1.366 1.366 0 0 1-1.365-1.365m0 0"/><path fill="#e4eaf8" d="M12.16 50.211h17.3a1.366 1.366 0 0 1 1.365 1.366v3.724h-20.03v-3.724a1.366 1.366 0 0 1 1.365-1.366m0 0"/><path fill="#d8dce5" d="M16.029 50.211h-3.87a1.366 1.366 0 0 0-1.365 1.366v3.724h3.869v-3.724a1.366 1.366 0 0 1 1.366-1.366m0 0"/><path fill="#00aaf0" d="M50.844 55.044v8.7a1.365 1.365 0 0 1-1.365 1.365h-17.3a1.365 1.365 0 0 1-1.365-1.365v-8.7Zm0 0"/><path fill="#059adb" d="M34.691 63.743v-8.7h-3.869v8.7a1.365 1.365 0 0 0 1.365 1.365h3.869a1.366 1.366 0 0 1-1.365-1.365m0 0"/><path fill="#e4eaf8" d="M32.182 50.211h17.3a1.366 1.366 0 0 1 1.365 1.366v3.724h-20.03v-3.724a1.366 1.366 0 0 1 1.365-1.366m0 0"/><path fill="#d8dce5" d="M36.052 50.211h-3.869a1.366 1.366 0 0 0-1.365 1.366v3.724h3.873v-3.724a1.366 1.366 0 0 1 1.361-1.366m0 0"/><path d="M57.62 11.845a3.98 3.98 0 0 0-2.747 1.1 3.991 3.991 0 0 0-5.635 4.863c3.424 9.647 3.233 9.074 3.246 9.227l-1.017 1.169a4.3 4.3 0 0 0-7.212-1.78L34.8 36.193a6.86 6.86 0 0 0-1.939 4.793v8.22h-.691a2.3 2.3 0 0 0-1.365.445 2.32 2.32 0 0 0-1.366-.445h-.691v-8.22a6.86 6.86 0 0 0-1.939-4.793l-9.454-9.773a4.3 4.3 0 0 0-7.212 1.78l-1.017-1.168a.8.8 0 0 1 .042-.2l3.2-9.028a4 4 0 0 0-5.634-4.859A4 4 0 0 0 0 15.838v9.17a10.67 10.67 0 0 0 2.1 6.339l7.121 9.8a17.75 17.75 0 0 1 3.233 8.067h-.311a2.335 2.335 0 0 0-2.333 2.333v12.161a2.335 2.335 0 0 0 2.333 2.333h17.3a2.3 2.3 0 0 0 1.365-.445 2.3 2.3 0 0 0 1.365.445h17.3a2.335 2.335 0 0 0 2.327-2.333v-1.281a.968.968 0 0 0-1.935 0v1.281a.4.4 0 0 1-.4.4h-17.3a.4.4 0 0 1-.4-.4v-7.474h18.101v1.674a.968.968 0 1 0 1.935 0v-6.37a2.336 2.336 0 0 0-2.333-2.333h-.311a17.75 17.75 0 0 1 3.233-8.067l7.114-9.787a10.7 10.7 0 0 0 2.107-6.343v-9.17a4 4 0 0 0-3.992-3.992Zm-47.07 5.312-2.567 7.232v-8.552a4 4 0 0 0-.2-1.251 2.06 2.06 0 0 1 2.767 2.571m.237 22.845-7.128-9.807a8.73 8.73 0 0 1-1.725-5.187v-9.171a2.057 2.057 0 0 1 4.114 0v9.579a2.76 2.76 0 0 0 .672 1.8c6.514 7.485 2.461 3.02 9.878 11.04a.967.967 0 0 0 1.421-1.313c-5.378-5.816-4.244-4.567-5.792-6.346a2.361 2.361 0 0 1 3.738-2.828l9.454 9.773a4.93 4.93 0 0 1 1.4 3.448v8.218H14.408a19.7 19.7 0 0 0-3.621-9.2Zm19.051 23.7a.4.4 0 0 1-.4.4h-17.3a.4.4 0 0 1-.4-.4v-7.474h18.1Zm0-9.409H11.745v-2.757a.4.4 0 0 1 .4-.4h17.3a.4.4 0 0 1 .4.4Zm21.223-37.136a2.057 2.057 0 0 1 2.767-2.571 4 4 0 0 0-.2 1.251v8.552Zm-1.594 33.984a.4.4 0 0 1 .4.4v2.757H31.773v-2.757a.4.4 0 0 1 .4-.4Zm10.21-26.133a8.75 8.75 0 0 1-1.732 5.2l-7.121 9.8a19.7 19.7 0 0 0-3.621 9.2H34.8v-8.219a4.94 4.94 0 0 1 1.395-3.448l9.454-9.773a2.361 2.361 0 0 1 3.738 2.828c-1.549 1.781-.414.53-5.792 6.346a.967.967 0 0 0 1.421 1.313c7.511-8.123 3.7-3.942 9.687-10.821a2.88 2.88 0 0 0 .863-2.016v-9.581a2.057 2.057 0 1 1 4.114 0v9.171Zm0 0"/><path d="M32.959 21.843a.968.968 0 1 0 0 1.935h12.436a1.693 1.693 0 0 0 1.691-1.691v-4.814a6.39 6.39 0 0 0-3.458-5.672 4.127 4.127 0 1 0-5.856 0q-.139.073-.274.15a7.74 7.74 0 0 0-3.464-3.194 4.889 4.889 0 1 0-6.457 0 7.74 7.74 0 0 0-3.464 3.194q-.135-.076-.274-.15a4.127 4.127 0 1 0-5.855 0 6.39 6.39 0 0 0-3.458 5.672v4.813a1.693 1.693 0 0 0 1.691 1.691h12.228a.968.968 0 1 0 0-1.935h-3.4v-6.305a5.759 5.759 0 0 1 11.517 0v6.306ZM40.705 6.5a2.192 2.192 0 1 1-2.2 2.2 2.194 2.194 0 0 1 2.2-2.2m4.451 10.769v4.57h-6.652v-6.302a7.8 7.8 0 0 0-.256-1.974 4.454 4.454 0 0 1 6.908 3.709ZM20.911 6.5a2.192 2.192 0 1 1-2.192 2.2 2.194 2.194 0 0 1 2.192-2.2m2.2 9.033v6.305h-6.652v-4.57a4.455 4.455 0 0 1 6.908-3.709 7.8 7.8 0 0 0-.256 1.974m7.694-7.689a2.955 2.955 0 1 1 2.954-2.955 2.96 2.96 0 0 1-2.954 2.955m0 0"/></g></g></svg>