<svg xmlns="http://www.w3.org/2000/svg" width="120.125" height="120.125" viewBox="0 0 120.125 120.125"><defs><filter id="a" width="120.125" height="120.125" x="0" y="0" filterUnits="userSpaceOnUse"><feOffset dy="3"/><feGaussianBlur result="b" stdDeviation="3"/><feFlood flood-opacity=".161"/><feComposite in2="b" operator="in"/><feComposite in="SourceGraphic"/></filter><path id="b" fill="#faa6b2" d="M57.777 58.807v.254a8.254 8.254 0 0 1-10.312 0v-.254a3.094 3.094 0 0 1 3.094-3.094h4.125a3.094 3.094 0 0 1 3.093 3.094"/></defs><g transform="translate(-2851.199 9657.537)"><g filter="url(#a)" transform="translate(2851.199 -9657.537)"><circle cx="51.062" cy="51.062" r="51.062" fill="#fff" transform="translate(9 6)"/></g><g transform="translate(2880.302 -9631.438)"><path fill="#6ee7f5" d="M55.713 26.838a1.03 1.03 0 0 1-1.022-.9l-1.289-10.312a1.031 1.031 0 1 1 2.046-.256l1.289 10.312a1.03 1.03 0 0 1-.9 1.151 1 1 0 0 1-.124.005M51.815 47.29a1.032 1.032 0 0 1-.948-1.436l4.854-11.391a1.033 1.033 0 1 1 1.9.809l-4.854 11.391a1.03 1.03 0 0 1-.952.627"/><path fill="#2cbff4" d="M45.789 56.743h-10.7a1.031 1.031 0 1 1 0-2.062h10.7a1.031 1.031 0 0 1 0 2.062M9.308 45.4a1.03 1.03 0 0 1-1-.781l-2.062-8.25a1.031 1.031 0 1 1 2-.5l2.062 8.25a1.032 1.032 0 0 1-1 1.282Z"/><path fill="#6ee7f5" d="M17.559 10.339a1.031 1.031 0 0 1-.326-2.01l9.281-3.094a1.031 1.031 0 1 1 .652 1.957l-9.28 3.094a1 1 0 0 1-.327.053"/><path fill="#2cbff4" d="M50.559 31.994h-6.187a1.031 1.031 0 0 1 0-2.062h6.187a1.031 1.031 0 1 1 0 2.062M30.965 18.588a1.03 1.03 0 0 1-1.031-1.031v-7.219a1.031 1.031 0 1 1 2.062 0v7.219a1.03 1.03 0 0 1-1.031 1.031M22.2 23.229a1.03 1.03 0 0 1-.729-.3l-8.25-8.25a1.031 1.031 0 1 1 1.458-1.458l8.25 8.25a1.031 1.031 0 0 1-.729 1.76Z"/><path fill="#6ee7f5" d="M17.559 31.994h-6.188a1.031 1.031 0 0 1 0-2.062h6.187a1.031 1.031 0 0 1 0 2.062Zm-3.093 16.5a1.031 1.031 0 0 1-.729-1.76l7.219-7.219a1.031 1.031 0 0 1 1.458 1.458l-7.219 7.219a1.03 1.03 0 0 1-.729.3Zm33.558.559a1.03 1.03 0 0 1-.729-.3l-7.778-7.778a1.031 1.031 0 1 1 1.458-1.458l7.778 7.778a1.031 1.031 0 0 1-.729 1.76Zm-7.778-26.336a1.031 1.031 0 0 1-.729-1.76l7.734-7.734a1.031 1.031 0 1 1 1.458 1.458l-7.734 7.734a1.03 1.03 0 0 1-.729.302"/><circle cx="13.406" cy="13.406" r="13.406" fill="#d18d28" transform="translate(17.559 17.557)"/><circle cx="8.25" cy="8.25" r="8.25" fill="#0bafea" transform="translate(1.059 1.057)"/><path fill="#0276b4" d="M14.465 15.495v.254a8.254 8.254 0 0 1-10.312 0v-.254a3.094 3.094 0 0 1 3.094-3.094h4.125a3.094 3.094 0 0 1 3.093 3.094"/><circle cx="3.094" cy="3.094" r="3.094" fill="#0296e5" transform="translate(6.215 6.213)"/><path fill="#0296e5" d="M11.372 12.401H7.247a3.094 3.094 0 0 0-3.094 3.094v.254a8.254 8.254 0 0 0 10.312 0v-.254a3.094 3.094 0 0 0-3.093-3.094"/><circle cx="8.25" cy="8.25" r="8.25" fill="#02a437" transform="translate(1.059 44.369)"/><path fill="#fbb540" d="M35.09 29.932a4.125 4.125 0 1 0-7.458 2.429 6.4 6.4 0 0 1 1.271 3.779h4.125a6.23 6.23 0 0 1 1.24-3.737 4.1 4.1 0 0 0 .822-2.471"/><path fill="#cbcbcb" d="M28.902 36.14h4.125v2.04a2.063 2.063 0 1 1-4.125 0Z"/><g fill="#fbb540" transform="translate(1.059 2.089)"><path d="M29.905 21.656a1.03 1.03 0 0 1-1.031-1.031v-2.062a1.031 1.031 0 1 1 2.062 0v2.062a1.03 1.03 0 0 1-1.031 1.031m-4.125 1.032a1.03 1.03 0 0 1-.729-.3l-1.033-1.034a1.031 1.031 0 1 1 1.458-1.458l1.031 1.031a1.031 1.031 0 0 1-.729 1.76Zm8.251 0a1.031 1.031 0 0 1-.729-1.76l1.031-1.031a1.031 1.031 0 0 1 1.458 1.458l-1.031 1.031a1.03 1.03 0 0 1-.729.302"/><circle cx="5.156" cy="5.156" r="5.156" transform="translate(0 23.718)"/><circle cx="5.156" cy="5.156" r="5.156" transform="translate(49.499 23.718)"/><circle cx="4.125" cy="4.125" r="4.125" transform="translate(25.781 49.499)"/><circle cx="4.125" cy="4.125" r="4.125" transform="translate(25.781)"/></g><path fill="#a8a8a8" d="M28.902 36.119h4.125v1.031h-4.125Z"/><circle cx="8.25" cy="8.25" r="8.25" fill="#ff3444" transform="translate(44.371 .947)"/><circle cx="3.094" cy="3.094" r="3.094" fill="#961b20" transform="translate(49.527 6.103)"/><path fill="#961b20" d="M54.684 12.291h-4.125a3.094 3.094 0 0 0-3.094 3.094v.254a8.254 8.254 0 0 0 10.312 0v-.254a3.094 3.094 0 0 0-3.093-3.094"/><circle cx="3.094" cy="3.094" r="3.094" fill="#027226" transform="translate(6.215 49.525)"/><path fill="#027226" d="M14.465 58.807v.254a8.254 8.254 0 0 1-10.312 0v-.254a3.094 3.094 0 0 1 3.094-3.094h4.125a3.094 3.094 0 0 1 3.093 3.094"/><circle cx="8.25" cy="8.25" r="8.25" fill="#ffd6db" transform="translate(44.371 44.369)"/><use href="#b"/><use href="#b"/><circle cx="3.094" cy="3.094" r="3.094" fill="#faa6b2" transform="translate(49.527 49.525)"/><path d="M34.482 26.162a5.156 5.156 0 0 0-7.684 6.808 5.36 5.36 0 0 1 1.072 3.171v2.043a3.094 3.094 0 1 0 6.187 0v-2.042a5.23 5.23 0 0 1 1.034-3.119 5.1 5.1 0 0 0 1.029-3.089 5.18 5.18 0 0 0-1.638-3.772m-2.486 12.02a1.031 1.031 0 1 1-2.062 0v-1.011h2.062Zm1.446-6.4a7.3 7.3 0 0 0-1.372 3.325h-2.212a7.5 7.5 0 0 0-1.394-3.356 3.06 3.06 0 0 1-.585-2.039 3.094 3.094 0 1 1 5.564 2.07Zm-2.477-8.038a1.03 1.03 0 0 0 1.031-1.031v-2.062a1.031 1.031 0 1 0-2.062 0v2.062a1.03 1.03 0 0 0 1.031 1.031m-4.125 1.032a1.031 1.031 0 0 0 .729-1.76l-1.031-1.034a1.031 1.031 0 1 0-1.458 1.458l1.031 1.031a1.03 1.03 0 0 0 .729.305m8.552-2.794-1.031 1.031a1.031 1.031 0 1 0 1.458 1.458l1.031-1.031a1.031 1.031 0 0 0-1.458-1.458"/><path d="M61.902 30.963a6.2 6.2 0 0 0-5.268-6.119l-.851-6.811a9.29 9.29 0 1 0-10.408-2.937l-4.96 4.96a14.38 14.38 0 0 0-8.417-3.493v-5.3a5.156 5.156 0 1 0-6.131-5.815l-7.38 2.46A9.294 9.294 0 1 0 15.1 16.55l4.826 4.826a1 1 0 0 0 .146.121 14.38 14.38 0 0 0-3.5 8.431h-4.254a6.187 6.187 0 1 0-6.1 7.222q.113.001.225-.006l1.571 6.286a9.292 9.292 0 1 0 8.544 3.4l4.96-4.96a14.41 14.41 0 0 0 18.9 0l4.96 4.96a9.24 9.24 0 0 0-1.8 7.851h-7.56a5.156 5.156 0 1 0 0 2.062h8.293a9.28 9.28 0 1 0 9.756-13.293l2.379-6.348a6.2 6.2 0 0 0 5.456-6.139M30.965 58.802a3.094 3.094 0 1 1 3.094-3.094 3.094 3.094 0 0 1-3.094 3.094m15.867-13.43-4.96-4.96a14.38 14.38 0 0 0 3.493-8.417h4.253a6.2 6.2 0 0 0 4.675 4.989l-2.395 6.386a9.23 9.23 0 0 0-5.063 2Zm13.007-14.409a4.125 4.125 0 1 1-4.121-4.125 4.125 4.125 0 0 1 4.125 4.125Zm-5.279-6.078a6.2 6.2 0 0 0-4.942 5.047h-4.25a14.38 14.38 0 0 0-3.493-8.417l4.96-4.96a9.2 9.2 0 0 0 6.932 1.961Zm-4-15.578a2.062 2.062 0 1 1 2.058 2.062 2.06 2.06 0 0 1-2.06-2.067Zm0 4.125h4.125a2.064 2.064 0 0 1 2.045 1.806 7.2 7.2 0 0 1-8.214 0 2.064 2.064 0 0 1 2.042-1.806Zm2.058-11.344a7.214 7.214 0 0 1 5.755 11.57 4.15 4.15 0 0 0-2.327-2.056 4.125 4.125 0 1 0-6.851 0 4.15 4.15 0 0 0-2.329 2.057 7.214 7.214 0 0 1 5.752-11.571M30.965 3.12a3.094 3.094 0 1 1-3.094 3.094 3.094 3.094 0 0 1 3.094-3.094M2.091 9.302a7.219 7.219 0 1 1 12.973 4.352 4.15 4.15 0 0 0-2.329-2.052 4.125 4.125 0 1 0-6.851 0 4.15 4.15 0 0 0-2.329 2.057 7.18 7.18 0 0 1-1.464-4.357m5.156 0a2.062 2.062 0 1 1 2.062 2.062 2.06 2.06 0 0 1-2.062-2.062m-2.045 5.931a2.064 2.064 0 0 1 2.045-1.806h4.125a2.064 2.064 0 0 1 2.046 1.811 7.2 7.2 0 0 1-8.215 0Zm11.354-.143a9.23 9.23 0 0 0 2-5.034l7.438-2.479a5.17 5.17 0 0 0 3.939 3.684v5.3a14.38 14.38 0 0 0-8.431 3.5 1 1 0 0 0-.121-.146ZM2.091 30.963a4.125 4.125 0 1 1 4.127 4.125 4.125 4.125 0 0 1-4.127-4.125m10.227 1.031h4.25a14.38 14.38 0 0 0 3.493 8.417l-4.96 4.96a9.23 9.23 0 0 0-4.974-2l-1.663-6.649a6.2 6.2 0 0 0 3.854-4.728M5.202 58.55a2.064 2.064 0 0 1 2.045-1.806h4.125a2.064 2.064 0 0 1 2.046 1.806 7.2 7.2 0 0 1-8.215 0Zm2.045-5.931a2.062 2.062 0 1 1 2.062 2.062 2.06 2.06 0 0 1-2.062-2.062m7.817 4.352a4.15 4.15 0 0 0-2.329-2.057 4.125 4.125 0 1 0-6.851 0 4.15 4.15 0 0 0-2.329 2.057 7.219 7.219 0 1 1 11.51 0Zm3.526-26.008a12.375 12.375 0 1 1 12.375 12.375A12.375 12.375 0 0 1 18.59 30.963M48.518 58.55a2.064 2.064 0 0 1 2.045-1.806h4.125a2.064 2.064 0 0 1 2.045 1.806 7.2 7.2 0 0 1-8.215 0m2.045-5.931a2.062 2.062 0 1 1 2.055 2.062 2.06 2.06 0 0 1-2.06-2.062Zm9.281 0a7.18 7.18 0 0 1-1.464 4.352 4.15 4.15 0 0 0-2.329-2.057 4.125 4.125 0 1 0-6.851 0 4.15 4.15 0 0 0-2.329 2.057 7.217 7.217 0 1 1 12.973-4.351Z"/></g></g></svg>