<svg xmlns="http://www.w3.org/2000/svg" width="100.125" height="100.125" viewBox="0 0 100.125 100.125"><defs><filter id="a" width="100.125" height="100.125" x="0" y="0" filterUnits="userSpaceOnUse"><feOffset dy="3"/><feGaussianBlur result="b" stdDeviation="3"/><feFlood flood-opacity=".161"/><feComposite in2="b" operator="in"/><feComposite in="SourceGraphic"/></filter></defs><g transform="translate(-2851.199 9899.666)"><g filter="url(#a)" transform="translate(2851.199 -9899.666)"><circle cx="41.062" cy="41.062" r="41.062" fill="#fff" transform="translate(9 6)"/></g><g transform="translate(2878.344 -9876.061)"><g transform="translate(.739 .739)"><ellipse cx="2.412" cy="2.01" fill="#fcd770" rx="2.412" ry="2.01" transform="translate(19.939 1.673)"/><circle cx="5.227" cy="5.227" r="5.227" fill="#fcd770" transform="translate(33.61 .064)"/><circle cx="2.412" cy="2.412" r="2.412" fill="#fcd770" transform="translate(38.435 14.539)"/><ellipse cx="2.412" cy="2.01" fill="#fcd770" rx="2.412" ry="2.01" transform="translate(19.939 38.664)"/><path fill="#fcd770" d="M10.1 34.259a5.918 5.918 0 1 1-4.186-1.73 5.93 5.93 0 0 1 4.186 1.73"/><path fill="#e6e9ed" d="M4.51 17.743a5.14 5.14 0 0 0-1.449 2.654v.01A8.1 8.1 0 0 1 0 14.046v-.739a4.44 4.44 0 0 0 4.436 4.436Zm9.537.792v.067a3.8 3.8 0 0 0 .111.909v.007a10 10 0 0 1-.946.887l-.007-.007a5.14 5.14 0 0 0-1.45-2.657h.074a4.4 4.4 0 0 0 2.6-.843 3.64 3.64 0 0 0-.384 1.634Zm5.951 10.039a5.18 5.18 0 0 0-2.891 3.652v.01a8.16 8.16 0 0 1-2.7-8.776l.03-.022a2 2 0 0 0 .259.311 2.2 2.2 0 0 0 1.567.651h.739a3.7 3.7 0 0 0 3.7 3.7h1.479a5.1 5.1 0 0 0-2.183.474m9.995-4.953a8.13 8.13 0 0 1-1.161 6.927 8 8 0 0 1-1.582 1.686v-.007a5.174 5.174 0 0 0-5.071-4.134h1.479a3.7 3.7 0 0 0 3.7-3.7h.739a2.2 2.2 0 0 0 1.567-.651 2.3 2.3 0 0 0 .274-.325 2 2 0 0 1 .055.204M42.14 34.747a2.2 2.2 0 0 0 1.567-.651 2.3 2.3 0 0 0 .274-.325 8.145 8.145 0 0 1-2.684 8.813v-.007a5.174 5.174 0 0 0-5.071-4.134h1.479a3.7 3.7 0 0 0 3.7-3.7Zm-8.095 4.177a5.18 5.18 0 0 0-2.891 3.652v.01a8.16 8.16 0 0 1-2.7-8.776l.03-.022a2 2 0 0 0 .259.311 2.2 2.2 0 0 0 1.567.651h.739a3.7 3.7 0 0 0 3.7 3.7h1.479a5.1 5.1 0 0 0-2.183.474"/><path fill="#fcd770" d="M38.407 38.924a5.18 5.18 0 0 1 2.89 3.65v.007a8.135 8.135 0 0 1-10.143 0v-.007a5.18 5.18 0 0 1 2.891-3.652v.007a2.52 2.52 0 0 0 2.181 2.469 2.52 2.52 0 0 0 2.181-2.469Z"/><path fill="#b4dd7f" d="M17.107 32.224a5.18 5.18 0 0 1 2.891-3.652v.007a2.52 2.52 0 0 0 2.181 2.469 2.52 2.52 0 0 0 2.181-2.469v-.005a5.18 5.18 0 0 1 2.89 3.65v.007a8.135 8.135 0 0 1-10.143 0Z"/><path fill="#ef7385" d="M11.755 17.743a5.14 5.14 0 0 1 1.449 2.652l.007.007a8.146 8.146 0 0 1-10.151 0v-.007a5.19 5.19 0 0 1 2.892-3.65v.007a2.52 2.52 0 0 0 2.181 2.469 2.52 2.52 0 0 0 2.181-2.469v-.007a5.2 5.2 0 0 1 1.442 1Z"/><path fill="#b27946" d="M17.004 19.399v.562h-.739a2.22 2.22 0 0 0-1.708.8l-.311-.946c-.037-.1-.059-.2-.089-.3v-.007a3.8 3.8 0 0 1-.11-.907v-.067a3.64 3.64 0 0 1 .384-1.634 3.5 3.5 0 0 1 .695-.976l.4-.4a3.65 3.65 0 0 1 .739-2.218 3.5 3.5 0 0 1 .34-.4 3.7 3.7 0 0 1 2.617-1.077h5.915a2.215 2.215 0 0 1 2.218 2.218l.562.281a4.2 4.2 0 0 1 1.212.9 4.36 4.36 0 0 1 1.02 1.774 4.6 4.6 0 0 1 .163 1.2 4.3 4.3 0 0 1-.458 1.937l-.222.444a2.2 2.2 0 0 0-1.538-.621h-.739v-1.479h-2.608a13.95 13.95 0 0 1-6.262-1.479 2.67 2.67 0 0 0-1.479 2.4Z"/><path fill="#656d78" d="M16.264 10.35v2.957a3.65 3.65 0 0 0-.739 2.218l-.4.4a3.5 3.5 0 0 0-.695.976 4.4 4.4 0 0 1-2.6.843h-.074a5.16 5.16 0 0 0-3.624-1.48h1.479a3.7 3.7 0 0 0 3.7-3.7h.739a2.22 2.22 0 0 0 2.214-2.214M5.951 16.745a5.2 5.2 0 0 0-1.442 1h-.073A4.44 4.44 0 0 1 0 13.307V10.35a2.22 2.22 0 0 0 2.218 2.218h.739a3.7 3.7 0 0 0 3.7 3.7h1.475a5.1 5.1 0 0 0-2.181.477M2.957 6.654v1.479h-.739A2.215 2.215 0 0 0 0 10.35V8.132a8.133 8.133 0 1 1 16.265 0v2.218a2.215 2.215 0 0 0-2.218-2.218h-.739V6.654h-.288a8.83 8.83 0 0 1-4.888-1.479 8.83 8.83 0 0 1-4.886 1.479Zm29.576 20.7a2.67 2.67 0 0 0-1.479 2.4v.562h-.739a2.2 2.2 0 0 0-1.482.563v-.333a8.13 8.13 0 0 0 1.161-6.927 5.65 5.65 0 0 1 3.778-1.44h4.909a5.676 5.676 0 0 1 4.85 8.628 2.2 2.2 0 0 0-1.39-.5h-.739v-1.474h-2.61a13.95 13.95 0 0 1-6.259-1.479"/><path fill="#f0d0b4" d="M43.53 30.812a2.2 2.2 0 0 1 .828 1.723 2.24 2.24 0 0 1-.377 1.242 2.3 2.3 0 0 1-.274.325 2.2 2.2 0 0 1-1.567.651h-.739v-4.441h.739a2.2 2.2 0 0 1 1.39.5m-7.304 7.632a5.1 5.1 0 0 1 2.181.481v.007a2.52 2.52 0 0 1-2.181 2.469 2.52 2.52 0 0 1-2.181-2.469v-.007a5.1 5.1 0 0 1 2.181-.481"/><path fill="#f0d0b4" d="M41.401 30.311v4.436a3.7 3.7 0 0 1-3.7 3.7h-2.95a3.7 3.7 0 0 1-3.7-3.7v-5a2.67 2.67 0 0 1 1.479-2.393 13.95 13.95 0 0 0 6.262 1.479h2.61Z"/><path fill="#f0d0b4" d="M31.051 30.312v4.436h-.739a2.2 2.2 0 0 1-1.567-.651 2 2 0 0 1-.259-.311 2.2 2.2 0 0 1-.392-1.256 2.226 2.226 0 0 1 2.218-2.218Zm-.74-8.133a2.24 2.24 0 0 1-.377 1.242 2.3 2.3 0 0 1-.274.325 2.2 2.2 0 0 1-1.567.651h-.739v-4.436h.739a2.22 2.22 0 0 1 2.218 2.218m-8.132 5.915a5.1 5.1 0 0 1 2.181.481v.007a2.52 2.52 0 0 1-2.181 2.469 2.52 2.52 0 0 1-2.181-2.469v-.007a5.1 5.1 0 0 1 2.181-.481"/><path fill="#f0d0b4" d="M27.354 19.961v4.436a3.7 3.7 0 0 1-3.7 3.7h-2.95a3.7 3.7 0 0 1-3.7-3.7v-5a2.67 2.67 0 0 1 1.479-2.393 13.95 13.95 0 0 0 6.262 1.479h2.61Z"/><path fill="#f0d0b4" d="M17.004 19.961v4.436h-.739a2.2 2.2 0 0 1-1.567-.651 2 2 0 0 1-.259-.311 2.214 2.214 0 0 1 1.826-3.474Zm-.74-9.611a2.22 2.22 0 0 1-2.218 2.218h-.739V8.132h.739a2.215 2.215 0 0 1 2.218 2.218m-8.132 5.915a5.1 5.1 0 0 1 2.181.481v.007a2.52 2.52 0 0 1-2.181 2.469 2.52 2.52 0 0 1-2.181-2.469v-.007a5.1 5.1 0 0 1 2.181-.481"/><path fill="#f0d0b4" d="M13.307 8.132v4.436a3.7 3.7 0 0 1-3.7 3.7h-2.95a3.7 3.7 0 0 1-3.7-3.7V6.654h.288a8.83 8.83 0 0 0 4.887-1.479 8.83 8.83 0 0 0 4.887 1.479h.288Z"/><path fill="#f0d0b4" d="M2.957 8.132v4.436h-.739a2.218 2.218 0 0 1 0-4.436Z"/></g><circle cx=".804" cy=".804" r=".804" transform="translate(19.875 20.907)"/><ellipse cx=".402" cy=".804" rx=".402" ry=".804" transform="translate(24.7 20.907)"/><ellipse cx=".402" cy=".804" rx=".402" ry=".804" transform="translate(6.204 8.845)"/><circle cx=".804" cy=".804" r=".804" transform="translate(10.225 8.845)"/><path d="M10.35 12.394a1.653 1.653 0 0 1-2.957 0l-.078-.156-1.323.662.078.156a3.132 3.132 0 0 0 5.6 0l.078-.156-1.323-.662Zm15.37 12.49.078-.156-1.323-.662-.078.157a1.653 1.653 0 0 1-2.957 0l-.078-.156-1.323.662.078.156a3.132 3.132 0 0 0 5.6 0Zm12.723 9.689a1.653 1.653 0 0 1-2.957 0l-.078-.156-1.323.662.078.156a3.132 3.132 0 0 0 5.6 0l.078-.156-1.323-.662Z"/><circle cx=".402" cy=".402" r=".402" transform="translate(34.349 31.362)"/><ellipse cx=".804" cy=".402" rx=".804" ry=".402" transform="translate(38.37 31.362)"/><path d="M39.423 22.179h-4.915a6.4 6.4 0 0 0-2.73.613 2.93 2.93 0 0 0-.53-1.571l.007-.016a5.1 5.1 0 0 0 .535-2.266c0-.155-.018-.305-.032-.457h6.79a2.957 2.957 0 1 0 0-1.479H31.4a5 5 0 0 0-.544-.98l5.444-5.442a5.934 5.934 0 1 0-1.045-1.045l-5.42 5.42a5 5 0 0 0-.848-.548l-.194-.1a2.96 2.96 0 0 0-2.918-2.482h-2.217V7.288a2.957 2.957 0 1 0-1.479 0v4.541h-2.218a4.4 4.4 0 0 0-2.218.6V8.872A8.872 8.872 0 1 0 0 8.872v5.914a8.858 8.858 0 0 0 14.264 7.031 2.87 2.87 0 0 0 .11 2.426 8.82 8.82 0 0 0 .366 5.809L10.8 33.99a6.671 6.671 0 1 0 1.045 1.045l3.621-3.621a8.87 8.87 0 0 0 6.711 4.035v3.1a2.957 2.957 0 1 0 1.479 0v-3.1a8.8 8.8 0 0 0 4.486-1.681 2.9 2.9 0 0 0 .277.824 8.872 8.872 0 1 0 17.088 0 2.87 2.87 0 0 0-.342-3.176 6.39 6.39 0 0 0-5.744-9.238Zm1.977-5.914a1.479 1.479 0 1 1-1.479 1.479 1.48 1.48 0 0 1 1.479-1.479M21.44 4.436a1.479 1.479 0 1 1 1.479 1.479 1.48 1.48 0 0 1-1.479-1.479M6.654 44.358a5.175 5.175 0 1 1 5.175-5.175 5.18 5.18 0 0 1-5.175 5.175m32.769-20.7a4.93 4.93 0 0 1 4.54 6.866 2.9 2.9 0 0 0-1.083-.212v-1.479h-3.348a13.3 13.3 0 0 1-5.933-1.4l-.33-.165-.33.166a3.4 3.4 0 0 0-1.425 1.342 8.7 8.7 0 0 0 .056-4.122 4.9 4.9 0 0 1 2.938-1Zm3.457 11.09V31.79a1.479 1.479 0 0 1 0 2.957Zm-5.914 5.175a4.4 4.4 0 0 1 1.317.214c-.245.747-.755 1.264-1.317 1.264s-1.073-.518-1.317-1.264a4.4 4.4 0 0 1 1.316-.215Zm-1.479-1.479a2.96 2.96 0 0 1-2.957-2.957v-5a1.92 1.92 0 0 1 .779-1.553 14.8 14.8 0 0 0 6.223 1.378H41.4v5.175a2.96 2.96 0 0 1-2.957 2.957Zm-4.436-3.7a1.479 1.479 0 0 1 0-2.957Zm-9.611-6.65a2.96 2.96 0 0 1-2.957-2.957v-5a1.92 1.92 0 0 1 .779-1.553 14.8 14.8 0 0 0 6.223 1.378h1.869v5.175a2.96 2.96 0 0 1-2.954 2.957Zm7.393-6.654a1.479 1.479 0 0 1 0 2.957Zm-.067 4.436h.067a2.9 2.9 0 0 0 1.4-.366 7.5 7.5 0 0 1 .083 1.105 7.36 7.36 0 0 1-1.981 5.019 5.94 5.94 0 0 0-2.052-2.487 4.44 4.44 0 0 0 2.483-3.271m-5.848 3.7a4.4 4.4 0 0 1 1.317.214c-.245.747-.755 1.264-1.317 1.264s-1.073-.518-1.317-1.264a4.4 4.4 0 0 1 1.317-.218Zm-2.641.891a2.95 2.95 0 0 0 2.641 2.066 2.95 2.95 0 0 0 2.641-2.066 4.4 4.4 0 0 1 1.575 2.217 7.36 7.36 0 0 1-8.432 0 4.4 4.4 0 0 1 1.575-2.216Zm10.8-.37q-.01.108-.015.218h-.013c-.028 0-.054.007-.082.008.033-.079.078-.152.111-.23Zm8.845-28.618a4.436 4.436 0 1 1-4.436 4.436 4.44 4.44 0 0 1 4.436-4.436M19.961 13.307h5.914a1.48 1.48 0 0 1 1.479 1.479v.457l.974.486a3.574 3.574 0 0 1 1.736 4.508 2.9 2.9 0 0 0-1.231-.277v-1.477h-3.348a13.3 13.3 0 0 1-5.933-1.4l-.33-.165-.33.166a3.39 3.39 0 0 0-1.876 2.879H17a2.9 2.9 0 0 0-1.326.329 3.2 3.2 0 0 1-.152-1.016 2.94 2.94 0 0 1 .866-2.091l.612-.614v-.306a2.96 2.96 0 0 1 2.957-2.957ZM17 24.4a1.479 1.479 0 0 1 0-2.957ZM4.994 17.725a3.69 3.69 0 0 1-3.515-3.678v-.411a2.9 2.9 0 0 0 1.479.411h.067a4.44 4.44 0 0 0 2.488 3.272 6 6 0 0 0-.519.406m-2.037-5.157a1.479 1.479 0 0 1 0-2.957Zm4.436 3.7a2.96 2.96 0 0 1-2.957-2.957V8.122a9.5 9.5 0 0 0 4.436-1.334 9.5 9.5 0 0 0 4.436 1.334v5.185a2.96 2.96 0 0 1-2.957 2.957Zm1.479 1.479a4.4 4.4 0 0 1 1.317.214c-.245.747-.755 1.264-1.317 1.264S7.8 18.7 7.554 17.958a4.4 4.4 0 0 1 1.318-.215Zm5.848-3.7h.067a2.9 2.9 0 0 0 1.479-.411v.189a4.4 4.4 0 0 0-.728 2.124l-.191.191a4.4 4.4 0 0 0-.738.982 3.66 3.66 0 0 1-1.855.609 6 6 0 0 0-.521-.41 4.45 4.45 0 0 0 2.488-3.273Zm.067-4.436a1.479 1.479 0 0 1 0 2.957ZM14.062 19c-.007.109-.016.22-.016.331a5 5 0 0 0-.167-.288c.062-.019.121-.029.183-.043M8.872 1.479a7.4 7.4 0 0 1 7.376 7.056 2.9 2.9 0 0 0-1.462-.4V6.654h-1.031A8.04 8.04 0 0 1 9.281 5.3l-.41-.274-.41.274a8.04 8.04 0 0 1-4.472 1.354H2.957v1.478a2.9 2.9 0 0 0-1.462.4 7.4 7.4 0 0 1 7.377-7.053M2.453 18.44a5.2 5.2 0 0 0 1.406.606 6 6 0 0 0-.4.759 7.4 7.4 0 0 1-1.006-1.365m2.2 2.411a4.4 4.4 0 0 1 1.575-2.217A2.95 2.95 0 0 0 8.872 20.7a2.95 2.95 0 0 0 2.641-2.066 4.4 4.4 0 0 1 1.575 2.217 7.36 7.36 0 0 1-8.432 0Zm10.87 5.764a7.4 7.4 0 0 1 .083-1.105 2.9 2.9 0 0 0 1.4.366h.067a4.44 4.44 0 0 0 2.488 3.272 5.94 5.94 0 0 0-2.052 2.487 7.36 7.36 0 0 1-1.981-5.02ZM24.4 41.4a1.479 1.479 0 1 1-1.479-1.479A1.48 1.48 0 0 1 24.4 41.4m5.175-4.436a7.4 7.4 0 0 1 .083-1.105 2.9 2.9 0 0 0 1.4.366h.067a4.44 4.44 0 0 0 2.48 3.275 5.94 5.94 0 0 0-2.052 2.487 7.36 7.36 0 0 1-1.981-5.022Zm3.177 6.065a4.4 4.4 0 0 1 1.575-2.217 2.721 2.721 0 0 0 5.282 0 4.4 4.4 0 0 1 1.575 2.217 7.36 7.36 0 0 1-8.432 0m9.629-1.045a5.94 5.94 0 0 0-2.056-2.484 4.44 4.44 0 0 0 2.488-3.272h.067a2.9 2.9 0 0 0 1.4-.366 7.6 7.6 0 0 1 .083 1.106 7.36 7.36 0 0 1-1.981 5.019Z"/><path d="M4.436 39.183H2.957a3.7 3.7 0 0 0 3.7 3.7v-1.482a2.22 2.22 0 0 1-2.221-2.218M39.922 4.436V2.957a2.96 2.96 0 0 0-2.957 2.957h1.479a1.48 1.48 0 0 1 1.478-1.478"/></g></g></svg>