<svg xmlns="http://www.w3.org/2000/svg" width="79.387" height="79.287" viewBox="0 0 79.387 79.287"><g transform="translate(1.161 1.164)"><path fill="#9dc6fb" d="m77.063 67.658-6.534 9.3H36.206V58.355h34.323Z"/><path fill="#ffe07d" d="M21.035 43.182a15.19 15.19 0 0 0 15.17 15.173l-18.607 5.21-11.59-5.21a33.794 33.794 0 0 1 30.2-48.951V28.01a15.19 15.19 0 0 0-15.173 15.172"/><path fill="#a2e19f" d="M69.984 43.183a33.78 33.78 0 0 1-33.783 33.778h-14.27V58.355h14.27a15.172 15.172 0 0 0 0-30.344l-6.533-9.3 6.533-9.3A33.78 33.78 0 0 1 69.979 43.19Z"/><path fill="#f1cb86" d="M12.477 58.355a33.81 33.81 0 0 1 23.728-48.33v-.617a33.81 33.81 0 0 0-30.2 48.951l11.59 5.21 3.985-1.116Z"/><path fill="#97cf92" d="M36.205 28.011a15.172 15.172 0 1 1 0 30.344h6.468a15.172 15.172 0 1 0 0-30.344Z"/><path fill="#e28086" d="m28.465 67.657-6.534 9.3H2.945A2.945 2.945 0 0 1 0 74.012V61.299a2.945 2.945 0 0 1 2.945-2.945h18.986Z"/><path fill="#dd636e" d="M6.782 76.962H2.946A2.945 2.945 0 0 1 0 74.017V61.3a2.946 2.946 0 0 1 2.946-2.945h3.836A2.946 2.946 0 0 0 3.836 61.3v12.718a2.945 2.945 0 0 0 2.946 2.944"/><g transform="translate(42.836)"><path fill="#4a80aa" d="m31.981 19.335-1.818-.753a13 13 0 0 0 0-2.939l1.817-.752a3.638 3.638 0 1 0-2.783-6.722l-1.816.752a13 13 0 0 0-2.079-2.077l.753-1.817a3.637 3.637 0 1 0-6.719-2.784l-.753 1.818a13 13 0 0 0-2.939 0l-.753-1.817a3.637 3.637 0 1 0-6.72 2.784l.753 1.816a13 13 0 0 0-2.077 2.079l-1.818-.754a3.637 3.637 0 1 0-2.782 6.722l1.817.753a13 13 0 0 0 0 2.939l-1.817.752a3.637 3.637 0 1 0 2.783 6.72l1.817-.753.026.032a13 13 0 0 0 2.05 2.041l-.753 1.818a3.635 3.635 0 0 0 4.867 4.7 3.62 3.62 0 0 0 1.852-1.917l.753-1.817a13 13 0 0 0 2.939 0l.752 1.816a3.636 3.636 0 1 0 6.719-2.783l-.752-1.817a13 13 0 0 0 2.077-2.078l1.817.753a3.637 3.637 0 1 0 2.784-6.72Zm-14.867 3.886a6.108 6.108 0 1 1 6.108-6.108 6.11 6.11 0 0 1-6.108 6.108"/><path fill="#407093" d="M18.659 4.062a13 13 0 0 1 2.939 0l.753-1.818A3.62 3.62 0 0 1 24.203.327l-.115-.051a3.635 3.635 0 0 0-4.752 1.968l-.714 1.726ZM3.293 24.087a3.636 3.636 0 0 1 1.968-4.751l1.816-.753a13 13 0 0 1 0-2.939l-1.817-.753a3.636 3.636 0 0 1-.112-6.67l-.119-.049a3.636 3.636 0 1 0-2.782 6.719l1.817.753a13 13 0 0 0 0 2.939l-1.817.753a3.637 3.637 0 1 0 2.783 6.72l.119-.049a3.62 3.62 0 0 1-1.856-1.92M22.35 31.98l-.752-1.816a13 13 0 0 1-2.939 0l-.038.092.714 1.725a3.637 3.637 0 0 0 4.752 1.968l.116-.051a3.62 3.62 0 0 1-1.853-1.918m-9.308 1.917a3.636 3.636 0 0 1-4.867-4.7l.753-1.818a13 13 0 0 1-2.049-2.041l-.026-.032h3.014a13 13 0 0 0 2.075 2.073l-.753 1.818a3.637 3.637 0 0 0 1.853 4.7m0-33.567a3.636 3.636 0 0 0-4.867 4.7l.753 1.818a13 13 0 0 0-2.049 2.041l-.026.032h3.014a13 13 0 0 1 2.075-2.073l-.753-1.818a3.637 3.637 0 0 1 1.853-4.7"/></g></g><path d="M72.64 58.849a1.16 1.16 0 0 0-.952-.494h-2.294a35.2 35.2 0 0 0 1.424-24.156 4.8 4.8 0 0 0 .307-4.283l-.425-1.034a14 14 0 0 0 1.016-1.017l1.035.429a4.8 4.8 0 0 0 3.673-8.868l-1.035-.429a14 14 0 0 0 0-1.438l1.034-.428a4.8 4.8 0 1 0-3.673-8.868l-1.034.428A14 14 0 0 0 70.7 7.676l.429-1.035a4.8 4.8 0 0 0-8.868-3.673l-.429 1.035a14 14 0 0 0-1.438 0l-.428-1.034a4.8 4.8 0 0 0-8.868 3.673l.424 1.034a14 14 0 0 0-1.016 1.017l-1.035-.429a4.81 4.81 0 0 0-5.79 1.712 35.7 35.7 0 0 0-13.142.094 1.163 1.163 0 1 0 .449 2.282 33 33 0 0 1 4.083-.537l-5.19 7.39a1.16 1.16 0 0 0 0 1.337l5.346 7.612a16.331 16.331 0 0 0-6.253 30.2H7.9a32.68 32.68 0 0 1 18.761-44.835 1.164 1.164 0 1 0-.762-2.2A35.017 35.017 0 0 0 5.336 58.355h-1.23A4.11 4.11 0 0 0 0 62.462v12.714a4.11 4.11 0 0 0 4.106 4.109h67.583a1.16 1.16 0 0 0 .952-.495l1.471-2.1a1.163 1.163 0 0 0-1.9-1.336l-1.124 1.6H49.953a35.22 35.22 0 0 0 18.318-16.278h2.813l5.717 8.14-1.92 2.733a1.163 1.163 0 1 0 1.9 1.337l2.389-3.4a1.16 1.16 0 0 0 0-1.337Zm-27.291-47.1a2.476 2.476 0 0 1 3.232-1.339l1.818.753a1.16 1.16 0 0 0 1.355-.35 12 12 0 0 1 1.892-1.894A1.16 1.16 0 0 0 54 7.565l-.752-1.816a2.474 2.474 0 0 1 4.571-1.893l.747 1.82a1.164 1.164 0 0 0 1.205.71 12 12 0 0 1 2.677 0 1.16 1.16 0 0 0 1.205-.71l.753-1.818a2.474 2.474 0 0 1 4.571 1.893l-.753 1.815a1.16 1.16 0 0 0 .35 1.355 12 12 0 0 1 1.894 1.892 1.16 1.16 0 0 0 1.355.35l1.816-.752a2.474 2.474 0 0 1 1.893 4.565l-1.817.752a1.16 1.16 0 0 0-.71 1.205 12 12 0 0 1 0 2.677 1.16 1.16 0 0 0 .71 1.206l1.818.753a2.474 2.474 0 0 1-1.893 4.571l-1.818-.753a1.16 1.16 0 0 0-1.355.35 12 12 0 0 1-1.892 1.894 1.16 1.16 0 0 0-.35 1.354l.752 1.816a2.474 2.474 0 1 1-4.571 1.893l-.752-1.816a1.16 1.16 0 0 0-1.205-.71 12 12 0 0 1-2.677 0 1.164 1.164 0 0 0-1.205.71l-.753 1.818a2.474 2.474 0 0 1-4.571-1.893L54 28.988a1.16 1.16 0 0 0-.35-1.355 12 12 0 0 1-1.894-1.892 1.16 1.16 0 0 0-1.355-.35l-1.817.752a2.474 2.474 0 1 1-1.896-4.567l1.816-.752a1.16 1.16 0 0 0 .71-1.205 12 12 0 0 1 0-2.677 1.16 1.16 0 0 0-.71-1.206l-1.816-.76a2.476 2.476 0 0 1-1.339-3.232Zm-21.99 32.6a14.008 14.008 0 1 1 14.008 14.005 14.024 14.024 0 0 1-14.008-14.008ZM2.326 75.176V62.462a1.783 1.783 0 0 1 1.78-1.786h18.382l5.717 8.14-5.717 8.141H4.106a1.783 1.783 0 0 1-1.78-1.781m58.1-7.77a32.4 32.4 0 0 1-23.062 9.553H25.329l5.248-7.472a1.16 1.16 0 0 0 0-1.337l-5.247-7.474h12.037a16.333 16.333 0 0 0 .613-32.655l-5.726-8.145 5.709-8.129a33 33 0 0 1 4.9.451A4.81 4.81 0 0 0 45.8 17.13l1.035.429a14 14 0 0 0 0 1.438l-1.034.428a4.8 4.8 0 0 0 3.673 8.868l1.034-.428a14 14 0 0 0 1.017 1.016l-.429 1.035a4.8 4.8 0 1 0 8.868 3.673l.429-1.035a14 14 0 0 0 1.438 0l.428 1.034a4.8 4.8 0 0 0 6.271 2.6q.197-.083.384-.18a32.8 32.8 0 0 1 1.07 8.339 32.4 32.4 0 0 1-9.556 23.061Z"/><path d="M61.11 25.548a7.271 7.271 0 1 0-7.271-7.271 7.28 7.28 0 0 0 7.271 7.271m-4.945-7.271a5 5 0 0 1 .034-.568 33 33 0 0 1 4.23 3.575q.88.882 1.695 1.833a4.946 4.946 0 0 1-5.959-4.84m4.945-4.945a4.942 4.942 0 0 1 3.174 8.733c-.7-.84-1.439-1.653-2.211-2.425a35.4 35.4 0 0 0-5.027-4.175 4.94 4.94 0 0 1 4.064-2.132Z"/></svg>