<svg xmlns="http://www.w3.org/2000/svg" width="112.113" height="112.788" viewBox="0 0 112.113 112.788"><g transform="translate(6451.073 2606.781)"><ellipse cx="56.056" cy="56.394" fill="#fff" rx="56.056" ry="56.394" transform="translate(-6451.073 -2606.781)"/><path fill="#fff" d="M-6395.017-2603.781a52.7 52.7 0 0 0-37.51 15.632 53.567 53.567 0 0 0 0 75.523 53.089 53.089 0 0 0 90.567-37.762 53.41 53.41 0 0 0-32.413-49.201 52.4 52.4 0 0 0-20.644-4.192m0-3a56.4 56.4 0 1 1-56.056 56.394 56.226 56.226 0 0 1 56.056-56.394"/><g transform="translate(-6424.395 -2581.808)"><g fill-rule="evenodd"><path d="M46.561 24.482c.43 0 .772-.06 1.066.238l1.543 1.543a.8.8 0 0 1 .231.556v2.865a17.3 17.3 0 0 1 5.08 2.108l2.024-2.023a.78.78 0 0 1 .557-.231h2.191a.78.78 0 0 1 .563.238l2.406 2.4a.8.8 0 0 1 .231.556v2.192a.78.78 0 0 1-.238.563l-2.017 2.017a17.3 17.3 0 0 1 2.108 5.082h2.864a.78.78 0 0 1 .563.238l1.543 1.536a.8.8 0 0 1 .231.557v3.41a.8.8 0 0 1-.238.564l-1.547 1.536a.8.8 0 0 1-.557.231h-2.866a17.3 17.3 0 0 1-2.108 5.082l2.024 2.024a.8.8 0 0 1 .231.556v2.191a.8.8 0 0 1-.238.564l-2.406 2.4a.78.78 0 0 1-.623.228h-2.116a.78.78 0 0 1-.556-.229l-2.026-2.019a17.3 17.3 0 0 1-5.08 2.108v2.873a.8.8 0 0 1-.238.563l-1.543 1.54a.78.78 0 0 1-.556.229h-3.412a.78.78 0 0 1-.563-.238l-1.543-1.543a.8.8 0 0 1-.231-.556v-2.865a17.3 17.3 0 0 1-5.082-2.1l-2.022 2.02a.78.78 0 0 1-.557.231h-2.196a.78.78 0 0 1-.564-.238l-2.232-2.232H3.212A3.22 3.22 0 0 1 0 58.035V7.564a3.22 3.22 0 0 1 3.212-3.212h10.833a1.96 1.96 0 0 1 1.785-1.156h2.722a.35.35 0 0 0 .341-.234 4.724 4.724 0 0 1 8.765 0 .35.35 0 0 0 .341.234h2.722a1.96 1.96 0 0 1 1.784 1.158H43.35a3.22 3.22 0 0 1 3.211 3.212Z"/><path fill="#ffb432" d="M30.732 4.77H28.01a1.91 1.91 0 0 1-1.811-1.262 3.16 3.16 0 0 0-5.825 0 1.91 1.91 0 0 1-1.81 1.262h-2.722a.384.384 0 0 0-.393.387v3.642a.384.384 0 0 0 .381.38h14.9a.383.383 0 0 0 .38-.38V5.157a.383.383 0 0 0-.378-.387"/><path fill="#1e99ec" d="M39.295 31.98a16 16 0 0 0-2.685 1.433.787.787 0 0 1-1.043-.063l-2.239-2.239h-1.54l-1.95 1.95V34.6l2.241 2.241a.784.784 0 0 1 .1.983 16 16 0 0 0-1.461 2.735 15.6 15.6 0 0 0-.89 2.924.79.79 0 0 1-.779.671h-3.176l-1.087 1.087V48l1.087 1.086h3.166a.79.79 0 0 1 .772.636 15.8 15.8 0 0 0 2.325 5.643.787.787 0 0 1-.062 1.043l-2.241 2.241v1.537l1.95 1.95h1.54l2.239-2.239a.784.784 0 0 1 .991-.1 15.8 15.8 0 0 0 5.659 2.351.79.79 0 0 1 .671.779v3.166l1.09 1.093h2.758l1.087-1.087v-3.166a.79.79 0 0 1 .636-.772 15.8 15.8 0 0 0 5.642-2.325.79.79 0 0 1 1.044.063l2.251 2.249h1.533l1.953-1.953v-1.539l-2.239-2.241a.784.784 0 0 1-.1-.991 16 16 0 0 0 1.461-2.735 15.7 15.7 0 0 0 .89-2.924.79.79 0 0 1 .778-.671h3.171l1.089-1.087v-2.761l-1.089-1.087h-3.165a.79.79 0 0 1-.772-.635 15.8 15.8 0 0 0-2.324-5.644.787.787 0 0 1 .062-1.043l2.239-2.241v-1.54l-1.95-1.95h-1.539l-2.239 2.239a.79.79 0 0 1-.993.1 15.8 15.8 0 0 0-5.664-2.354.79.79 0 0 1-.671-.779v-3.166l-1.087-1.087h-2.758l-1.089 1.087v3.166a.79.79 0 0 1-.636.772 15.6 15.6 0 0 0-2.959.9Zm6.06 2.118a12.531 12.531 0 1 1-12.529 12.53 12.53 12.53 0 0 1 12.529-12.53"/><path fill="#434b62" d="M28.264 59.676v-1.345c0-.367.2-.53.43-.751H4.455a.79.79 0 0 1-.788-.788V8.81a.787.787 0 0 1 .788-.787h9.42v-2.1H3.213a1.645 1.645 0 0 0-1.638 1.638v50.473a1.646 1.646 0 0 0 1.638 1.638ZM42.89 24.919c.232-.232.394-.437.762-.437h1.334V7.565a1.643 1.643 0 0 0-1.636-1.638H32.686v2.1h9.417a.787.787 0 0 1 .787.787Z"/><path fill="#efeff0" d="M36.233 31.786a17.3 17.3 0 0 1 5.082-2.108V9.599h-8.8a1.96 1.96 0 0 1-1.784 1.158h-14.9a1.96 1.96 0 0 1-1.786-1.158H5.239v46.406h25.024l.255-.255a17.3 17.3 0 0 1-2.109-5.082h-2.858a.78.78 0 0 1-.564-.238l-1.542-1.542a.78.78 0 0 1-.231-.557v-3.41a.78.78 0 0 1 .238-.564l1.542-1.542a.78.78 0 0 1 .557-.231h2.858a17.3 17.3 0 0 1 2.109-5.082l-2.024-2.024a.8.8 0 0 1-.231-.556V32.73a.8.8 0 0 1 .238-.563l2.4-2.4a.78.78 0 0 1 .557-.231h2.191a.78.78 0 0 1 .564.238ZM8.702 16.018h6.49a.79.79 0 0 1 .788.788v6.493a.79.79 0 0 1-.788.788h-6.49a.787.787 0 0 1-.787-.788v-6.49a.79.79 0 0 1 .787-.791m0 13.324h6.49a.787.787 0 0 1 .788.787v6.49a.79.79 0 0 1-.788.788h-6.49a.787.787 0 0 1-.787-.788v-6.49a.787.787 0 0 1 .787-.787m0 13.324h6.49a.787.787 0 0 1 .788.787v6.49a.79.79 0 0 1-.788.788h-6.49a.787.787 0 0 1-.787-.788v-6.49a.787.787 0 0 1 .787-.787m10.649-11.149a.788.788 0 1 1 0-1.576h6.688a.788.788 0 1 1 0 1.576Zm0 5.281a.788.788 0 1 1 0-1.576h6.688a.788.788 0 1 1 0 1.576Zm0-18.61a.788.788 0 0 1 0-1.576h18.588a.788.788 0 0 1 0 1.576Zm0 5.28a.788.788 0 1 1 0-1.576h18.588a.788.788 0 1 1 0 1.576Z"/><path fill="#1cd9ed" d="M53.104 38.879a10.956 10.956 0 1 0 0 15.494 10.956 10.956 0 0 0 0-15.494m-8.533-1.433a.788.788 0 0 1 1.576 0v.52a.788.788 0 0 1-1.576 0v-.522Zm-6.261 3.242a.787.787 0 1 1 1.113-1.113l.368.368a.788.788 0 0 1-1.113 1.115Zm-2.133 6.724a.788.788 0 1 1 0-1.576h.522a.788.788 0 0 1 0 1.576Zm3.247 6.261a.787.787 0 1 1-1.113-1.113l.368-.37a.788.788 0 0 1 1.113 1.115Zm6.722 2.132a.788.788 0 0 1-1.576 0v-.522a.788.788 0 0 1 1.576 0Zm6.261-3.245a.787.787 0 0 1-1.113 1.113l-.368-.368a.788.788 0 0 1 1.113-1.115Zm-1.113-12.985a.787.787 0 0 1 1.113 1.113l-.368.37a.788.788 0 0 1-1.113-1.115Zm-6.722 1.923a.788.788 0 0 1 1.576 0v4.8l4.142 4.143a.787.787 0 0 1-1.113 1.113l-4.366-4.367a.78.78 0 0 1-.238-.563V41.5Zm9.969 4.338a.788.788 0 0 1 0 1.576h-.522a.788.788 0 0 1 0-1.576Z"/></g><path fill="#24809d" d="M9.49 17.593h4.916v4.916H9.49Z"/><path fill="#ffa71b" d="M9.49 30.922h4.916v4.916H9.49Z"/><path fill="#f3585c" d="M9.49 44.251h4.916v4.916H9.49Z"/></g></g></svg>