<svg xmlns="http://www.w3.org/2000/svg" width="112.113" height="112.788" viewBox="0 0 112.113 112.788"><g transform="translate(6191.057 2613.923)"><ellipse cx="56.056" cy="56.394" fill="#fff" rx="56.056" ry="56.394" transform="translate(-6191.057 -2613.923)"/><path fill="#fff" d="M-6135.001-2610.923a52.7 52.7 0 0 0-37.51 15.632 53.567 53.567 0 0 0 0 75.523 53.089 53.089 0 0 0 90.567-37.762 53.41 53.41 0 0 0-32.413-49.201 52.4 52.4 0 0 0-20.644-4.192m0-3a56.4 56.4 0 1 1-56.056 56.394 56.226 56.226 0 0 1 56.056-56.394"/><g transform="translate(-6167.5 -2589.5)"><path fill="#c2c2c2" d="M5.032 12.478v48.927a1.064 1.064 0 0 0 1.064 1.064h52.118a1.064 1.064 0 0 0 1.064-1.064V12.478a1.064 1.064 0 0 0-1.064-1.064H6.096a1.064 1.064 0 0 0-1.064 1.064"/><path fill="#212a41" d="M58.214 63H6.1a1.6 1.6 0 0 1-1.6-1.6V12.482a1.6 1.6 0 0 1 1.6-1.6h52.114a1.6 1.6 0 0 1 1.6 1.6v48.923a1.6 1.6 0 0 1-1.6 1.595M6.1 11.946a.53.53 0 0 0-.532.532v48.927a.53.53 0 0 0 .532.532h52.114a.53.53 0 0 0 .532-.532V12.482a.53.53 0 0 0-.532-.532Z"/><path fill="#e0e0e0" d="M8.223 22.05h54.245v39.355a1.064 1.064 0 0 1-1.064 1.064H9.287a1.064 1.064 0 0 1-1.064-1.064Z"/><path fill="#212a41" d="M61.405 63H9.291a1.6 1.6 0 0 1-1.6-1.6V22.05a.53.53 0 0 1 .532-.532h54.245a.53.53 0 0 1 .532.532v39.354A1.6 1.6 0 0 1 61.405 63M8.755 22.582v38.822a.53.53 0 0 0 .532.532h52.118a.53.53 0 0 0 .532-.532V22.582Z"/><path fill="#fefefe" d="M10.35 59.809a.53.53 0 0 1-.532-.532v-35.1a.532.532 0 1 1 1.064 0v35.1a.53.53 0 0 1-.532.532"/><path fill="#c2c2c2" d="M60.341 59.809a.53.53 0 0 1-.532-.532v-35.1a.532.532 0 0 1 1.064 0v35.1a.53.53 0 0 1-.532.532"/><path fill="#b51040" d="M59.277 22.05H5.032v-9.572a1.064 1.064 0 0 1 1.064-1.064h52.118a1.064 1.064 0 0 1 1.064 1.064Z"/><path fill="#212a41" d="M59.277 22.582H5.032a.53.53 0 0 1-.532-.532v-9.568a1.6 1.6 0 0 1 1.6-1.6h52.114a1.6 1.6 0 0 1 1.6 1.6v9.573a.53.53 0 0 1-.537.527M5.564 21.518h53.181v-9.036a.53.53 0 0 0-.532-.532H6.1a.53.53 0 0 0-.532.532Z"/><path fill="#d32e5e" d="M62.468 22.05H8.223v-9.572a1.064 1.064 0 0 1 1.064-1.064h52.118a1.064 1.064 0 0 1 1.064 1.064Z"/><path fill="#212a41" d="M62.468 22.582H8.223a.53.53 0 0 1-.532-.532v-9.568a1.6 1.6 0 0 1 1.6-1.6h52.114a1.6 1.6 0 0 1 1.6 1.6v9.573a.53.53 0 0 1-.537.527M8.755 21.518h53.181v-9.036a.53.53 0 0 0-.532-.532H9.291a.53.53 0 0 0-.532.532Z"/><path fill="#b51040" d="M60.341 20.454a.53.53 0 0 1-.532-.532v-6.381a.532.532 0 1 1 1.064 0v6.382a.53.53 0 0 1-.532.531"/><path fill="#f14c7c" d="M10.35 20.454a.53.53 0 0 1-.532-.532v-6.381a.532.532 0 0 1 1.064 0v6.382a.53.53 0 0 1-.532.531"/><rect width="3.191" height="12.764" fill="#e0e0e0" rx="1" transform="translate(17.795 5.032)"/><path fill="#212a41" d="M19.923 18.327h-1.059a1.6 1.6 0 0 1-1.6-1.6V6.1a1.6 1.6 0 0 1 1.6-1.6h1.064a1.6 1.6 0 0 1 1.6 1.6v10.632a1.6 1.6 0 0 1-1.605 1.595M18.864 5.564a.53.53 0 0 0-.532.532v10.636a.53.53 0 0 0 .532.532h1.064a.53.53 0 0 0 .532-.532V6.1a.53.53 0 0 0-.532-.532Z"/><rect width="3.191" height="12.764" fill="#e0e0e0" rx="1" transform="translate(33.75 5.032)"/><path fill="#212a41" d="M35.877 18.327h-1.059a1.6 1.6 0 0 1-1.6-1.6V6.1a1.6 1.6 0 0 1 1.6-1.6h1.064a1.6 1.6 0 0 1 1.6 1.6v10.632a1.6 1.6 0 0 1-1.605 1.595M34.818 5.564a.53.53 0 0 0-.532.532v10.636a.53.53 0 0 0 .532.532h1.064a.53.53 0 0 0 .532-.532V6.1a.53.53 0 0 0-.532-.532Z"/><rect width="3.191" height="12.764" fill="#e0e0e0" rx="1" transform="translate(49.705 5.032)"/><path fill="#212a41" d="M51.832 18.327h-1.059a1.6 1.6 0 0 1-1.6-1.6V6.1a1.6 1.6 0 0 1 1.6-1.6h1.064a1.6 1.6 0 0 1 1.6 1.6v10.632a1.6 1.6 0 0 1-1.605 1.595M50.773 5.564a.53.53 0 0 0-.532.532v10.636a.53.53 0 0 0 .532.532h1.064a.53.53 0 0 0 .532-.532V6.1a.53.53 0 0 0-.532-.532Z"/><circle cx="3.191" cy="3.191" r="3.191" fill="#f9ac2f" transform="translate(16.732 27.368)"/><path fill="#212a41" d="M19.923 34.281a3.723 3.723 0 1 1 3.723-3.723 3.723 3.723 0 0 1-3.723 3.723m0-6.382a2.659 2.659 0 1 0 2.659 2.659 2.66 2.66 0 0 0-2.659-2.659"/><circle cx="3.191" cy="3.191" r="3.191" fill="#f9ac2f" transform="translate(16.732 39.068)"/><path fill="#212a41" d="M19.923 45.981a3.723 3.723 0 1 1 3.723-3.723 3.723 3.723 0 0 1-3.723 3.723m0-6.382a2.659 2.659 0 1 0 2.659 2.659 2.66 2.66 0 0 0-2.659-2.659"/><circle cx="3.191" cy="3.191" r="3.191" fill="#f9ac2f" transform="translate(16.732 50.768)"/><g fill="#212a41" transform="translate(16.2 26.836)"><path d="M3.723 30.845a3.723 3.723 0 1 1 3.723-3.723 3.723 3.723 0 0 1-3.723 3.723m0-6.382a2.659 2.659 0 1 0 2.659 2.659 2.66 2.66 0 0 0-2.659-2.659M39.886 2.128H12.232a.532.532 0 1 1 0-1.064h27.654a.532.532 0 0 1 0 1.064M29.25 6.382H12.232a.532.532 0 1 1 0-1.064H29.25a.532.532 0 0 1 0 1.064m0 11.7H12.232a.532.532 0 1 1 0-1.064H29.25a.532.532 0 1 1 0 1.064m10.636-4.254H12.232a.532.532 0 1 1 0-1.064h27.654a.532.532 0 1 1 0 1.064m0 11.7H12.232a.532.532 0 1 1 0-1.064h27.654a.532.532 0 0 1 0 1.064M29.25 29.782H12.232a.532.532 0 1 1 0-1.064H29.25a.532.532 0 0 1 0 1.064M3.723 4.255a.5.5 0 0 1-.2-.04.53.53 0 0 1-.329-.491V.532a.532.532 0 1 1 1.064 0v1.907l1.219-1.22a.532.532 0 0 1 .753.753L4.099 4.1a.53.53 0 0 1-.376.155m3.191 11.7H3.723a.53.53 0 0 1-.532-.532v-3.191a.532.532 0 1 1 1.064 0v2.659h2.659a.532.532 0 1 1 0 1.064"/><path d="M5.85 29.782a.53.53 0 0 1-.377-.155L3.346 27.5a.53.53 0 0 1-.155-.377v-3.191a.532.532 0 1 1 1.064 0V26.9l1.972 1.971a.532.532 0 0 1-.377.908Z"/></g></g></g></svg>