<svg xmlns="http://www.w3.org/2000/svg" width="104.051" height="105.063" viewBox="0 0 104.051 105.063"><defs><filter id="a" width="104.051" height="105.063" x="0" y="0" filterUnits="userSpaceOnUse"><feOffset dy="3"/><feGaussianBlur result="b" stdDeviation="3"/><feFlood flood-opacity=".161"/><feComposite in2="b" operator="in"/><feComposite in="SourceGraphic"/></filter></defs><g transform="translate(9 6)"><g filter="url(#a)" transform="translate(-9 -6)"><ellipse cx="43.025" cy="43.532" fill="#fff" rx="43.025" ry="43.532" transform="translate(9 6)"/></g><g transform="translate(9.636 17.06)"><g transform="translate(14.317 .776)"><path fill="#f9f8f9" d="M0 0h32.124v51.393H0Z"/><path fill="#e8e8e8" d="M0 0h5.281v51.393H0Z"/><path fill="#d3effd" d="M12.125 27.305H3.936a.724.724 0 0 1-.724-.724v-8.189a.724.724 0 0 1 .724-.724h8.189a.724.724 0 0 1 .724.724v8.189a.724.724 0 0 1-.724.724"/><path fill="#ff7d92" d="M12.125 40.155H3.936a.724.724 0 0 1-.724-.724v-8.189a.724.724 0 0 1 .724-.724h8.189a.724.724 0 0 1 .724.724v8.185a.724.724 0 0 1-.724.728"/><path fill="#a0dbf2" d="M5.28 26.581v-8.189a.724.724 0 0 1 .724-.724H3.936a.724.724 0 0 0-.724.724v8.189a.724.724 0 0 0 .724.724h2.073a.724.724 0 0 1-.729-.724"/><path fill="#e15f78" d="M5.28 39.427v-8.189a.724.724 0 0 1 .724-.724H3.936a.724.724 0 0 0-.724.724v8.189a.724.724 0 0 0 .724.724h2.073a.724.724 0 0 1-.729-.724"/><path fill="#ff7d92" d="M38.753 4.615v9.839h9.839a9.84 9.84 0 0 0-9.839-9.839"/><path fill="#e15f78" d="M38.753 4.615v9.839h2.068V4.833a10 10 0 0 0-2.068-.218"/><path fill="#b0efa5" d="M42.091 25.005a9.8 9.8 0 0 0 3.285-7.338h-9.838z"/><path fill="#fee07d" d="M35.538 7.832a9.839 9.839 0 0 0-6.077 17.576l6.077-7.738Z"/><path fill="#ffa95f" d="m42.091 25.005-6.553-7.338-6.077 7.738a9.84 9.84 0 0 0 12.631-.4Z"/></g><g transform="translate(13.541)"><path d="M.776 9.579a.776.776 0 0 0 .776-.776V1.551h21.913a.776.776 0 1 0 0-1.551H.776A.776.776 0 0 0 0 .776V8.8a.776.776 0 0 0 .776.779m15.286 6.242a.776.776 0 0 0 1.551 0v-1.11a2.549 2.549 0 0 0-.289-5.081h-.974a1 1 0 0 1 0-2h.87a.82.82 0 0 1 .792.589.776.776 0 0 0 1.486-.446 2.36 2.36 0 0 0-1.885-1.663V4.989a.776.776 0 1 0-1.551 0v1.11a2.549 2.549 0 0 0 .289 5.081h.974a1 1 0 0 1 0 2h-1.1a.82.82 0 0 1-.792-.589.776.776 0 1 0-1.486.446 2.36 2.36 0 0 0 2.113 1.689v1.1ZM4.709 28.856h8.189a1.5 1.5 0 0 0 1.5-1.5v-8.189a1.5 1.5 0 0 0-1.5-1.5H4.709a1.5 1.5 0 0 0-1.5 1.5v8.189a1.5 1.5 0 0 0 1.5 1.5m.052-9.637h8.088v8.086H4.763ZM14.4 40.207v-8.189a1.5 1.5 0 0 0-1.5-1.5H4.709a1.5 1.5 0 0 0-1.5 1.5v8.189a1.5 1.5 0 0 0 1.5 1.5h8.189a1.5 1.5 0 0 0 1.502-1.5m-1.551-.052H4.763v-8.086h8.086zm3.968-19.33h6.446a.776.776 0 1 0 0-1.551h-6.446a.776.776 0 1 0 0 1.551m.049 6.425h3.212a.776.776 0 0 0 0-1.551h-3.212a.776.776 0 0 0 0 1.551m-.049 6.425h6.446a.776.776 0 1 0 0-1.551h-6.446a.776.776 0 1 0 0 1.551m12.87 4.874h-6.446a.776.776 0 0 0 0 1.551h6.446a.776.776 0 0 0 0-1.551m0-4.874a.776.776 0 0 0 0-1.551h-3.212a.776.776 0 0 0 0 1.551Zm-9.609 6.427a.776.776 0 1 0 0-1.551h-3.211a.776.776 0 1 0 0 1.551Zm-4.037-3.99a.776.776 0 0 0 .776.776h12.871a.776.776 0 1 0 0-1.551H16.817a.776.776 0 0 0-.776.775M7.2 43.367H3.988a.776.776 0 0 0 0 1.551H7.2a.776.776 0 0 0 0-1.551m22.487 0H10.41a.776.776 0 0 0 0 1.551h19.274a.776.776 0 1 0 0-1.551ZM7.2 46.577H3.988a.776.776 0 0 0 0 1.551H7.2a.776.776 0 0 0 0-1.551m22.487 0H10.41a.776.776 0 0 0 0 1.551h19.274a.776.776 0 1 0 0-1.551Z"/><path d="M46.152 17.67h-1.806a.776.776 0 1 0 0 1.551h1a9.03 9.03 0 0 1-2.44 5.439l-4.858-5.439h3a.776.776 0 1 0 0-1.551h-3.959V8.608a.776.776 0 0 0-.776-.776 10.6 10.6 0 0 0-2.638.332V.776A.776.776 0 0 0 32.9 0h-6.222a.776.776 0 0 0 0 1.551h5.446v7.143a10.614 10.614 0 0 0-5.626 13.793h-9.682a.776.776 0 0 0 0 1.551h10.479a10.7 10.7 0 0 0 1.276 1.662h-5.33a.776.776 0 1 0 0 1.551h7.15a10.6 10.6 0 0 0 1.733.948v23.194H1.551V12.3A.776.776 0 1 0 0 12.3v39.868a.776.776 0 0 0 .776.776h32.123a.776.776 0 0 0 .776-.776v-23.44a10.61 10.61 0 0 0 9.64-2.312l.068-.054.062-.062a10.6 10.6 0 0 0 3.482-7.854.776.776 0 0 0-.776-.776ZM35.538 9.416v8.762l-5.409 6.887a9.059 9.059 0 0 1 5.409-15.649m-4.19 16.608 5-6.371 5.4 6.042a9.05 9.05 0 0 1-10.4.329"/><path d="M39.529 4.615a.776.776 0 0 0-.776.776v9.839a.776.776 0 0 0 .776.776h9.839a.776.776 0 0 0 .776-.776A10.626 10.626 0 0 0 39.529 4.615m.776 9.839V6.199a9.08 9.08 0 0 1 8.254 8.254h-8.255Zm-29.666 6.683-2.637 2.594-.921-1.06a.776.776 0 0 0-1.171 1.017l1.462 1.683a.776.776 0 0 0 1.129.044l3.225-3.172a.776.776 0 0 0-1.088-1.106ZM7.373 38.204a.776.776 0 0 0 1.129.044l3.225-3.172a.776.776 0 0 0-1.088-1.106l-2.637 2.594-.921-1.06a.776.776 0 0 0-1.171 1.017Z"/></g></g></g></svg>