<svg xmlns="http://www.w3.org/2000/svg" width="53.656" height="68.766" viewBox="0 0 53.656 68.766"><g transform="translate(1.007 1.007)"><path fill="#60b9fe" d="M42.424 17.769h-.085v12.014l.113.478.575.554.386.227.364.072h1.756a1.633 1.633 0 0 0 1.633-1.633V16.455a9.17 9.17 0 0 1-4.743 1.314Z"/><path fill="#fef0db" d="M41.269 29.879h-2.675V16.955l-3.626-4.032-1.209-4.656 1.209-3.3-.417-.529H8.277l-1.828.867-.053.057v59.952l.624.6 1.257.844h25.874l.894-.978 6.3-5.91 1.086-1.389V31.114Z"/><path fill="#fee6c1" d="M6.949 64.749V6.436a2.4 2.4 0 0 1 .728-1.719L6.449 5.3l-5.54 6.01L0 12.71v45.764l.674 1.356 6.346 6.077.413.278a2.4 2.4 0 0 1-.484-1.436"/><path fill="#7b6c79" d="M2.305 4.433h5.972A8.277 8.277 0 0 1 0 12.71V6.738a2.305 2.305 0 0 1 2.305-2.305"/><path fill="#938493" d="M40.123 66.751h-5.972a8.277 8.277 0 0 1 8.277-8.277v5.972a2.305 2.305 0 0 1-2.305 2.305"/><path fill="#7b6c79" d="M2.305 66.751h5.972A8.277 8.277 0 0 0 0 58.474v5.972a2.305 2.305 0 0 0 2.305 2.305"/><path fill="#1ca8ff" d="M42.428 29.481V17.769a9.17 9.17 0 0 1-4.743-1.314v13.026a1.633 1.633 0 0 0 1.633 1.633h4.743a1.633 1.633 0 0 1-1.633-1.633"/><path fill="#ffe559" d="m44.983.362-.759.128-1.133.193-2.057 1.41-2.216 2.7-1.133 4.1.3 2.84 1.417 3.2 2.507 2.194 2.507.934h.569a9.213 9.213 0 0 0 0-17.7Z"/><path fill="#ffd500" d="M38.325 9.213A9.215 9.215 0 0 1 44.983.362a9.213 9.213 0 1 0 0 17.7 9.215 9.215 0 0 1-6.658-8.849"/><path fill="#ff7f87" d="M44.984 4.788h-.659L42.736 6.52l-.739 2.4v1.388l1.22 2.115 1.03 1.03.737.19a5.109 5.109 0 0 0 0-8.85Z"/><path fill="#ff636e" d="M42.428 9.213a5.11 5.11 0 0 1 2.555-4.425 5.11 5.11 0 1 0 0 8.85 5.1 5.1 0 0 1-2.555-4.425"/></g><path d="M8.702 25.519a1.007 1.007 0 0 0 1.007 1.007h25.023a1.008 1.008 0 1 0 0-2.015H9.709a1.007 1.007 0 0 0-1.007 1.008m1.007 5.517h25.023a1.008 1.008 0 1 0 0-2.015H9.709a1.008 1.008 0 1 0 0 2.015m0 4.512h25.023a1.008 1.008 0 1 0 0-2.015H9.709a1.008 1.008 0 1 0 0 2.015m0 4.511h25.023a1.008 1.008 0 1 0 0-2.015H9.709a1.008 1.008 0 1 0 0 2.015m0 4.511h25.023a1.008 1.008 0 1 0 0-2.015H9.709a1.008 1.008 0 1 0 0 2.015m26.026 9.658a1.036 1.036 0 0 0-1.034-.905 1.7 1.7 0 0 1-.927-.294 2.63 2.63 0 0 0-2.935 0 1.71 1.71 0 0 1-1.815.064 1.9 1.9 0 0 0-1.907 0 1.712 1.712 0 0 1-2.509-1.039 1.006 1.006 0 0 0-1.947.507 3.723 3.723 0 0 0 5.409 2.307 3.72 3.72 0 0 0 3.9-.174.6.6 0 0 1 .669 0 3.7 3.7 0 0 0 2.092.643 1.007 1.007 0 0 0 1.004-1.109M12.663 20.441a1 1 0 0 0 .566-.175 15.9 15.9 0 0 1 17.984 0 1.007 1.007 0 1 0 1.133-1.666 18 18 0 0 0-20.251 0 1.007 1.007 0 0 0 .568 1.84ZM43.436 4.103a6.118 6.118 0 1 0 6.117 6.118 6.125 6.125 0 0 0-6.117-6.118m0 10.221a4.1 4.1 0 1 1 4.1-4.1 4.11 4.11 0 0 1-4.1 4.1"/><path d="M48.178 23.777a1.007 1.007 0 0 0 1.007-1.007v-4.106A10.217 10.217 0 1 0 35.018 4.433H3.313A3.316 3.316 0 0 0 0 7.746v57.707a3.316 3.316 0 0 0 3.313 3.313h16.558a1.008 1.008 0 0 0 0-2.015h-9.635a9.3 9.3 0 0 0-8.221-8.221V14.669a9.3 9.3 0 0 0 8.221-8.221h23.7a10.4 10.4 0 0 0-.72 3.773 10.15 10.15 0 0 0 4.47 8.45v11.817a2.643 2.643 0 0 0 2.64 2.64h2.1v25.4a9.3 9.3 0 0 0-8.221 8.221h-9.633a1.008 1.008 0 0 0 0 2.015H41.13a3.316 3.316 0 0 0 3.313-3.313V33.129h2.1a2.643 2.643 0 0 0 2.64-2.64v-3.018a1.008 1.008 0 1 0-2.015 0v3.018a.626.626 0 0 1-.625.625h-6.218a.626.626 0 0 1-.625-.625V19.735a10.24 10.24 0 0 0 7.471 0v3.035a1.007 1.007 0 0 0 1.007 1.007M8.207 66.751H3.313a1.3 1.3 0 0 1-1.3-1.3v-4.893a7.29 7.29 0 0 1 6.194 6.193M2.014 12.64v-4.9a1.3 1.3 0 0 1 1.3-1.3h4.895a7.29 7.29 0 0 1-6.195 6.2m40.414 52.813a1.3 1.3 0 0 1-1.3 1.3h-4.893a7.29 7.29 0 0 1 6.193-6.193Zm1.007-47.027a8.206 8.206 0 1 1 8.206-8.206 8.217 8.217 0 0 1-8.206 8.206"/></svg>