<svg xmlns="http://www.w3.org/2000/svg" width="112.051" height="113.157" viewBox="0 0 112.051 113.157"><defs><filter id="a" width="112.051" height="113.157" x="0" y="0" filterUnits="userSpaceOnUse"><feOffset dy="3"/><feGaussianBlur result="b" stdDeviation="3"/><feFlood flood-opacity=".161"/><feComposite in2="b" operator="in"/><feComposite in="SourceGraphic"/></filter></defs><g transform="translate(-6224.274 9816.992)"><g filter="url(#a)" transform="translate(6224.27 -9816.99)"><ellipse cx="47.025" cy="47.579" fill="#fff" rx="47.025" ry="47.579" transform="translate(9 6)"/></g><g transform="translate(6258.981 -9789.46)"><g transform="translate(.763 .763)"><path fill="#8ac9fe" d="M39.06 50.566H8.634a2.055 2.055 0 0 1-2.056-2.056V8.634a2.055 2.055 0 0 1 2.056-2.056H39.06a2.055 2.055 0 0 1 2.056 2.056v39.877a2.055 2.055 0 0 1-2.056 2.055"/><path fill="#b3dafe" d="M35.766 47.277H5.345a2.055 2.055 0 0 1-2.056-2.056V5.344a2.055 2.055 0 0 1 2.056-2.056h30.421a2.055 2.055 0 0 1 2.056 2.056v39.878a2.056 2.056 0 0 1-2.056 2.055"/><path fill="#eaf6ff" d="M32.477 43.988H2.056A2.055 2.055 0 0 1 0 41.932V2.056A2.055 2.055 0 0 1 2.056 0h30.421a2.055 2.055 0 0 1 2.055 2.056v39.877a2.056 2.056 0 0 1-2.055 2.055"/><path fill="#d8ecfe" d="M32.478 0H29.6a2.055 2.055 0 0 1 2.055 2.056v39.877a2.055 2.055 0 0 1-2.055 2.056h2.878a2.055 2.055 0 0 0 2.056-2.056V2.056A2.055 2.055 0 0 0 32.478 0"/><g transform="translate(3.289 9.867)"><circle cx="2.114" cy="2.114" r="2.114" fill="#fed2a4" transform="translate(1.356)"/><path fill="#fd8087" d="M3.47 4.229A3.47 3.47 0 0 0 0 7.698v1.157a1.01 1.01 0 0 0 1.012 1.012h4.916A1.01 1.01 0 0 0 6.94 8.855V7.698a3.47 3.47 0 0 0-3.47-3.469"/><path fill="#fe646f" d="M3.47 4.229a3.5 3.5 0 0 0-.881.113 3.47 3.47 0 0 1 2.589 3.356v1.157a1.01 1.01 0 0 1-1.012 1.012h1.762A1.01 1.01 0 0 0 6.94 8.855V7.698a3.47 3.47 0 0 0-3.47-3.469"/></g><g transform="translate(8.942 24.05)"><circle cx="8.325" cy="8.325" r="8.325" fill="#00f2a6"/><path fill="#0ed290" d="M13.67 1.944A8.324 8.324 0 0 1 .925 12.137 8.324 8.324 0 1 0 13.67 1.944"/><path fill="#eaf6ff" d="m6.363 7.209 1.163 1.163 2.762-2.762a1.645 1.645 0 0 1 2.326 2.326L8.69 11.86a1.644 1.644 0 0 1-2.326 0L4.038 9.535a1.645 1.645 0 0 1 2.326-2.326Z"/></g><path fill="#60b7ff" d="M30.422 6.578H4.111a.82.82 0 0 1-.822-.822V4.111a.82.82 0 0 1 .822-.822h26.311a.82.82 0 0 1 .822.822v1.644a.82.82 0 0 1-.822.823"/><path fill="#26a6fe" d="M30.422 3.289H27.75a.82.82 0 0 1 .822.822v1.644a.82.82 0 0 1-.822.822h2.672a.82.82 0 0 0 .822-.822V4.111a.82.82 0 0 0-.822-.822"/></g><path d="M41.873 43.734a.763.763 0 0 0 .763-.763V9.4a2.82 2.82 0 0 0-2.818-2.818h-.47v-.47a2.82 2.82 0 0 0-2.818-2.823h-.47v-.471A2.82 2.82 0 0 0 33.24 0H2.818A2.82 2.82 0 0 0 0 2.818v32.557a.763.763 0 0 0 1.526 0V2.818a1.294 1.294 0 0 1 1.292-1.292H33.24a1.294 1.294 0 0 1 1.29 1.292V42.7a1.294 1.294 0 0 1-1.292 1.292H2.818A1.294 1.294 0 0 1 1.53 42.7v-3.76a.763.763 0 0 0-1.526 0v3.76a2.82 2.82 0 0 0 2.818 2.818h.47v.47A2.82 2.82 0 0 0 6.108 48.8h.47v.471a2.82 2.82 0 0 0 2.818 2.818h30.422a2.82 2.82 0 0 0 2.818-2.818v-2.739a.763.763 0 0 0-1.526 0v2.742a1.294 1.294 0 0 1-1.292 1.292H9.396a1.294 1.294 0 0 1-1.292-1.292V48.8H36.53a2.82 2.82 0 0 0 2.819-2.818V17.343a.763.763 0 0 0-1.526 0v28.642a1.294 1.294 0 0 1-1.293 1.292H6.108a1.294 1.294 0 0 1-1.293-1.292v-.47H33.24a2.82 2.82 0 0 0 2.819-2.815V4.815h.471a1.294 1.294 0 0 1 1.293 1.292v7.675a.763.763 0 0 0 1.526 0V8.1h.47a1.294 1.294 0 0 1 1.291 1.3v33.571a.763.763 0 0 0 .763.763"/><path d="M3.289 19.485a1.777 1.777 0 0 0 1.775 1.775H9.98a1.777 1.777 0 0 0 1.775-1.775v-1.157a4.23 4.23 0 0 0-2.1-3.655 2.877 2.877 0 1 0-4.265 0 4.23 4.23 0 0 0-2.1 3.654Zm4.233-8.094a1.351 1.351 0 1 1-1.351 1.351 1.353 1.353 0 0 1 1.351-1.351m-2.707 6.935a2.707 2.707 0 0 1 5.414 0v1.157a.25.25 0 0 1-.249.249H5.064a.25.25 0 0 1-.249-.249Zm27.192-8.459h-12.95a.763.763 0 0 0 0 1.526h12.95a.763.763 0 1 0 0-1.526m0 3.287h-12.95a.763.763 0 0 0 0 1.526h12.95a.763.763 0 1 0 0-1.526m.763 4.053a.763.763 0 0 0-.763-.763h-12.95a.763.763 0 0 0 0 1.526h12.95a.763.763 0 0 0 .763-.763m-7.238 4.052a.763.763 0 1 0 0-1.526h-6.475a.763.763 0 1 0 0 1.526ZM8.941 33.138a9.088 9.088 0 1 0 9.088-9.088 9.1 9.1 0 0 0-9.088 9.088m9.088-7.562a7.562 7.562 0 1 1-7.562 7.562 7.57 7.57 0 0 1 7.562-7.566Z"/><path d="m13.202 34.887 2.326 2.326a2.407 2.407 0 0 0 3.4 0l3.924-3.924a2.407 2.407 0 1 0-3.4-3.4l-2.222 2.222-.623-.623a2.408 2.408 0 0 0-3.4 3.4Zm1.079-2.326a.88.88 0 0 1 1.246 0l1.163 1.163a.763.763 0 0 0 1.079 0l2.762-2.762a.881.881 0 0 1 1.246 1.246l-3.924 3.924a.88.88 0 0 1-1.246 0l-2.326-2.326a.883.883 0 0 1 0-1.244Zm1.506-12.07v-9.862a.763.763 0 1 0-1.526 0v9.862a.763.763 0 1 0 1.526 0M32.771 4.874a1.587 1.587 0 0 0-1.585-1.585H4.874a1.587 1.587 0 0 0-1.585 1.585v1.644a1.587 1.587 0 0 0 1.585 1.585h26.311a1.587 1.587 0 0 0 1.585-1.585V4.874Zm-1.526 1.644a.06.06 0 0 1-.059.059H4.874a.06.06 0 0 1-.059-.059V4.874a.06.06 0 0 1 .059-.059h26.311a.06.06 0 0 1 .059.059v1.644Z"/></g></g></svg>