<svg xmlns="http://www.w3.org/2000/svg" width="120.125" height="120.125" viewBox="0 0 120.125 120.125"><defs><filter id="a" width="120.125" height="120.125" x="0" y="0" filterUnits="userSpaceOnUse"><feOffset dy="3"/><feGaussianBlur result="b" stdDeviation="3"/><feFlood flood-opacity=".161"/><feComposite in2="b" operator="in"/><feComposite in="SourceGraphic"/></filter></defs><g transform="translate(-2851.199 9780.166)"><g filter="url(#a)" transform="translate(2851.199 -9780.166)"><circle cx="51.062" cy="51.062" r="51.062" fill="#fff" transform="translate(9 6)"/></g><g transform="translate(2880.302 -9754.064)"><path fill="#fcd770" d="M12.983 36.952v2H.999v-2a5.992 5.992 0 1 1 11.984 0m21.163 16.899a5.98 5.98 0 0 1 2.806 5.073v2H24.968v-2a5.99 5.99 0 0 1 9.178-5.073"/><path fill="#ff826e" d="M18.975 56.926v2H6.991v-2a5.992 5.992 0 1 1 11.984 0m41.946-19.974v2H48.937v-2a5.992 5.992 0 1 1 11.984 0"/><path fill="#e6e9ed" d="M16.169 11.905a5.98 5.98 0 0 1 2.806 5.073v2H6.991v-2a5.99 5.99 0 0 1 9.178-5.073m29.581 0a5.99 5.99 0 0 1 9.178 5.073v2H42.944v-2a5.98 5.98 0 0 1 2.806-5.073"/><path fill="#b4dd7f" d="M36.952 14.98v2H24.968v-2a5.992 5.992 0 1 1 11.984 0m0 21.972v2H24.968v-2a5.992 5.992 0 1 1 11.984 0m17.977 19.974v2H42.944v-2a5.992 5.992 0 1 1 11.984 0Z"/><g fill="#f0d0b4" transform="translate(2.996 .999)"><path d="M42.575 48.088a3.95 3.95 0 0 1-.629-2.147 3.995 3.995 0 0 1 3.995-3.995 4.01 4.01 0 0 1 3.995 3.995 3.993 3.993 0 0 1-7.36 2.147Z"/><ellipse cx="3.802" cy="4.345" rx="3.802" ry="4.345" transform="translate(24.062 43.54)"/><path d="M13.352 48.088a3.993 3.993 0 0 1-7.36-2.147 4.01 4.01 0 0 1 3.995-3.995 3.995 3.995 0 0 1 3.995 3.995 3.95 3.95 0 0 1-.63 2.147"/><ellipse cx="3.802" cy="4.345" rx="3.802" ry="4.345" transform="translate(24.062 21.813)"/><path d="M51.933 21.972a4 4 0 1 1-.969.12 4 4 0 0 1 .969-.12"/><ellipse cx="4.345" cy="3.802" rx="4.345" ry="3.802" transform="translate(41.443 2.26)"/><path d="M31.329 6.142a3.991 3.991 0 1 1 .629-2.147 4 4 0 0 1-.629 2.147"/><ellipse cx="4.345" cy="3.802" rx="4.345" ry="3.802" transform="translate(5.594 2.26)"/><path d="M4.964 22.092a3.993 3.993 0 1 1-.969-.12 4 4 0 0 1 .969.12"/></g><path d="M61.92 39.948v-3a6.99 6.99 0 0 0-3.774-6.2 4.972 4.972 0 0 0-3.217-8.781c-.124 0-.241.028-.363.037l-1.018-2.034h2.379v-3a6.99 6.99 0 0 0-3.774-6.2 4.994 4.994 0 1 0-6.434 0l-.036.018-10.024-4.17a5 5 0 0 0 .295-1.625 4.994 4.994 0 1 0-9.987 0 5 5 0 0 0 .295 1.625L16.237 10.8q-.019-.008-.036-.018a4.994 4.994 0 1 0-6.435 0 6.99 6.99 0 0 0-3.774 6.2v3h2.379l-1.017 2.027c-.123-.009-.24-.037-.364-.037a4.972 4.972 0 0 0-3.217 8.781A6.99 6.99 0 0 0 0 36.952v3h7.361l1.821 3.791a4.91 4.91 0 0 0 .584 6.987 6.99 6.99 0 0 0-3.774 6.2v3h13.982v-3a6.99 6.99 0 0 0-3.774-6.2 5 5 0 0 0 .452-.427l9.222 3.843a6.96 6.96 0 0 0-1.906 4.782v3h13.983v-3a6.96 6.96 0 0 0-1.906-4.782l9.222-3.846a5 5 0 0 0 .452.427 6.99 6.99 0 0 0-3.774 6.2v3h13.983v-3a6.99 6.99 0 0 0-3.774-6.2 4.91 4.91 0 0 0 .584-6.987l1.821-3.791Zm-2-3v1h-9.985v-1a4.994 4.994 0 1 1 9.987 0Zm-2-9.987a3 3 0 1 1-3-3 3 3 0 0 1 3.005 3.004Zm-5.312-4.4a4.93 4.93 0 0 0-1.653 7.393H34.929a4.94 4.94 0 0 0 .978-2.536l7.451-7.451h7.958ZM35.953 36.952v1h-9.987v-1a4.994 4.994 0 1 1 9.987 0M30.96 51.933a3 3 0 1 1 3-3 3 3 0 0 1-3 3m-3-24.968a3 3 0 1 1 3 3 3 3 0 0 1-2.996-3Zm-2-10.986v-1a4.994 4.994 0 1 1 9.987 0v1Zm27.964 1v1h-9.981v-1a4.994 4.994 0 1 1 9.987 0Zm-7.99-9.987a3 3 0 1 1 3 3 3 3 0 0 1-2.993-3.001ZM43.851 12.2a6.96 6.96 0 0 0-1.906 4.782v1.584l-6.412 6.412a5 5 0 0 0-3.575-2.9v-4.1h5.992v-3a6.99 6.99 0 0 0-3.774-6.2 5 5 0 0 0 .452-.427ZM30.96 2a3 3 0 1 1-3 3 3 3 0 0 1 3-3m-3.217 6.781a6.99 6.99 0 0 0-3.774 6.2v3h5.992v4.1a5 5 0 0 0-3.575 2.9l-6.412-6.412v-1.591a6.96 6.96 0 0 0-1.905-4.778l9.222-3.843a5 5 0 0 0 .452.427ZM9.987 6.991a3 3 0 1 1 3 3 3 3 0 0 1-3-3m-2 9.987a4.994 4.994 0 1 1 9.987 0v1H7.99Zm2.615 3h7.958l7.451 7.451a4.94 4.94 0 0 0 .978 2.536H10.96a4.93 4.93 0 0 0-1.653-7.393Zm-6.607 6.987a3 3 0 1 1 3 3 3 3 0 0 1-3-3M2 36.952a4.994 4.994 0 1 1 9.987 0v1H2Zm11.984 3v-3a6.96 6.96 0 0 0-2.108-4.994h14.2a6.97 6.97 0 0 0-2.086 4.558l-7.214 7.214a4.88 4.88 0 0 0-5.985-1.255l-1.214-2.527Zm3.995 16.978v1H7.99v-1a4.994 4.994 0 1 1 9.987 0Zm-7.99-9.987a3 3 0 1 1 3 3 3 3 0 0 1-3.002-3.004Zm7.99 0a5 5 0 0 0-.215-1.369l6.207-6.207v.585h5.992v4.1a4.968 4.968 0 0 0-2.218 8.68q-.019.008-.036.018l-10.026-4.185a5 5 0 0 0 .294-1.626Zm17.974 12.98h-9.987v-1a4.994 4.994 0 1 1 9.987 0Zm-1.74-7.181q-.019-.008-.036-.018a4.969 4.969 0 0 0-2.219-8.68v-4.1h5.992v-.585l6.207 6.207a4.56 4.56 0 0 0 .08 2.994Zm19.717 4.185v1h-9.987v-1a4.994 4.994 0 1 1 9.987 0m-7.99-9.987a3 3 0 1 1 3 3 3 3 0 0 1-2.999-3.001Zm5.188-4.464a4.884 4.884 0 0 0-5.986 1.255l-7.214-7.214a6.97 6.97 0 0 0-2.086-4.558h14.2a6.97 6.97 0 0 0-2.107 4.994v3h4.405Z"/></g></g></svg>