<svg xmlns="http://www.w3.org/2000/svg" width="43.718" height="43.718" viewBox="0 0 43.718 43.718"><g transform="translate(.705 .705)"><path fill="#ff826e" d="M23.826 16.451a1.42 1.42 0 0 0 .67.733c.042.021.092.049.134.071l-.155 1.114-1.3 4.181-.611-4.216 1.255-1.883Zm-3.934-.007 1.262 1.89-.606 4.217a13.8 13.8 0 0 1-1.3-4.181l-.169-1.192a.1.1 0 0 0 .042-.014 1.44 1.44 0 0 0 .776-.719Z"/><path fill="#ffeaa7" d="m22.564 18.333.606 4.217v.007a14.3 14.3 0 0 1-1.312 2.122 14.3 14.3 0 0 1-1.312-2.122v-.007l.607-4.217Z"/><path fill="#969faa" d="M23.269 35.256a2 2 0 0 1-.705-.127 2.09 2.09 0 0 1-1.41-1.988 2.113 2.113 0 0 1-2.115 2.115h-2.116v7.051h11.282v-7.051Z"/><path fill="#75b1f2" d="M27.203 19.659a6.7 6.7 0 0 1 1 3.526v7.841H23.27a2.12 2.12 0 0 0-2.115 2.115 2.1 2.1 0 0 0-.621-1.495 2 2 0 0 0-.395-.31l.035-.035a1.5 1.5 0 0 0 .078-2.031l-1.107-1.29-2.642 2.108a7.8 7.8 0 0 1-2.4-5.634v-.063a7.71 7.71 0 0 1 4.971-7.213l.169 1.192a13.8 13.8 0 0 0 1.3 4.181v.007a14.3 14.3 0 0 0 1.312 2.122 14.3 14.3 0 0 0 1.312-2.122v-.007l1.3-4.181.155-1.114a6.76 6.76 0 0 1 2.574 2.4Z"/><path fill="#b4dd7f" d="M12.692 31.025v-2.08a7.7 7.7 0 0 0-.331-2.249 13.84 13.84 0 0 1-7.207-5.218l-.472.317A7.35 7.35 0 0 0 2.82 32.238v10.069h9.872v-7.051h4.231v-4.231Z"/><path fill="#a0d468" d="M9.871 22.924a7.85 7.85 0 0 1 2.489 3.772 13.84 13.84 0 0 1-7.206-5.218l.49-.324a7.85 7.85 0 0 1 4.231 1.77Z"/><path fill="#b27946" d="M11.867 5.056a2.826 2.826 0 0 1 0 3.991 3 3 0 0 1-.585.444 2.8 2.8 0 0 1-1.41.381 1.38 1.38 0 0 1-.994-.416 1.4 1.4 0 0 1-.409-.853l-1.5.3a1.645 1.645 0 0 0-1.326 1.615v.769a1.41 1.41 0 0 0 0 2.821v4.936L3.3 17.868a3.41 3.41 0 0 1-1.89-3.06l-.021-.021A4.74 4.74 0 0 1 0 11.431v-.423a4.77 4.77 0 0 1 2.115-3.956 3.725 3.725 0 0 1 3.611-2.821h4.146a2.84 2.84 0 0 1 2 .825Z"/><path fill="#656d78" d="M28.247 6.346v.212a2.9 2.9 0 0 0 0 .987v.917h-1.452v-.614a1.41 1.41 0 0 0-.684-1.206l-2.842-1.706h-3.526l-2.256 1.692a1.42 1.42 0 0 0-.564 1.128v.705h-1.368V6.346a6.346 6.346 0 0 1 12.692 0"/><path fill="#fcd770" d="m41.56 21.817-.663-.663v-.275a4.77 4.77 0 0 0-2.115-3.956l.113-.155a9.9 9.9 0 0 0 1.492-2.837 10 10 0 0 0 .515-3.166 6.536 6.536 0 0 0-6.542-6.534h-3.335a2.825 2.825 0 0 0-2.778 2.327v.987a2.8 2.8 0 0 0 .374.98 2.9 2.9 0 0 0 .931.931 2.83 2.83 0 0 0 1.474.416h2.115a1.38 1.38 0 0 0 .994-.416 1.35 1.35 0 0 0 .4-.818l.078.014a2.715 2.715 0 0 1 2.052 2.63 1.41 1.41 0 0 1 0 2.821v7.051l.959.642a7.3 7.3 0 0 1 3.081 4.478h.007l.846-.846a2.553 2.553 0 0 0 0-3.61Z"/><path fill="#ff826e" d="M42.308 41.038v1.269H31.026v-1.079a13.3 13.3 0 0 1 1.41-5.972h1.114a7.33 7.33 0 0 0 5.937-3.018V33a6.46 6.46 0 0 0 1.41 4.019 6.46 6.46 0 0 1 1.41 4.019Zm-5.895-12.572a3.93 3.93 0 0 1-3.688 2.56h-.289V28.91l-.162-.162a4.25 4.25 0 0 1-.825-4.858h.007l.162-.035a9.86 9.86 0 0 0 5.049-2.701l.959.642a7.3 7.3 0 0 1 3.081 4.478 7 7 0 0 1 .19 1.636 7.4 7.4 0 0 1-.55 2.8l-3.928-2.242Z"/><path fill="#f0d0b4" d="M20.251 29.269a1.5 1.5 0 0 1-.077 2.03l-.035.035a2.1 2.1 0 0 0-1.1-.31h-1.41l-.592-.472q-.275-.222-.529-.465l2.637-2.108Z"/><path fill="#f0d0b4" d="M17.628 31.026h1.41a2.1 2.1 0 0 1 1.1.31 2 2 0 0 1 .395.31 2.114 2.114 0 0 1-1.495 3.61h-2.115v-4.23Z"/><path fill="#f0d0b4" d="m36.42 28.466 3.928 2.242a7.5 7.5 0 0 1-1.6 2.4 7.35 7.35 0 0 1-5.2 2.151H23.269a2 2 0 0 1-.705-.127 2.113 2.113 0 0 1 .705-4.1h9.456a3.93 3.93 0 0 0 3.688-2.56ZM33.141 9.872a1.38 1.38 0 0 0 .994-.416 1.35 1.35 0 0 0 .4-.818l.078.014a2.715 2.715 0 0 1 2.052 2.63 1.41 1.41 0 0 1 0 2.821v7.051a9.86 9.86 0 0 1-5.05 2.701l-.162.035a4 4 0 0 1 .818-1.163l1.039-1.039a1.83 1.83 0 0 0 .536-1.29v-.839a1.9 1.9 0 0 1-.825.183 2 2 0 0 1-2-2v-2.229h-.416a1 1 0 0 1-.705-1.7l.3-.3a2.82 2.82 0 0 0 .825-2v-1.65Zm-3.942.99a1.38 1.38 0 0 1-.994.416h-1.467a4 4 0 0 0 .056-.705V8.462h1.453a1.7 1.7 0 0 1 .374.063 2.9 2.9 0 0 0 .931.931 1.4 1.4 0 0 1 .063.416 1.38 1.38 0 0 1-.416.994Zm-5.408 5.504a.4.4 0 0 0 .035.085h-.007l-1.255 1.883h-1.41l-1.262-1.89c.021-.049.042-.106.063-.162l.346-1.022a4.9 4.9 0 0 0 3.117 0Zm-6.818-5.083h-1.418a1.42 1.42 0 0 1-1.41-1.41 1.414 1.414 0 0 1 1.41-1.411h1.368v2.115a4 4 0 0 0 .056.705Z"/><path fill="#f0d0b4" d="M16.923 8.462v-.705a1.42 1.42 0 0 1 .564-1.128l2.257-1.693h3.526l2.842 1.706a1.41 1.41 0 0 1 .684 1.206v2.729a4 4 0 0 1-.056.705 4.91 4.91 0 0 1-3.321 3.977 4.9 4.9 0 0 1-3.117 0l-1.932-1.192a4.85 4.85 0 0 1-1.389-2.785 4 4 0 0 1-.058-.705ZM5.641 19.039v-4.936a1.41 1.41 0 0 1 0-2.821v-.769a1.645 1.645 0 0 1 1.326-1.61l1.5-.3a1.4 1.4 0 0 0 .409.853 1.38 1.38 0 0 0 .994.416 2.8 2.8 0 0 0 1.41-.381v2.031a2.82 2.82 0 0 0 .825 2l.3.3a1 1 0 0 1-.705 1.7h-.416v2.235a1.99 1.99 0 0 1-1.41 1.9v3.272a7.85 7.85 0 0 0-4.231-1.77Z"/></g><ellipse cx=".5" cy="1" rx=".5" ry="1" transform="translate(8.386 12.718)"/><ellipse cx=".5" cy="1" rx=".5" ry="1" transform="translate(34.386 12.718)"/><path d="M40.9 33.7v-.548a7.84 7.84 0 0 0 1.276-5.935l.591-.591a3.26 3.26 0 0 0 0-4.608l-.456-.456a5.45 5.45 0 0 0-1.849-4.08 10.8 10.8 0 0 0 1.849-6.014 7.25 7.25 0 0 0-7.242-7.242h-3.338a3.5 3.5 0 0 0-2.345.9 7.048 7.048 0 0 0-13.83 1.921v1.54a2.11 2.11 0 0 0 .705 4.1h.848a5.66 5.66 0 0 0 3.019 3.669l-.135.405a.7.7 0 0 1-.422.436 8.507 8.507 0 0 0-3.113 13.822H14.1v-1.368a8.5 8.5 0 0 0-2.818-6.351v-2.489a2.69 2.69 0 0 0 1.41-2.357V16.9a1.7 1.7 0 0 0 .912-2.881l-.292-.292a2.1 2.1 0 0 1-.62-1.5v-1.67a3.513 3.513 0 0 0-2.115-6.328H6.433a4.42 4.42 0 0 0-4.222 3.095A5.44 5.44 0 0 0 0 11.709v.426A5.42 5.42 0 0 0 1.421 15.8a4.1 4.1 0 0 0 2.272 3.4l1.948.974v1.3L5 21.911a8.044 8.044 0 0 0-2.179 11.245v10.562H14.1v-7.051h2.821v7.051h12.694v-7.051h2.441a14.1 14.1 0 0 0-1.031 5.269v1.783h12.693v-1.975a7.17 7.17 0 0 0-1.565-4.461A5.75 5.75 0 0 1 40.9 33.7m-18.333.142a1.41 1.41 0 0 1 1.41-1.41h9.459a4.64 4.64 0 0 0 3.991-2.281l2.704 1.549a6.65 6.65 0 0 1-5.877 3.555h-10.28a1.41 1.41 0 0 1-1.41-1.409ZM21.123 19.2l-.175 1.226a13 13 0 0 1-.3-1.457l-.087-.611Zm1.348.539h.187l.483 3.38c-.18.348-.366.691-.577 1.022-.21-.33-.4-.674-.577-1.022Zm2.009-.77a13 13 0 0 1-.3 1.457l-.174-1.226.561-.842Zm1.037-1.715a.7.7 0 0 1-.354-.408L25 16.362a5.66 5.66 0 0 0 3.019-3.669h.891a2.11 2.11 0 0 0 2.017-1.513c.033.008.064.02.1.027v1.023a2.1 2.1 0 0 1-.62 1.5l-.292.292a1.7 1.7 0 0 0 .912 2.88v1.556a2.7 2.7 0 0 0 2.7 2.7c.039 0 .078-.01.117-.011a1.13 1.13 0 0 1-.325.754L32.48 22.94a4.96 4.96 0 0 0-.042 6.972v1.119h-2.823V23.89a7.38 7.38 0 0 0-4.1-6.631Zm2.688-7.387h.717a3.5 3.5 0 0 0 .691.691v.012a.705.705 0 0 1-.705.705h-.705Zm7.448.379a2 2 0 0 1 1.014 1.736v.705h.705a.705.705 0 1 1 0 1.41h-.705v7.45a9.1 9.1 0 0 1-2.482 1.67l.329-.329a2.52 2.52 0 0 0 .743-1.792v-.427a2.7 2.7 0 0 0 .377-.31l.826-.826-1-1-.826.826a1.289 1.289 0 0 1-2.2-.912v-.149a3.08 3.08 0 0 0 1.909-.884l-1-1a1.7 1.7 0 0 1-.912.47v-1.371h-1.114a.292.292 0 0 1-.207-.5l.292-.292a3.5 3.5 0 0 0 1.033-2.493v-.947h1.41a2.11 2.11 0 0 0 1.807-1.031Zm5 20.124-2.7-1.541a4.7 4.7 0 0 0 .122-1.042 1.7 1.7 0 0 1 .5-1.2l-1-1a3.1 3.1 0 0 0-.912 2.2 3.23 3.23 0 0 1-2.821 3.192v-1.656l-.37-.37a3.51 3.51 0 0 1-.808-3.75 10.54 10.54 0 0 0 4.776-2.449l.5.331a6.61 6.61 0 0 1 2.713 7.29Zm.245-8.8v.57l.869.869a1.85 1.85 0 0 1 0 2.615l-.022.022a8.04 8.04 0 0 0-3.023-3.745l-.644-.429v-3.139h1.175A4.03 4.03 0 0 1 40.9 21.58ZM31.731 5.641h3.335a5.84 5.84 0 0 1 5.834 5.832 9.36 9.36 0 0 1-1.771 5.45h-1.052v-1.531a2.116 2.116 0 0 0-.053-4.007 3.41 3.41 0 0 0-2.1-2.566 2.114 2.114 0 0 0-2.08-1.768h-.705v1.41h.705a.705.705 0 1 1 0 1.41h-2.113a2.11 2.11 0 0 1-2.072-1.708v-.814a2.11 2.11 0 0 1 2.072-1.708m-15.47 5.641a.705.705 0 1 1 0-1.41h.662v1.41Zm2.072 0v-2.82a.71.71 0 0 1 .281-.564L20.473 6.5l1.7 1.133.782-1.173-2.531-1.683-2.654 1.992a2.12 2.12 0 0 0-.8 1.332v-1.05a5.641 5.641 0 1 1 11.282 0v.217a4 4 0 0 0-.042.488 3.5 3.5 0 0 0 .043.488v.217h-.055a2.12 2.12 0 0 0-1.015-1.721l-2.841-1.7-.726 1.209 2.84 1.7a.71.71 0 0 1 .343.6v2.727a4.231 4.231 0 0 1-8.462 0Zm4.231 5.641a5.7 5.7 0 0 0 1.1-.109l.08.24-.853 1.279h-.656l-.853-1.28.08-.24a5.7 5.7 0 0 0 1.102.11m-3.349 1.993.037.257A14.5 14.5 0 0 0 22 25.807l.564.752.564-.752a14.5 14.5 0 0 0 2.748-6.634v-.015a5.96 5.96 0 0 1 2.324 4.731v7.137h-1.41v-7.465a1.7 1.7 0 0 1 .5-1.2l-1-1a3.1 3.1 0 0 0-.911 2.2v7.464h-1.41a2.8 2.8 0 0 0-2.11.975c-.024-.028-.045-.059-.07-.085a2.21 2.21 0 0 0-.3-2.4l-1.685-1.964a6.14 6.14 0 0 1-1.476-3.99 3.1 3.1 0 0 0-.912-2.2l-1 1a1.7 1.7 0 0 1 .5 1.2 7.55 7.55 0 0 0 1.815 4.907l.1.12-1.558 1.246a7.093 7.093 0 0 1 1.932-10.918Zm1.208 11.517a.77.77 0 0 1 .139.728 2.8 2.8 0 0 0-.818-.135h-1.163l-.264-.212 1.443-1.155Zm-.679 2a1.41 1.41 0 0 1 0 2.821h-1.41v-2.818Zm-7.972-6.288a13.2 13.2 0 0 1-4.592-3.429 7.08 7.08 0 0 1 4.591 3.431Zm.544-11.425.292.292a.292.292 0 0 1-.207.5h-1.119v1.382a1.7 1.7 0 0 1-.912-.47l-1 1a3.08 3.08 0 0 0 1.909.884v.149a1.289 1.289 0 0 1-2.2.912l-.826-.826-1 1 .826.826a2.67 2.67 0 0 0 1.787.778v1.139a8.5 8.5 0 0 0-2.821-1.03V14.1h-.699a.705.705 0 0 1 0-1.41h.705v-1.47a.94.94 0 0 1 .755-.922l.894-.178a2.11 2.11 0 0 0 1.878 1.162 3.5 3.5 0 0 0 .705-.071v1.018a3.5 3.5 0 0 0 1.033 2.493Zm-7.993 3.223a2.7 2.7 0 0 1-1.5-2.431L2.8 15.2l-.2-.2a4.02 4.02 0 0 1-1.19-2.865v-.426a4.04 4.04 0 0 1 1.8-3.366l.226-.151.064-.265a3.014 3.014 0 0 1 2.933-2.286h4.144a2.116 2.116 0 0 1 0 4.231.705.705 0 0 1 0-1.41h.705V7.051h-.705A2.12 2.12 0 0 0 8.511 8.72l-.982.2a2.356 2.356 0 0 0-1.888 2.3v.18a2.116 2.116 0 0 0 0 3.99v3.21Zm8.369 24.364H4.231v-7.585a8 8 0 0 0 5.233 1.945h3.228Zm-3.228-7.051A6.64 6.64 0 0 1 5.71 23.137a14.6 14.6 0 0 0 6.769 4.8 7.2 7.2 0 0 1 .213 1.71v1.375h-2.407a3.24 3.24 0 0 1-3.234-3.234 3.1 3.1 0 0 0-.912-2.2l-1 1a1.7 1.7 0 0 1 .5 1.2 4.65 4.65 0 0 0 4.644 4.644h6.638v2.821Zm8.869 1.41h1.41a2.8 2.8 0 0 0 2.115-.974 2.8 2.8 0 0 0 .705.582v6.033h-4.23Zm9.872 5.641h-4.231v-5.64h4.231Zm14.1 0h-9.869v-.372a12.7 12.7 0 0 1 1.155-5.269h.663a8 8 0 0 0 5.3-2.009 7.17 7.17 0 0 0 1.493 3.507 5.75 5.75 0 0 1 1.257 3.579Z"/><ellipse cx=".5" cy="1" rx=".5" ry="1" transform="translate(20.386 7.718)"/><circle cx="1" cy="1" r="1" transform="translate(23.386 7.718)"/><path d="m24.217 13.082.39-.779-1.261-.631-.39.778a.45.45 0 0 1-.779 0l-.39-.779-1.261.631.39.78a1.846 1.846 0 0 0 3.3 0Z"/></svg>