<svg xmlns="http://www.w3.org/2000/svg" width="105" height="105" viewBox="0 0 105 105"><path fill="#adecd1" d="M52.5 0A52.5 52.5 0 1 1 0 52.5 52.5 52.5 0 0 1 52.5 0"/><g transform="translate(17.659 23.144)"><path fill="#f6f6f6" d="M64.61 0H5.069A5.073 5.073 0 0 0 0 5.077v47.436a5.073 5.073 0 0 0 5.069 5.077H64.61a5.073 5.073 0 0 0 5.069-5.077V5.077A5.073 5.073 0 0 0 64.61 0"/><path fill="#eefbf5" d="M64.61 0H5.069A5.073 5.073 0 0 0 0 5.077v8.4h69.682v-8.4A5.073 5.073 0 0 0 64.61 0"/><path fill="#c5c5c5" d="M23.269 30.128a1.07 1.07 0 0 0-1.4.575l-2.7 6.466-2.7-6.466a1.067 1.067 0 0 0-1.97 0l-2.7 6.466-2.7-6.466a1.067 1.067 0 1 0-1.971.82l3.68 8.834a1.068 1.068 0 0 0 1.971 0l2.7-6.47 2.7 6.466a1.067 1.067 0 0 0 1.97 0l3.681-8.834a1.067 1.067 0 0 0-.578-1.392Zm19.341.001a1.07 1.07 0 0 0-1.4.575l-2.7 6.466-2.7-6.466a1.067 1.067 0 0 0-1.97 0l-2.7 6.466-2.7-6.466a1.068 1.068 0 0 0-1.971.822l3.681 8.833a1.067 1.067 0 0 0 1.97 0l2.7-6.47 2.7 6.466a1.067 1.067 0 0 0 1.97 0l3.681-8.833a1.07 1.07 0 0 0-.575-1.393Zm19.339-.001a1.07 1.07 0 0 0-1.4.575l-2.687 6.467-2.7-6.466a1.067 1.067 0 0 0-1.97 0l-2.7 6.466-2.7-6.466a1.067 1.067 0 1 0-1.971.82l3.681 8.834a1.067 1.067 0 0 0 1.97 0l2.693-6.47 2.7 6.466a1.068 1.068 0 0 0 1.971 0l3.68-8.834a1.067 1.067 0 0 0-.573-1.392Z"/><circle cx="2.394" cy="2.394" r="2.394" fill="#4e8e69" transform="translate(5.344 4.342)"/><path fill="#adecd1" d="M17.339 4.342a2.395 2.395 0 1 0 2.395 2.395 2.395 2.395 0 0 0-2.395-2.395"/><circle cx="2.394" cy="2.394" r="2.394" fill="#a0c9f6" transform="translate(24.546 4.342)"/><path fill="#4f647a" d="m15.802 53.353-5.726 5.726 2.641 2.641 2.641 2.641 5.726-5.726 2.863 2.863 5.211-16.22-16.22 5.211Z"/></g></svg>