<svg xmlns="http://www.w3.org/2000/svg" width="112.113" height="112.788" viewBox="0 0 112.113 112.788"><ellipse cx="56.056" cy="56.394" fill="#fff" rx="56.056" ry="56.394"/><path fill="#fff" d="M56.056 3a52.7 52.7 0 0 0-37.51 15.632 53.567 53.567 0 0 0 0 75.523 53.089 53.089 0 0 0 90.567-37.762A53.41 53.41 0 0 0 76.7 7.192 52.4 52.4 0 0 0 56.056 3m0-3A56.4 56.4 0 1 1 0 56.394 56.226 56.226 0 0 1 56.056 0"/><g transform="translate(5.622 18.549)"><g fill-rule="evenodd" transform="translate(14.623 1.183)"><path fill="#ff4646" d="M69.353 34.676a34.676 34.676 0 0 0-69.353 0h12.316a22.358 22.358 0 0 1 44.716 0Z"/><path fill="#70da40" d="M69.353 34.676a34.57 34.57 0 0 0-10.157-24.52l-8.713 8.713a22.28 22.28 0 0 1 6.549 15.807Z"/><path fill="#ffd400" d="M59.196 10.156A34.57 34.57 0 0 0 34.676 0v12.321a22.28 22.28 0 0 1 15.807 6.549Z"/><path fill="#0593fc" d="M69.352 39.781c0 18.528-15.47 33.545-34.554 33.545S.248 58.309.248 39.781Z"/><path fill="#70da40" d="M18.686 69.464a34.07 34.07 0 0 1-15.635-16.43c1.758-3.649 4.638-2.889 7.163-6.064 3.344-4.206 6.032 2.815 13.821 3.3 15.635 1.342 8.8 7.973-.81 13.944a10.94 10.94 0 0 0-4.539 5.25m50.667-29.683a33.04 33.04 0 0 1-11.459 24.95c-1.777-5.056-1.514-7.562-2.22-13.138-1.282-10.116-5.987-2.957-8.363-2.095-2.494.9-12.316-5.393-11.78-9.717Z"/><path fill="#fea832" d="M10.156 10.156A34.56 34.56 0 0 1 34.676 0v12.321a22.3 22.3 0 0 0-15.811 6.549Z"/><path fill="#2f5274" d="M45.894 9.579a2.33 2.33 0 0 1 1.029 3.119l-7.59 15.01a2.322 2.322 0 0 1-4.144-2.095l7.585-15.01a2.325 2.325 0 0 1 3.119-1.025Z"/><path fill="#ffd400" d="M34.676 42.787a11.436 11.436 0 1 0-11.438-11.438 11.46 11.46 0 0 0 11.438 11.438"/><path fill="#0584e3" d="M7.675 49.112a32.6 32.6 0 0 1-1.354-9.331H.248c0 18.528 15.47 33.545 34.551 33.545q1.537 0 3.038-.126a35 35 0 0 1-17.523-6.456 17 17 0 0 0-1.628 2.717A34.07 34.07 0 0 1 3.051 53.032c1.183-2.456 2.877-2.911 4.624-3.92"/><path fill="#65c43a" d="M7.671 49.113c-1.749 1.008-3.442 1.465-4.624 3.921a34.1 34.1 0 0 0 15.639 16.429 17 17 0 0 1 1.628-2.717A33.6 33.6 0 0 1 7.671 49.113"/><path fill="#e6bf00" d="M25.886 31.348a11.444 11.444 0 0 1 10.112-11.361 12 12 0 0 0-1.322-.074 11.436 11.436 0 1 0 0 22.872 12 12 0 0 0 1.322-.074 11.447 11.447 0 0 1-10.112-11.363"/><path fill="#e63f3f" d="M3.734 34.676a34.54 34.54 0 0 1 8.359-22.579l-1.933-1.941A34.57 34.57 0 0 0 0 34.676Z"/><path fill="#e5972d" d="m10.156 10.156 1.937 1.94A34.62 34.62 0 0 1 34.676.2V0a34.56 34.56 0 0 0-24.52 10.156"/><path fill="#65c43a" d="M50.483 18.87a22.28 22.28 0 0 1 6.549 15.807h3.731a22.3 22.3 0 0 0-8.526-17.564Z"/><path fill="#e6bf00" d="m50.483 18.87 1.758-1.758a22.3 22.3 0 0 0-5.866-3.331l-.716 1.419a22.3 22.3 0 0 1 4.824 3.67m-9.09-5.525.39-.773a22.5 22.5 0 0 0-3.372-.253q-.945 0-1.867.077a22.4 22.4 0 0 1 4.849.949"/></g><path d="M45.569 30.03a3.69 3.69 0 0 1 2.547-3.5v-1.24a1.181 1.181 0 1 1 2.362 0v1.11a3.7 3.7 0 0 1 2.315 1.438 1.182 1.182 0 0 1-1.9 1.407 1.33 1.33 0 0 0-1.063-.541h-.58a1.32 1.32 0 1 0 0 2.64h.293a1.2 1.2 0 0 1 .262.03 3.685 3.685 0 0 1 .673 7.161v1.236a1.181 1.181 0 0 1-2.362 0v-1.109a3.7 3.7 0 0 1-2.316-1.437 1.182 1.182 0 1 1 1.9-1.407 1.32 1.32 0 0 0 1.066.541h.578a1.323 1.323 0 0 0 0-2.645h-.288a1 1 0 0 1-.257-.03 3.69 3.69 0 0 1-3.227-3.655Zm39.589 10.934a34.02 34.02 0 0 1-10.477 24.569 36.474 36.474 0 0 1-50.513 0A34.02 34.02 0 0 1 13.69 40.964a1.18 1.18 0 0 1 1.181-1.181H38.98a12.616 12.616 0 0 1 12.859-19.61l2.469-4.887a21.183 21.183 0 0 0-26.183 20.575 1.18 1.18 0 0 1-1.181 1.181H14.621a1.18 1.18 0 0 1-1.181-1.181 35.859 35.859 0 0 1 71.718 0 1.18 1.18 0 0 1-1.181 1.181H71.656a1.18 1.18 0 0 1-1.128-.831 1.2 1.2 0 0 1-.053-.352 21.24 21.24 0 0 0-9.713-17.805l-2.723 5.387a12.58 12.58 0 0 1 1.583 16.34h24.355a1.186 1.186 0 0 1 1.181 1.184ZM31.849 20.081l-7.043-7.043a33.37 33.37 0 0 0-8.981 21.64h9.965a23.44 23.44 0 0 1 6.058-14.6ZM48.118 2.388a33.37 33.37 0 0 0-21.64 8.98l7.043 7.043a23.44 23.44 0 0 1 14.6-6.058Zm34.656 32.29a33.37 33.37 0 0 0-8.981-21.64l-7.037 7.04a23.6 23.6 0 0 1 6.052 14.6ZM55.4 13.12l.945-1.869a3.506 3.506 0 0 1 6.255 3.16l-.77 1.524a23.5 23.5 0 0 1 3.258 2.465l7.034-7.037A33.37 33.37 0 0 0 50.48 2.388v9.964a23.6 23.6 0 0 1 4.92.768m-1.27 7.757a12.6 12.6 0 0 1 2.018 1.064l4.345-8.6a1.14 1.14 0 0 0 .062-.869 1.134 1.134 0 0 0-1.437-.726 1.14 1.14 0 0 0-.665.568L57.1 14.988a1 1 0 0 1-.071.14ZM39.045 32.533A10.25 10.25 0 0 0 50.8 42.68c.025 0 .052-.007.077-.01a10.256 10.256 0 1 0-11.83-10.137Zm-1.778 31.829c9.379-5.832 9.609-8.368 9.456-9.006-.117-.486-1.048-2.12-8.15-2.729A17.45 17.45 0 0 1 30 49.389c-2.615-1.66-3.167-1.848-4.237-.5a10.8 10.8 0 0 1-3.888 2.979A6.1 6.1 0 0 0 19 54.248a32.96 32.96 0 0 0 13.823 14.781 11.13 11.13 0 0 1 4.444-4.667m33.871 1.156a35 35 0 0 1-1.589-8.6 117 117 0 0 0-.423-3.989c-.467-3.7-1.328-4.222-1.495-4.29-.624-.254-2.045.884-2.985 1.637a9.2 9.2 0 0 1-2.3 1.521c-2.738.993-9.172-3.051-11.9-6.693-.378.034-.76.055-1.147.055a12.56 12.56 0 0 1-8.164-3.008H16.077a31.3 31.3 0 0 0 1.876 9.58 10 10 0 0 1 2.833-1.954 8.56 8.56 0 0 0 3.128-2.352 3.85 3.85 0 0 1 3.82-1.728 10.3 10.3 0 0 1 3.533 1.7 15.2 15.2 0 0 0 7.464 2.874h.028c6.389.546 9.651 1.987 10.261 4.534.717 2.991-2.634 6.673-10.547 11.589q-.042.026-.084.049a8.6 8.6 0 0 0-3.458 3.668 34.15 34.15 0 0 0 36.205-4.595Zm11.634-23.373H57.466a12.6 12.6 0 0 1-4.392 2.432 19.4 19.4 0 0 0 4.144 3.338c2.459 1.5 3.995 1.764 4.317 1.656a8.7 8.7 0 0 0 1.635-1.146c1.535-1.227 3.445-2.753 5.35-1.98 1.56.633 2.5 2.6 2.951 6.184.2 1.557.322 2.89.432 4.067a34.4 34.4 0 0 0 1.171 7.08 31.8 31.8 0 0 0 9.7-21.631Z"/></g></svg>