<svg xmlns="http://www.w3.org/2000/svg" width="112.113" height="112.788" viewBox="0 0 112.113 112.788"><g transform="translate(-5873.574 7498.435)"><ellipse cx="56.056" cy="56.394" fill="#fff" rx="56.056" ry="56.394" transform="translate(5873.574 -7498.435)"/><path fill="#fff" d="M5929.63-7495.435a52.7 52.7 0 0 0-37.51 15.632 53.567 53.567 0 0 0 0 75.523 53.089 53.089 0 0 0 90.567-37.762 53.41 53.41 0 0 0-32.413-49.201 52.4 52.4 0 0 0-20.644-4.192m0-3a56.4 56.4 0 1 1-56.056 56.394 56.226 56.226 0 0 1 56.056-56.394"/><g transform="translate(5900.58 -7472.748)"><path fill="#bfbfbf" d="M51.322 15.493c0-5.348-6.07-9.683-13.557-9.683s-13.557 4.335-13.557 9.683c0 5.067 5.452 9.219 12.395 9.642l6 3.915-.395-4.416c5.3-1.315 9.114-4.906 9.114-9.141"/><path fill="#8f8f8f" d="M37.571 23.199c-6.943-.423-12.395-4.574-12.395-9.642a7.1 7.1 0 0 1 .387-2.264 7.46 7.46 0 0 0-1.355 4.201c0 5.067 5.452 9.219 12.395 9.642l6 3.915-.246-2.728Z"/><path fill="#4eacf2" d="M37.765 11.62c0-5.883-6.936-10.652-15.494-10.652S6.778 5.737 6.778 11.62c0 5.035 5.1 9.252 11.936 10.361l-1.284 5.132 6.107-4.885c7.963-.441 14.228-5.019 14.228-10.608"/><path fill="#1366a5" d="m20.456 24.693.784-3.139a1.486 1.486 0 0 0-1.1-1.806c-6.079-1.438-10.452-5.4-10.452-10.064a8.8 8.8 0 0 1 3.343-6.6C9.24 5.029 6.778 8.123 6.778 11.62c0 5.035 5.1 9.252 11.936 10.361l-1.284 5.132Z"/><path fill="#e86a38" d="M57.132 58.101a35.07 35.07 0 0 1-25.177 0l1.162-5.827a8.64 8.64 0 0 1 4.187-5.81 14.6 14.6 0 0 1 7.239-1.92 14.6 14.6 0 0 1 7.237 1.922 8.64 8.64 0 0 1 4.187 5.81Z"/><path fill="#8c3717" d="M36.99 53.493a10.05 10.05 0 0 1 4.19-6.721 13.3 13.3 0 0 1 5.362-2.084 14.53 14.53 0 0 0-9.235 1.782 8.64 8.64 0 0 0-4.187 5.81l-1.165 5.821a35 35 0 0 0 4.023 1.267Z"/><path fill="#e86a38" d="M26.145 58.101a35.07 35.07 0 0 1-25.177 0l1.162-5.827a8.64 8.64 0 0 1 4.187-5.81 14.6 14.6 0 0 1 7.239-1.92 14.6 14.6 0 0 1 7.237 1.922 8.64 8.64 0 0 1 4.187 5.81Z"/><path fill="#8c3717" d="M6.003 53.493a10.05 10.05 0 0 1 4.19-6.721 13.3 13.3 0 0 1 5.362-2.084A14.53 14.53 0 0 0 6.32 46.47a8.64 8.64 0 0 0-4.187 5.81L.968 58.101a35 35 0 0 0 4.023 1.267Z"/><path fill="#f9b938" d="M41.638 58.101a35.07 35.07 0 0 1-25.177 0l1.162-5.827a8.64 8.64 0 0 1 4.187-5.81 14.6 14.6 0 0 1 7.239-1.92 14.6 14.6 0 0 1 7.237 1.922 8.64 8.64 0 0 1 4.187 5.81Z"/><circle cx="5.865" cy="5.865" r="5.865" fill="#ffcab3" transform="translate(22.909 32.846)"/><path fill="#f99c16" d="M21.496 53.493a10.05 10.05 0 0 1 4.19-6.721 13.3 13.3 0 0 1 5.362-2.084 14.53 14.53 0 0 0-9.235 1.782 8.64 8.64 0 0 0-4.187 5.81l-1.165 5.821a35 35 0 0 0 4.023 1.267Z"/><path fill="#f9aa8f" d="M26.141 38.734a5.81 5.81 0 0 1 4.358-5.616 5.81 5.81 0 1 0 0 11.239 5.81 5.81 0 0 1-4.358-5.623"/><circle cx="5.865" cy="5.865" r="5.865" fill="#ffcab3" transform="translate(7.659 32.846)"/><path fill="#f9aa8f" d="M10.647 38.734a5.81 5.81 0 0 1 4.358-5.616 5.81 5.81 0 1 0 0 11.239 5.81 5.81 0 0 1-4.358-5.623"/><circle cx="5.865" cy="5.865" r="5.865" fill="#ffcab3" transform="translate(38.159 32.846)"/><path fill="#f9aa8f" d="M41.634 38.734a5.81 5.81 0 0 1 4.358-5.616 5.81 5.81 0 1 0 0 11.239 5.81 5.81 0 0 1-4.358-5.623"/><path d="m58.081 57.907-1.162-5.827a9.6 9.6 0 0 0-4.656-6.46 15 15 0 0 0-3.653-1.48 6.778 6.778 0 1 0-8.14 0 15.2 15.2 0 0 0-3.649 1.484l-.029.017c-.01 0-.018-.013-.029-.018a15 15 0 0 0-3.647-1.483 6.778 6.778 0 1 0-8.14 0 15 15 0 0 0-3.647 1.484l-.029.019-.031-.019a15 15 0 0 0-3.647-1.483 6.778 6.778 0 1 0-8.14 0 15 15 0 0 0-3.647 1.484 9.6 9.6 0 0 0-4.656 6.46l-1.16 5.822a.97.97 0 0 0 .6 1.094 35.8 35.8 0 0 0 12.9 2.4q1.01 0 2.024-.056a36 36 0 0 0 5.757-.789 35.65 35.65 0 0 0 15.493 0 35.8 35.8 0 0 0 20.682-1.549.97.97 0 0 0 .6-1.1ZM39.7 38.734a4.842 4.842 0 1 1 4.842 4.842 4.84 4.84 0 0 1-4.842-4.842m-15.493 0a4.842 4.842 0 1 1 4.843 4.842 4.84 4.84 0 0 1-4.842-4.842Zm-15.493 0a4.842 4.842 0 1 1 4.842 4.842 4.84 4.84 0 0 1-4.842-4.842m6.726 20.684a33.9 33.9 0 0 1-13.363-1.937l1.006-5.016A7.67 7.67 0 0 1 6.8 47.307a13.87 13.87 0 0 1 12.782-.387 9.6 9.6 0 0 0-2.905 5.165l-1.165 5.823a.97.97 0 0 0 .6 1.093c.273.106.549.194.824.29q-.745.084-1.496.127m2.13-1.937 1-5.015a7.67 7.67 0 0 1 3.717-5.158 13.85 13.85 0 0 1 13.512 0 7.67 7.67 0 0 1 3.717 5.158l1 5.015a34.03 34.03 0 0 1-22.951 0Zm23.615 1.811c.266-.1.534-.185.8-.291a.97.97 0 0 0 .6-1.094l-1.162-5.827a9.6 9.6 0 0 0-2.905-5.165 13.87 13.87 0 0 1 12.782.387 7.67 7.67 0 0 1 3.717 5.158l1 5.015a33.9 33.9 0 0 1-14.835 1.815ZM17.43 28.082a.968.968 0 0 1-.939-1.2l1.036-4.136C10.575 21.284 5.81 16.813 5.81 11.62 5.81 5.213 13.195 0 22.272 0s16.462 5.213 16.462 11.62c0 6.044-6.354 10.973-14.83 11.555l-5.869 4.695a.97.97 0 0 1-.605.212m4.842-26.145c-8.009 0-14.525 4.344-14.525 9.683 0 4.4 4.678 8.36 11.121 9.4a.97.97 0 0 1 .785 1.191l-.589 2.351 3.868-3.093a.97.97 0 0 1 .551-.211c7.466-.415 13.314-4.651 13.314-9.641 0-5.336-6.516-9.68-14.525-9.68"/><path d="M42.606 30.019a.97.97 0 0 1-.529-.157l-5.795-3.777a18.3 18.3 0 0 1-5.664-1.313.969.969 0 0 1 .74-1.79 16.5 16.5 0 0 0 5.3 1.188 1 1 0 0 1 .47.156l4.334 2.825-.219-2.428a.97.97 0 0 1 .731-1.027c5.011-1.243 8.378-4.539 8.378-8.2 0-4.289-4.621-8-10.749-8.618a.97.97 0 0 1-.867-1.065.96.96 0 0 1 1.065-.866c7.117.728 12.487 5.263 12.487 10.549 0 4.358-3.6 8.243-9.044 9.862l.329 3.608a.97.97 0 0 1-.968 1.055Z"/></g></g></svg>