<svg xmlns="http://www.w3.org/2000/svg" width="112.113" height="112.788" viewBox="0 0 112.113 112.788"><g transform="translate(6592.113 2607.923)"><ellipse cx="56.056" cy="56.394" fill="#fff" rx="56.056" ry="56.394" transform="translate(-6592.113 -2607.923)"/><path fill="#fff" d="M-6536.057-2604.923a52.7 52.7 0 0 0-37.51 15.632 53.567 53.567 0 0 0 0 75.523A53.089 53.089 0 0 0-6483-2551.53a53.41 53.41 0 0 0-32.413-49.201 52.4 52.4 0 0 0-20.644-4.192m0-3a56.4 56.4 0 1 1-56.056 56.394 56.226 56.226 0 0 1 56.056-56.394"/><g transform="translate(-6561.943 -2579.808)"><path fill="#648940" d="M40.698 14.424a3 3 0 0 0-3.006 3.006v2.5h-4.2v-2.5a3 3 0 0 1 3.006-3.006Z"/><path fill="#84af5a" d="M62.143 17.43v2.5H37.692v-2.5a3 3 0 0 1 3.006-3.006h18.44a3.01 3.01 0 0 1 3.006 3.006Z"/><path fill="#d1d3d4" d="M40.697 45.772h-4.213a3.01 3.01 0 0 1-3.006-3.018V19.93h4.2v22.825a3.023 3.023 0 0 0 3.019 3.017"/><path fill="#f1f2f2" d="M62.143 19.93v22.825a3.023 3.023 0 0 1-3.018 3.018H40.698a3 3 0 0 1-3.006-3.018V19.93Z"/><path fill="#84af5a" d="M55.971 32.851a7.954 7.954 0 0 1-7.957 7.957c-10.556-.419-10.544-15.5 0-15.914a7.97 7.97 0 0 1 7.957 7.957M24.007 4.398a2.334 2.334 0 0 0 4.668 0 2.334 2.334 0 0 0-4.668 0m0 16.678a2.334 2.334 0 0 0 4.668 0 2.334 2.334 0 0 0-4.668 0m0 16.678a2.334 2.334 0 0 0 4.668 0 2.334 2.334 0 0 0-4.668 0m0 16.678a2.334 2.334 0 0 0 4.668 0 2.334 2.334 0 0 0-4.668 0"/><path fill="#f79218" d="M19.166 5.789v1.823a.465.465 0 0 1-.468.456H1.072a.463.463 0 0 1-.456-.456V5.789a.455.455 0 0 0 .456.456h17.626a.45.45 0 0 0 .468-.456"/><path fill="#ffa918" d="M19.166 1.17v4.631a.46.46 0 0 1-.468.456H1.072a.455.455 0 0 1-.456-.456V1.17a.455.455 0 0 1 .456-.456h17.626a.46.46 0 0 1 .468.456"/><path fill="#f79218" d="M19.166 22.48v1.823a.465.465 0 0 1-.468.456H1.072a.463.463 0 0 1-.456-.456V22.48a.463.463 0 0 0 .456.456h17.626a.465.465 0 0 0 .468-.456"/><path fill="#ffa918" d="M19.166 17.848v4.631a.465.465 0 0 1-.468.456H1.072a.463.463 0 0 1-.456-.456v-4.631a.463.463 0 0 1 .456-.456h17.626a.45.45 0 0 1 .468.456"/><path fill="#f79218" d="M19.166 39.158v1.823a.46.46 0 0 1-.468.456H1.072a.455.455 0 0 1-.456-.456v-1.823a.463.463 0 0 0 .456.456h17.626a.457.457 0 0 0 .468-.456"/><path fill="#ffa918" d="M19.166 34.527v4.631a.465.465 0 0 1-.468.456H1.072a.463.463 0 0 1-.456-.456v-4.631a.463.463 0 0 1 .456-.456h17.626a.465.465 0 0 1 .468.456"/><path fill="#f79218" d="M19.166 55.836v1.823a.465.465 0 0 1-.468.456H1.072a.463.463 0 0 1-.456-.456v-1.823a.465.465 0 0 0 .456.468h17.626a.47.47 0 0 0 .468-.468"/><path fill="#ffa918" d="M19.166 51.217v4.631a.47.47 0 0 1-.468.468H1.072a.465.465 0 0 1-.456-.468v-4.631a.463.463 0 0 1 .456-.456h17.626a.45.45 0 0 1 .468.456"/><g fill="#231f20"><path d="M36.571 46.487h22.64a3.74 3.74 0 0 0 3.732-3.732V17.429a3.727 3.727 0 0 0-3.732-3.72h-1.577v-.653a.715.715 0 1 0-1.429 0v.653h-7.6v-.653a.715.715 0 0 0-1.429 0v.653h-7.6v-.653a.715.715 0 1 0-1.429 0v.653h-1.576a3.725 3.725 0 0 0-3.72 3.72v25.337a3.725 3.725 0 0 0 3.72 3.72ZM34.292 17.43a2.3 2.3 0 0 1 2.291-2.291h1.577v1.072a.715.715 0 0 0 1.429 0v-1.069h7.6v1.072a.715.715 0 0 0 1.429 0v-1.072h7.6v1.072a.715.715 0 0 0 1.429 0v-1.072h1.577a2.3 2.3 0 0 1 2.3 2.291v1.8H34.292Zm0 3.227h27.234v22.11a2.31 2.31 0 0 1-2.3 2.3H36.571a2.305 2.305 0 0 1-2.291-2.3v-22.11Z"/><path d="M48.113 41.523a8.684 8.684 0 0 0 8.672-8.672c-.48-11.5-16.863-11.5-17.343 0a8.67 8.67 0 0 0 8.671 8.672m0-15.9a7.255 7.255 0 0 1 7.243 7.243c-.394 9.608-14.079 9.6-14.473 0a7.23 7.23 0 0 1 7.23-7.245Z"/><path d="M48.113 33.578h3.178a.715.715 0 0 0 0-1.429h-2.464v-3.747a.715.715 0 0 0-1.429 0v4.459a.707.707 0 0 0 .715.717M23.379 54.432a3.043 3.043 0 1 0 3.769-2.956V40.698a3.047 3.047 0 0 0 0-5.912V24.008a3.047 3.047 0 0 0 0-5.912V7.343a3.042 3.042 0 1 0-1.429 0V18.12a3.047 3.047 0 0 0 0 5.912V34.81a3.047 3.047 0 0 0 0 5.912v10.779a3.01 3.01 0 0 0-2.34 2.932Zm1.429-50.034a1.614 1.614 0 0 1 3.227 0 1.614 1.614 0 0 1-3.227 0m0 16.678a1.614 1.614 0 0 1 3.227 0 1.614 1.614 0 0 1-3.227 0m0 16.678a1.614 1.614 0 0 1 3.227 0 1.614 1.614 0 0 1-3.227 0m1.626 15.065a1.614 1.614 0 0 1 0 3.227 1.614 1.614 0 0 1 0-3.227M1.17 8.795H18.8a1.17 1.17 0 0 0 1.17-1.17V1.17A1.17 1.17 0 0 0 18.8 0H1.17A1.17 1.17 0 0 0 0 1.17v6.442a1.17 1.17 0 0 0 1.17 1.183m.259-7.366H18.55v5.937H1.429ZM1.17 25.473H18.8a1.17 1.17 0 0 0 1.17-1.17v-6.455a1.17 1.17 0 0 0-1.17-1.17H1.17A1.17 1.17 0 0 0 0 17.848v6.454a1.17 1.17 0 0 0 1.17 1.171m.259-7.366H18.55v5.937H1.429ZM1.17 42.151H18.8a1.17 1.17 0 0 0 1.17-1.17v-6.455a1.17 1.17 0 0 0-1.17-1.17H1.17A1.17 1.17 0 0 0 0 34.526v6.454a1.16 1.16 0 0 0 1.17 1.171m.259-7.366H18.55v5.937H1.429ZM1.17 58.842H18.8a1.17 1.17 0 0 0 1.17-1.17v-6.455a1.17 1.17 0 0 0-1.17-1.17H1.17A1.17 1.17 0 0 0 0 51.217v6.454a1.17 1.17 0 0 0 1.17 1.171m.259-7.378H18.55v5.937H1.429Z"/><path d="M14.867 3.671h-9.77a.715.715 0 0 0 0 1.429h9.78a.715.715 0 0 0-.01-1.429m0 16.69h-9.77a.715.715 0 0 0 0 1.429h9.78a.715.715 0 0 0-.01-1.429m0 16.678h-9.77a.715.715 0 0 0 0 1.429h9.78a.715.715 0 0 0-.01-1.429m0 16.678h-9.77a.715.715 0 0 0 0 1.429h9.78a.715.715 0 0 0-.01-1.429"/></g></g></g></svg>