<svg xmlns="http://www.w3.org/2000/svg" width="112.113" height="112.788" viewBox="0 0 112.113 112.788"><g transform="translate(9387.846 -4547.719)"><ellipse cx="56.056" cy="56.394" fill="#fff" rx="56.056" ry="56.394" transform="translate(-9387.846 4547.719)"/><path fill="#fff" d="M-9331.79 4550.719a52.7 52.7 0 0 0-37.51 15.632 53.567 53.567 0 0 0 0 75.523 53.089 53.089 0 0 0 90.567-37.762 53.41 53.41 0 0 0-32.413-49.201 52.4 52.4 0 0 0-20.644-4.192m0-3a56.4 56.4 0 1 1-56.056 56.394 56.226 56.226 0 0 1 56.056-56.394"/><g transform="translate(-9363.789 4572.113)"><path fill="#e6e9ed" d="M56 4v15l-.04.04L49 26h-5a5.01 5.01 0 0 0-4 2H26v24h22v4H22V26a10 10 0 0 0-10-10v-3.17a2 2 0 0 1 .18-.83H20a2.006 2.006 0 0 0 2-2V2.18a2 2 0 0 1 .83-.18H54a2.006 2.006 0 0 1 2 2"/><path fill="#ffeaa7" d="M45.25 44.8a5.5 5.5 0 0 1-1.21-1.33 5.6 5.6 0 0 1-.8-1.7h-.01L39 46l-1 .4-3.7 1.48A1.682 1.682 0 0 1 32.03 46a1.7 1.7 0 0 1 .09-.3L34 41l1-1 6-6a2.006 2.006 0 0 1-2-2v-1a4.94 4.94 0 0 1 1-3H26v24h22v-5Z"/><path fill="#ff826e" d="M26 6h26v4H26Z"/><path fill="#b4dd7f" d="M22 2.18V10a2.006 2.006 0 0 1-2 2h-7.82a2 2 0 0 1 .41-.59l8.82-8.82a2 2 0 0 1 .59-.41"/><path fill="#ff826e" d="M43 32v8.12a5.7 5.7 0 0 0 .24 1.65h-.01L39 46l-5-5 1-1 6-6a2.015 2.015 0 0 0 2-2m13-13a3.536 3.536 0 0 1 4.96 5.04l-5.84 5.84L47 38v-5a3 3 0 0 0-.88-2.12 3.06 3.06 0 0 0-1.25-.75L49 26l6.96-6.96Z"/><path fill="#aab2bd" d="m39 46-1 .4-3.7 1.48A1.682 1.682 0 0 1 32.03 46a1.7 1.7 0 0 1 .09-.3L34 41Z"/><path fill="#b4dd7f" d="m59 44 2 12H48v-9Z"/><path fill="#f0d0b4" d="M42.41 33.41A1.96 1.96 0 0 1 41 34a2.006 2.006 0 0 1-2-2v-1a4.94 4.94 0 0 1 1-3 5.01 5.01 0 0 1 4-2h5l-4.13 4.13A3.1 3.1 0 0 0 44 30a1 1 0 0 0-1 1v1a1.96 1.96 0 0 1-.59 1.41"/><path fill="#f0d0b4" d="M55.65 30.85A27.5 27.5 0 0 1 59 44l-11 3-2.75-2.2a5.5 5.5 0 0 1-1.21-1.33A6 6 0 0 1 43 40.12V31a1 1 0 0 1 1-1 3.1 3.1 0 0 1 .87.13 3.06 3.06 0 0 1 1.25.75A3 3 0 0 1 47 33v5l8.12-8.12Z"/><path fill="#969faa" d="M22 26v32a4 4 0 0 1-4 4H6a4 4 0 0 1-4-4V26a9.99 9.99 0 0 0 4 8v7a1 1 0 0 0 1 1h10a1 1 0 0 0 1-1v-7a9.99 9.99 0 0 0 4-8"/><path fill="#ff826e" d="M17.078 57.966H7.025a1 1 0 0 1-1-1v-9.96a1 1 0 0 1 1-1h10.052a1 1 0 0 1 1 1v9.96a1 1 0 0 1-.999 1"/><path fill="#69d6f4" d="M18 34v7a1 1 0 0 1-1 1H7a1 1 0 0 1-1-1v-7a10 10 0 0 0 12 0"/><path fill="#fcd770" d="M22 26a10 10 0 1 1-10-10 9.99 9.99 0 0 1 10 10"/><path d="m56.526 30.376-.172-.316 5.318-5.318A4.516 4.516 0 0 0 57 17.26V4a3 3 0 0 0-3-3H22.829a2.98 2.98 0 0 0-2.122.879l-8.828 8.828A2.98 2.98 0 0 0 11 12.829v2.222A11.01 11.01 0 0 0 1 26v32a5.006 5.006 0 0 0 5 5h12a5.006 5.006 0 0 0 5-5v-1h39.181L60 43.9a28.54 28.54 0 0 0-3.474-13.524m1.45 12.867L48.227 45.9l-2.351-1.881A4.98 4.98 0 0 1 44 40.116V31a2 2 0 0 1 2 2v7h2v-1.586l6.874-6.874a26.5 26.5 0 0 1 3.102 11.703M44 29a2 2 0 0 0-2 2v1a1 1 0 0 1-2 0v-1a4 4 0 0 1 4-4h2.586l-2.054 2.054A4 4 0 0 0 44 29M33.049 46.072l1.316-3.292 2.855 2.855-3.293 1.317a.693.693 0 0 1-.927-.629.7.7 0 0 1 .049-.251M39 44.586 35.414 41l6.047-6.047a3 3 0 0 0 .539-.138v5.3a7 7 0 0 0 .136 1.334ZM38.184 33H27v-4h11.35a6 6 0 0 0-.35 2v1a3 3 0 0 0 .184 1M27 35h11.586l-4 4H27Zm0 6h5.923l-1.6 4H27Zm0 6h4.1a2.668 2.668 0 0 0 3.574 1.809L37 47.877V51H27Zm12 .077.562-.225 3.33-3.33c.036.065.069.131.108.195V51h-4Zm6-1.2 2 1.6V51h-2Zm16-24.341a2.52 2.52 0 0 1-.743 1.793L48 35.586V33a3.98 3.98 0 0 0-1.494-3.092l10.165-10.165A2.536 2.536 0 0 1 61 21.536M21 4.414V10a1 1 0 0 1-1 1h-5.586ZM12 17a9 9 0 1 1-9 9 9.01 9.01 0 0 1 9-9M7 35.786a10.9 10.9 0 0 0 10 0V41H7ZM18 61H6a3 3 0 0 1-3-3V32.305a11 11 0 0 0 2 2.174V41a2 2 0 0 0 2 2h10a2 2 0 0 0 2-2v-6.521a11 11 0 0 0 2-2.174V58a3 3 0 0 1-3 3m5-6V26a11.01 11.01 0 0 0-10-10.949V13h7a3 3 0 0 0 3-3V3h31a1 1 0 0 1 1 1v14.586L48.586 25H44a5.98 5.98 0 0 0-4.46 2H25v26h22v2Zm26 0v-7.236l9.195-2.508L59.819 55Z"/><path d="M11 30.855V33h2v-2.145a2.844 2.844 0 0 0 .422-5.262l-1.95-.974A.855.855 0 0 1 11.854 23h.292a.855.855 0 0 1 .854.854V25h2v-1.146a2.85 2.85 0 0 0-2-2.709V19h-2v2.145a2.844 2.844 0 0 0-.422 5.262l1.95.974A.855.855 0 0 1 12.146 29h-.292a.855.855 0 0 1-.854-.854V27H9v1.146a2.85 2.85 0 0 0 2 2.709M17 45H7a2 2 0 0 0-2 2v10a2 2 0 0 0 2 2h10a2 2 0 0 0 2-2V47a2 2 0 0 0-2-2m0 4h-2v-2h2Zm-4 8h-2v-2h2Zm0-4h-2v-2h2Zm-4 0H7v-2h2Zm2-4v-2h2v2Zm-2-2v2H7v-2Zm-2 8h2v2H7Zm8 2v-6h2v6ZM53 5H25v6h28Zm-2 4H27V7h24Zm-26 4h28v2H25Zm0 4h28v2H25Zm0 4h16v2H25Z"/></g></g></svg>