<svg xmlns="http://www.w3.org/2000/svg" width="112.113" height="112.788" viewBox="0 0 112.113 112.788"><g transform="translate(6505.051 -1177.394)"><ellipse cx="56.056" cy="56.394" fill="#fff" rx="56.056" ry="56.394" transform="translate(-6505.051 1177.394)"/><path fill="#fff" d="M-6448.995 1180.394a52.7 52.7 0 0 0-37.51 15.632 53.567 53.567 0 0 0 0 75.523 53.089 53.089 0 0 0 90.567-37.762 53.41 53.41 0 0 0-32.413-49.201 52.4 52.4 0 0 0-20.644-4.192m0-3a56.4 56.4 0 1 1-56.056 56.394 56.226 56.226 0 0 1 56.056-56.394"/><g transform="translate(-6484.989 1193.532)"><g transform="translate(8.596)"><path fill="#d22732" d="m37.143 12.352-4.879 5.483-4.625 5.2.286-5.547a23.65 23.65 0 0 0-18.85 9.764L7.962 20.64l-7.009-.3A34.13 34.13 0 0 1 28.195 6.852h.3l.3-5.9 4.609 6.294Z"/><path fill="#231f20" d="m9.074 28.209-.223-.032a.93.93 0 0 1-.715-.763l-.985-5.849-6.246-.27a.95.95 0 0 1-.811-.556.96.96 0 0 1 .1-.985A35.6 35.6 0 0 1 12.317 9.661a35 35 0 0 1 15.278-3.766l.25-4.991a.97.97 0 0 1 .683-.858.9.9 0 0 1 1.033.35l8.36 11.4a.96.96 0 0 1-.064 1.192l-9.5 10.681a.98.98 0 0 1-1.081.254.99.99 0 0 1-.588-.938l.238-4.5a22.75 22.75 0 0 0-17.086 9.33.92.92 0 0 1-.763.4Zm-6.2-8.742 5.134.223a.964.964 0 0 1 .887.799l.763 4.5a24.44 24.44 0 0 1 18.262-8.455.95.95 0 0 1 .954 1.017l-.143 2.813 7.184-8.074-6.31-8.614-.175 3.226a.933.933 0 0 1-.938.906h-.3a33.05 33.05 0 0 0-25.316 11.66Z"/></g><path fill="#231f20" d="M30.75 12.189a.95.95 0 0 1-.223-1.875h.032a32 32 0 0 1 3.115-.524.95.95 0 0 1 1.065.826.963.963 0 0 1-.842 1.065c-.985.111-1.971.286-2.94.493Zm-12.364 5.37a.98.98 0 0 1-.795-.4.965.965 0 0 1 .238-1.335 34.8 34.8 0 0 1 8.742-4.418.964.964 0 0 1 1.16.7.946.946 0 0 1-.54 1.1 33.4 33.4 0 0 0-8.265 4.18.95.95 0 0 1-.54.173"/><g transform="translate(1.485 19.069)"><path fill="#1f315f" d="M13.754 12.383a23.58 23.58 0 0 0-1.256 15.687L4.87 26.655l-2.273 5.5a34.37 34.37 0 0 1 2.956-27.1L.96.955l7.1.318 7.009.3 1.113 6.612 1.256 7.5Z"/><path fill="#231f20" d="M2.597 33.109h-.048a.94.94 0 0 1-.858-.668A35.3 35.3 0 0 1 4.345 5.263L.324 1.671A.97.97 0 0 1 .224.32a.95.95 0 0 1 .779-.318l14.114.62a.964.964 0 0 1 .89.795l2.368 14.114a.906.906 0 0 1-.477.985.96.96 0 0 1-1.1-.127l-2.686-2.4a22.6 22.6 0 0 0-1.455 8.02 22.4 22.4 0 0 0 .763 5.8.973.973 0 0 1-.7 1.176 1.1 1.1 0 0 1-.4.016L5.454 27.73l-1.987 4.784a.93.93 0 0 1-.874.588Zm.985-31.088 2.607 2.32a.97.97 0 0 1 .191 1.192 33.1 33.1 0 0 0-4.355 16.476 34 34 0 0 0 .763 7.168l1.208-2.893a.95.95 0 0 1 1.049-.572l6.183 1.144a25 25 0 0 1-.478-4.847 24.2 24.2 0 0 1 2.13-10.013.95.95 0 0 1 .683-.54.97.97 0 0 1 .826.207l1.669 1.494-1.8-10.665Z"/></g><g transform="translate(0 44.772)"><path fill="#02648e" d="m27.016 23.713 3.576 6.278A34.38 34.38 0 0 1 5.992 11.3L.95 14.018l3.131-7.565 2.273-5.5 7.629 1.415 6.437 1.176-5.038 2.7a23.67 23.67 0 0 0 16.482 13.144Z"/><path fill="#231f20" d="M30.592 30.945h-.175A35.28 35.28 0 0 1 5.591 12.603l-4.2 2.257a.94.94 0 0 1-1.081-.143.93.93 0 0 1-.232-1.065L5.478.587A.95.95 0 0 1 6.527.015l14.066 2.591a.96.96 0 0 1 .763.795.95.95 0 0 1-.477.985l-4.244 2.273a22.79 22.79 0 0 0 15.433 11.793.97.97 0 0 1 .715.7.94.94 0 0 1-.286.954l-4.275 3.8 3.195 5.61a.94.94 0 0 1-.048 1.033.95.95 0 0 1-.777.396m-24.6-20.6a1 1 0 0 1 .3.048.94.94 0 0 1 .556.493 33.44 33.44 0 0 0 21.87 17.722l-2.527-4.418a.97.97 0 0 1 .187-1.194l3.513-3.115A24.74 24.74 0 0 1 14.522 6.657a.94.94 0 0 1 .413-1.24l2.638-1.43L6.942 2.034l-4.085 9.87 2.686-1.446a.9.9 0 0 1 .445-.111Z"/></g><g transform="translate(26.064 55.755)"><path fill="#89c45e" d="M37.778 6.324a34.17 34.17 0 0 1-27.051 13.239q-.93 0-1.86-.048l-.922 5.5-3.417-6.008-3.576-6.278L5.8 8.406l5.833-5.2-.97 5.706h.064A23.48 23.48 0 0 0 28.401.949l2.432 6.421Z"/><path fill="#231f20" d="M7.945 25.969a.95.95 0 0 1-.826-.493L.126 13.206a.97.97 0 0 1 .191-1.192l10.681-9.52a.935.935 0 0 1 1.1-.111.95.95 0 0 1 .477.985l-.779 4.577A22.66 22.66 0 0 0 27.69.332a.94.94 0 0 1 1.049-.27 1 1 0 0 1 .572.588l2.146 5.674 6.183-.954a.99.99 0 0 1 .97.461.96.96 0 0 1-.079 1.065 35.3 35.3 0 0 1-12.079 9.918 34.85 34.85 0 0 1-15.719 3.7H9.684l-.801 4.675a.98.98 0 0 1-.779.779ZM2.16 12.92l5.293 9.3.477-2.861a.97.97 0 0 1 1-.795c.588.032 1.192.048 1.8.048a33.04 33.04 0 0 0 24.7-10.967l-4.45.683a.96.96 0 0 1-1.033-.6l-1.891-5.007a24.6 24.6 0 0 1-17.324 7.152h-.064a.91.91 0 0 1-.731-.334 1 1 0 0 1-.207-.779l.509-3.02Z"/></g><g transform="translate(50.874 26.695)"><path fill="#fdc00f" d="m15.495 31.65 4.5 2.654-7.025 1.081-6.946 1.049-2.432-6.421-2.638-6.946 5.372 3.163A23.67 23.67 0 0 0 7.995 6.061l6.882 1.192L17.42.943a34.4 34.4 0 0 1-1.925 30.707"/><path fill="#231f20" d="M6.022 37.387a.95.95 0 0 1-.89-.6L.062 23.404a.96.96 0 0 1 .27-1.065 1.01 1.01 0 0 1 1.113-.1l4.514 2.67A22.7 22.7 0 0 0 7.103 6.393a.953.953 0 0 1 .556-1.224.87.87 0 0 1 .493-.048l6.135 1.049L16.528.607a.954.954 0 0 1 1.764-.032 35.25 35.25 0 0 1-1.51 30.723l3.687 2.177a.975.975 0 0 1 .461 1 .945.945 0 0 1-.795.763L6.164 37.384ZM2.811 25.276l3.83 10.108 10.569-1.621-2.209-1.287a.96.96 0 0 1-.334-1.3 33.48 33.48 0 0 0 2.734-27.623l-1.637 4.053a.95.95 0 0 1-1.049.588l-5.309-.922a24.66 24.66 0 0 1-2.257 19.454 1.17 1.17 0 0 1-.588.445.98.98 0 0 1-.731-.111Z"/></g><g transform="translate(39.906 6.284)"><path fill="#f4841b" d="m31.119 14.55-2.734 6.8-2.542 6.311-6.882-1.192-7.2-1.256 5.181-2.845A23.6 23.6 0 0 0 .953 11.546l4.879-5.483-3.735-5.1a34.18 34.18 0 0 1 24.174 16.259Z"/><path fill="#231f20" d="M25.843 28.617h-.159l-14.085-2.432a.98.98 0 0 1-.779-.795.95.95 0 0 1 .477-.985l4.275-2.368a22.6 22.6 0 0 0-14.781-9.52.933.933 0 0 1-.779-1.1 1 1 0 0 1 .223-.477l4.371-4.927-3.29-4.5A.99.99 0 0 1 1.272.449a1.01 1.01 0 0 1 .969-.445 35.03 35.03 0 0 1 24.365 15.945l4.053-2.241a.964.964 0 0 1 1.3.366.95.95 0 0 1 .048.826L26.73 28.012a.95.95 0 0 1-.887.605m-11.237-3.878 10.649 1.844 3.989-9.9-2.511 1.383a.97.97 0 0 1-1.287-.35A33.14 33.14 0 0 0 4.291 2.349l2.32 3.163a.96.96 0 0 1-.064 1.192l-3.783 4.26a24.6 24.6 0 0 1 14.988 10.9.96.96 0 0 1-.318 1.319.06.06 0 0 0-.032.016Z"/></g><g transform="translate(25.306 22.822)"><g transform="translate(5.985 19.819)"><path fill="#02648e" d="M.954.954h8.932v15.782H.954Z"/><path fill="#231f20" d="M9.886 17.674H.954A.956.956 0 0 1 0 16.72V.954A.956.956 0 0 1 .954 0h8.932a.956.956 0 0 1 .954.954V16.72a.956.956 0 0 1-.954.954m-7.979-1.907h7.025V1.907H1.907Z"/></g><path fill="#231f20" d="M11.389 36.679a.956.956 0 0 1-.954-.954v-10.7a.954.954 0 1 1 1.907 0v10.7a.956.956 0 0 1-.953.954"/><g transform="translate(0 8.535)"><path fill="#d3d3d3" d="m18.811 9.823-2.893-5.181v7.6H6.954V4.454l-3.179 5.8a1.5 1.5 0 0 1-1.987.6 1.483 1.483 0 0 1-.668-1.987.016.016 0 0 1 .016-.016c.97-1.875 2.686-5.181 3.242-6.119.842-1.4 1.24-1.78 2.877-1.78h7.836c1.637 0 2.146.54 2.988 1.939.6 1 2.241 3.894 3.179 5.563a1.42 1.42 0 0 1-.54 1.907 1.4 1.4 0 0 1-1.907-.54Z"/><path fill="#231f20" d="M15.934 13.192H6.955a1.02 1.02 0 0 1-.683-.286 1 1 0 0 1-.27-.683V8.17l-1.4 2.543A2.446 2.446 0 0 1 .279 8.424c.97-1.891 2.686-5.213 3.274-6.183C4.491.683 5.126 0 7.24 0h7.836c2.193 0 2.924.954 3.815 2.4.6 1 2.257 3.942 3.179 5.595a2.345 2.345 0 0 1-.89 3.195 2.3 2.3 0 0 1-1.8.223 2.37 2.37 0 0 1-1.43-1.128L16.869 8.33v3.894a.9.9 0 0 1-.27.683.92.92 0 0 1-.668.286Zm-8.026-1.907h7.073V4.641a.948.948 0 0 1 1.78-.461l2.893 5.181a.5.5 0 0 0 .27.207.39.39 0 0 0 .35-.032.443.443 0 0 0 .159-.6c-.922-1.653-2.559-4.561-3.147-5.547-.763-1.256-1-1.478-2.177-1.478H7.255c-1.224 0-1.335.127-2.066 1.319-.4.668-1.558 2.877-3.211 6.071a.57.57 0 0 0-.032.4.54.54 0 0 0 .683.35.53.53 0 0 0 .3-.254l3.179-5.8a.953.953 0 0 1 1.8.461Z"/></g><g transform="translate(6.668)"><path fill="#efcdb1" d="M4.673.954h.191a3.72 3.72 0 0 1 3.7 3.719v1.224a3.236 3.236 0 0 1-3.242 3.242H4.178A3.236 3.236 0 0 1 .936 5.897V4.673A3.724 3.724 0 0 1 4.655.954Z"/><path fill="#231f20" d="M5.34 10.093H4.2a4.19 4.19 0 0 1-4.2-4.2V4.669A4.68 4.68 0 0 1 4.673-.004h.191a4.677 4.677 0 0 1 4.657 4.673V5.9a4.21 4.21 0 0 1-4.181 4.193m-.668-8.185a2.767 2.767 0 0 0-2.766 2.766V5.9a2.28 2.28 0 0 0 2.289 2.289h1.144A2.3 2.3 0 0 0 7.612 5.9V4.676A2.74 2.74 0 0 0 4.878 1.91h-.207Z"/></g></g></g></g></svg>