<svg xmlns="http://www.w3.org/2000/svg" width="112.113" height="112.788" viewBox="0 0 112.113 112.788"><g transform="translate(9129.3 -4628.204)"><ellipse cx="56.056" cy="56.394" fill="#fff" rx="56.056" ry="56.394" transform="translate(-9129.3 4628.204)"/><path fill="#fff" d="M-9073.244 4631.204a52.7 52.7 0 0 0-37.51 15.632 53.567 53.567 0 0 0 0 75.523 53.089 53.089 0 0 0 90.567-37.762 53.41 53.41 0 0 0-32.413-49.201 52.4 52.4 0 0 0-20.644-4.192m0-3a56.4 56.4 0 1 1-56.056 56.394 56.226 56.226 0 0 1 56.056-56.394"/><g transform="translate(-9107.673 4649.125)"><path fill="#ffc477" d="M54.355 12.767v40.721q.001.122-.005.244a5.257 5.257 0 0 1-5.252 5.012H19.541a5.257 5.257 0 0 1-5.258-5.256V6.34a5.25 5.25 0 0 1 5.258-5.258h23.478a5.24 5.24 0 0 1 2.283.523c1.42.684 1.82 1.547 4.373 4.157 2.936 3.188 3.637 3.515 4.236 4.9a5.2 5.2 0 0 1 .444 2.105"/><path fill="#ffdaaa" d="M54.355 12.767v40.721q.001.122-.005.244a5.3 5.3 0 0 1-1.187.134H23.606a5.257 5.257 0 0 1-5.258-5.256V1.463q-.001-.124.005-.245a5.3 5.3 0 0 1 1.187-.134h23.478a5.27 5.27 0 0 1 3.842 1.67l2.814 3.011 3.222 3.371a5.3 5.3 0 0 1 1.458 3.631Z"/><path fill="#4cba68" d="M67.843 31.003v29.559a7.43 7.43 0 0 1-7.43 7.43H41.107a7.43 7.43 0 0 1-7.43-7.43V31.003a7.427 7.427 0 0 1 7.43-7.43h19.307a7.43 7.43 0 0 1 7.429 7.43"/><path fill="#7ccc92" d="M67.843 31.003v29.559a7.4 7.4 0 0 1-1.439 4.394 7.4 7.4 0 0 1-2.919.6H44.179a7.43 7.43 0 0 1-7.43-7.43V28.564a7.4 7.4 0 0 1 1.439-4.394 7.4 7.4 0 0 1 2.919-.6h19.307a7.43 7.43 0 0 1 7.429 7.433"/><path fill="#2c733f" d="M53.607 50.436v3.472a1.11 1.11 0 0 1-1.11 1.111h-3.473a1.11 1.11 0 0 1-1.111-1.111v-3.472a1.11 1.11 0 0 1 1.111-1.111h3.473a1.11 1.11 0 0 1 1.11 1.111"/><path fill="#1e81ce" d="M62.738 30.306v3.72a2.4 2.4 0 0 1-2.4 2.4H41.179a2.4 2.4 0 0 1-2.4-2.4v-3.72a2.4 2.4 0 0 1 2.4-2.4h19.163a2.4 2.4 0 0 1 2.396 2.4"/><path fill="#3d9ae2" d="M62.738 30.306v3.72a2.4 2.4 0 0 1-2.4 2.4h-15.1a2.4 2.4 0 0 1-2.4-2.4v-3.72a2.4 2.4 0 0 1 2.4-2.4h15.1a2.4 2.4 0 0 1 2.4 2.4"/><path fill="#2c733f" d="M44.478 50.436v3.472a1.11 1.11 0 0 1-1.111 1.111h-3.473a1.11 1.11 0 0 1-1.111-1.111v-3.472a1.11 1.11 0 0 1 1.111-1.111h3.473a1.11 1.11 0 0 1 1.111 1.111m9.129-9.079v3.472a1.11 1.11 0 0 1-1.11 1.111h-3.473a1.11 1.11 0 0 1-1.111-1.111v-3.472a1.11 1.11 0 0 1 1.111-1.111h3.473a1.11 1.11 0 0 1 1.11 1.111"/><path fill="#ee8700" d="M62.847 41.357v3.472a1.11 1.11 0 0 1-1.111 1.111h-3.472a1.11 1.11 0 0 1-1.111-1.111v-3.472a1.11 1.11 0 0 1 1.111-1.111h3.472a1.11 1.11 0 0 1 1.111 1.111"/><path fill="#2c733f" d="M44.478 41.357v3.472a1.11 1.11 0 0 1-1.111 1.111h-3.473a1.11 1.11 0 0 1-1.111-1.111v-3.472a1.11 1.11 0 0 1 1.111-1.111h3.473a1.11 1.11 0 0 1 1.111 1.111m9.129 17.712v3.473a1.11 1.11 0 0 1-1.11 1.111h-3.473a1.11 1.11 0 0 1-1.111-1.111v-3.473a1.11 1.11 0 0 1 1.111-1.11h3.473a1.11 1.11 0 0 1 1.11 1.11m-9.129 0v3.473a1.11 1.11 0 0 1-1.111 1.111h-3.473a1.11 1.11 0 0 1-1.111-1.111v-3.473a1.11 1.11 0 0 1 1.111-1.11h3.473a1.11 1.11 0 0 1 1.111 1.11"/><path fill="#ee8700" d="M62.847 50.975v10.782a1.9 1.9 0 0 1-1.894 1.9h-1.906a1.9 1.9 0 0 1-1.894-1.9V50.975a1.65 1.65 0 0 1 1.651-1.651h2.393a1.65 1.65 0 0 1 1.65 1.651"/><path fill="#317f46" d="M53.607 50.436v1.033a1.11 1.11 0 0 1-1.11 1.111h-3.473a1.11 1.11 0 0 1-1.111-1.111v-1.033a1.11 1.11 0 0 1 1.111-1.111h3.473a1.11 1.11 0 0 1 1.11 1.111m-9.129 0v1.033a1.11 1.11 0 0 1-1.111 1.111h-3.473a1.11 1.11 0 0 1-1.111-1.111v-1.033a1.11 1.11 0 0 1 1.111-1.111h3.473a1.11 1.11 0 0 1 1.111 1.111m9.129-9.079v1.033a1.11 1.11 0 0 1-1.11 1.111h-3.473a1.11 1.11 0 0 1-1.111-1.111v-1.033a1.11 1.11 0 0 1 1.111-1.111h3.473a1.11 1.11 0 0 1 1.11 1.111"/><path fill="#ff9811" d="M62.847 41.357v1.033a1.11 1.11 0 0 1-1.111 1.111h-3.472a1.11 1.11 0 0 1-1.111-1.111v-1.033a1.11 1.11 0 0 1 1.111-1.111h3.472a1.11 1.11 0 0 1 1.111 1.111"/><path fill="#317f46" d="M44.478 41.357v1.033a1.11 1.11 0 0 1-1.111 1.111h-3.473a1.11 1.11 0 0 1-1.111-1.111v-1.033a1.11 1.11 0 0 1 1.111-1.111h3.473a1.11 1.11 0 0 1 1.111 1.111m9.129 17.712v1.034a1.11 1.11 0 0 1-1.11 1.111h-3.473a1.11 1.11 0 0 1-1.111-1.111v-1.034a1.11 1.11 0 0 1 1.111-1.11h3.473a1.11 1.11 0 0 1 1.11 1.11m-9.129 0v1.034a1.11 1.11 0 0 1-1.111 1.111h-3.473a1.11 1.11 0 0 1-1.111-1.111v-1.034a1.11 1.11 0 0 1 1.111-1.11h3.473a1.11 1.11 0 0 1 1.111 1.11"/><path fill="#ff9811" d="M62.847 50.975v8.343a1.9 1.9 0 0 1-1.894 1.9h-1.906a1.9 1.9 0 0 1-1.894-1.9v-8.343a1.65 1.65 0 0 1 1.651-1.651h2.393a1.65 1.65 0 0 1 1.65 1.651"/><path fill="#ffb655" d="M53.91 10.66h-6.588a2.02 2.02 0 0 1-2.021-2.021V1.607a5.3 5.3 0 0 1 1.558 1.146l2.815 3.011 3.222 3.372a5.2 5.2 0 0 1 1.014 1.524"/><path fill="#aa6100" d="M30.209 64.796a2.58 2.58 0 0 1-2.578 2.574H11.862a2.575 2.575 0 0 1 0-5.149h15.769a2.58 2.58 0 0 1 2.578 2.575"/><path fill="#cc7400" d="M30.209 59.647a2.58 2.58 0 0 1-2.578 2.579H11.862a2.575 2.575 0 0 1 0-5.149h15.769a2.58 2.58 0 0 1 2.578 2.57"/><path fill="#ee8700" d="M30.209 54.498a2.58 2.58 0 0 1-2.575 2.575H11.862a2.575 2.575 0 0 1 0-5.149h15.769a2.58 2.58 0 0 1 2.578 2.574"/><path fill="#ff9811" d="M30.209 49.349a2.58 2.58 0 0 1-2.575 2.575H11.862a2.58 2.58 0 0 1-2.575-2.575 2.58 2.58 0 0 1 2.575-2.575h15.769a2.58 2.58 0 0 1 2.578 2.575"/><path fill="#ffa733" d="M27.631 46.774H11.862a2.58 2.58 0 0 1-2.575-2.575 2.58 2.58 0 0 1 2.575-2.575h15.769a2.58 2.58 0 0 1 2.575 2.575 2.58 2.58 0 0 1-2.575 2.575"/><path fill="#cc7400" d="M21.152 58.926a8.377 8.377 0 0 0-8.73-8.022H9.139a8.388 8.388 0 0 0 .717 16.761h2.565c.234.009.47.012.708 0a8.5 8.5 0 0 0 1.558-.213 8.39 8.39 0 0 0 6.465-7.863v-.012a5 5 0 0 0 0-.651"/><path fill="#ee8700" d="M21.153 59.577v.009a8.39 8.39 0 0 1-6.465 7.863 8.39 8.39 0 0 1-6.457-7.808v-.065a8.39 8.39 0 0 1 6.464-8.461 8.39 8.39 0 0 1 6.459 7.809q.014.33-.001.653"/><path d="M60.413 22.556h-4.974v-9.789a6.36 6.36 0 0 0-1.758-4.381l-3.214-3.363c-2.728-2.81-3.072-3.6-4.7-4.393A6.36 6.36 0 0 0 43.019 0H19.541a6.35 6.35 0 0 0-6.342 6.342v34.2h-1.337a3.656 3.656 0 0 0-2.6 6.233A3.65 3.65 0 0 0 8.2 49.35a4 4 0 0 0 .072.724A9.223 9.223 0 0 0 9.59 68.463l18.041-.007a3.656 3.656 0 0 0 2.6-6.233 3.64 3.64 0 0 0 1.057-2.393h1.373v.733a8.455 8.455 0 0 0 8.446 8.446h19.306a8.455 8.455 0 0 0 8.446-8.446V31a8.455 8.455 0 0 0-8.446-8.444M46.386 3.833c4.258 4.5 5.217 5.515 5.4 5.706l.005.007.008.008v.005l.005.005h-5.418zM11.862 42.709h15.773a1.491 1.491 0 1 1 0 2.981H11.862a1.491 1.491 0 1 1 0-2.981m0 5.149h15.773a1.491 1.491 0 1 1 0 2.981H16.74a9 9 0 0 0-1.373-.5 9 9 0 0 0-2.168-.318c-.213-.005-.425 0-.638.005h-2.023a1.5 1.5 0 0 1-.167-.682 1.493 1.493 0 0 1 1.491-1.486M29.125 54.5a1.49 1.49 0 0 1-1.491 1.491h-6.066a9.1 9.1 0 0 0-1.84-2.981h7.907a1.493 1.493 0 0 1 1.49 1.49M6.588 52.552a9.4 9.4 0 0 0-1.707 2.19H3.618a7.16 7.16 0 0 1 2.97-2.19m-4.123 4.222h1.578a9.4 9.4 0 0 0-.292 1.626H2.08a7 7 0 0 1 .385-1.626m.175 5.373a7 7 0 0 1-.509-1.715h1.655a8.2 8.2 0 0 0 .387 1.715Zm1.352 2.032h1.142a9.2 9.2 0 0 0 1.458 1.764 7.2 7.2 0 0 1-2.6-1.764m9.25 2.251a7.191 7.191 0 1 1 4.556-12.481 7.185 7.185 0 0 1-4.557 12.481Zm14.393-.144h-8.75a9.3 9.3 0 0 0 2.329-2.981h6.42a1.491 1.491 0 1 1 0 2.981Zm1.478-6.458a1.49 1.49 0 0 1-1.478 1.309h-5.672a9.3 9.3 0 0 0 .131-2.981h5.541a1.492 1.492 0 0 1 1.478 1.672m3.548-2.168h-1.957a3.6 3.6 0 0 0-.473-.588 3.65 3.65 0 0 0 0-5.149 3.65 3.65 0 0 0 0-5.149 3.662 3.662 0 0 0-2.6-6.233H15.367V6.342a4.18 4.18 0 0 1 4.174-4.174h24.677v8.492a1.084 1.084 0 0 0 1.084 1.084h7.84c.226.878.087.588.129 10.812H41.107A8.455 8.455 0 0 0 32.661 31zm34.166 2.9a6.42 6.42 0 0 1-6.414 6.414H41.107a6.42 6.42 0 0 1-6.414-6.414V31a6.42 6.42 0 0 1 6.414-6.414h19.307A6.42 6.42 0 0 1 66.827 31z"/><path d="M44.866 35.405h-3.687a1.384 1.384 0 0 1-1.379-1.379v-3.72a1.384 1.384 0 0 1 1.379-1.379h19.163a1.38 1.38 0 0 1 1.379 1.379v3.72a1.38 1.38 0 0 1-1.379 1.379H49.248a1.016 1.016 0 1 0 0 2.032h11.094a3.416 3.416 0 0 0 3.412-3.412v-3.72a3.416 3.416 0 0 0-3.412-3.412H41.179a3.41 3.41 0 0 0-3.412 3.412v3.72a3.41 3.41 0 0 0 3.412 3.412h3.687a1.016 1.016 0 1 0 0-2.032m-4.972 20.63h3.473a2.13 2.13 0 0 0 2.127-2.127v-3.472a2.13 2.13 0 0 0-2.127-2.127h-3.473a2.13 2.13 0 0 0-2.127 2.127v3.472a2.13 2.13 0 0 0 2.127 2.127m-.095-5.6a.1.1 0 0 1 .095-.095h3.473a.1.1 0 0 1 .095.095v3.472a.1.1 0 0 1-.095.095h-3.473a.1.1 0 0 1-.095-.095ZM61.736 39.23h-3.472a2.13 2.13 0 0 0-2.127 2.127v3.472a2.13 2.13 0 0 0 2.127 2.127h3.472a2.13 2.13 0 0 0 2.127-2.127v-3.467a2.13 2.13 0 0 0-2.127-2.132m.095 5.6a.094.094 0 0 1-.095.095h-3.472a.1.1 0 0 1-.095-.095c.042-3.435-.088-3.567.095-3.567h3.472a.094.094 0 0 1 .095.095Zm-21.937 2.126h3.473a2.13 2.13 0 0 0 2.127-2.127v-3.467a2.13 2.13 0 0 0-2.127-2.127h-3.473a2.13 2.13 0 0 0-2.127 2.127v3.472a2.13 2.13 0 0 0 2.127 2.122m-.095-5.6a.1.1 0 0 1 .095-.095h3.473a.1.1 0 0 1 .095.095v3.472a.1.1 0 0 1-.095.095h-3.473a.1.1 0 0 1-.095-.095Zm5.16 16.304a2.13 2.13 0 0 0-1.592-.717h-3.473a2.12 2.12 0 0 0-1.591.717 2.9 2.9 0 0 0-.537 2.168v2.714a2.13 2.13 0 0 0 2.127 2.127h3.473a2.13 2.13 0 0 0 2.127-2.127v-2.714a2.93 2.93 0 0 0-.534-2.168m-1.592 4.977c-3.431-.042-3.568.088-3.568-.095 0-3.676-.041-3.567.095-3.567h3.473c.167 0 .064.232.095.852a14.5 14.5 0 0 1-.095 2.81m17.83-14.328h-2.393a2.67 2.67 0 0 0-2.667 2.667v10.782a2.915 2.915 0 0 0 2.911 2.912h1.905a2.914 2.914 0 0 0 2.911-2.912V50.976a2.67 2.67 0 0 0-2.667-2.667m.634 13.449a.88.88 0 0 1-.878.879h-1.905a.88.88 0 0 1-.878-.879V50.976a.635.635 0 0 1 .634-.634h2.393a.635.635 0 0 1 .634.634zm-35.67-32.237c-1.239-.455-2.134-.784-2.134-1.932 0-1.046.695-1.577 2.065-1.577 1.455 0 1.846.64 2.359.64a.976.976 0 0 0 .866-1c0-.847-1.381-1.267-2.616-1.377v-.763a.963.963 0 1 0-1.926 0v.885a3.15 3.15 0 0 0-2.616 3.294c0 2.365 1.741 3.02 3.141 3.546 1.37.515 2.453.922 2.453 2.486 0 1.292-.717 1.947-2.133 1.947-2.071 0-2.091-1.4-2.881-1.4a1.016 1.016 0 0 0-.883 1c0 .8 1.193 1.853 2.919 2.127v.738a.963.963 0 1 0 1.926 0v-.757a3.48 3.48 0 0 0 2.919-3.758c0-2.828-1.918-3.533-3.459-4.099m26.336 27.422h-3.478a2.13 2.13 0 0 0-1.592.717 2.92 2.92 0 0 0-.535 2.168v2.714a2.13 2.13 0 0 0 2.127 2.127h3.473a2.13 2.13 0 0 0 2.126-2.127v-3.473a2.13 2.13 0 0 0-2.126-2.126Zm0 5.694c-3.431-.042-3.568.088-3.568-.095v-3.473a.1.1 0 0 1 .095-.094h3.473a.094.094 0 0 1 .094.094c-.041 3.439.086 3.568-.094 3.568m.001-23.407h-3.473a2.13 2.13 0 0 0-2.127 2.132v3.472a2.13 2.13 0 0 0 2.127 2.127h3.473a2.1 2.1 0 0 0 .774-.146 2.13 2.13 0 0 0 1.352-1.981v-3.472a2.13 2.13 0 0 0-2.126-2.132m.094 5.6a.094.094 0 0 1-.094.095h-3.473a.1.1 0 0 1-.095-.095v-3.468c0-.183.126-.054 3.568-.095a.094.094 0 0 1 .094.095v3.472Zm.679 3.625a2.1 2.1 0 0 0-.774-.146h-3.473a2.13 2.13 0 0 0-2.127 2.127v3.472a2.13 2.13 0 0 0 2.127 2.127h3.474a2.13 2.13 0 0 0 2.126-2.127v-3.472a2.13 2.13 0 0 0-1.353-1.981m-.68 5.453a.094.094 0 0 1-.094.095h-3.473a.1.1 0 0 1-.095-.095v-3.472a.1.1 0 0 1 .095-.095h3.474a.094.094 0 0 1 .094.095ZM44.078 15.92h2.553a1.016 1.016 0 1 0 0-2.032h-2.553a1.016 1.016 0 1 0 0 2.032m-22.087 0h18.022a1.016 1.016 0 0 0 0-2.032H21.991a1.016 1.016 0 1 0 0 2.032m3.231 5.041a1.016 1.016 0 1 0 0-2.032h-3.23a1.016 1.016 0 1 0 0 2.032Zm22.425-1.012a1.017 1.017 0 0 0-1.016-1.016H29.286a1.016 1.016 0 1 0 0 2.032h17.345a1.017 1.017 0 0 0 1.016-1.016M12.561 57.168c0-.255.094-.329.182-.378a1.75 1.75 0 0 1 1.473.1 1.16 1.16 0 0 0 .55.167c1 0 1.8-1.863-.6-2.274v-.064a1.03 1.03 0 1 0-2.06 0v.2a2.31 2.31 0 0 0-1.571 2.314c0 1.733 1.259 2.206 2.179 2.552.877.33 1.18.474 1.18 1.07 0 .373-.1.718-.829.718-1.062 0-.935-.84-1.73-.84a1.06 1.06 0 0 0-.982 1.053c0 .7.732 1.372 1.753 1.643v.077a1.03 1.03 0 0 0 2.06 0v-.1a2.546 2.546 0 0 0 1.753-2.608c.001-3.096-3.358-2.632-3.358-3.63"/></g></g></svg>