<svg xmlns="http://www.w3.org/2000/svg" width="76.603" height="76.576" viewBox="0 0 76.603 76.576"><g transform="translate(1.091 1.062)"><g fill-rule="evenodd" transform="translate(30.085)"><path fill="#efc7a4" d="M3.834 3.292A3.295 3.295 0 1 0 7.129-.002a3.295 3.295 0 0 0-3.295 3.294"/><path fill="#b3a4ee" d="M14.258 15.617c0 3.937-14.258 3.937-14.258 0a7.129 7.129 0 0 1 14.258 0"/></g><g fill-rule="evenodd" transform="translate(60.169 24.526)"><path fill="#66d4f1" d="M14.258 15.617c0 3.937-14.258 3.937-14.258 0a7.129 7.129 0 0 1 14.258 0"/><path fill="#efc7a4" d="M3.834 3.294A3.295 3.295 0 1 0 7.129 0a3.295 3.295 0 0 0-3.295 3.294"/></g><g fill-rule="evenodd" transform="translate(0 24.526)"><path fill="#f76c82" d="M14.258 15.617c0 3.937-14.258 3.937-14.258 0a7.129 7.129 0 0 1 14.258 0"/><path fill="#efc7a4" d="M3.838 3.294A3.295 3.295 0 1 0 7.133 0a3.295 3.295 0 0 0-3.295 3.294"/></g><path fill="#fdcd56" fill-rule="evenodd" d="M44.496 60.382a1.726 1.726 0 0 0-1.22 2.945.51.51 0 0 1 0 .724l-1.1 1.1a.51.51 0 0 1-.724 0 1.726 1.726 0 0 0-2.945 1.22.51.51 0 0 1-.512.512h-1.559a.51.51 0 0 1-.512-.512 1.725 1.725 0 0 0-2.945-1.22.51.51 0 0 1-.724 0l-1.1-1.1a.51.51 0 0 1 0-.724 1.726 1.726 0 0 0-1.22-2.945.51.51 0 0 1-.512-.512v-1.559a.51.51 0 0 1 .512-.512 1.726 1.726 0 0 0 1.22-2.945.51.51 0 0 1 0-.724l1.1-1.1a.51.51 0 0 1 .724 0 1.726 1.726 0 0 0 2.945-1.22.51.51 0 0 1 .512-.512h1.559a.51.51 0 0 1 .512.512 1.726 1.726 0 0 0 2.945 1.22.51.51 0 0 1 .724 0l1.1 1.1a.51.51 0 0 1 0 .724 1.726 1.726 0 0 0 1.22 2.945.51.51 0 0 1 .512.512v1.554a.51.51 0 0 1-.512.517m-7.283-4.638a3.346 3.346 0 1 0 3.346 3.346 3.346 3.346 0 0 0-3.346-3.346"/><g transform="translate(25.769 20.337)"><circle cx="8.199" cy="8.199" r="8.199" fill="#66d4f1" transform="rotate(-35.804 14.847 4.796)"/><circle cx="5.365" cy="5.365" r="5.365" fill="#f4f6f8" transform="translate(6.079 6.099)"/></g></g><path fill-rule="evenodd" d="M38.305 28.587a4.28 4.28 0 1 1-4.283 4.28 4.283 4.283 0 0 1 4.283-4.28M38.735 0h-.864a4.379 4.379 0 0 0-.81 8.56 8.23 8.23 0 0 0-6.975 8.121c0 .981.511 2.339 2.933 3.233a15.9 15.9 0 0 0 5.282.806c3.787 0 8.215-1.058 8.215-4.038a8.23 8.23 0 0 0-6.982-8.121 4.379 4.379 0 0 0-.8-8.56Zm-.43 39.317a6.451 6.451 0 1 0-6.45-6.451 6.46 6.46 0 0 0 6.45 6.451m0-14.626a8.176 8.176 0 1 0 8.172 8.175 8.187 8.187 0 0 0-8.172-8.175m0 18.522a10.346 10.346 0 1 0-10.353-10.347 10.36 10.36 0 0 0 10.353 10.347m-2.393-9.236a1.09 1.09 0 0 0 .941.543 1.1 1.1 0 0 0 .547-.146l.606-.352a1.5 1.5 0 0 0 .219.018 1.4 1.4 0 0 0 1.087-2.27v-1.324a1.087 1.087 0 0 0-2.174 0v1.324a1.7 1.7 0 0 0-.219.371l-.606.353a1.09 1.09 0 0 0-.401 1.483m2.393 23.917a2.261 2.261 0 1 1-2.262 2.261 2.263 2.263 0 0 1 2.262-2.261m0 6.693a4.432 4.432 0 1 0-4.434-4.432 4.434 4.434 0 0 0 4.434 4.432m-6.712-4.167a2.816 2.816 0 0 1 1.78 4.292l.372.374a2.808 2.808 0 0 1 4.29 1.778h.536a2.812 2.812 0 0 1 4.29-1.778l.372-.374a2.816 2.816 0 0 1 1.78-4.292v-.53a2.816 2.816 0 0 1-1.78-4.292l-.372-.375a2.812 2.812 0 0 1-4.29-1.782h-.533a2.81 2.81 0 0 1-4.29 1.777l-.372.375a2.816 2.816 0 0 1-1.78 4.292Zm-.591 4.334a1.6 1.6 0 0 0 .467 1.129l1.109 1.1a1.594 1.594 0 0 0 2.255 0 .641.641 0 0 1 1.094.452 1.6 1.6 0 0 0 1.6 1.6h1.554a1.6 1.6 0 0 0 1.6-1.6.643.643 0 0 1 1.094-.452 1.6 1.6 0 0 0 2.262 0l1.1-1.1a1.6 1.6 0 0 0 0-2.259.64.64 0 0 1 .452-1.092 1.6 1.6 0 0 0 1.6-1.6v-1.556a1.6 1.6 0 0 0-1.6-1.6.64.64 0 0 1-.452-1.092 1.6 1.6 0 0 0 0-2.26l-1.1-1.1a1.6 1.6 0 0 0-2.262 0 .644.644 0 0 1-1.094-.452 1.6 1.6 0 0 0-1.6-1.6h-1.557a1.6 1.6 0 0 0-1.6 1.6.642.642 0 0 1-1.094.452 1.593 1.593 0 0 0-2.255 0l-1.109 1.1a1.6 1.6 0 0 0 0 2.26.639.639 0 0 1-.452 1.092 1.6 1.6 0 0 0-1.591 1.6v1.558a1.6 1.6 0 0 0 1.591 1.6.64.64 0 0 1 .452 1.092 1.6 1.6 0 0 0-.465 1.128Zm45.28 9.424-2.079 2.081a1.084 1.084 0 0 1-1.532-1.535l.226-.228H48.403a1.086 1.086 0 1 1 0-2.171h24.493l-.226-.228a1.084 1.084 0 0 1 1.532-1.535l2.08 2.079a1.087 1.087 0 0 1 0 1.535Zm-27.843-3.882a14.339 14.339 0 0 0-8.507-24.388l.007-.007a1.084 1.084 0 1 0-1.532-1.535l-1.518 1.518a14.338 14.338 0 0 0-7.975 25.109 1.086 1.086 0 0 0 1.423-1.64 12.168 12.168 0 0 1 6.634-21.293l1.437 1.438a1.083 1.083 0 0 0 1.656-1.383 12.169 12.169 0 0 1-1.78 24.21H1.087a1.086 1.086 0 1 0 0 2.171h37.2a14.27 14.27 0 0 0 10.152-4.2M13.746 21.141a26.75 26.75 0 0 1 11.958-10.68 1.087 1.087 0 0 1 .9 1.978 24.6 24.6 0 0 0-11 9.815 1.084 1.084 0 1 1-1.858-1.113m35.725-10.139a1.087 1.087 0 0 1 1.437-.541 26.73 26.73 0 0 1 11.949 10.68 1.084 1.084 0 1 1-1.861 1.114 24.6 24.6 0 0 0-10.988-9.814 1.083 1.083 0 0 1-.54-1.436ZM8.216 35.164a6.054 6.054 0 0 1 6.049 6.043c0 .779-2.3 1.867-6.049 1.867s-6.045-1.087-6.045-1.866a6.05 6.05 0 0 1 6.041-6.043Zm-2.2-6.279a2.207 2.207 0 1 1 2.2 2.21 2.206 2.206 0 0 1-2.204-2.21ZM2.94 44.441C.51 43.547 0 42.189 0 41.208a8.23 8.23 0 0 1 6.971-8.121 4.385 4.385 0 1 1 2.481 0 8.224 8.224 0 0 1 6.975 8.121c0 2.98-4.421 4.038-8.215 4.038a15.8 15.8 0 0 1-5.275-.8Zm65.447-17.765a2.209 2.209 0 1 1-2.211 2.209 2.213 2.213 0 0 1 2.211-2.209m6.041 14.531c0 .779-2.3 1.867-6.041 1.867s-6.041-1.088-6.041-1.867a6.042 6.042 0 1 1 12.083 0Zm-7.282-8.121a8.23 8.23 0 0 0-6.975 8.121c0 .981.511 2.339 2.94 3.233a15.8 15.8 0 0 0 5.275.8c3.787 0 8.215-1.057 8.215-4.038a8.23 8.23 0 0 0-6.975-8.121 4.378 4.378 0 1 0-2.481 0ZM38.305 10.641a6.05 6.05 0 0 1 6.041 6.043c0 .78-2.3 1.867-6.041 1.867s-6.049-1.087-6.049-1.867a6.053 6.053 0 0 1 6.049-6.043m-2.211-6.279a2.207 2.207 0 1 1 2.211 2.209 2.213 2.213 0 0 1-2.211-2.212Z"/></svg>