<svg xmlns="http://www.w3.org/2000/svg" width="112.113" height="112.788" viewBox="0 0 112.113 112.788"><g transform="translate(9244.846 -4432)"><ellipse cx="56.056" cy="56.394" fill="#fff" rx="56.056" ry="56.394" transform="translate(-9244.846 4432)"/><path fill="#fff" d="M-9188.79 4435a52.7 52.7 0 0 0-37.51 15.632 53.567 53.567 0 0 0 0 75.523 53.089 53.089 0 0 0 90.567-37.762 53.41 53.41 0 0 0-32.413-49.201 52.4 52.4 0 0 0-20.644-4.192m0-3a56.4 56.4 0 1 1-56.056 56.394A56.226 56.226 0 0 1-9188.79 4432"/><g transform="translate(-9225.576 4451.568)"><path fill="#ffbcab" d="m59.528 46.322 3.749-11.563a3.63 3.63 0 0 1 4.133-2.693 3.49 3.49 0 0 1 2.647 4.307l-5.05 18.841a4.6 4.6 0 0 1-1.4 2.275l-7.847 6.977a4.64 4.64 0 0 0-1.556 3.471v2.554H40.269V59.559a9.29 9.29 0 0 1 4.589-8.009l10.263-6.016a3.484 3.484 0 1 1 3.483 6.036l-6.653 3.841"/><path fill="#ff9478" d="m59.528 46.315 2.661-8.2 1.089-3.357a3.63 3.63 0 0 1 4.129-2.692c.074.015.142.045.215.065l.006-.007.1-.395a3.49 3.49 0 0 0-2.647-4.307 3.63 3.63 0 0 0-4.125 2.693l-5.259 15.15a3.48 3.48 0 0 1 3.831 1.05"/><path fill="#ffbcab" d="m14.046 46.322-3.75-11.563a3.63 3.63 0 0 0-4.135-2.693 3.49 3.49 0 0 0-2.647 4.307l5.05 18.841a4.6 4.6 0 0 0 1.4 2.275l7.847 6.977a4.64 4.64 0 0 1 1.556 3.471v2.554h13.93V59.559a9.29 9.29 0 0 0-4.589-8.009l-10.255-6.018a3.484 3.484 0 1 0-3.483 6.036l6.653 3.841"/><path fill="#ff9478" d="m14.046 46.315-2.663-8.2-1.087-3.356a3.63 3.63 0 0 0-4.133-2.693c-.074.015-.142.045-.215.065v-.007l-.1-.395a3.49 3.49 0 0 1 2.635-4.307 3.63 3.63 0 0 1 4.135 2.693l5.258 15.15a3.48 3.48 0 0 0-3.83 1.05"/><path fill="#c49a6c" d="M41.663 25.217h-9.751c-4.017 3.2-9.055 8.138-9.055 12.769 0 7.7 6.234 10.448 13.93 10.448s13.93-2.751 13.93-10.448c0-4.631-5.038-9.569-9.054-12.769"/><path fill="#a97c50" d="M41.663 25.217H38.18c4.017 3.2 9.055 8.138 9.055 12.769 0 7.106-5.317 9.99-12.189 10.392.571.034 1.15.056 1.741.056 7.7 0 13.93-2.751 13.93-10.448.001-4.631-5.038-9.569-9.054-12.769m3.25-10.448H41.43l-4.643 3.483-4.643-3.483h-3.483l3.483 6.965h9.287Z"/><path fill="#ff9811" d="M42.011 25.217a1.742 1.742 0 1 0 0-3.483H31.563a1.742 1.742 0 1 0 0 3.483Z"/><path fill="#5eac24" d="M43.752 5.483V3.161H41.43a4.643 4.643 0 0 0-4.643 4.643v2.322h2.322a4.643 4.643 0 0 0 4.643-4.643"/><path fill="#4e901e" d="M32.144 3.161h-2.322v2.322a4.643 4.643 0 0 0 4.643 4.643h2.322V7.804a4.643 4.643 0 0 0-4.643-4.643"/><g fill="#231f20" transform="translate(2.241 2)"><path d="M34.546 31.343c1.417 0 2.322.687 2.322 1.161a1.161 1.161 0 1 0 2.322 0c0-1.65-1.462-2.985-3.483-3.366v-1.277a1.161 1.161 0 0 0-2.322 0v1.277c-2.02.379-3.482 1.714-3.482 3.362 0 1.953 2.04 3.483 4.643 3.483 1.417 0 2.322.687 2.322 1.161s-.9 1.161-2.322 1.161-2.322-.687-2.322-1.161a1.161 1.161 0 1 0-2.322 0c0 1.65 1.462 2.985 3.483 3.366v1.277a1.161 1.161 0 0 0 2.322 0v-1.273c2.021-.38 3.483-1.715 3.483-3.366 0-1.953-2.04-3.483-4.643-3.483-1.417 0-2.322-.687-2.322-1.161s.904-1.161 2.321-1.161"/><path d="M41.72 23.612a2.882 2.882 0 0 0-.778-4.783l2.763-5.537a1.16 1.16 0 0 0-1.033-1.683h-3.483a1.14 1.14 0 0 0-.7.232l-2.786 2.09V9.287h1.161a5.8 5.8 0 0 0 5.8-5.8V1.161A1.16 1.16 0 0 0 41.511 0h-2.322a5.8 5.8 0 0 0-4.643 2.357A5.8 5.8 0 0 0 29.903 0h-2.322a1.16 1.16 0 0 0-1.161 1.161v2.322a5.8 5.8 0 0 0 5.8 5.8h1.165v4.647l-2.786-2.09a1.14 1.14 0 0 0-.7-.232H26.42a1.16 1.16 0 0 0-1.033 1.683l2.763 5.537a2.882 2.882 0 0 0-.778 4.783c-3.917 3.379-7.917 7.929-7.917 12.375 0 7.487 5.363 11.609 15.091 11.609s15.091-4.121 15.091-11.609c0-4.446-4-9-7.917-12.375ZM35.707 5.8a3.493 3.493 0 0 1 3.483-3.483h1.165v1.166a3.493 3.493 0 0 1-3.483 3.483h-1.165Zm-3.483 1.165a3.493 3.493 0 0 1-3.483-3.483v-1.16h1.161A3.493 3.493 0 0 1 33.385 5.8v1.165Zm-2.7 6.965 4.33 3.25a1.15 1.15 0 0 0 1.393 0l4.33-3.25h1.219l-2.322 4.643h-7.852l-2.321-4.643Zm10.831 7.546a.58.58 0 0 1-.58.58H29.322a.58.58 0 0 1 0-1.161H39.77a.58.58 0 0 1 .585.581m-5.8 23.8c-5.827 0-12.769-1.614-12.769-9.287 0-3.158 2.949-7.267 8.312-11.609h8.915c5.363 4.342 8.312 8.451 8.312 11.609-.01 7.671-6.951 9.284-12.779 9.284Z"/><path d="M66.737 29.44a5 5 0 0 0 .035-.615 4.67 4.67 0 0 0-3.692-4.539 4.735 4.735 0 0 0-5.456 3.448l-5.108 14.7a2 2 0 0 0-.221.1l-10.261 6.013a10.47 10.47 0 0 0-5.166 9.007v10.937a1.161 1.161 0 0 0 2.322 0V57.554a8.19 8.19 0 0 1 4.017-7.012l10.25-6a2.32 2.32 0 0 1 3.181.847 2.4 2.4 0 0 1 .23 1.765 2.32 2.32 0 0 1-1.091 1.4l-6.652 3.842a1.161 1.161 0 0 0 1.161 2.008l6.652-3.842a4.58 4.58 0 0 0 2.171-2.821 4.65 4.65 0 0 0-.464-3.517l-.07-.1 3.587-11.063a2.453 2.453 0 0 1 2.763-1.857 2.32 2.32 0 0 1 1.843 2.264 2 2 0 0 1-.081.6l-5.046 18.856a3.46 3.46 0 0 1-1.045 1.695l-7.859 6.977a5.87 5.87 0 0 0-1.939 4.342v2.554a1.161 1.161 0 0 0 2.322 0v-2.555a3.53 3.53 0 0 1 1.161-2.6l7.847-6.977a5.7 5.7 0 0 0 1.764-2.844l5.038-18.841a4.6 4.6 0 0 0 .163-1.207 4.67 4.67 0 0 0-2.357-4.028Zm-2.287-.6a4.78 4.78 0 0 0-4.516 3.564l-3.239 9.995a4.6 4.6 0 0 0-1.556-.441l4.7-13.536a2.453 2.453 0 0 1 2.763-1.857 2.32 2.32 0 0 1 1.846 2.264ZM27.059 48.546l-10.267-6.019c-.071-.039-.146-.062-.218-.1l-5.076-14.613a4.76 4.76 0 0 0-5.492-3.528 4.66 4.66 0 0 0-3.685 4.538 5 5 0 0 0 .039.62 4.635 4.635 0 0 0-2.201 5.224l5.044 18.847a5.73 5.73 0 0 0 1.756 2.847l7.846 6.976a3.5 3.5 0 0 1 1.168 2.6v2.554a1.161 1.161 0 0 0 2.322 0v-2.556a5.83 5.83 0 0 0-1.944-4.339l-7.852-6.979a3.43 3.43 0 0 1-1.045-1.705L2.397 34.071a2.3 2.3 0 0 1-.077-.6 2.32 2.32 0 0 1 1.839-2.268 2.49 2.49 0 0 1 2.793 1.915l3.565 11.007c-.022.036-.051.065-.072.1a4.643 4.643 0 0 0 1.7 6.343l6.653 3.841a1.161 1.161 0 1 0 1.161-2.009l-6.653-3.84a2.323 2.323 0 1 1 2.319-4.026l10.261 6.02a8.15 8.15 0 0 1 4.016 7V68.49a1.161 1.161 0 0 0 2.322 0V57.554a10.49 10.49 0 0 0-5.165-9.008m-13.792-6.484a4.7 4.7 0 0 0-.868.329l-3.222-9.937a4.82 4.82 0 0 0-4.528-3.611v-.019a2.32 2.32 0 0 1 1.838-2.265 2.5 2.5 0 0 1 2.8 1.937l4.672 13.458a4.6 4.6 0 0 0-.692.108"/></g></g></g></svg>