<svg xmlns="http://www.w3.org/2000/svg" width="112.113" height="112.788" viewBox="0 0 112.113 112.788"><g transform="translate(6809.051 -1121.605)"><ellipse cx="56.056" cy="56.394" fill="#fff" rx="56.056" ry="56.394" transform="translate(-6809.051 1121.605)"/><path fill="#fff" d="M-6752.995 1124.605a52.7 52.7 0 0 0-37.51 15.632 53.567 53.567 0 0 0 0 75.523 53.089 53.089 0 0 0 90.567-37.762 53.41 53.41 0 0 0-32.413-49.201 52.4 52.4 0 0 0-20.644-4.192m0-3a56.4 56.4 0 1 1-56.056 56.394 56.226 56.226 0 0 1 56.056-56.394"/><g transform="translate(-6786.994 1139.205)"><g transform="translate(1.211 1.212)"><path fill="#bec7cf" fill-rule="evenodd" d="M22.148 20.791a9 9 0 0 0-2.255.937.53.53 0 0 1-.529.012l-1.315-.665a.54.54 0 0 0-.641.1l-1.332 1.332a.55.55 0 0 0-.1.646l.67 1.311a.54.54 0 0 1-.017.532 9 9 0 0 0-.932 2.252.54.54 0 0 1-.367.386l-1.4.453a.55.55 0 0 0-.383.529v1.881a.55.55 0 0 0 .383.529l1.4.453a.55.55 0 0 1 .367.386 9 9 0 0 0 .932 2.255.53.53 0 0 1 .017.529l-.67 1.315a.54.54 0 0 0 .1.641l1.332 1.332a.55.55 0 0 0 .641.1l1.315-.67a.53.53 0 0 1 .529.017 9 9 0 0 0 2.255.932.54.54 0 0 1 .386.367l.453 1.4a.55.55 0 0 0 .529.383h1.881a.55.55 0 0 0 .529-.383l.453-1.4a.54.54 0 0 1 .386-.367 9 9 0 0 0 2.252-.932.54.54 0 0 1 .532-.017l1.311.67a.55.55 0 0 0 .646-.1l1.332-1.332a.54.54 0 0 0 .1-.641l-.665-1.315a.54.54 0 0 1 .012-.529 9 9 0 0 0 .937-2.255.54.54 0 0 1 .362-.386l1.4-.453a.55.55 0 0 0 .386-.529v-1.883a.55.55 0 0 0-.386-.529l-1.4-.453a.53.53 0 0 1-.362-.386 9 9 0 0 0-.937-2.252.54.54 0 0 1-.012-.532l.665-1.311a.55.55 0 0 0-.1-.646l-1.332-1.332a.55.55 0 0 0-.646-.1l-1.311.665a.54.54 0 0 1-.532-.012 9 9 0 0 0-2.252-.937.53.53 0 0 1-.386-.362l-.453-1.4a.55.55 0 0 0-.529-.386h-1.881a.55.55 0 0 0-.529.386l-.453 1.4a.54.54 0 0 1-.386.364"/><path fill="#abb3ba" fill-rule="evenodd" d="M22.148 20.791a9 9 0 0 0-2.026.808l.283.141a.54.54 0 0 0 .532-.012 9 9 0 0 1 2.252-.937.53.53 0 0 0 .386-.362l.453-1.4a.55.55 0 0 1 .529-.386h-1.04a.55.55 0 0 0-.529.386l-.453 1.4a.54.54 0 0 1-.387.362m-3.766.449-.333-.167a.54.54 0 0 0-.641.1l-1.332 1.332a.55.55 0 0 0-.1.646l.67 1.311a.54.54 0 0 1-.017.532 9 9 0 0 0-.932 2.252.54.54 0 0 1-.367.386l-1.4.453a.55.55 0 0 0-.383.529v1.881a.55.55 0 0 0 .383.529l1.4.453a.55.55 0 0 1 .367.386 9 9 0 0 0 .932 2.255.53.53 0 0 1 .017.529l-.67 1.315a.54.54 0 0 0 .1.641l1.332 1.332a.55.55 0 0 0 .641.1l.333-.171-1.265-1.265a.54.54 0 0 1-.1-.641l.665-1.315a.54.54 0 0 0-.012-.529 9 9 0 0 1-.937-2.255.54.54 0 0 0-.362-.386l-1.4-.453a.55.55 0 0 1-.383-.529v-1.877a.55.55 0 0 1 .383-.529l1.4-.453a.54.54 0 0 0 .367-.386 9 9 0 0 1 .937-2.252.54.54 0 0 0 .012-.532l-.665-1.311a.55.55 0 0 1 .1-.646Zm1.738 16.277a9 9 0 0 0 2.026.8.54.54 0 0 1 .386.367l.453 1.4a.55.55 0 0 0 .529.383h1.04a.55.55 0 0 1-.529-.383l-.453-1.4a.54.54 0 0 0-.386-.367 9 9 0 0 1-2.252-.932.54.54 0 0 0-.532-.017Z"/><path fill="#70da40" d="M47.22 8.132a32.792 32.792 0 0 1-13.745 62.23.7.7 0 0 0-.687.7v3.4a.7.7 0 0 1-1.191.5l-6.3-6.3a.7.7 0 0 1 0-.987l6.3-6.3a.7.7 0 0 1 1.191.5v3.383a.7.7 0 0 0 .715.7 28.376 28.376 0 0 0 11.8-53.828ZM18.356 67.035a32.794 32.794 0 0 1 13.75-62.232.7.7 0 0 0 .682-.7V.699a.7.7 0 0 1 1.194-.491l6.3 6.3a.694.694 0 0 1 0 .987l-6.3 6.3a.7.7 0 0 1-1.194-.5V9.921a.69.69 0 0 0-.715-.7 28.379 28.379 0 0 0-11.8 53.83Z"/><path fill="#ffd23b" fill-rule="evenodd" d="M41.145 40.458a10.9 10.9 0 1 0-10.9-10.9 10.924 10.924 0 0 0 10.9 10.9"/><path fill="#eaf6ff" fill-rule="evenodd" d="M43.321 42.806A10.9 10.9 0 1 1 29.966 35.1a10.906 10.906 0 0 1 13.355 7.706M27.94 29.556a3.485 3.485 0 1 1-3.483-3.483 3.486 3.486 0 0 1 3.483 3.483"/><path fill="#d3dde6" fill-rule="evenodd" d="M24.76 33.031q-.15.012-.3.012a3.485 3.485 0 1 1 0-6.97c.1 0 .2 0 .3.012a3.486 3.486 0 0 0 0 6.946m8.856 23.471a10.9 10.9 0 1 1 .011-21.743 10.9 10.9 0 0 0-.011 21.743"/><path fill="#e6bd35" fill-rule="evenodd" d="M31.585 34.795a10.908 10.908 0 0 1 10.4-16.113 11.5 11.5 0 0 0-1.993.341 10.9 10.9 0 0 0-6.774 15.71 11 11 0 0 0-1.635.062Z"/></g><path d="M58.04 14.751a34 34 0 0 0-9.075-6.494 1.21 1.21 0 0 0-1.625.561l-1.92 3.978a1.21 1.21 0 0 0 .556 1.614A27.164 27.164 0 0 1 35.21 65.927v-2.856a1.91 1.91 0 0 0-1.17-1.761l-.015-.006a1.9 1.9 0 0 0-2.07.421l-6.3 6.3a1.9 1.9 0 0 0-.008 2.707l6.3 6.3a1.909 1.909 0 0 0 3.258-1.35v-2.909A34 34 0 0 0 58.04 14.751m-1.709 46.372a31.42 31.42 0 0 1-21.674 9.243 1.924 1.924 0 0 0-1.872 1.911v2.161l-5.061-5.061 5.062-5.062v2.144a1.91 1.91 0 0 0 1.969 1.908 29.591 29.591 0 0 0 13.36-55.58l.868-1.8a31.587 31.587 0 0 1 7.347 50.132Zm-34.313 2.055a27.164 27.164 0 0 1 10.767-51.515v2.857a1.912 1.912 0 0 0 3.261 1.35l6.3-6.3a1.9 1.9 0 0 0 .561-1.359 1.88 1.88 0 0 0-.561-1.341L36.04.549a1.912 1.912 0 0 0-3.252 1.359v2.906a34.011 34.011 0 0 0-13.755 64.519 1.21 1.21 0 0 0 1.626-.562l1.916-3.984a1.21 1.21 0 0 0-.558-1.609Zm-3 3.422A31.582 31.582 0 0 1 33.34 7.224a1.92 1.92 0 0 0 1.867-1.911V3.147l5.066 5.069-5.064 5.071v-2.159a1.907 1.907 0 0 0-1.953-1.907A29.591 29.591 0 0 0 19.881 64.8Zm35.45-35.831a12.112 12.112 0 0 0-20.44-8.8l-.44-.44a1.75 1.75 0 0 0-2.06-.338l-1 .509a10.3 10.3 0 0 0-1.893-.785l-.346-1.075a1.77 1.77 0 0 0-1.678-1.211h-1.888a1.77 1.77 0 0 0-1.683 1.222l-.347 1.067a10.3 10.3 0 0 0-1.893.785l-.994-.5a1.75 1.75 0 0 0-2.06.321l-1.332 1.332a1.76 1.76 0 0 0-.324 2.052l.511 1a10.3 10.3 0 0 0-.785 1.89l-1.075.35a1.77 1.77 0 0 0-1.215 1.678v1.881a1.77 1.77 0 0 0 1.225 1.68l1.067.347a10.2 10.2 0 0 0 .785 1.891l-.511 1a1.78 1.78 0 0 0 .326 2.057l1.343 1.343a1.78 1.78 0 0 0 2.04.315l1-.512a10.3 10.3 0 0 0 1.891.785l.347 1.067a12.113 12.113 0 1 0 22.659 2.025c-.109-.4-.238-.8-.385-1.188a12.09 12.09 0 0 0 9.152-11.747ZM21.71 37.56l-.017-.011a1.76 1.76 0 0 0-1.679-.038l-.888.453-.659-.659.453-.885a1.75 1.75 0 0 0-.036-1.681l-.011-.018a7.8 7.8 0 0 1-.812-1.961 1.74 1.74 0 0 0-1.159-1.22l-.95-.309v-.932l.95-.309a1.75 1.75 0 0 0 1.162-1.231 7.8 7.8 0 0 1 .812-1.954l.009-.015a1.75 1.75 0 0 0 .036-1.679l-.452-.884.659-.659.885.449a1.75 1.75 0 0 0 1.7-.045 7.8 7.8 0 0 1 1.946-.809 1.75 1.75 0 0 0 1.235-1.164l.308-.946h.938l.3.943.009.027a1.77 1.77 0 0 0 1.231 1.138 7.8 7.8 0 0 1 1.943.808 1.74 1.74 0 0 0 1.7.047l.885-.449.659.659-.452.884c0 .006-.008.014-.011.021a1.75 1.75 0 0 0 .059 1.675 8 8 0 0 1 .808 1.94 1.75 1.75 0 0 0 1.162 1.241l.946.308v.934l-.946.308a1.75 1.75 0 0 0-1.164 1.235 7.7 7.7 0 0 1-.809 1.946 1 1 0 0 0-.058.112 12.1 12.1 0 0 0-7.719 4.266 1.76 1.76 0 0 0-1.021-.73 7.6 7.6 0 0 1-1.952-.808Zm14.8 18.641a9.684 9.684 0 1 1 5.951-14.1 1 1 0 0 0 .076.142 9.692 9.692 0 0 1-6.027 13.953Zm7.678-15.914a12.15 12.15 0 0 0-9.054-5.506 10 10 0 0 0 .379-1.04l1.076-.35a1.77 1.77 0 0 0 1.211-1.678v-1.888a1.77 1.77 0 0 0-1.218-1.681l-1.067-.347a10.4 10.4 0 0 0-.787-1.894l.509-1a1.8 1.8 0 0 0 .191-.909 9.689 9.689 0 1 1 8.76 16.293m1.023-9.6a2.88 2.88 0 0 1 .887 2.372 3.07 3.07 0 0 1-1.381 2.244 3.8 3.8 0 0 1-1.149.5v.617a1.211 1.211 0 1 1-2.422 0v-.755a4.3 4.3 0 0 1-2.454-2.442 1.212 1.212 0 1 1 2.235-.935 1.87 1.87 0 0 0 1.158 1.138 1.6 1.6 0 0 0 1.3-.145.65.65 0 0 0 .3-.456.48.48 0 0 0-.167-.4 3.6 3.6 0 0 0-1.076-.353 5.17 5.17 0 0 1-2.69-1.262 3.03 3.03 0 0 1 1.288-4.964l.111-.035v-.688a1.211 1.211 0 1 1 2.422 0v.644a3.7 3.7 0 0 1 .812.323 3.17 3.17 0 0 1 1.576 2.034 1.211 1.211 0 0 1-2.352.579.72.72 0 0 0-.386-.488 1.88 1.88 0 0 0-1.4-.076.62.62 0 0 0-.443.45.58.58 0 0 0 .115.524 3.35 3.35 0 0 0 1.512.6 4.5 4.5 0 0 1 2.208.976Zm-14.845.083a4.7 4.7 0 1 0-4.7 4.7 4.71 4.71 0 0 0 4.701-4.701Zm-6.985 0a2.281 2.281 0 1 1 2.281 2.281 2.283 2.283 0 0 1-2.28-2.282Zm19.393 16.071a1.21 1.21 0 0 1-1.211 1.211h-7.565a1.21 1.21 0 0 1-1.211-1.211v-7.565a1.211 1.211 0 1 1 2.422 0v6.353h6.353a1.21 1.21 0 0 1 1.212 1.212"/></g></g></svg>