<svg xmlns="http://www.w3.org/2000/svg" width="112.113" height="112.788" viewBox="0 0 112.113 112.788"><g transform="translate(6270.113 -1026.416)"><ellipse cx="56.056" cy="56.394" fill="#fff" rx="56.056" ry="56.394" transform="translate(-6270.113 1026.416)"/><path fill="#fff" d="M-6214.057 1029.416a52.7 52.7 0 0 0-37.51 15.632 53.567 53.567 0 0 0 0 75.523 53.089 53.089 0 0 0 90.567-37.762 53.41 53.41 0 0 0-32.413-49.201 52.4 52.4 0 0 0-20.644-4.192m0-3a56.4 56.4 0 1 1-56.056 56.394 56.226 56.226 0 0 1 56.056-56.394"/><g transform="translate(-6246 1052)"><circle cx="10" cy="10" r="10" fill="#e6e9ed" transform="translate(32 22)"/><circle cx="10" cy="10" r="10" fill="#e6e9ed" transform="translate(42 42)"/><circle cx="10" cy="10" r="10" fill="#e6e9ed" transform="translate(42 2)"/><path fill="#b4dd7f" d="M52 14a6.99 6.99 0 0 1 6.79 5.33 9.97 9.97 0 0 1-13.58 0A6.99 6.99 0 0 1 52 14m0 40a6.99 6.99 0 0 1 6.79 5.33 9.97 9.97 0 0 1-13.58 0A6.99 6.99 0 0 1 52 54"/><path fill="#fcd770" d="M42 34a6.99 6.99 0 0 1 6.79 5.33 9.97 9.97 0 0 1-13.58 0A6.99 6.99 0 0 1 42 34"/><circle cx="4" cy="4" r="4" fill="#f0d0b4" transform="translate(48 46)"/><circle cx="4" cy="4" r="4" fill="#f0d0b4" transform="translate(38 26)"/><circle cx="4" cy="4" r="4" fill="#f0d0b4" transform="translate(48 6)"/><path fill="#e6e9ed" d="M26 6H4a2.006 2.006 0 0 0-2 2v8a2.006 2.006 0 0 0 2 2h22a2.006 2.006 0 0 0 2-2V8a2.006 2.006 0 0 0-2-2"/><path fill="#4fc1e9" d="M24 54.61V62H8v-7.39A11.94 11.94 0 0 1 10 48h12a11.94 11.94 0 0 1 2 6.61"/><path fill="#f0d0b4" d="m22 28 2.49.62A1.99 1.99 0 0 1 26 30.56V40.9a5.98 5.98 0 0 1-1.31 3.74L22 48H10l-2.69-3.36A5.98 5.98 0 0 1 6 40.9v-4.48a6.1 6.1 0 0 0-.63-2.69l-1.2-2.39A1.618 1.618 0 0 1 5.62 29 4.37 4.37 0 0 1 10 33.38V16a2.006 2.006 0 0 1 2-2 2.015 2.015 0 0 1 2 2v10l4 1Z"/><path d="M52 41a11.01 11.01 0 0 0-10.949 10H24.484a12.8 12.8 0 0 0-1.264-2.924l2.246-2.807A7.03 7.03 0 0 0 27 40.9V33h4.051a11 11 0 1 0 0-2H27v-.438a3 3 0 0 0-2.272-2.91L23 27.22l-4-1-2-.5-2-.5V19h11a3 3 0 0 0 3-3v-3h12.051a11 11 0 1 0 0-2H29V8a3 3 0 0 0-3-3H4a3 3 0 0 0-3 3v8a3 3 0 0 0 3 3h5v10.23A5.33 5.33 0 0 0 5.618 28a2.62 2.62 0 0 0-2.342 3.789l1.2 2.392A5 5 0 0 1 5 36.416V40.9a7.03 7.03 0 0 0 1.534 4.373l2.246 2.802A12.87 12.87 0 0 0 7 54.6V63h18v-8.4a13 13 0 0 0-.107-1.6h16.158A11 11 0 1 0 52 41m-15.632-1.991a5.961 5.961 0 0 1 11.264 0 8.96 8.96 0 0 1-11.264 0M39 30a3 3 0 1 1 3 3 3 3 0 0 1-3-3m3-7a8.983 8.983 0 0 1 7.153 14.44 7.97 7.97 0 0 0-3.841-3.723 5 5 0 1 0-6.624 0 7.97 7.97 0 0 0-3.841 3.723A8.983 8.983 0 0 1 42 23m4.368-3.991a5.961 5.961 0 0 1 11.264 0 8.96 8.96 0 0 1-11.264 0M49 10a3 3 0 1 1 3 3 3 3 0 0 1-3-3m3-7a8.983 8.983 0 0 1 7.153 14.44 7.97 7.97 0 0 0-3.841-3.723 5 5 0 1 0-6.624 0 7.97 7.97 0 0 0-3.841 3.723A8.983 8.983 0 0 1 52 3M4 17a1 1 0 0 1-1-1V8a1 1 0 0 1 1-1h22a1 1 0 0 1 1 1v8a1 1 0 0 1-1 1H15v-1a3 3 0 0 0-6 0v1Zm3 23.9v-4.483a7 7 0 0 0-.739-3.13l-1.2-2.392a.62.62 0 0 1 .553-.9A3.386 3.386 0 0 1 9 33.382V38h2V16a1 1 0 0 1 2 0v22h2V27.281l2 .5V38h2v-9.719l2 .5V38h2v-8.72l1.242.311a1 1 0 0 1 .758.971V40.9a5 5 0 0 1-1.1 3.123L21.519 47H10.481L8.1 44.019A5 5 0 0 1 7 40.9M23 61H9v-6.4a10.87 10.87 0 0 1 1.55-5.6h10.9A10.87 10.87 0 0 1 23 54.6Zm23.368-1.991a5.961 5.961 0 0 1 11.264 0 8.96 8.96 0 0 1-11.264 0M49 50a3 3 0 1 1 3 3 3 3 0 0 1-3-3m10.153 7.44a7.97 7.97 0 0 0-3.841-3.723 5 5 0 1 0-6.624 0 7.97 7.97 0 0 0-3.841 3.723 9 9 0 1 1 14.306 0"/></g></g></svg>