<svg xmlns="http://www.w3.org/2000/svg" width="112.113" height="112.788" viewBox="0 0 112.113 112.788"><g transform="translate(-5737.522 7493.435)"><ellipse cx="56.056" cy="56.394" fill="#fff" rx="56.056" ry="56.394" transform="translate(5737.522 -7493.435)"/><path fill="#fff" d="M5793.578-7490.435a52.7 52.7 0 0 0-37.51 15.632 53.567 53.567 0 0 0 0 75.523 53.089 53.089 0 0 0 90.567-37.762 53.41 53.41 0 0 0-32.413-49.201 52.4 52.4 0 0 0-20.644-4.192m0-3a56.4 56.4 0 1 1-56.056 56.394 56.226 56.226 0 0 1 56.056-56.394"/><g transform="translate(5765.714 -7470.06)"><g transform="translate(.967 .967)"><g transform="translate(0 15.183)"><path fill="#05e39c" d="M8.386 6.556a3.81 3.81 0 0 1-4.863 0A4.305 4.305 0 0 0 0 10.747v1.593a1.29 1.29 0 0 0 1.29 1.29h9.329a1.29 1.29 0 0 0 1.29-1.29v-1.593a4.306 4.306 0 0 0-3.523-4.191"/><ellipse cx="3.886" cy="3.786" fill="#c96e59" rx="3.886" ry="3.786" transform="translate(2.068)"/><g transform="translate(41.887)"><path fill="#fe4fb7" d="M8.389 6.556a3.81 3.81 0 0 1-4.863 0 4.305 4.305 0 0 0-3.523 4.191v1.593a1.29 1.29 0 0 0 1.29 1.29h9.329a1.29 1.29 0 0 0 1.29-1.29v-1.593a4.306 4.306 0 0 0-3.523-4.191"/><ellipse cx="3.886" cy="3.786" fill="#ffdfcf" rx="3.886" ry="3.786" transform="translate(2.068)"/></g><g transform="translate(0 35.29)"><path fill="#ffe177" d="M8.386 6.556a3.81 3.81 0 0 1-4.863 0A4.305 4.305 0 0 0 0 10.747v1.593a1.29 1.29 0 0 0 1.29 1.29h9.329a1.29 1.29 0 0 0 1.29-1.29v-1.593a4.306 4.306 0 0 0-3.523-4.191"/><path fill="#ffd15b" d="M9.2 6.798v2.833a1.29 1.29 0 0 1-1.29 1.29H0v1.419a1.29 1.29 0 0 0 1.29 1.29h9.329a1.29 1.29 0 0 0 1.29-1.29v-1.593A4.28 4.28 0 0 0 9.2 6.798"/><ellipse cx="3.886" cy="3.786" fill="#ffdfcf" rx="3.886" ry="3.786" transform="translate(2.068)"/><path fill="#ffcebf" d="M5.955 0h-.186a3.74 3.74 0 0 1 1.363 2.878 3.83 3.83 0 0 1-3.7 3.781 3.93 3.93 0 0 0 2.523.908 3.787 3.787 0 1 0 0-7.572Z"/></g><g transform="translate(41.887 35.29)"><path fill="#99e6fc" d="M8.389 6.556a3.81 3.81 0 0 1-4.863 0 4.305 4.305 0 0 0-3.523 4.191v1.593a1.29 1.29 0 0 0 1.29 1.29h9.329a1.29 1.29 0 0 0 1.29-1.29v-1.593a4.306 4.306 0 0 0-3.523-4.191"/><ellipse cx="3.886" cy="3.786" fill="#c96e59" rx="3.886" ry="3.786" transform="translate(2.068)"/><path fill="#bb5d4c" d="M5.955 0h-.186a3.74 3.74 0 0 1 1.363 2.878 3.83 3.83 0 0 1-3.7 3.781 3.93 3.93 0 0 0 2.523.908 3.787 3.787 0 1 0 0-7.572Z"/></g></g><path fill="#af66da" d="M33.218 37.51H20.577a4.62 4.62 0 0 0-4.618 4.618V52.38a1.29 1.29 0 0 0 1.29 1.29h19.3a1.29 1.29 0 0 0 1.29-1.29V42.128a4.62 4.62 0 0 0-4.621-4.618"/><path fill="#9857bd" d="M34.225 37.621v11.147a1.29 1.29 0 0 1-1.29 1.29H15.959v2.322a1.29 1.29 0 0 0 1.29 1.29h19.3a1.29 1.29 0 0 0 1.29-1.29V42.128a4.62 4.62 0 0 0-3.614-4.507"/><path fill="#ffe177" d="M36.233 9.336a9.335 9.335 0 1 0-11.38 9.108.7.7 0 0 1 .45.325l.988 1.711a.7.7 0 0 0 1.213 0l.983-1.7a.7.7 0 0 1 .446-.331 9.34 9.34 0 0 0 7.3-9.113"/><path fill="#ffd15b" d="M29.891.492a9.332 9.332 0 0 1-9.741 15.29 9.3 9.3 0 0 0 4.7 2.662.7.7 0 0 1 .45.325l.988 1.711a.7.7 0 0 0 1.213 0l.983-1.7a.7.7 0 0 1 .446-.331A9.335 9.335 0 0 0 29.888.496Z"/><path fill="#ffcebf" d="M47.841 15.183h-.186a3.74 3.74 0 0 1 1.363 2.878 3.83 3.83 0 0 1-3.7 3.781 3.93 3.93 0 0 0 2.523.908 3.787 3.787 0 1 0 0-7.572Z"/><path fill="#bb5d4c" d="M5.955 15.183h-.186a3.74 3.74 0 0 1 1.363 2.878 3.83 3.83 0 0 1-3.7 3.781 3.93 3.93 0 0 0 2.523.908 3.787 3.787 0 1 0 0-7.572Z"/><path fill="#fe2aa8" d="M51.087 21.982v2.833a1.29 1.29 0 0 1-1.29 1.29h-7.91v1.419a1.29 1.29 0 0 0 1.29 1.29h9.329a1.29 1.29 0 0 0 1.29-1.29v-1.593a4.28 4.28 0 0 0-2.709-3.949"/><path fill="#62dbfb" d="M51.087 57.272v2.833a1.29 1.29 0 0 1-1.29 1.29h-7.91v1.419a1.29 1.29 0 0 0 1.29 1.29h9.329a1.29 1.29 0 0 0 1.29-1.29v-1.593a4.28 4.28 0 0 0-2.709-3.949"/><path fill="#0ed290" d="M9.2 21.982v2.833a1.29 1.29 0 0 1-1.29 1.29H0v1.419a1.29 1.29 0 0 0 1.29 1.29h9.329a1.29 1.29 0 0 0 1.29-1.29v-1.593A4.28 4.28 0 0 0 9.2 21.982"/><g transform="translate(20.618 24.951)"><circle cx="6.279" cy="6.279" r="6.279" fill="#ffdfcf"/><path fill="#ffcebf" d="M7.13.059a6.279 6.279 0 0 1-4.465 10.694 6 6 0 0 1-.853-.059A6.279 6.279 0 1 0 7.13.06Z"/></g></g><path d="M2.257 30.747h9.329a2.26 2.26 0 0 0 2.257-2.257v-1.593a5.21 5.21 0 0 0-2.729-4.571 4.65 4.65 0 0 0 .661-2.39 4.854 4.854 0 0 0-9.707 0 4.65 4.65 0 0 0 .661 2.39A5.21 5.21 0 0 0 0 26.897v1.593a2.26 2.26 0 0 0 2.257 2.257m4.665-13.63a2.82 2.82 0 1 1-2.919 2.819 2.873 2.873 0 0 1 2.919-2.818Zm-4.987 9.78a3.3 3.3 0 0 1 2.187-3.083 4.92 4.92 0 0 0 5.6 0 3.3 3.3 0 0 1 2.187 3.083v1.593a.323.323 0 0 1-.322.322h-9.33a.323.323 0 0 1-.322-.322ZM53 22.327a4.65 4.65 0 0 0 .661-2.39 4.854 4.854 0 0 0-9.707 0 4.65 4.65 0 0 0 .661 2.39 5.21 5.21 0 0 0-2.729 4.571v1.593a2.26 2.26 0 0 0 2.257 2.257h9.334a2.26 2.26 0 0 0 2.257-2.257v-1.593a5.21 5.21 0 0 0-2.729-4.571Zm-4.192-5.209a2.82 2.82 0 1 1-2.919 2.819 2.873 2.873 0 0 1 2.919-2.819m4.987 11.372a.323.323 0 0 1-.322.322h-9.329a.323.323 0 0 1-.322-.322v-1.593a3.3 3.3 0 0 1 2.187-3.083 4.92 4.92 0 0 0 5.6 0 3.3 3.3 0 0 1 2.187 3.083Zm-.794 29.128a4.65 4.65 0 0 0 .661-2.391 4.79 4.79 0 0 0-3.886-4.658v-.413a.968.968 0 1 0-1.935 0v.418a4.79 4.79 0 0 0-3.886 4.658 4.65 4.65 0 0 0 .661 2.391 5.23 5.23 0 0 0-2.638 3.6h-.081a.967.967 0 0 0-.01 1.934v.626a2.26 2.26 0 0 0 2.257 2.257h9.329a2.26 2.26 0 0 0 2.257-2.257V62.19a5.21 5.21 0 0 0-2.729-4.572m-4.192-5.209a2.82 2.82 0 1 1-2.919 2.819 2.873 2.873 0 0 1 2.919-2.819m4.987 11.372a.323.323 0 0 1-.322.322h-9.335a.323.323 0 0 1-.322-.322v-1.593a3.3 3.3 0 0 1 2.187-3.083 4.92 4.92 0 0 0 5.6 0 3.3 3.3 0 0 1 2.187 3.083v1.593ZM17.654 32.863a.967.967 0 0 0-.967-.967h-.852a.968.968 0 0 0 0 1.935h.852a.967.967 0 0 0 .967-.968m-.692-5.177.738.426a.967.967 0 0 0 .967-1.675l-.738-.426a.967.967 0 0 0-.967 1.675m4.404-6.079a.967.967 0 0 0-.354 1.321l.426.738a.967.967 0 0 0 1.676-.967l-.426-.738a.967.967 0 0 0-1.322-.354m11.677.358-.426.738a.967.967 0 1 0 1.675.967l.426-.738a.967.967 0 1 0-1.675-.967m4.02 4.471a.967.967 0 1 0 .967 1.675l.738-.426a.967.967 0 1 0-.967-1.675Zm2.833 5.464h-.852a.968.968 0 0 0 0 1.935h.852a.968.968 0 1 0 0-1.935m-25.73 29.321h-.414a5.23 5.23 0 0 0-2.638-3.6 4.65 4.65 0 0 0 .661-2.391 4.79 4.79 0 0 0-3.886-4.658v-.416a.968.968 0 1 0-1.935 0v.417a4.79 4.79 0 0 0-3.886 4.658 4.65 4.65 0 0 0 .661 2.391A5.21 5.21 0 0 0 0 62.193v1.593a2.26 2.26 0 0 0 2.257 2.257h9.329a2.26 2.26 0 0 0 2.257-2.257v-.63h.322a.968.968 0 1 0 0-1.935Zm-7.244-8.812a2.82 2.82 0 1 1-2.919 2.819 2.873 2.873 0 0 1 2.919-2.819m4.987 11.372a.323.323 0 0 1-.322.322h-9.33a.323.323 0 0 1-.322-.322v-1.593a3.3 3.3 0 0 1 2.187-3.083 4.92 4.92 0 0 0 5.6 0 3.3 3.3 0 0 1 2.187 3.083Zm25.474-2.56h-1.29a.968.968 0 0 0 0 1.935h1.29a.968.968 0 1 0 0-1.935m-5.805 0h-1.29a.968.968 0 1 0 0 1.935h1.29a.968.968 0 0 0 0-1.935m-11.608 0h-1.29a.968.968 0 1 0 0 1.935h1.29a.968.968 0 1 0 0-1.935m5.804 0h-1.29a.968.968 0 0 0 0 1.935h1.29a.968.968 0 1 0 0-1.935m22.067-21.388a.968.968 0 1 0 1.935 0v-1.285a.968.968 0 1 0-1.935 0Zm.967-4.836a.967.967 0 0 0 .967-.967v-1.286a.968.968 0 1 0-1.935 0v1.29a.967.967 0 0 0 .968.963m-.967 10.64a.968.968 0 0 0 1.935 0v-1.285a.968.968 0 0 0-1.935 0ZM7.89 38.548a.968.968 0 1 0-1.935 0v1.29a.968.968 0 1 0 1.935 0Zm-.968 4.832a.967.967 0 0 0-.967.967v1.29a.968.968 0 0 0 1.935 0v-1.285a.967.967 0 0 0-.968-.972m.968-10.636a.968.968 0 1 0-1.935 0v1.29a.968.968 0 0 0 1.935 0ZM24.997 6.103a.967.967 0 0 0-.967.967v.882a.968.968 0 1 0 1.935 0V7.07a.967.967 0 0 0-.968-.967m5.732 2.817a.967.967 0 0 0 .967-.967v-.882a.968.968 0 0 0-1.935 0v.882a.967.967 0 0 0 .968.967m-2.863 4.31a1.7 1.7 0 0 1-1.7-1.543.968.968 0 0 0-1.926.188 3.647 3.647 0 0 0 7.258 0 .968.968 0 0 0-1.926-.188 1.7 1.7 0 0 1-1.706 1.543"/><path d="M19.661 11.953a.969.969 0 0 0-1.9.379 10.3 10.3 0 0 0 7.732 8l.924 1.6a1.668 1.668 0 0 0 2.889 0l.924-1.6A10.3 10.3 0 0 0 38.168 10.3 10.3 10.3 0 0 0 27.367.013a10.32 10.32 0 0 0-9.37 7.336.968.968 0 1 0 1.853.558 8.365 8.365 0 0 1 13.79-3.659 8.3 8.3 0 0 1 2.593 6.056 8.37 8.37 0 0 1-6.542 8.166 1.66 1.66 0 0 0-1.074.792l-.752 1.3-.757-1.31a1.66 1.66 0 0 0-1.077-.785 8.36 8.36 0 0 1-6.37-6.515ZM34.186 37.51h-1.4a7.247 7.247 0 1 0-9.845 0h-1.4a5.59 5.59 0 0 0-5.586 5.586v.36a.968.968 0 1 0 1.935 0v-.36a3.655 3.655 0 0 1 3.651-3.651h12.641a3.655 3.655 0 0 1 3.651 3.651v4.357a.968.968 0 0 0 1.935 0v-4.357a5.59 5.59 0 0 0-5.582-5.586m-6.321 0a5.312 5.312 0 1 1 5.312-5.312 5.32 5.32 0 0 1-5.309 5.312Z"/><path d="M38.804 51a.967.967 0 0 0-.967.967v1.38a.323.323 0 0 1-.322.322H35.16v-8.523a.968.968 0 1 0-1.935 0v8.523H22.506v-8.523a.968.968 0 1 0-1.935 0v8.523h-2.355a.323.323 0 0 1-.322-.322v-5.378a.968.968 0 0 0-1.935 0v5.378a2.26 2.26 0 0 0 2.257 2.257h19.3a2.26 2.26 0 0 0 2.257-2.257v-1.38a.967.967 0 0 0-.969-.967"/></g></g></svg>