<svg xmlns="http://www.w3.org/2000/svg" width="120.125" height="120.125" viewBox="0 0 120.125 120.125"><defs><filter id="a" width="120.125" height="120.125" x="0" y="0" filterUnits="userSpaceOnUse"><feOffset dy="3"/><feGaussianBlur result="b" stdDeviation="3"/><feFlood flood-opacity=".161"/><feComposite in2="b" operator="in"/><feComposite in="SourceGraphic"/></filter></defs><g transform="translate(-2732.199 9660.537)"><g filter="url(#a)" transform="translate(2732.199 -9660.537)"><circle cx="51.062" cy="51.062" r="51.062" fill="#fff" transform="translate(9 6)"/></g><g transform="translate(2763.847 -9631.89)"><path fill="#72d8ff" d="M49.052 11.957a7.134 7.134 0 0 0-6.659 7.117v2.43H55.71v-2.43a7.133 7.133 0 0 0-6.658-7.117m0 0"/><path fill="#ff5d5d" d="M14.871 11.957a7.133 7.133 0 0 0-6.659 7.117v2.43h13.317v-2.43a7.133 7.133 0 0 0-6.658-7.117m34.181 34.215a7.134 7.134 0 0 0-6.659 7.117v2.43H55.71v-2.43a7.133 7.133 0 0 0-6.658-7.117m0 0"/><path fill="#72d8ff" d="M14.871 46.172a7.134 7.134 0 0 0-6.659 7.117v2.43h13.317v-2.43a7.134 7.134 0 0 0-6.658-7.117m0 0"/><path fill="#fcc69d" d="M47.313 1.479a4.62 4.62 0 0 0-2.806 4.249V7.32a3.051 3.051 0 1 0 5.613 0V5.728a4.62 4.62 0 0 0-2.807-4.249m-34.18 0a4.62 4.62 0 0 0-2.806 4.249V7.32a4.62 4.62 0 0 0 2.806 4.249 4.62 4.62 0 0 0 2.806-4.249V5.728a4.62 4.62 0 0 0-2.806-4.249m34.18 34.216a4.62 4.62 0 0 0-2.806 4.249v1.592a3.051 3.051 0 1 0 5.613 0v-1.592a4.62 4.62 0 0 0-2.807-4.249m-34.18 0a4.62 4.62 0 0 0-2.806 4.249v1.592a4.62 4.62 0 0 0 2.806 4.249 4.62 4.62 0 0 0 2.806-4.249v-1.592a4.62 4.62 0 0 0-2.806-4.249m0 0"/><path d="M49.934 10.943a5.7 5.7 0 0 0 1.294-3.623V5.728a5.729 5.729 0 0 0-11.457 0V7.32a5.7 5.7 0 0 0 1.3 3.623 8.256 8.256 0 0 0-6.886 8.13V21.5a1.11 1.11 0 0 0 1.109 1.11h20.42a1.11 1.11 0 0 0 1.11-1.11v-2.43a8.26 8.26 0 0 0-6.89-8.127m-7.943-5.215a3.509 3.509 0 0 1 7.018 0V7.32a3.509 3.509 0 1 1-7.018 0ZM54.6 20.393H36.4v-1.32a6.03 6.03 0 0 1 6.025-6.025h6.15a6.03 6.03 0 0 1 6.025 6.025ZM28.632 9.452h5.771a1.11 1.11 0 0 0 0-2.22h-5.771a1.11 1.11 0 1 0 0 2.22m-3.774-1.11a1.11 1.11 0 1 0-.325.785 1.12 1.12 0 0 0 .325-.785m6.474 39.055h-5.845a1.11 1.11 0 0 0 0 2.219h5.845a1.11 1.11 0 1 0 0-2.219M8.328 32.382a1.11 1.11 0 0 0 1.109-1.11v-5.771a1.11 1.11 0 1 0-2.219 0v5.771a1.11 1.11 0 0 0 1.11 1.11m41.287-1.109v-5.771a1.11 1.11 0 1 0-2.219 0v5.771a1.11 1.11 0 0 0 2.219 0m-33.862-20.33a5.7 5.7 0 0 0 1.295-3.623V5.728a5.729 5.729 0 0 0-11.457 0V7.32a5.7 5.7 0 0 0 1.3 3.623A8.256 8.256 0 0 0 0 19.074V21.5a1.11 1.11 0 0 0 1.11 1.109h20.419a1.11 1.11 0 0 0 1.11-1.109v-2.43a8.256 8.256 0 0 0-6.886-8.127M7.811 5.728a3.509 3.509 0 0 1 7.018 0V7.32a3.509 3.509 0 1 1-7.018 0ZM20.42 20.394H2.219v-1.32a6.03 6.03 0 0 1 6.025-6.025h6.15a6.03 6.03 0 0 1 6.025 6.025Zm29.514 24.765a5.7 5.7 0 0 0 1.3-3.623v-1.592a5.729 5.729 0 0 0-11.457 0v1.592a5.7 5.7 0 0 0 1.3 3.623 8.256 8.256 0 0 0-6.886 8.131v2.429a1.11 1.11 0 0 0 1.109 1.11h20.42a1.11 1.11 0 0 0 1.11-1.11V53.29a8.26 8.26 0 0 0-6.896-8.131m-7.943-5.215a3.509 3.509 0 0 1 7.018 0v1.592a3.509 3.509 0 1 1-7.018 0ZM54.6 54.61H36.4v-1.32a6.03 6.03 0 0 1 6.025-6.025h6.15A6.03 6.03 0 0 1 54.6 53.29Zm-38.847-9.451a5.7 5.7 0 0 0 1.295-3.623v-1.592a5.729 5.729 0 0 0-11.457 0v1.592a5.7 5.7 0 0 0 1.3 3.623A8.256 8.256 0 0 0 0 53.29v2.429a1.11 1.11 0 0 0 1.11 1.11h20.419a1.11 1.11 0 0 0 1.11-1.11V53.29a8.256 8.256 0 0 0-6.886-8.131M7.81 39.944a3.509 3.509 0 0 1 7.018 0v1.592a3.509 3.509 0 1 1-7.018 0ZM20.42 54.61H2.219v-1.32a6.03 6.03 0 0 1 6.025-6.025h6.15a6.03 6.03 0 0 1 6.025 6.025Zm0 0"/></g></g></svg>