<svg xmlns="http://www.w3.org/2000/svg" width="105.426" height="167.701" viewBox="0 0 105.426 167.701"><defs><clipPath id="a"><path fill="#ff8e6b" d="M0 0h100.249v88.761H0z"/></clipPath><clipPath id="b"><path fill="#fff6de" d="M0 0h100.224v88.759H0z"/></clipPath><clipPath id="c"><path fill="#adecd1" d="M0 0h83.352v167.701H0z"/></clipPath></defs><g transform="translate(-1319.029 -2241)"><g clip-path="url(#a)" transform="translate(1319.029 2280.47)"><path fill="#ff8e6b" d="M100.249 88.757q-5.614.013-11.225-.018C59.306 88.356 29.709 87.107 0 85.23.492 56.66.889 28.217 1.022 0h96.862c.211 29.466 1.085 59.086 2.365 88.757"/><g opacity=".65" style="mix-blend-mode:soft-light;isolation:isolate" transform="translate(1.596 .818)"><g clip-path="url(#b)" style="isolation:isolate"><path fill="#fff6de" d="M92.037 75.587v5.84h1.05c.178-1.487.708-2.9.386-4.442a3.63 3.63 0 0 0 2.862.836c1.207.69 1.931-.379 2.827-.806.275-.131.319-.488.528-.77l.046.068q-.112-2.869-.219-5.737a3.2 3.2 0 0 0-2.917-1.3c5.775-3.651-.156-8.125-4.563-5.526v5.072a4 4 0 0 0 3.079 1.056c-.729.769-.894 1.9-1.844 2.413-.2.425-.036 1.052-.51 1.378a5.21 5.21 0 0 0-.724-4.386v5.379c.723-.327.722-.327.928.481a1.8 1.8 0 0 1 .09.918c-.431.035-.6-.512-1.018-.477m3.532-5.933c.113.047-.019.1-.094.069a.5.5 0 0 1 .094-.069m-.117.1c0 .02-.006.041-.009.061a.05.05 0 0 1 .009-.061m-2.7 3.986.016.084c-.068-.022-.033-.054-.016-.084m7.122 6.038q-.051-1.256-.1-2.513a3.56 3.56 0 0 0 .1 2.513"/><path fill="#fff6de" d="M92.037 56.683a12 12 0 0 0 1.571-.047c-1.489 1-2.507 6.487.256 6.035 1.43-.266 3.787-.207 5.344-.738q-.081-2.366-.157-4.732a11.8 11.8 0 0 0-4.862-.8c.394-.81 1.08-1.471.792-2.581-.361-2.328-.636-4.446-2.945-5.589Zm2.1-.271c-.024.016-.049 0-.068 0 0-.016.032 0 .068 0m-2.1-38.767c.867 1.5 2.163 3.5 4.115 2.526a4.8 4.8 0 0 0 1.949-1.684l-.05-3.243a3.2 3.2 0 0 0-1.281-.667 2.37 2.37 0 0 0 1.265-.5q-.032-2.234-.058-4.467c-1.315-.509-2.71-.993-3.966-.338-1.722.979-2.467 4-.345 4.972.257.129.582.139.79.468-.855.346-1.833.414-2.418 1.245Zm0 29.971c4.781.347 4.829-8.778 0-8.607Zm0-9.222c1.857-.132 2.525-2.111 3.069-3.657-.211-.081-.285.25-.429.085a.32.32 0 0 1 .132-.509c.675-.172.677-.763.751-1.254a1.916 1.916 0 0 0-3.523-1.427Zm7.877 42.351-.031-.028c-.85-.527-1.255-1.549-1.964-2.154-1.427-.411-3.416-.411-3.813 1.454-.042.433-.463.588-.587.949l.018-.018-.135.319-.021-.01v.03l.013-.009.142.153h6.4l-.028-.682M92.037 2.584A3.77 3.77 0 0 0 95.617.44a2 2 0 0 0 .1-.44h-3.68Zm0 24.591a2.4 2.4 0 0 0 0-4.15Zm0-5.687c.908-.609 1.122-2.265 0-2.766Zm0 9.376c.915-.725 1.345-1.795 0-2.152Zm0-20.902c.806-.319 1.014-.639.941-1.456-.373-.026-.562.431-.941.38Zm0-5.38c.829.732.73-.747 0-.615Zm0 3.535c.175-.056.189-.2 0-.153Zm0-4.611v.154c.077-.029.092-.135 0-.154"/><path fill="#fff6de" d="M93.388 81.427q.001-.07-.006-.14l-.144.14Zm5.818-12.771q.132.361.269.72l-.094-2.555a1.82 1.82 0 0 0-.174 1.835M96.978 3.83a5 5 0 0 0 .941.43q-.02-2.13-.036-4.26h-.186c-1.919.281-2.719 2.38-.719 3.83"/><path transform="translate(98.206 39.767)"/><path fill="#fff6de" d="m97.593 40.074-.021.018.016-.008c-.245.521-.767.774-1.111 1.2-1.225 1.411.056 3.189 1.623 3.371a3.5 3.5 0 0 0 .576.008q-.068-2.474-.131-4.948-.174.027-.36.07l.02-.021h-.008l-.323.166a3.3 3.3 0 0 0 .662-.56q-.092-3.617-.172-7.232l-.03-.009c-2.177-.293-2.574 3.1-3.59 4.545a2.315 2.315 0 0 0 2.848 3.392m.576-17.616c-.937-1.188-2.545-1.42-3.969-1.622a1.39 1.39 0 0 0-1.281 2.429c1.05.952 3.6 3.554 5.335 3.638q-.045-2.223-.085-4.445M93.246 4.66c.044 1.373.227 3.4 1.942 3.459.7.058 1.467.106 1.932-.519.837-1.407-.743-2.77-1.178-4.065-.8-2.212-2.847-.63-2.7 1.125m4.463 3.175a1 1 0 0 0 .256.607l-.017-1.557a1.4 1.4 0 0 0-.239.95M94.897 46.83c-.686 1.525.7 8.3 2.188 9.206a2.26 2.26 0 0 0 1.94.337l-.033-1.005a2.1 2.1 0 0 1-1.065.113v-.008l-.008.007.02.017c-.87-.046-.473-.888-.751-1.319-.231.034-.338.206-.476.327-.975-.8-.556-2.346-1-3.46-.081-.5-.276-.941.46-1.141-.18-.12-.256-.206-.345-.223-1.128-.325-.368-1.834-.426-2.682.144-.428-.4-.6-.5-.167m1.808 7.706a.94.94 0 0 1 .236.474.405.405 0 0 1-.236-.474m-1.468-23.977a2.91 2.91 0 0 0 3.113 1.049l-.029-1.345a2.6 2.6 0 0 1-.729-.053c.258-.634-.385-.053-.643-.154-.157-.174.181-.326-.036-.519a1.2 1.2 0 0 1-.862-.267c.445 1.212-1.523.554-1.635-.1l.022.019v-.022h-.011a.265.265 0 0 1 0-.3h.011v-.023l-.023.019c-.029-.09-.012-.356-.155-.168s-.411.251-.519.469c.208.83.967.852 1.495 1.394m1.787.13c-.017.005-.043.019-.049.013-.074-.067.045-.1.049-.013m-.506-.222c-.4.3-.656.12-.884-.175.294-.008.61-.115.884.175m2.241 17.198-.03-1.062c-.285 0-.519.034-.378.523.333 0 .332.294.409.538m-.595-.334c-1.747.454.682 1.357 0 0m-1.122-1.675a1.25 1.25 0 0 0-.957-.1 1.17 1.17 0 0 0 .957.1"/><path fill="#fff6de" d="M94.856 29.028c-.091-.2-.269-.13-.414-.158v.3c.143-.026.321.055.414-.14m-.226-2.557c.209.02.107-.189-.031-.206-.251.008-.158.2.031.206m-.67.282c-.232.116-.328.2-.275.372.129-.055.158-.178.275-.372m-.648 1.189c.012.181.152.057.25.022-.04-.159-.195-.158-.25-.022m3.795.921.113-.06-.053-.121c-.12.035-.127.081-.06.181m.818 26.607c.327-.272-.178-.343 0 0m-.009-9.481c.032-.042 0-.078-.049-.085-.073.041-.025.151.049.085M92.79 6.201l-.057-.041c-.179.02-.035.222.057.041m3.317 41.989c.133-.067.025-.166-.073-.187-.065.108-.057.157.073.187m-2.372-19.64c-.006-.05-.053-.053-.091-.027-.021.078.086.125.091.027m1.97.58h.02"/><path d="M95.705 29.13h.02Z"/><path fill="#fff6de" d="M95.709 29.129"/><path d="M95.709 29.129"/><path fill="#fff6de" d="M95.732 29.127h-.008"/><path d="M95.732 29.127"/><path fill="#fff6de" d="m98.16 47.313.009.019h.007l.182-.186v-.016h-.012l-.182.186M95.63 29.178c.015-.027.053-.037.075-.047l-.065.007Zm-.107 57.786c2.378-.126 5.507-1.972 2.831-4.285a.29.29 0 0 1-.169-.349c.439-.219 1.065-.169 1.351-.736h-2.7c.1 1.769-5.417-.867-4.609 3.749.2 1.715 1.906 2.094 3.3 1.62m.118-1.527c-.024.128-.181.018-.194-.048 0-.178.18-.061.194.048m-.794-.4-.032.047-.03-.049Zm-.545-.4-.238.106c.036-.1.152-.236.238-.106m-.263.111-.208-.043c.1-.114.146 0 .208.043m-2.006 1.762v2.235h1.074a1.86 1.86 0 0 0-1.074-2.24"/><path fill="#fff6de" d="M95.487 81.596h-2.549a2.114 2.114 0 0 0 2.549 0m-3.45 1.691a1.28 1.28 0 0 0 0-1.229Zm7.616 5.47c-.227-2.387-4.721-2.168-5.972-.271a2.4 2.4 0 0 0-.174.269q3.072.007 6.146 0"/><path fill="#fff6de" d="M99.378 87.538a2.5 2.5 0 0 0 .846.633l-.128-3.03c-1.128.354-1.839 1.061-.718 2.4m-88.926-6.114h6c-.571-1.239-2.19-1.164-3.247-.553a.755.755 0 0 1 .154-.846c.8-1.08-.623-2.17.4-3.352a6.44 6.44 0 0 0 2.1 2.975c.158.215.214-.193.408-.137.41.12.876.037 1.275.478l-.346 1.434h5.849c-.1-1.242.3-2.479-1.044-3.409.809-.138 1.442.03 2.05-.111l-.521.728-.034.014h.023l.016-.017a4.9 4.9 0 0 0-.191 2.794h7.5c.028-1.493-1.017-2.4-1.842-3.43a.73.73 0 0 1 .683-.061c2.149.429 4.977-1.111 3.77-3.643l.008.005c.024-1.062-.366-.1-1.1-1.025.086-.263-.228-.508-.418-.607a1.85 1.85 0 0 0 .231-1.543l.019.024v-.011c.706.41.055 1.3.582 1.836l-.018-.015c.064.122 0 .321.25.371.548-.528-.005-1.042-.051-1.556h.013c-.158-.512.021-1.157-.5-1.508-.38.158.261.637-.277.706v-.016l-.022.019c.112-.364-.31-.411-.378-.669.132-.223.4-.348.456-.607-.448-.328-.769-.013-1.114.171-.409-.9-1.124.441-1.511-.355-.35-.417-.992.218-1.333.468-.377.393.231.308.188.535a2.12 2.12 0 0 0-.5 2.164 17.3 17.3 0 0 0-.379 4.34c-.752-.531-1.362-.035-2.057-.125 3.075-1.81 2.169-6.761-.247-8.679l.017-.018c-.172.177-.391.206-.514 0-.766-.868-2.132.624-2.479 1.377-.26.549-.561.576-.872.074-2.118-2.7-2.709-1.137-4.345-2.359 1.059-.279 1.445-1.129 1.846-2.051-.421 3.662 5.516 4.129 6 .7.894-2.96-4.722-3.531-5.847-1.571a.73.73 0 0 1-.117-.638c.1-1.571-1.71-2.085-2.866-1.5-2.32.873-.471 3.922.959 4.978-1.673.11-3.922.728-3.569 2.769a3.59 3.59 0 0 0 2.929 3 1.03 1.03 0 0 1 .692.4c-1-.069-2.956 1-3.056 2.11-1.051 1.347-.645-3.548-.821-4.05-.115-1.74-.394-1.907-1.9-1.559-1.359-3-4.828 7.9-.91 11.546m23-7.14-.2-.046c.1-.1.142 0 .2.046m-.5-2.521-.1.063c-.005-.11.047-.082.1-.063m-1.25-1.045c.047.01.081.048.047.091-.077.073-.119-.048-.047-.091m-.563-.816c.008.188-.078.285-.264.283a.4.4 0 0 1 .264-.283m-.065 1.824c-.015.3-.475.335-.429 0 0-.3.479-.332.429 0m-1.739-.352.011.042-.042.003Zm-5.225 6.5c.107-.214.256-.329.5-.216-.178.04-.3.213-.5.216m1.439-.958h-.015l.016-.01v.014m-3.452-.548a11.1 11.1 0 0 0 .531-3.416.48.48 0 0 1 .294-.487l-.009.021v.019c.454-1.03.22-3.412 1.637-3.395.728.02 1.25.3 1.371.931.49 1.919 2.129 4.378-.185 5.72-.317.2-.687.314-.9.743-.343.515-2.91 1.134-2.746-.136m-.542-4.856a11.7 11.7 0 0 0-.11 6.1 13 13 0 0 0-1.614.011 1.27 1.27 0 0 1 .441-.8c1.412-1.888.585-3.65-1.74-3.758a17.6 17.6 0 0 0 3.022-1.554m-3.617-2.936a.98.98 0 0 0 .842-.175c.136-.109.267.07.39.147.6.377.861 1.094 1.415 1.522.217.267-.2.533-.447.429-.7-.038-.981-.835-1.753-.621-.522.125-1.042-1.1-.448-1.3m-.109 2.828-.107.066-.1-.067c.076-.079.13-.08.205 0m-.323.759c-.221-.539.5-.169 0 0m-.125-3.861c0 .021.008.044.011.068-.01-.027-.019-.052-.011-.068m-.635 1.351c-.543.7-.385 1.607-1.742 1.1.265-.148.592.044.751-.245.062-.338-.457-.309-.4-.7.178-.12.251.14.388.169a.52.52 0 0 0 .618-.311c.142-.3-.179-.319-.291-.473-.373-.512-.832-.308-1.3-.25a1.85 1.85 0 0 1 2.626-.536 1.156 1.156 0 0 1-.649 1.247m-1.353-.6c.029.055.012.073-.043.086-.028-.055-.015-.075.043-.086m-4.05.857c-.153.305-.429.286-.7.277a1.13 1.13 0 0 1 .7-.277m-1.082.709.043.038-.055.023Zm-.822 3.23-.082.094c-.091-.116-.023-.212.082-.094"/><path fill="#fff6de" d="M50.889 78.465c.563-5.053-4.168-3.813-2.861-5.1a20.3 20.3 0 0 0 2.9-5.217c.125-.434-.088-.966-.39-.912-.88.157-1.733-.161-2.6-.087-2.393.1-6.048.355-5.4 3.77.063.208.115.51.426.582 2.238 2.362 1.946 1.129 3.7 2.138-1.009.646-2.314.18-3.068 1.522-.264.224-.419.891-.821.758-.226-.13-.089-.306-.031-.466.611-1.834-.561-3.4-1.241-4.987-.584-1.812-1.607-.993-2.7-3.092-.4.39-.946.5-1.184 1.023-.183-.161-.032-.346-.166-.491-1.559-.3-1.558 1.3-2.873 1.67a2.64 2.64 0 0 0-.57 2.323c-.229-.535-.058-1.135-.4-1.633-.092 5.054 3.725 11.636 8.585 6.356.077-.145.251-.266.513-.025-.632.921-.016 1.931-.043 3.033-2.16-1.379-2.766-1.785-4.259.57-.164-1.48-1.767-1.329-2.642-2.175a2.362 2.362 0 0 0-3.673 1.211c-.316.711-.275 1.561-.807 2.189h12.447c-.128-.314-.347-.608-.214-.982.229.363.705.513.814.982h.6c.1-.125.2-.1.3 0a6.12 6.12 0 0 0 5.031-1.832 5.4 5.4 0 0 0 .067 1.832h9.148c-.938-3.463-5.765-5.328-8.6-2.963m-13.794-9.428.01-.055.041.041Zm6.383 11.422.04-.029.008.011Zm47.527-10.861.016-.018Zm1.038-10.757c-2.14 1.192-1.066 2.9-1.9 4.7a4.5 4.5 0 0 0-.743 3.364c-1.521-1.434-2.581-1.819-4.16-.126.831 2.307 2.966 11.315 6.8 7.588V71.29c-.483-.478-.531-1.263-1.037-1.688-.569.64-.265-.864-.5-1.115.7-.023.97.667 1.541.65Zm-1.74 10.742.056.13c-.068.2-.282-.109-.056-.13m1.74-57.01c-.313-.308-.066-.767-.319-1.121a2.73 2.73 0 0 0-2.334-1.423c-1.415.339-5.5-.491-5.61 1.476-.287 3.139 8.486 5.16 8.263 1.068m0 36.122c-1.162-.574-1.6-2.077-2.881-2.388-1.8-.585-4.714 1.361-3.2 3.256.433 1.648 2.47 1.651 3.051 3.205.088.269.443.269.594-.026.573-.7 1.747-.3 2.435-1.127Zm-18.692 30.4c.252.732 1.626 1.3 1.208 2.1-4.221-1.266-3.606.685-5.049-.453a1.06 1.06 0 0 0-.4.536l-.021-.02v.019h.018l.138.149h.3a.192.192 0 0 1 .3 0h1.65a.093.093 0 0 1 .15 0h1.35c.1-.1.2-.142.3 0h7.948c-2.1-5.144-9.631-5.811-7.895-2.335M1.004 81.427h8.1c.757-2.285-.905-2.565-2.723-2.588-2.912-.343-6.165-2.194-5.375 2.588m59.233 0h5.549c.383-1.922-.711-6.666-3.292-4.559-1.024 1.353-2.427 2.718-2.256 4.559"/><path fill="#fff6de" d="M92.031 76.048c-4.9-1.427-5.561 2.987-1.8 5.379h1.8Zm0-23.054c-5.724-.724-5.978 6.247 0 5.072Zm.001-18.442c-2.986.529-5.317 1.9-2.689 4.924l-.019-.018.017.017c-3.368-1.419-5.415 3.042-3.061 5.405 1.39 1.835 3-.1 3.862-1.437.987-1.257.255-2.772-.668-3.827l.025.022-.019-.02c.852.313 1.562 1.049 2.553.773Zm-.001-5.533c-1.753.639-6.066 1.929-3.659 4.315 1 .934 2.475.281 3.659.142Zm.001 12.295c-1.756 1.782-3.039 5.279 0 6.455Zm0-39.805v-.308c-.139-.051-.113-.1 0-.153V.433c-3.284 1.122-2.321 3.57 0 5.072V1.97c-.623-.153.082-.307 0-.461M.065 81.379a.4.4 0 0 1 .04.048h.149a.95.95 0 0 0-.183-.451q0 .2-.007.4m91.967-67.265a3.352 3.352 0 0 0 0 5.533Zm-.004 7.531c-.139.309-.706 1.1-.813.371 0-.1.1-.244-.154-.328a6.3 6.3 0 0 0 .078 3.809 2.3 2.3 0 0 1 .889.6Zm-.719 3.422a.32.32 0 0 1 .208.27c-.069-.09-.135-.184-.208-.27m.23.3-.008-.011.032.015h-.024m.494-18.019a3.14 3.14 0 0 0 0 4ZM82.575 80.09c-.589.008-.455.924-.441 1.338h.6c-.108-.4.206-1.106-.159-1.338m.465.737.016-.007v-.014Z"/><path fill="#fff6de" d="M84.097 80.797c-.353.035-.7-.151-1.047.024l-.168.606h.9c.094-.214.394-.323.314-.631m.137.632h1.05c-.287-.9-.815-.991-1.05 0m3.603-.003c-.254-.415-.586-.26-.913-.145 0 .048.009.1.013.145Zm4.195-60.705a.86.86 0 0 0-.513.553c.226-.221.314-.4.513-.4ZM68.637 81.427h.45l-.006-.15a.47.47 0 0 0-.444.15m-1.05 0h.3a.18.18 0 0 0-.3 0m20.545.002h.155c-.05-.057-.1-.06-.15 0M4.094 69.759c.613 6.583 8.922.513 3.817-2.922v-.029l-.023.013.023.017c-.181.007-.369.048-.525-.09q.254-.032.506-.079a4.26 4.26 0 0 0 1.344-5.292 2.95 2.95 0 0 0 1.809-1.483c1.956 8.191 8.038-2.922 1.135-2.564-.471.068-.516-.058-.381-.489 1.489.06 3.207 1 4.506-.067 3.121-4.83-10.424-5.03-6.112-.468.7.361 1.7.761 1.029 1.783-1.517-3.187-4.554-.562-1.9-5.413.18-1.493-.2-3.5-2.023-3.588-1.892-.176-5.708.115-4.931 2.922a19.7 19.7 0 0 0 1.721 3.807 1.85 1.85 0 0 0 1.768 1.155c.029 0 .061.072.144.177-1.566 1.2-2.047 2.88-.179 4.009.214.144.529.23.4.637-1.928-.012-1.322 2.2-1.862 3.424-.5-1.316-.526-3.13-2.271-2.985a4.8 4.8 0 0 0-1.73.531q-.054 3.542-.111 7.089c.89 1.289 2.231 1.729 3.841-.1m10.553-10.779-.54-.024c.189-.109.4-.468.54.024m.016.036c.333.451-.488 2.793-.828 1.617a.3.3 0 0 0 .079.013l-.062-.01c-.254-.8.626-.963.812-1.619m-2.194-.177c.105.04.148.186-.005.137-.112-.03-.144-.181.005-.137m-1.473.586v.074c-.064 0-.041-.138 0-.074m-6.278 7.1a5.7 5.7 0 0 0 2.661.223c-.42 1.25-1.067-.988-2.979 2.014a11 11 0 0 1 .322-2.237"/><path fill="#fff6de" d="M5.902 72.88a19 19 0 0 0-5.667-2.005l-.106 6.521c1.362.356 2.9.371 4.282.73 4.677 1.727 4.291-3.143 1.491-5.246m43.962-14.844c-3.816-.063-1.973 3.573-2.054 6-.423-.428-.075-1-.457-1.314-.274.758-.274.757-1.135.744a1.06 1.06 0 0 0-.763.255c-.357.315-.774.106-1.154.076s-.792-.078-.808-.716c-.645 1.567-1.975.234-3.054.929-.663.377-.428-.425-.81-.646-.293.249-.084.683-.387 1.034a29 29 0 0 0-.608-3.332c-.39.434-.174 1.044-.537 1.431-.32-.4.124-.709.049-1.013-.105-.279-.535.048-.472-.226.11-.48-.316-.681-.39-1.065-.088-.456-.617-.59-.955-.551-.425.049-.369.514-.306.881.291 1.6-.585 3.236.081 4.776l-.015-.02.007.015a4.3 4.3 0 0 0-2.13-.747c.65-.4 1.707-1.31 1-2.052-.63-.422-.507-1.451-1.36-1.685-1.4-.37-3.908.028-2.859 2 .066.165.185.348.024.49-1.351.038-4.524-1.42-5.046.627-.575 2.28.21 6.53 3.276 4.933.332-.567 1.3-.607 1.47-1.3.367-1.244 1.4-2.319.833-3.86.948.4 1.512.634 2.414.993-.944.7-2.677 1.068-2.674 2.467a1.686 1.686 0 0 0 2.225 1.43c1.167-.443 3.766-1.32 2.964-2.985l.024.017v-.009c1.045.447 2.455 1.348 2.824-.484.02-.095.018-.2.164-.247 1.333 3.989 7.845 3.312 8.76-.672a3.506 3.506 0 0 0 3.618 2.493c.774.045 1.081-.248 1.253-1.01a4.86 4.86 0 0 0-.31-2.317c-.727-1.731-.254-5.216-2.695-5.334m-13.212 5.189a.116.116 0 0 1 .227.044.117.117 0 1 1-.227-.044m1.678.554c-.044.085-.139.029-.1-.052a.059.059 0 1 1 .1.052m.369-.259.13.107c.036.342-.323.079-.13-.107M24.284 50.35a1.44 1.44 0 0 0 1.39-.607c.84-1.225 2.08-2.062 2.936-3.249 1.791-1.934-.572-3.672-2.613-3.733a5.3 5.3 0 0 0 1.386-1.839c.587-1.192 2.644-3.039 1.223-4.247-4.257-1.871-5.9 3.084-2.974 5.978-.4.383-.9 0-1.229.34-2.419 1.864-5.734 8.273-.119 7.357m49.002-16.33c-2.949-.987-6.381 3.549-3.981 5.927 1.107 1.662 3.373 1.249 4.777 2.449a.53.53 0 0 0 .4.127c.045-.451.339-.115.434-.079 1.091.517 2.343-.776 2.338-1.783.253-4.164.218-5.184-3.973-6.641m1.552 29.664c.079-1.6-.06-3.4-1.942-3.617-6.1-.829-6.933 3.648-1.12 5.368-2.576 3.807 4.072 5.192 6.39 3.413 3.162-3.137-3.114-3.412-5.136-3.426.726-.678 1.654-.8 1.808-1.738m4.182-6.503v.005l-.019-.035.018.039v.005l.007.007Z"/><path fill="#fff6de" d="M78.592 55.604c-.2-.416-.623-.644-.711-1.188a1.5 1.5 0 0 0-.816-.907c-2.426-.763-2.7-.079-3.583 2.085-.141-2.685-3.338-2.754-4.989-1.431-3.4 4.02 4.328 7.691 5.073 2.74.913 2.359 4.986 3.181 5.446.291-.051-.055-.144-.126-.133-.158a1.8 1.8 0 0 0-.287-1.432M51.755.554a1.9 1.9 0 0 0 .632-.553H46.27c2.412 1.158 3.057 2.188 5.485.554m27.047 46.318c1.776-.168 3.1 1.8 4.808 1.572 2.206-1.445 1.571-4.819.313-6.712-.487-1.238-2-.988-3.041-.675.245-.323.646-.218 1.034-.47-5.854-.669-7.723 5.424-3.114 6.285"/><path fill="#fff6de" d="M69.861 48.569c-.624-.27-.939-1.154-1.69-.5-.227-1.362-1.45-.9-2.338-.712l-.013-.047c0 .016.007.031.011.047l.007.016c-.706-.139.155.611-1.048.656l-.092-.731a3.7 3.7 0 0 0-.333 2.689c.089.353-.419.45-.322.825.014.054-.222-.32-.4-.067s.1.491-.044.787c-.517-.051-1.438.452-1.7-.219l.028.062c-.268-.233-.717-.422-.216-.842-.146-.049-.174-.159-.133-.3h.011l-.006-.013-.017.022c.173-.417.62-.982.107-1.365a.75.75 0 0 0-1.115.208c-.89.722-2.238-1.016-2.281 1.437-.3-.03-.344-.384-.568-.528-.821 3.677 5.234 6.009 6.716 1.739 1.972 3.851 9.124-.061 5.431-3.157m-11.554 2.259v-.281c.259.1.13.171 0 .281m.941 1.254c.238.356-.626.4-.414.015a.244.244 0 0 0-.117-.369c-.662-.479.145-1.028.6-.274-.118.033-.11.14 0 .164-.077.144-.174.275-.067.464m.1-.613c.142 0 .288-.16.444.018-.111.234-.283.156-.445.115zm.385 1.016c-.065-.011-.147 0-.146-.115.253-.352.609.206.146.115m.583-1.6c.214.031.207.441-.006.444s-.209-.415.006-.444m.042 1.4c.354.077.37.406.511.642-.444-.008-.39-.391-.511-.642m.5.7.017-.049s0 .01.008.014Zm.376-.154c.046-.042.083-.014.1.048-.04.076-.161.036-.1-.048m-.36-2.905c-.137.394-.564-.219-.3-.325.2-.065.265-.3.5-.342l.277.579c-.15.219-.32.105-.477.088m.5-.791c0-.066.033-.077.081-.034-.009.052-.05.071-.081.034m.26 2.636c.047-.144.236-.122.24.062-.007.158-.291.105-.24-.062m2.261-.03c.077-.082.153-.026.173.076-.077.1-.246.061-.173-.076"/><path fill="#fff6de" d="M61.717 50.535c.011 0 .021.008.034.011l-.006-.025h-.006l-.017.015M46.59 21.04l.016.018c-.754-.139-.932-1.467-2.006-1.009-.269.079-.847-.524-1.16-.2-.375.656-1.273-.41-1.361.446-.006.114-.148.067-.236.015v-.013.01l.01.016c-.331-.184-.558.049-.8.212-.312.212-.115.528-.085.81-1.3-.527-.526 1.534-1.88.755l.021.019c-1.118.736-.316 1.858-.5 2.871-1.043 3.122 3.595 3.623 5.416 2.066 1.148-1.059 4.6-4.7 2.569-6.019m-7.831 4.267c-.036-.078.041-.072.091-.1l.011.058-.1.04m.353-2.627c-.187-.012.111-.419.135-.067a.5.5 0 0 1-.135.067m.869 1.906c.054-.108.1-.119.183-.032-.053.108-.1.116-.183.032m1.466-3.184-.017-.051c.065-.047.107.062.017.051m-1.034 2.06c.231-.3.5-.133.738-.077.272.066.537-.034.935.022a1.4 1.4 0 0 1-1.673.055m2.088-1.814c.228-.068.305.166.58.263-.4.305-.879.048-.58-.263m2.583 1.259-.042-.113c.143-.067.168.044.042.113m.306-.807-.632.506c-.324-.1-.273-.412-.459-.659.431-.026.776-.273 1.09.154m-.782-1.336c-.346.206-.352.612-.885.621.169-.431.282-.744.885-.621M1.508 2.321h-.5Q.99 5.805.967 9.292c3.279-1.538 5.812-6.761.541-6.971m77.495 46.912c-4.167 3.021 2.311 6.217 4.944 6.191 2.142.263 4.787-1.526 3.075-3.575-2.1-1.778-5.261-4.075-8.019-2.616m3.774 23.363c.106 0 .209-.1.344 0-7.05 1.234-5.722 8.167 1.613 5.234 3.131-.479 3.886-2.3 2.171-4.981-.109-.476-.929-1.707-1.377-1.084l.043.019a3 3 0 0 0-2.793.81m-1.266 1.047c.026-.106.087-.022.15 0-.025.1-.088.02-.15 0M8.996 47.528c1.565-.9-1.007-2.349-1.739-2.946-1.657-1.189-3.242-1.014-4.979-.175-.025-1.14-.628-3.317-1.607-4.123l-.067 5.348a3.4 3.4 0 0 0 1.2-.332c.192.273 0 .661.253.816.462.286.448.76.562 1.2.846 2.483 4.651.707 6.383.216"/><path fill="#fff6de" d="M8.121 3.959C5.228 3.54 3.703 6.653 3.806 9.195c-.117 2.072 1.547 4.121 3.669 3.2.875-.352 1.014-1.4 1.8-1.8.618-2.5 3.367-6.428-1.154-6.632m21.531.702c3.2-.1 3.588-3.359.521-4.49Q30.01.085 29.846 0h-7.331q.03.075.067.15a8.5 8.5 0 0 0 7.07 4.516m23.789 19.917c.259-3.721-3.558-7.7-5.59-2.792-1.888 6.446 5.157 10.9 5.59 2.792M40.6 54.733c-.651-3.841-6.74-2.627-8.69-.431a2.486 2.486 0 0 0 .81 3.844c2.462.814 7.453-.347 7.881-3.412m3.498-45.881c3.544 2.348 4.565-1.809 4.625-4.842-.209-7.467-9.906-.906-4.625 4.842M20.967 38.695c4.093.227 5.513-5.2.9-5.907-6.1-1.331-8.076 5.719-.9 5.907M51.578 1.054c-.9 1.018-3.569 4.74-2.178 5.846 1.236.557.737 2.255 2.344 1.964.73-.3 2.441.057 2.793-.994.205-1.283 1.064-2.349.937-3.792.078-2.191-1.767-5-3.9-3.024m24.435 7.42c-.488-.424-.019-1.855-.494-2.613-1.253-2.946-4.888.392-5.152 2.378-.361 2.994 3.654 2.582 5.107 1.163a5.63 5.63 0 0 0 1.979 3.8c.83.729 2.4.056 2.076-1.128-.354-2.018-.854-4.433-3.253-4a.246.246 0 0 1-.262.4m-.2.307-.022-.016.038-.016zm.151.257c-.136-.019-.086-.159-.131-.236.077.056.218.072.131.236"/><path fill="#fff6de" d="m76.261 8.066-.013.016h.022s0-.009-.009-.013m-.02.012h-.007m7.353 5.926c-2.252.267-5.7-1.153-5.337 2.516h.037a2.71 2.71 0 0 0 1.411 2.995c1.33.454 3.331 1.3 4.507.255 1.007-2.205 3.853-5.668-.618-5.767m3.568-4.424c5.8.126 5-6.039 0-6.67-4.134.473-5.467 7.111 0 6.67M1.369 53.311c-.269-.053-.562-.141-.864-.23l-.027 1.852q.057-.022.12-.041c.93-.115.915 1.483.107 1.347a2 2 0 0 1-.246-.018l-.068 4.627q.052.05.1.1c1.29.983 2.633-.053 3.733-.794.057-.629.62-1.207.379-1.853.468-1.009-2.191-4.955-3.237-4.988m.248 4.111c-.285-.2-.265-.366 0-.564a.405.405 0 0 1 0 .564m-.8-3.261c.486-.46.851-.332 1 .359-.26-.322-.632-.293-1-.359m1.251 2.057.01-.05a.2.2 0 0 1-.01.05m.229.689c-.171.028.024-.291.027-.057-.009.02-.014.053-.027.057m80.075-17.785c.874 1.081 1.646 1.366 2.712.906 1.31-.552 3.089-1.077 2.985-2.822-.045-2.3-.246-5.116-2.1-6.694-1.356-.843-1.741.649-1.586 1.8.68 2.441-3.622 4.449-2.01 6.813m-14.787-1.352c-.068-2.846-3.52-5.307-5.943-3.4-1.51 1.271-.818 3.673-.824 5.432.136 1.088 1.868 1.81 2.414.807.02-.54.352-.213.517-.3.533.54 2.24-.492 3-.578.423-.141.927-.338.912-.879-.01-.355.539-.783-.075-1.088m-5.269.113v.04l-.016-.04Zm-1.379.628c-.041-.386.292-.308.567-.223-.3.527-.061 1.131-.248 1.673-.382-.415-.268-.964-.32-1.45m1.138 1.556h.022a.94.94 0 0 1-.556.4c-.26-.091-.1-.383-.274-.5l.454-.357-.017-.017c.234.072.825.211.371.468m.024-.937a.56.56 0 0 1 .459-.066zm.474-.106c-.024-.15-.088-.308.1-.435.068.179-.064.3-.1.435m1.14-.776c-.021-.094.077-.1.081-.017s-.079.1-.081.017m.038 2.065c.151-.037.3-.1.449-.133-.088.245-.271.182-.449.133m.494-.137a1 1 0 0 1 .114-.008c-.04.063-.077.029-.114.008m1.184-2.089.025-.052.031.045Zm-10.035-4.892c3.59-1.524-.515-6.471-3.088-4.289-.583.834-.9-.15-1.224.472-.287.889-1.166-.076-1.7.393a2.94 2.94 0 0 0-1.317 2.367c.226 3.628 5.246 1.964 7.324 1.057M83.39 2.545c1.749-.187 3.72-.05 5.306-1.069A1.66 1.66 0 0 0 89.636 0h-9.972c-.647 2.058 2.19 2.387 3.721 2.545M34.154 49.42a2.94 2.94 0 0 0-.886-1.795c-.8-.391-.844-1.639-1.9-1.41-.5.034-.988-.218-1.4.212-5.031 3.75-3.071 9.161 2.924 5.677 1.46-.933 1.45-.949 1.259-2.684m52.684-22.6h.013v-.009Zm-.964-.716.006.037.014-.019Zm5.252-.617.024.021-.006-.014-.021-.011"/><path fill="#fff6de" d="M85.765 23.588c-.194.6.414.671.5 1.051v-.027.009-.013a14 14 0 0 0 1.672.213c-.373.147-.061.521-.315.731-.354-.218-.758-.082-1.115-.208-.272.326-.276.778-.578 1.119l-.052-.326c-.347.456-.48 1.059-.936 1.44v.02c-2.327.785-2.748.266-1.725-2a1.394 1.394 0 0 0 .379-1.764c-.3.1-.034.514-.37.64-.524-.773.249-1.309.406-1.955-1.057-.185-.769 1.465-1.72 1.928a3.1 3.1 0 0 0-.137-1.176c-.421.477-.312 1.081-.466 1.534-.275.116-.183-.34-.441-.183-.8 2.292 5.3 6.613 7.1 5.334 1.354-1.238 4.751-2.064 3.159-4.468-2.431-2.1-1.854-2.679-5.359-1.895m-2.621 1.185-.032.046-.031-.046Zm.055.826c-.339.2-.265-.355 0 0m-.612.806c-.08-.183-.019-.277.1-.337.216.052.04.3-.1.337m2.355 1.3h-.009c.011-.019 0-.058.011-.083v.08m1.156.36c.12-.311.338-.274.552-.24-.178.059-.263.34-.552.24m.751-1.246c-.1.324.29.74-.174 1-.633-.771-.509-1.172.5-1.635 0 0-.012.011-.013.017l.005-.007a.9.9 0 0 1 .593.263c-.149.55-.549.412-.911.366m2.584-.8c.374.278.871.113 1.362.253-.195.432-.949.453-.463 1.036-.4.269-.888-.091-1.11.436-.288-.478.017-.646.19-.878.191-.255-.2-.52.02-.848m-.981-.886c-.009.045-.044.08-.084.051-.063-.072.042-.12.084-.051"/><path fill="#fff6de" d="M86.275 24.801a.4.4 0 0 0-.006-.158.6.6 0 0 1 .006.158m-.015.085a1 1 0 0 1-.04.115.6.6 0 0 0 .04-.115m.014-.085q.001.016-.005.034-.001-.016.005-.034"/><path fill="#fff6de" d="M86.269 24.834c0 .016-.006.033-.01.049 0-.017.007-.033.01-.049M52.882 38.715l-.01.018h.024Z"/><path fill="#fff6de" d="M59.778 41.882c1.38-1.3-2.7-2.892-3.728-2.692a8.3 8.3 0 0 0-2.507.334c-.754.312-1.074-.077-.667-.791-.486.029.166-.718-.939-1.83-.185-.572-.882-.36-.835.213a1.13 1.13 0 0 1-.586 1.042c-1.046.554-1.852-1.224-3.248-.029 1.013 3.186 4.744 1.188 4.455 2.372-.075 1.437.247 1.876 1.614 2.179 2.162.286 4.77 1.076 6.443-.8m19.692 20.405c-.184-.416-.066-1.034-.736-1.1-.5-.046-.356.484-.6.66-.309-.36-.309-.36-.858-.325v.012c-.407-.364-.934.061-1.307-.258l.008-.008-.028-.007.016.019c-.268.018-.477-.195-.742-.26-.284 1.136.314 1.991.641 2.987.484 1.843 2.872 2.052 4.29 1.373.629 1.719-1.978 3.444-1.319 5.266 1.43 3.439 6.052.635 5.914-2.35-.533.755-.319 2.1-1.528 1.455-.152.54-.486.571-.977.437-.575-.157-.429-.556-.37-1.012-.934.35-.724-1.132-1.756-.889a11 11 0 0 0 .748-1.3c.171-.422.053-1 .791-1.107-.623-.681.178-1.1.173-1.678a2.13 2.13 0 0 1 .377-1.705c-.525.244-.667 1.075-1.25 1.047-.693-.5-.028-1.557-.787-2.141.028.53.341.927.22 1.415-.706-.047-.2-.771-.507-.969-.343-.012-.236.311-.414.436m-2.186-.683.025.264c-.064-.08-.031-.174-.025-.264m1.428.03c-.132-.064 0-.242.059-.1zm.355 8.3c.087-.4.052-.849.562-.9.132-.013.248-.024.306.127.086.459-.647.437-.868.774m1.228-5.852v-.006h.042Zm-.015-.651c.3.216.09.418 0 .62a.63.63 0 0 1 0-.62m-18.088-1.921c.016-2.82-3.479-.664-4.281-1.886-.561-3.036-5.28-1.724-5.442.809.06 2.047 2.92 2.764 4.133 1.2.257-.274.408-.686.929-.772-2.425 3.964 5.668 4.593 4.66.653m-3.7-.872-.051-.017c.007-.052.028-.045.066-.029zm.367.183c.494-.455.581-.439.75.15-.229-.1-.512.009-.75-.15m.782.182a.123.123 0 0 1 .127.126.14.14 0 0 1-.127-.126m16.19 9.564c-1.373 1.214-6.791 3.1-4.509 5.416 2.661 1.822 7.215-.125 7.782-3.234-.019-1.813-1.316-3.361-3.273-2.183m-9.241-5.781.009.008.007-.016Z"/><path fill="#fff6de" d="M66.6 64.794c-.262.587-.661.988.249 1.046-.42.323-.1.652 0 .983-.281 0-.365-.228-.556-.279.015-.178.136-.426-.226-.356a4.6 4.6 0 0 1-.8-.253c-.4-.114-.464-.653-.891-.721l.005-.016.023-.122-.024.122c-.851-.074-1.288-.937-1.751.386-2.253 1.238 2.325 6.8 5.886 4.6 1.5-.632 2.805-2.717 1.549-4.227-.216-.378-.523-.19-.78-.28-.369.03-.557-.338-.087-.362h-.021c-.106-.9-.467.565-1.159-.361-.67-.887-.633.542-1.421-.165m-2.468 1.169c-.084-.035-.038-.158.043-.1.04.042.011.086-.043.1m2.928.434a.14.14 0 0 1 .124-.205c.261.032-.038.188-.124.205m1.268-.593.042.028-.047.018Zm-.28-.43c.061 0 .071.033.032.08-.049-.009-.066-.05-.032-.08m-.364.388c.235.053.153.25.2.382-.12-.09-.246-.179-.2-.382m-9.357-44.67a.7.7 0 0 0-.942.312 2.9 2.9 0 0 1-.446-.948c-.429-1.206-1.464.524-2.284.241-1.12 1.559-.881 3.827-.764 5.7 1.935 5.652 6.756-.1 4.435-5.3M35.06 44.829l-.008.018h.005l.021-.027zm.573-2.179c.279-.179.469.123.719-.14-.516-.377-.618-1.266-1.125-1.57-.363.139-.416-.161-.534-.372-1.353-2.309-5.109-2.944-5.808.271-.716 3.1 3.733 5.449 6.176 3.988a3.4 3.4 0 0 0 .572-2.178m46.708-12.512c-.5-.526-.375-1.352-1.284-1.408-.374-.1-.215.3-.34.425-.971.763-2.049-.651-2.8 1.4-1.319.641-3.2 2.261-2.092 3.868 1.547 1.873 4.184.244 6.132-.019 1.511-.328 1.766-2.391 1.319-3.709-.138-.724-.416-.4-.932-.558m-5.865 2.355.021.054c-.068.052-.118-.065-.021-.054m-.276.8c-.157-.271.364-.328.387-.043-.137.1-.3.2-.387.043m1.734-2.721c.4-.006.074.414 0 0m3.884.063c.083-.046.229-.04.163.092-.106.047-.153.041-.163-.092m.173 1.063c-.051-.073.067-.121.055-.02zm.469-.17c-.152-.033-.146-.219.01-.207.109.045.082.149-.01.207m.113-1.006c.033-.034.068-.012.077.034-.026.073-.126.034-.077-.034m.532 1.2c-.241.047-.089-.169.006-.221.211-.081.111.185-.006.221M45.764 60.96c1.938-.325 1.339-2.729.408-3.8h.016c-6.9-6.209-10.328 6.918-.424 3.8M26.429 26.555c-1.729 1.034-4.764 1.39-4.808 3.922.763 4.183 6.265.294 8.052-1.183 1.987-1.785-1.645-3.876-3.245-2.738m44.646 1.933a17 17 0 0 0-.343 2.8c-.193 2.686 1.013 1.513 2.768 1.849 1.613-.55 2.608-2.419 3.421-3.868 1.191-3.278-5.6-4.564-5.846-.784M26.607 53.653a2.282 2.282 0 0 0-3.62-2.3c-1.4.935-1.911 2.862-3.054 3.911-.768 5.514 6.627 1.7 6.674-1.614"/><path fill="#fff6de" d="M17.927 55.774c.776.656 1.479.192 2.01-.507l-.025.028c.59-2.35 1.448-4.661.792-7.177-.433-1.239.485-3.345-1.036-3.976-2.714-.632-2.747 3.1-2.855 4.975.044 2.19-.781 5.07 1.113 6.661m.942-41.096c1.713.511 3.776-.133 4.218-2.075.988 2.937 8.639.929 4.793-1.687v-.025l-.015.012.02.02a.74.74 0 0 1-.412-.316c-.35-.943-1.509.253-1.992-.755-.177-.312-.461-.131-.675-.11-.48.08.087.712-.295.893-.966-.526-1.249-.108-1.582.959-1.869-2.633-6.452 2.082-4.057 3.084m46.907 2.052c-2.588-.652-2.722 7.469 1.149 7.8 4.827-.526 2.241-7.006-1.149-7.8m-38.135 5.303c-1.062 1.18-1.5 3.45.385 3.842 1.826.287 2.769-1.819 3.967-2.874.429-.86 4.612-4.09 2.348-4.369-.412-.031-.5-.362-.712-.575a20 20 0 0 1-2.081.945c-.257.09-.615.087-.686.48l-.021-.014v.025h.01a.27.27 0 0 1 0 .3l-.011-.007v.028l.023-.012c.666.159.666.159.488.788-.134.013-.122-.238-.281-.171-.218.133.051.54-.31.507-.275-.269.145-.755-.319-.909-.763-.264-1.051.626-1.813.495-.341.051-1.139 1.941-1.29.373a.66.66 0 0 1-1.273-.211l-.953.283c.189.332.027.707.254 1.024a3.67 3.67 0 0 1-1.832-2.9c-.217 2.306 1.985 4.28 4.107 2.95m3.872.938c-.069-.11-.112-.39.089-.268.123.1.062.24-.089.268m.449-.4-.027-.059h.057Zm.078-.628c-.365.073-.69.752-.965.147a1.7 1.7 0 0 1 .965-.293Zm-.18-1.444c.907.513.95.587.633 1.431-.088.235-.28.428-.433.009h-.009a.14.14 0 0 0 0-.145h.011c-.148-.649-.629.184-1.026-.235zM1.064 14.007c-.162.153-.056.351-.136.519l-.019 2.435c.047.051.044.1 0 .128l-.04 4.825c3.644.773 3.669-7.27.2-7.907m10.682 17.756c-.571.248-.558-.324-.766-.587-.8-.443-1.643.328-1.94 1.04-2.306 4.095 3.716 8.662 5.947 3.947-.589.263-1.02.792-1.626 1.026.387-1.07 1.8-2.41.746-3.467a1.48 1.48 0 0 1-.568-1.027c.273-.3.894-.331.7-.979a.875.875 0 0 0-.911-.73c-.766-.005-.4.674-.577.962-.424.243-.627-.35-1-.186m1.612 5.428-.018.008-.035-.018Z"/><path fill="#fff6de" d="M19.143 41.647c.037-3.74-6.141-6.235-5.759-.833.287 1.4.209 3.582 1.909 3.965a3.06 3.06 0 0 0 3.85-3.131m30.996 4.785a2.365 2.365 0 0 0 2.7-2.021c.122-2.086-2.294-3.253-3.866-4.052-1.64-1.137-4.993.722-3.147 2.693 1.4 1.035 2.476 3.378 4.312 3.38M2.737 27.227c-1.441.634-2.009 2.653-.923 3.66 1.676 1.6 6.206 4.53 6.715.471-.342-2.08-3.657-5.042-5.792-4.131M26.24 60.869c.861 2.961 4.167 1.174 4.567-1.106.5-.916-.437-5.68-1.958-5.185-.091.013-.1-.069-.13-.141-.2-.492-.589-.371-.8-.107-.344.432-.9.735-.968 1.362-.021-.111-.187-.086-.152.07h-.017l.02.02c-1.159 1.482-1.023 3.348-.562 5.087m21.89-33.402c-1.744-3-4.953.415-4.38 2.853.152 1.485-.137 3.225 1.189 4.124a1.45 1.45 0 0 0 2.175-.457c.635-1.109.594-2.5 1.122-3.632a2.79 2.79 0 0 0-.107-2.888m20.378 13.119c-4.006-.955-6.693 5.028-1.7 5.815 1.117-.09 3.2-.483 3.694-1.688a2.9 2.9 0 0 0-2-4.127M37.249 2.98c1.238-.786 1.159-1.91.478-2.98h-6.043c1.165 2.116 3.866 4.306 5.565 2.98m8.112 51.047c-1.846 2.4 4.057 3.677 5.618 3.59 5.072-.069-.785-8.527-5.618-3.59m43.6-31.542c1.867.212 2.626-1.9 1.846-3.387-.64-.986-.723-2.253-1.456-3.149-2.222-2.193-3.581 1.793-4.022 3.565-.14 1.907 2.046 2.917 3.631 2.971M12.811 45.253c-.544-2.31-.539-7.417-3.741-7.276-3.824.969 2.5 13.272 3.741 7.276M75.115 17.36c2.211.019 2.808-.834 2.231-2.546-.439-1.289-.874-2.7-2.117-3.395-2.236-1.483-4.8 1.157-3.582 3.455a4.52 4.52 0 0 0 3.467 2.486M61.647 67.694c-.007-6.964-5.982-1.226-5.251 1.6 1.554 3.672 6.027 2.46 5.251-1.6M68.068.884A14.6 14.6 0 0 0 71.382 0h-5.138a1.44 1.44 0 0 0 1.821.884M40.597 2.043A3.525 3.525 0 0 0 44.502 0h-6.343a3.53 3.53 0 0 0 2.438 2.043"/><path fill="#fff6de" d="M47.912 51.536c2.2.862 6.525.116 5.853-3.018-4.877-4.475-9.5 1.74-5.853 3.018m14.269-21.199c.109-1.973-.605-4.129-2.834-3.279-5.887 2.91 2.686 12.02 2.834 3.279"/><path fill="#fff6de" d="M53.191 47.519c.231.3.586.572.6 1.026l-.026-.028v.005c.882 1.081 2.3 2.537 3.47.8 4.852-7.157-6.467-7.362-4.042-1.8M25.694 25.286c.921-.71 1.181-2.169-.155-2.544-8.977-1.2-8.156 10.122.155 2.544m15.039-11.205c-1.094-.045-2.728.024-2.734 1.468a2.14 2.14 0 0 0 .969 1.926c1.441.657 7.418 2.031 7.205-.644-.255-.431-.547-.908-1.076-1-1.806-.623-1.519-1.863-4.364-1.747m-24.621 35.61c-.241-1.124-.716-2.43-1.967-2.55-.366-.061-.866-.424-1.232.089v-.013c-2.052-.449-3.6 2.567-2.2 3.942 1.558 1.9 6.1 1.889 5.4-1.468m27.792-38.768c-.446-.451-1.082-.627-1.485-1.121a.57.57 0 0 0-.5-.27c-1.7.121-2.7-3.1-4.247-.628-1.127 1.844-.243 4.577 2.114 4.422 1.9-.076 4.568-.051 4.526-2.661-.171.132-.17.5-.4.259"/><path fill="#fff6de" d="M52.816 52.702c-.291 4.5 5 6.33 5.008.8.369-3.316-4.7-4.1-5.008-.8m-30.017-33.46-.036-.041.03.057c-.439-.033-.781.738-1.158.393-.473-.492.888-1.054.239-1.55-.446-.587-.55.238-.934-.094-.088-.189.265-.252.123-.451.532-.341 1.217-.44 1.638-1.032-.391-.372-.83-.239-1.229-.245-.46-.006-.47-.773-1.072-.581.148.189.318.435.054.569-.743.385-.663 1.927-1.753 1.4-3.838 7.1 2.09 9.17 4.1 1.575m-1.351.649.02.055c-.07.051-.115-.068-.02-.055m-.395-2.363c-.035-.134-.105-.266-.131-.4a.44.44 0 0 1 .131.4m-.312.88c-.029.233-.221.144-.24-.038-.045-.271.265-.175.24.038m-1.7.479c-.032.161-.221.264-.222.051.05-.089.132-.192.222-.051m-.213.888c.288.106.351.457.626.5-.025-.285.235-.545.469-.38.36.222.916-.212 1.265.482-.617-.211-1.057.393-1.585.034-.267.277-.539.1-.835.042l.06-.674m-.7 1.262a.9.9 0 0 1 .518.006c.053.23-.122.405-.161.655a.61.61 0 0 1-.358-.661m.566-3.379h.008l.012-.023Zm53.23 25.807c-1.163-.551-1.418 3.525-1.28 4.307a2.15 2.15 0 0 0 1.735 1.535c.953-.026 3.593-1.817 2.773-2.939.008-.256.365-.557.393-.856-.266.02-.294-.154-.28-.362.471-.2.468-.5.158-.869-.092-.108-.317-.2-.214-.348.457-.666-1.146-.848-1.526-1.094a.43.43 0 0 0-.491.041c-.3.33-.758.345-1.1.59-.054.277-.3.355-.17-.005m1.267 1.512.039-.149c.09.089.009.113-.039.149m.111-.709c-.055.176-.176.141-.29.091-.142-.185.194-.226.29-.091"/><path fill="#fff6de" d="M75.549 45.494v.022h.007ZM33.338 28.687c2.325.527 6.783-1.66 2.764-3.366-.382 1.425-1.715.205-2.556 1-.095.085-.285.059-.432.083-.382-.437-1.036-.071-1.533-.353.92-1.3 2.866.095 3.968-.619.178-1.446-1.232-1.84-2.391-1.75-.391.028-.571.462-.96.431v-.017l-.02.018.012.017c-3 .544-1.061 4.375 1.143 4.555m-1.764-2.623.012.029-.013-.027M23.014 9.602c2.174-.157 3.926-1.347 2.787-3.733.03-1.292-1.68.121-1.515-1.163h-.016c.115-.82-.43-1.3-.962-.457-2.064 1.509-5.458 6.907-.294 5.35m1.244-4.89c-.426.094-.268-.376 0 0m12.697 4.652c.431-1.628-1.293-2.695-1.619-4.2-1.164-2.834-3.353-2.112-3.276.772-.375 2.229 3.56 6.261 4.9 3.428m24.377 67.485a5.8 5.8 0 0 0 .674-2.388c-.444-.186-.27-.612-.329-1.172-.269.611-.469.422-.665.19-.256.131-.5.206-.709-.1.151-.114.437-.11.329-.414-.053-.151-.138-.267-.329-.226a2.08 2.08 0 0 1-1.908-.3c-.509-.149-1.185.817-1.038 1.3a3.45 3.45 0 0 1-.115 1.494l-.208-.356c-1.434 4.209 3.975 4.938 4.3 2.374-.516-.135-.118-.243-.005-.4m-3.112-2.468c-.016-.006-.047-.012-.047-.018-.006-.107.1-.053.047.018m-.467 1 .021.045h-.041Zm.518 2.222c-.047.019-.081-.009-.07-.056.037-.085.128-.01.07.056m-.46-.743c-.233.143-.014.411-.18.552-.3 0-.308-.891-.191-1.148.157-.341-.182-.64-.185-.983.587.458.661 1.245 1.133 1.817-.29.087-.36-.3-.577-.237m.4-3.467c.246.122.514.154.746.281-.273-.044-.678.33-.746-.281m1.487 2.6c.019-.192.089-.331.313-.317.2.184-.15.506-.313.317m2.109-27.718c-.228-.252-.047-.415.188-.476 1.834-.649 2.08-3.342.843-4.68-4.174-3.557-6.22 5.039-1.03 5.156m.065.002h-.066.064m19.193 8.966c-.478.281-.577-.128-.752-.394-1.2 1.009.224 4.891 1.633 5.038 1.976-.2 3.34-2.191 4.863-3.315.685-1.32-1.345-1.042-2.056-1.323-.133-.043-.208.11-.27.221l.047-.009c-.336.123-.721-.367-1.018.091-1.525.614-1.094-.351-1.582-.127-.374.265-.772-.235-.864-.181m2.453.364.077.134c-.094-.013-.079-.076-.077-.134M64.948 0H61.67c.689.917 2.2.719 3.278 0m-8.22 34.558c-.291-.277.023-.423.128-.627.365-.654-.386-.672-.807-.488l-.006-.021c-.2.42-.3.995-.979.663-2.411.536-1.809 3.774.3 4.3 1.274.4 3.628.994 4.123-.757l.022.017a5 5 0 0 0-1.806-3.274c-.282.122-.658.479-.972.186m-2.145 2.6c0-.02 0-.056.01-.058.108-.03.075.106-.01.058m.328-1.451.095.091-.084.075c-.023-.06-.078-.115-.011-.166m.175.905c-.1-.047-.232-.284-.039-.313.18.005.26.362.039.313m.108.394.032-.055.021.061Zm31.42 28.143c4.571-.436 4.1-6.534.019-5.789a4.1 4.1 0 0 0-1.639 2.5c-.128 1.169.437 3.181 1.62 3.289m.856-2.018c.066-.119.256-.09.213.07a.116.116 0 1 1-.213-.07M71.092 21.403a2.1 2.1 0 0 0-.282 3.769c1.907 1.335 6.186.138 4.546-2.725-.3-.265-.155-1.23-.724-.882-.456.331-.817-.045-1.214-.083-.309-.03-.268-.292-.122-.558a10.2 10.2 0 0 0-2.205.479m.991-.011a.506.506 0 0 1 .791.079 1.3 1.3 0 0 1-.791-.079M11.268 68.446c1.289-.264 3.607-.623 3.458-2.383-.1-1.566-.916-2.99-2.692-3.071-1.092.026-1.691 1.373-2.192 2.2-.86 1.2-.077 3.335 1.426 3.257m-9.04-41.673c1.572-.789.312-2.569-1.371-3.761q-.018 1.96-.039 3.923a5 5 0 0 0 1.41-.162m73.328-8.904a14.7 14.7 0 0 1-3.592-.692c-3.61-1.533-3.337 3.09-.379 3.234 1.894-.1 3.7-.91 5.631-.484a1.02 1.02 0 0 0 .963-.29 8.4 8.4 0 0 0-1.114-1.846c-.366-.3-.985.1-1.509.078"/><path fill="#fff6de" d="M15.601 5.364c.367 1.432.855 3.223 2.64 3.086 1.882.034 2.994-1.436 1.889-3.157-1.1-1.47.361-1.676-2-2.248a2.01 2.01 0 0 0-2.531 2.319m.654-.469c-.03-.054-.019-.072.039-.08.029.053.017.071-.039.08m1.261 1.669.017-.038h.01ZM31.049 33.92c2.289.094 4.379-.8 3.119-3.557-2.8-4.027-8.069 2.986-3.119 3.557m38.933-.464c-.042-.495-.541-2.472-1.452-2.39-.35-.195.091-.831-.867-1.062-.551-.147-1.149-.43-1.678-.571-1.023.6-3.146.667-2.091 2.445 1.016 1.6 3.031 1.884 4.623 2.618a1.008 1.008 0 0 0 1.465-1.04m-3.579-1.555c.056-.016.108-.078.127.013-.056.019-.105.078-.127-.013M83.467 9.293c.067-3.378-5.113-1.658-3.888 1.133.454.719.134 1.673.592 2.328 1.436 1.264 4.023.423 3.436-1.832a3.8 3.8 0 0 1-.14-1.629M66.156 1.929a.6.6 0 0 0-.655-.278c-1.4.133-.908-1.5-2.566-.427-3.889 3.005 4.691 6.644 5.086 2.1-.186-1.614-1.34-.829-1.865-1.392"/><path fill="#fff6de" d="M81.296 4.307a.318.318 0 0 1-.429-.21c-.162-.8-.843-.953-1.42-1.218-1.8-.7-.45 1.669-2.714 2.606l.017.018c-.336-.329-.75.083-.448.439 1.11 1.345 3.171.93 4.709 1.11a2.374 2.374 0 0 0 2.455-2.9c-.289-.874-1.465-.31-2.167-.351.013.173.288.368 0 .5m-4.223 1.752-.035-.028.044-.013Zm1.734.136a.106.106 0 1 1 0-.211c.147.031.151.209 0 .211m.511-.685c.051-.148.163-.135.269-.132-.075.07-.12.2-.269.132m.32-.16c.33-.779.364-.795.92-.524a2.14 2.14 0 0 1-.92.524m1.671-.023q-.084-.062.008-.108a.059.059 0 0 1-.008.108"/><path fill="#fff6de" d="M81.241 3.799h.059v-.013Zm-8.678 67.44a1.92 1.92 0 0 0-.593-1.852c-1.139-.953-2.481.827-3.466 1.406-1.558.671-2.565 3.705-.038 3.626 1.579-.277 3.6-1.478 4.1-3.179M63.46 22.01c-1.085-3.038-4.444-2.1-4.084 1.066-.425 4.763 5.209 2.4 4.084-1.066m14.789 25.953-.006-.038a.05.05 0 0 0 0 .032l-.006-.012.009.02c-1.624-.474-3.613.911-4.851 1.987-.608.308-1.35.465-1.414 1.371-.085.409-.7.254-.664-.136a1 1 0 0 0 .555 1.847c1.489.33 7.443-3.247 6.375-5.071m-4.784 2a.1.1 0 0 1-.038-.005c.044 0 .078-.016.081.006a.1.1 0 0 0-.043 0"/><path fill="#fff6de" d="M71.323 51.153v.034l.022-.016ZM14.334 27.965c1.5-.083 3.812-.719 4-2.47a2.1 2.1 0 0 0-2.312-2.05c-1.936-.012-5.047 4.466-1.688 4.52M38.83 7.024c1.248-.558 2.871-.864 3.169-2.434.453-3.145-6.253-1.256-5.963 1.375h.011l.01-.019c.854 1.1 1.364 1.686 2.772 1.077M1.009 1.852A4.06 4.06 0 0 0 2.939 0H1.022c0 .617-.008 1.235-.011 1.852m14.933 27.144c.254 1.54.29 3.342 2.385 2.95 2.417.175 4.143-1.91 1.937-3.714-.877-.629-4.357-.507-4.322.764m29.733 15.742c-.337.448-.023 1.042-.314 1.5-.622-.094-.193-.732-.553-.971a10 10 0 0 1-.952-.8c-.22.013-.113.216-.246.313-.256-.291-.7-.37-.779-.7-.647-.017-.954.806-1.719.444-.07.733-.1.818.045 1 1.231 1.342 2.726 4.3 4.86 3.377.992-.479.707-1.589.773-2.523.122-1-.154-1.4-1.116-1.632m0 2.029c-.059-.018-.069-.039-.031-.092l.059.033zm13.357 7.24c-1.462.1-1.195 1.524-1.287 2.551-.041 1.5.749 2.842 2.443 2.7 1.623-.063 1.586-1.978 1.67-3.307.043-1.119-1.829-1.936-2.825-1.946M28.564 10.05c1.153 1.544 4.186.234 3.028-1.614l.015.018c-.068-1.336-.744-.763-.475-1.56l.02.019.005-.031-.02.009a2.09 2.09 0 0 0-2.882-1.059c-2.516.477-.712 3.069.309 4.217m1.987-3.265.056.026-.057.028Zm-1.142 1.672c.062-.289.285-.305.5-.33-.091.2-.167.431-.5.33m.3-1.612c.139.03.143.21-.009.215-.18.01-.17-.26.009-.215m-.346.934c.122-.287.3-.061 0 0m-.7.689c.035-.081.1-.016.156.007-.043.077-.188.126-.156-.007m.16-.6c-.2.053-.266-.062-.385-.171.268-.086.26.13.385.171m4.517 6.247c.029 1.6 1.184 4.3 3.153 3.318 1.411-.429.148-4.307-.4-5.191-1.163-1.388-3.041.244-2.75 1.874m31.294-.93c1.533-1.52-1.085-2.648-2.167-3.312-4.065-1.423-2.636 7.6 2.167 3.312m-48.933-.429c2.406.2 6.8-3.292 2.249-3.859a6.4 6.4 0 0 0-3.126.726 1.712 1.712 0 0 0 .878 3.133"/><path fill="#fff6de" d="M61.975 15.193c-.282-.865-1.925-.251-2.387.247-2.63 3.431 3.852 6.69 4.01 1.952.427-.793-1.687-.892-1.622-2.2m.762 2.227c.282-.037.561-.295.847-.011-.277.332-.557.463-.847.011M8.693 15.682c-1.115 1.417 1.207 2.464 2.119 3.183 1.665 1.025 2.53-.6 2.463-2.037-.047-2.342-3.332-2.941-4.581-1.147M71.559 5.432a3.44 3.44 0 0 0 1.342-1.972c.484-1.838.176-1.9-1.222-2.417-.4-.1-1.3-.2-1.322.367.268.258.77-.062.987.426-.738.4-1.452-.682-2.1.147l.006-.018h-.186l.005.019c-1.55 1.558.443 5.172 2.485 3.449M14.873 1.576A1.97 1.97 0 0 0 14.164 0h-2.741c-4.731 4.2 2.288 5.4 3.45 1.576m-2.348 19.882c-.389 4.782 6.289.723 3.783-2.019-1.4-1.539-3.9.064-3.783 2.019M.965 9.689l-.03 4.045c1.329-.262 2.664-1.175 2.457-2.736-.017-1.521-1.31-1.657-2.427-1.309m65.553 44.034c-.937-.007-1.82.763-2.837.781-.721.105-.929.509-.866 1.266.1.852.173 2.123 1.195 2.286 2.542.35 3.752-1.324 3.52-3.8-.11-.894-.808-.037-1.319.006-.041-.3.445-.22.308-.54m-42.625-12.83c-.253-1.328-.611-2.528-2.3-1.719a1.96 1.96 0 0 0-1.332 1.436 7.9 7.9 0 0 0-.056 2.522c1.01 2.914 4.024-.153 3.685-2.24"/><path fill="#fff6de" d="m54.138 16.141.014-.127c-.724.361-.148-.171-.385-.271a.735.735 0 0 0-.615.905c-.94.016-1.094.142-1.061.813.3.056.249-.464.572-.377.524.591-.752.58-1.083.741.31 3.641 10.078.731 4.9-1.362.084.392.347.6.327.977-.249-.036-.6.129-.628-.266-.031-.482-.3-.582-.652-.78s-1.2-1.033-1.388-.254m-.711 1.275c-.054-.019-.141.009-.107-.079.053.019.139-.007.107.079m.529-.788.042.019-.043.021Zm.019.581c.134-.108.2.01.287.072-.1.018-.214.08-.287-.072m.3.1.016.107c-.055-.033-.031-.07-.016-.107M7.172 35.338c-3.13-3.635-4.949 2.538-1.318 3.6 1.828.559 3.529-2.761 1.318-3.6m-1.449-.8c.006-.059.052-.075.084-.037 0 .07-.032.082-.084.037m58.555 36.526c-.388-.011-.932-.159-1.04.584-1.253.378-.376 3.091.265 3.839 2.788 2.975 4.61-5.156.776-4.423M11.432 6.742c-.182 1.79 1.1 3.4 2.8 2.148 2.984-3.038-2.492-7.49-2.8-2.148m37.79 12.548c.476-.424 2.085-2.2 1.73-2.862h.009l-.018-.02c-.853-.618.245-.755-.867-1.553-2.041-1.4-6.123 7.69-.854 4.437m.882-2.512.043.031-.059.015Zm-.1.311c.182-.032.141.154 0 .174s-.091-.148 0-.174m-15.819 20.06c1.616-.677.618-1.127.5-2.331a.5.5 0 0 0-.2.075c-.673.931-1.175-.226-1.554.482-.067.161-.109.35-.315.382-.493-.1-.093-.814-.652-.922-.244.76-.248 1.623-.883 2.2-.186-.516.62-1.106.195-1.912-.063-.767.54-.714 1.1-.962-2.321-.273-3.892 2.483-1.552 3.764 1.381.656 3.366.9 4.489-.338-.494.021-.734-.392-1.128-.439m-3.092-.092v-.015l.043-.013Zm1.8.074c.444-.27.771-.06 1.088.2.829.916-1.158.624-1.088-.2M56.221 5.06c.264.848 3.169.312 3.971.276 1.543-.462 1.029-3.846-.535-3.7-1.228 0-3.357 1.142-2.656 2.666-.348.2-.876.195-.78.758m12.27 19.632c-2.919.126-.389 3.423.176 4.823 2.115 2.786 3.56-5.231-.176-4.823m-12.712-10.16c1.434 1.119 4.051.266 3.8-1.749-.074-3.9-6.466-.7-3.8 1.749M20.06 60.201c-1.252 2.687 2.922 3.165 4.487 1.989 1.367-.8.363-2.942-1.106-2.8a3.5 3.5 0 0 0-2.445.73c-.07.068-.217.053-.335.069.11-.458-.53-.367-.6.016m2.742 1.247.013.083a.09.09 0 0 1-.013-.083m-.007-.042v.012l-.039.014Zm-1.106 0c-.051.179-.17.154-.271.164a.29.29 0 0 1 .271-.164m-1.212-1.009c0 .277-.258.058 0 0"/><path fill="#fff6de" d="M55.48 7.634c-1.576 3.836 4.229 3.365 4.15.038-.014-2.077-3.494-1.557-4.15-.038M9.422 12.713c.073 2.664 5.634 1.237 3.619-.927-.711-.415-.605-1.278-1.267-1.731-1.389-1.183-3.21 1.262-2.351 2.658m38.628 2.506c.583-.244.99-3.312.171-2.949l.018-.019c-.284-.122-.553-.386-.853.016-.34.457-1.049-.229-.549-.591.093-.08.211-.142.174-.334a.63.63 0 0 0-.733 0c-.135.182.072.45-.174.64-.65-.091-.249-.84-.147-1.256-2.921.962-.491 6.508 2.092 4.489"/><path fill="#fff6de" d="M46.285 11.334q-.002.013-.017.017"/><path d="M46.285 11.334q-.002.013-.017.017.012-.004.017-.017"/><path fill="#fff6de" d="M64.873 29.014c2.02-.244 2.014-3.593.706-4.734-1.122-1.128-2.449.171-2.332 1.517.191 1.119.038 3.25 1.626 3.217M3.254 42.482c1.073.533 3.877 1.3 3.992-.524.007-1.459-1.547-2.238-2.819-2.219-1.629-.216-3.136 1.757-1.173 2.743M27.49 35.65c2.613.183 2.653-1.089 1.083-2.829-.833-1.694-3.031-.114-3.678.872-.09 1.508 1.3 2.136 2.6 1.957m26.881 30.757c1.667.686 4.546-.785 3.161-2.791-3.065-1.818-5.966 1.2-3.161 2.791m3.152-2.806.01.015.012.007a.04.04 0 0 0-.021-.021m-19.9-15.088.1.634.02-.017c-.23.41-.132 1.07-.728 1.129-.632.123-.709-.592-1.114-.874-1.181-.493-1.648-2.976-.2-3.243-.09.217-.367.569-.059.715.259.1.209-.166.307-.271.3-.323.152-.6.007-.9-.13-.272-.223-.549.2-.631.619-.112.22-.844-.264-.637-.332.039-.523.372-.848.425-1.2 1.4-1.306 3.744.468 4.687 1.453 1.9 2.908 2.668 5.144 1.122-.174-.144-.127-.388-.252-.615-.181.156-.246.567-.557.378-.313-.244.266-1.045-.157-1.48-.33-.126-.6.725-.705-.25.444.046.05-.635.482-.64.186-.219-.018-.584-.363-.39-.363.047-.545.467-.885.417-.164.252.3.329.047.559-.211.189-.4.05-.648-.119m-2.028-2.745c.216.061.1.228.114.35-.077-.1-.2-.187-.114-.35m3.219 4.138.049.025c-.017.051-.034.063-.079.027zm-.419.68a.82.82 0 0 0 .754-.3c-.129.737-.151.757-.951.846a.108.108 0 0 1-.167 0c-.261-.451.006-.526.364-.544M14.67 18.518a2.09 2.09 0 0 0 2.676-.85c-.368.006-.7.609-1.133.06.416-.548 1.436-.32 1.534-1.263a1.49 1.49 0 0 1-1.333-1.719c1.09-1.658-2.466-1.521-2.332.539.182 1.066-.417 2.494.584 3.238m1.2-3.715v.064l-.111.016-.008-.066.114-.014m-.078 1.917c.088-.042.128.072.043.1-.093.044-.122-.064-.043-.1m-6.924 3.012c-.3.3-.158.814-.605.741-1.416-.082-.371-2.379-1.76-2.285a.72.72 0 0 1-.618-.313c-1.017-.678-2.172.106-1.209 1.234 1.386 1.606 3.144 3.821 5.474 3.394.412-.08.83-.252.676-.939-.328.188-.326.8-.763.529-.321-.2-.87-.177-.752-.91.069-.431-.268-.929-.441-1.453M5.37 18.21c-.019-.091.058-.05.114-.059.019.091-.058.05-.114.059m48.818-6.627.02.216c-.015-.408-.205-.584-.609-.708-1.22-.626-.7.72-1.524 1.106-.332-.749-.4-.777-1.034-.355.524.039.535.408.585.753h.06c-.178.008-.273.084-.28.258-.461-.1-.487.493-.9.628.02-.326-.268-.528-.189-.814.156-.569-.158-.777-.614-.917-.02-.2.183-.34.148-.539-3.272 4.079 7.289 4.754 4.332.377m-.819.5c.135.522-.476.571-.758.322.068-.572.52-.16.758-.322m-1.288.131a1.1 1.1 0 0 0 .338.363c-.061.168.2.27.2.506-.64.031-.668-.013-.537-.868m-.666.658c.8.52-.471 1.048 0 0M6.224 13.995c-1.815-.386-3.7 2.226-1.3 3.013 2.849 1.019 5.646-3.086 1.3-3.013m9.938 44.44c.173 1.594.285 2.291 1.968 2.4 3.776-.539 1-5.361-1.677-3.37-.172.014-.328.626-.291.972m63.531-22.64a4.02 4.02 0 0 0-1.576 2.951c.275 2.851 3.819-.231 3.458-1.9a1.145 1.145 0 0 0-1.882-1.053M55.411 74.043v.023l.015-.009Z"/><path fill="#fff6de" d="M55.894 75.562c-.586-.4-.4-.979-.481-1.5-1.878 1.176-2.244-.406-2.729.492-.372 1.028-1.35.564-1.713-.189-1.424 2.653 5.126 4.05 4.923 1.193m-.952.007c.055.014.068.033.036.086-.056-.014-.069-.033-.036-.086m-1.414-.262c-.352-.131-.323-.367-.328-.581zm-2.1-.282-.287.06c.1-.146.2-.081.287-.06M22.883 2.863c-.225-1.015-.857-3.464-2.388-2.636-3 1.436 1.955 6.532 2.388 2.635m43.645 58.382c-.471-.281-.292.329-.513.379-1.078-.577.848-1.408-.962-1.758l.044.011c-.6.393-1.3-.074-1.937.22-1.073 5.621 5.745 2.874 3.367 1.148M18.381 1.129A1.39 1.39 0 0 0 18.858 0h-3.286c.054.323.142.649.216.952.248 1.394 1.878.827 2.593.177m-1.253-.16c.121-.009.141.288.009.306-.164.022-.2-.275-.009-.306m7.182 17.325c.405.56-.154 1.656.427 1.77.165-.137.041-.4.234-.559a1.23 1.23 0 0 0 1.061.2c.185-.238-.128-.557.058-.661.453-.254-.037-.384-.028-.568-.014-.422.449-.231.7-.208.854-1.537.73-.092 1.5-1.524-.387-.158-.642.137-.929.1-.447-1.284-2.134-1.2-2.913-.017.08.167.369-.027.4.236-.73.337-.764.437-.509 1.237M9.902 29.915c1.062-.722.739-1.592.314-2.486-.212-.054-.536.1-.676-.246-.281-.242-.807-.118-.909-.626a.8.8 0 0 1-.291-.3c-.282.153-.453-.032-.623-.22l.024.054a1.07 1.07 0 0 0-.942-.526 4.106 4.106 0 0 0 3.1 4.351m.13-2.177c.026.04.024.09-.027.1-.1-.006-.053-.12.027-.1"/><path fill="#fff6de" d="M9.555 27.195c-.007-.007-.017-.011-.02-.02"/><path d="M9.555 27.195c-.007-.007-.017-.011-.02-.02.003.01.013.014.02.02"/><path fill="#fff6de" d="M70.618 79.888c.549-.056.884-.266.928-.854l-.01.01c-.017-2.265-2.321-.044-3.384-1.3-.385 1.079-.836-.421-1.274.352-.064.123-.062.32-.3.282a2.7 2.7 0 0 1-.642-1.511c-.556 2.6 2.731 3.57 4.682 3.016m.914-.841c-.385.415-.555-.181 0 0m-.787-.579c.21.308-.393.362-.43.036a.263.263 0 0 1 .43-.036M5.518 1.884c-.427.142-1.2.569-1.215-.195-1.182.235-.66-.832-.851-1.542a1.25 1.25 0 0 0 .273 1.836c.834.5 1.426 1.631 2.507 1.461.953-.1 2.928-.491 2.163-1.866A.88.88 0 0 1 8.35.706c-.574.044-.778-.377-1.073-.7-.279.453-.514.939-1.1.743-.148.194.182.3.017.428-.18.116-.36-.1-.521.072.168.268.247.516-.155.639m1.11.409c.174.007.021.128-.07.112-.172-.013-.022-.124.07-.112m-1.1.5c-.167-.269-.029-.3.116-.324zm.445-.561-.306.2c-.055-.225.141-.448.306-.2m78.066 61.173c.048.99-.919.377-1.315 1.1.032.163.473.213.161.51-.207.2-.492.025-.716.236.39 1.1-.515 1.3.954 1.967a1.45 1.45 0 0 0 .789 2.057c.135-.378-.169-.812.116-1.16.342-1.663.888-3.016.01-4.708m-.115 5.87h-.009q.002.012-.007.022ZM.551 49.619l-.034 2.557a2 2 0 0 0 .353-.109c.583-.214.9-1.035.44-1.418-.508-.425-.192-.527.1-.708-.559-.041-.783-.167-.863-.321m.224 1.515c.041-.11-.071-.259.118-.354.726.61-.587 1.348-.118.354M3.683 23.29c-.671 2.38 2.035 3.1 1.938 1.855a2.7 2.7 0 0 1 .045-1.351c.127-.476-.4-.853-.126-1.361a.465.465 0 0 0-.314-.669c-.713-.18-.977.993-1.149 1.532-.03.424-.2.076-.393-.006m.095.8.028-.056.054.026c-.016.056-.034.067-.082.03m.946 1.309c-.035.039-.059.039-.093 0 .035-.04.059-.039.093 0m-.822-.782c.009-.157.19-.136.2.01-.035.147-.2.142-.2-.01M59.833.633l-.03-.043.026.045h-.006l.015.012ZM53.877.115a4.925 4.925 0 0 0 5.944.523c-.675-.568-3.115.417-4.245-.639h-1.8l.1.115M37.164 21.461a18 18 0 0 1-1.775 1.126c-.1-.257-.184-.512 0-.738.265-.059.345.272.674.161-.144-.62.725-.458.833-1-.586.187-1.2.109-1.7.551-.159.192-.459-.318-.371-.479.21-.229.293.2.476.014a.63.63 0 0 0-.109-.5c-.863.187-.977.3-1.049 1.07-.218 1.839 2.5 2.015 3.248.585-.226-.047-.362-.256-.566-.341.178-.111.363-.224.334-.447m-1.9 1.175c.014-.071.063-.043.1-.041zm1.628-.465c-.115.066-.189.245-.368.137-.024-.182.12-.285.276-.383a1.5 1.5 0 0 1 .091.246m.51.074q.013.002.025.007l.043-.049-.062.032-.006.011m40.217 2.784c.7.624 2.159.961 2.039-.4-.052-1.049.4-2.287-.8-2.915.111.715-.493 1.2-.491 1.84s-.525.988-.748 1.471M41.155 53.212c-.149-.325-.415-.206-.671-.316.737 2.691 3.6 2.574 4.7.481a.252.252 0 0 0-.172-.355 2.5 2.5 0 0 0-.592.846c-.616-.068-.461-.6-.743-1.044-.185.532-.211 1.02-.619 1.253-.5-.564-.5-.556-1.356-.688-.186-.029-.444.042-.543-.176m1 .543.066.1c-.078.151-.208-.031-.066-.1M2.523 39.578c.235-.105.564-.218.367-.593s-.447-.209-.672-.009a1.26 1.26 0 0 1-1.531-.11v.431a2.06 2.06 0 0 0 1.84.282"/><path fill="#fff6de" d="M78.722 27.009c.92.072.677-1.652-.13-1.13-.241.1-.3-.114-.43-.194-.365-.226-.626.062-.777.259-.207.271.392 1.257.806 1.425v.02a1 1 0 0 0 .534-.38m-.785-1.067c.012-.011.04 0 .061-.006.089.129-.18.12-.061.006M60.479 7.719h.036c-.12.375.18 1.232.5 1.176.256-.408 1.591-.1 1-.766-.968-.363-.838-.011-.814-1.134-.57-.828-.72.21-.721.721m.287-.01c.011-.148.139-.088.146.028-.029.1-.095.006-.146-.028M1.512 32.814c-.186.2-.022.479-.188.657l-.022-.009-.162.167.009.023c-.321-.2.024-.516-.107-.75a2 2 0 0 0-.285.1c0 .319-.007.639-.011.957a1.5 1.5 0 0 1 .558.109l-.016.022h.024c.031.116.113.1.141 0h.022l-.016-.024c.183.118.159.652.574.3-.538-.476.134-1.31-.52-1.56m-.356.832.168-.174c.242.107 0 .354-.168.174m30.559-16.696c-.506.391.039.633-.073.945-.407.067-.571-.455-1-.535.279.773 1.279 1.372 1.875.724.267-.263-.448-1.435-.8-1.134M76.235 3.201h.029l.019-.022q-.018-.001-.038.005l-.011.02m-.245.005.038.033c-.26-.263-1.226.643-1.949.526.573.754 1.668.409 2.157-.568l-.22.024ZM52.253 69.521c-.378.167-.828 1.312-.15 1.394.723-.085 1.074-1.427.15-1.394M40.68 32.01l.008-.013h-.007Z"/><path fill="#fff6de" d="M40.552 30.943c-.036.364.4.669.136 1.054l.393.063-.021.019.011.005v-.011c1.316-.409.506-1.508-.524-1.13M66.52 16.469a10.7 10.7 0 0 0 3.828.1 16.2 16.2 0 0 0-3.828-.1m17.701 5.438c-.015.545.938.647.845-.008a.423.423 0 1 0-.845.008M62.852 50.25a1.52 1.52 0 0 0-1.257-.024l.145.3c.781.493.919.459 1.111-.274M78.246.568c-.072.022-.2.04-.2.064.083 1.005-1.143 1.327-1.08 2.159.429-.749 1.409-1.133 1.278-2.224M10.04 25.505c.151-.1.314-.177.458-.282a.76.76 0 0 0 .152.618c1.09-.373-.325-1.666-.611-.335m31.884 25.655c-.2.7.837 1.11.883.255-.288-.121-.667.151-.883-.255m1.93.594-.793-.357c.292.42-.017.665.018.951a.66.66 0 0 0 .775-.593M1.345 38.805c.356.256.576.232.7-.12.05-.139.118-.33-.087-.369-.339-.066-.413.264-.617.489m83.503 29.038a1.72 1.72 0 0 0-.024-1.333 1.3 1.3 0 0 0 .024 1.333M39.966 43.609a1.17 1.17 0 0 0-1.152.232 1.96 1.96 0 0 0 1.152-.232m-3.392-22.987c.256-.122.4-.379.685-.34h-.021c.093-.913-.681-.2-.663.341M2.058 34.382l-.024-.009.021.021c.008.007 0-.009.006-.014"/><path fill="#fff6de" d="M2.471 34.414a1.26 1.26 0 0 0-.379-.931c-.163.336.126.632-.036.9.123.046.238.154.415.032m43.025 5.664a1.74 1.74 0 0 0-1.192.447c.379-.051.8.045 1.192-.447M86.64 80.661c.078.1-.549.679.272.612.493-.5-.279-.479-.272-.612"/><path fill="#fff6de" d="M86.919 81.282v-.011h-.006l-.017.018.024-.008M10.032 25.54c0-.013.006-.024.008-.036-.009.006-.02.009-.026.019l.017.017m-.755.173a.5.5 0 0 0 .736-.19c-.348-.377-.558-.25-.736.19m46.906 48.708c-.208-.53-.6.066-.433.477.234-.14.511-.151.433-.477m7.974-67.003c.186-.5.186-.5-.2-.654a.57.57 0 0 0 .2.654M4.327 1.663h-.024v.026h.023v-.023m.424-.019h-.014v.018Z"/><path fill="#fff6de" d="M4.438 1.157c-.388.052-.123.321-.111.506l.409-.015c.061-.265.074-.541-.3-.491M37.59 43.278l-.905-.417c.547.454.547.454.905.417m40.675 16.523c.249.144.407.523.884.418-.259-.311-.49-.5-.884-.418M7.571 24.58c-.321.543-.321.543.127.765zm38.385-13.849.021-.008.02-.019h-.034l-.006.025m1.036-.226c-.345 0-.716-.115-.994.2.339-.029.7.072.994-.2M5.166 1.076c.291-.085.309-.342.363-.576-.471.185-.472.192-.363.576M5.55.491q.002-.018-.007-.035A.2.2 0 0 0 5.53.5zm70.982 60.438c.18.263.379.228.726.076-.313-.162-.49-.309-.726-.076M66.71 75.881c-.415-.118-.532.17-.671.423l.023.041-.006-.058a.514.514 0 0 0 .655-.406M37.962 21.454a5 5 0 0 1-.5.751c.464-.237.467-.259.5-.751m.233 25.49c.214-.236.31-.4.021-.631a.67.67 0 0 0-.021.631m13.65 26.341c-.033-.235.137-.4.144-.623-.238.276-.238.276-.144.623M49.85 11.172l.006.036.035-.052zm.041-.017a3.2 3.2 0 0 0 .809-.473c-.526-.167-.64.2-.809.473m-8.272 39.123-.033.026.012.018a.2.2 0 0 0 .021-.044m.382-.608c-.54-.014-.3.386-.382.608a.85.85 0 0 0 .382-.608m5.484-14.182c-.253.137-.4.259-.335.607.207-.164.374-.272.335-.607M67.91 6.157c-.34-.362-.862-.049-1.221-.339l.022-.035-.042.02.017.018a1.83 1.83 0 0 0-.888 1.036c.16.194.228-.217.372-.011-.079.35-.408.42-.633.606-.942 1.061-.8 2.98.775 3.242 1.039.153 2.74.326 3.235-.836.2-.555.934-1.232.03-1.849.148-.743-.53-1.012-.792-1.515-.248-.476-.543-.369-.879-.357v-.011l-.014.012Z"/><path fill="#fff6de" d="M68.11 5.421c-.073.233-.244.445-.2.707.239-.19.427-.393.2-.707m7.826 55.103a.181.181 0 1 0 .346.076.177.177 0 1 0-.346-.076M40.901 51.7c.147-.152.334-.285.262-.611-.175.2-.324.355-.262.611M64.017 8.843a1.14 1.14 0 0 0-.628.293c.226.089.789-.074.628-.293m-3.003 64.605.56-.415c-.478-.155-.657-.025-.56.415"/><path fill="#fff6de" d="m61.014 73.447-.013.01.016.019v-.028M36.051 41.684c.3.086.477-.041.791-.134a.606.606 0 0 0-.791.134m8.331 10.637c.1-.189-.211-.3-.315-.167-.159.189.216.361.315.167M1.327 49.567c-.038-.267-.19-.337-.5-.314.135.262.258.383.5.314m38.594-18.142c.192.134.178.382.493.372-.044-.258-.076-.461-.493-.372m22.684 18.29c.237.275.389.067.682-.18-.34.039-.547-.083-.682.18M77.568.424c-.263-.126-.393-.072-.466.15.19.126.318.051.466-.15M35.185 40.329a.8.8 0 0 0-.07-.739.7.7 0 0 0 .07.739m3.828 6.905a.13.13 0 0 0 .132-.1c.025-.442-.492.058-.132.1M52.75 70.942c.24.229.609.391.646.058-.17-.143-.36-.06-.646-.058M41.746 52.809c-.072.23.261.257.293.043.037-.192-.253-.2-.293-.043M29.831 14.84c.056.145-.037.314.231.339a.3.3 0 0 0-.231-.339m5.512 5.376c.223-.074.352-.165.365-.563-.228.222-.372.315-.365.563m50.253 60.152c.2.644.627-.27 0 0m-.015.004.02-.008v-.01ZM62.008 9.088c-.054-.214-.206-.153-.349-.136.087.132.182.22.349.136M26.8 18.291c-.011-.01-.019-.025-.035-.025l-.01.018zm.345.248a.37.37 0 0 0-.345-.248c.093.1.112.294.345.248M76.957 2.805h.012v-.016l-.007.011h-.005"/><path fill="#fff6de" d="M76.283 3.176c.272-.03.439-.267.674-.371-.352-.119-.492.166-.674.371M36.079 20.648c-.15-.005-.191.182-.028.175.1-.024.118-.1.028-.175m43.429.778c-.084.013-.1.124 0 .131a.066.066 0 1 0 0-.131M53.23 72.144a.8.8 0 0 1-.058.183l.006.036.014-.019.051-.2z"/><path fill="#fff6de" d="M53.23 72.145c-.093-.647-.54.013 0 0m1.424.814-.4.311c.314-.039.4-.106.4-.311m31.552-47.887c0-.025.007-.05.01-.075a.4.4 0 0 0-.038.1zm-.25.534c.229-.137.187-.34.224-.509-.137.127-.3.246-.224.509m-63.324-7.218c.152-.069 0-.306-.079-.328-.178.033-.082.354.079.328m10.051-2.97c0 .008.007.017.012.025s0 0 0 .006l.013-.021-.027-.01m-.286-.519a.414.414 0 0 0 .289.518c-.084-.166-.051-.407-.289-.518m9.829 37.359c.041.05.171-.007.226-.1-.073-.076-.357-.07-.226.1m1.251.421-.1-.078c-.17.138.02.284.1.078m-2.681-3.863a.114.114 0 1 0 .228 0c-.033-.15-.217-.168-.228 0m.277-16.732c-.239.529.562.232 0 0M29.017 68.862l-.007-.011-.012.005-.009.013.027-.007m.001 0c.329.586.639-.2 0 0m10.585-36.399c-.068-.7-.628-.038 0 0m-.797-1.713.042-.108-.1-.072c-.061.094-.037.137.058.18M23.581 16.91l.083-.049c.056-.142-.109-.055-.083.049m31.877 56.463c.154.067.154-.249.021-.26-.141.019-.109.2-.021.26m-.461.418a.135.135 0 1 0-.264-.055c-.034.162.239.206.264.055M5.542.456c.05-.14.2-.242.152-.456h-.037a.4.4 0 0 0-.115.456M65.07.682l.126-.014c.079-.151-.156-.141-.126.014M34.685 34.803v.017a.03.03 0 0 0 .021-.012zm.154-.167-.114.025.117-.017Zm.335.279c-.05-.179-.283-.106-.33-.267l-.138.16c.152.034.284.173.468.106m31.182 25.707c-.053-.128-.248-.161-.207.014.052.094.151.075.207-.014M37.852 19.816l.06.026.031-.062c-.053-.038-.073-.024-.091.036m-5.904-6.415h.041a.2.2 0 0 0-.028-.132c0 .044-.009.088-.013.132M2.902 38.268l.128-.027c.126-.151-.139-.137-.128.027m38.155-7.761c-.135.043-.13.217.02.222a.113.113 0 1 0-.02-.222m13.256 39.801c-.036-.019-.073-.054-.108-.053-.181.021.125.233.108.053m.915.453-.053.122.118.05.053-.119zm-3.815.352a.11.11 0 1 0-.211 0c.027.146.2.158.211 0M40.336 46.33c.1-.058.088-.12.044-.214-.107.054-.088.114-.044.214m16.053 25.889c-.007-.056-.06-.058-.1-.03-.022.087.1.139.1.03m18.113-29.673v-.021h-.017v.019h.017m0 .002c-.071.486.5.054 0 0M50.441 73.679c.01-.094-.094-.1-.128-.028l.086.08zm1.857-.003c.141-.014.129-.186-.007-.2a.1.1 0 1 0 .007.2M27.873 10.895l.286-.225c-.289-.174-.336-.036-.286.225m26.419 62.942c-.013-.037-.06-.061-.091-.09-.17.035.119.256.091.09m-12.045-30.41a.2.2 0 0 0-.051.016l.006-.012-.021.019h.01v-.009l.052-.018m.35-.113-.346.12c.1-.012.216.049.346-.12m-4.148.33c-.071-.068-.158-.038-.186.063.066.08.282.088.186-.063M62.541 6.938l-.075.1.095.072c.057-.061.008-.115-.02-.177M8.545 25.484c-.006-.051-.055-.052-.092-.026-.022.08.087.125.092.026M59.801.167c.03-.04 0-.075-.045-.082-.066.041-.026.151.045.082m-22.434 19.27-.123-.051c-.129.157.1.245.123.051m26.559 30.449a.32.32 0 0 0-.209-.26c-.009.143.005.268.209.26m-22.34.418a.4.4 0 0 0 .01.063.1.1 0 0 0-.01-.063m-.085.375c.173-.079.12-.2.1-.311-.02.1-.206.166-.1.311m35.631 9.03c-.03-.077-.1-.024-.16-.02.034.07.1.025.16.02M15.249 35.056c.051-.009.076-.048.038-.088-.076-.062-.115.055-.038.088m62.052-4.562c-.064-.116-.106-.073-.181 0 .066.11.109.076.181 0m-36.962 2.778c.166.032.308.1.353-.133-.109.033-.265-.108-.353.133m-9.498-13.485v-.289c-.212.1-.144.193 0 .289M76.352 2.479c.013-.115-.119-.058-.062.024zM27.577 5.59q.01-.099-.085-.035c-.005.06.041.054.085.035m35.2 3.521c.05-.078-.06-.161-.087-.059-.007.056.036.08.087.059M35.696 32.316l.071-.087c-.041-.178-.192-.014-.071.087m1.31.539-.079-.074c-.082.087.033.2.079.074m2.376.274c.084-.052-.01-.1-.044-.155-.079.062-.089.218.044.155m3.156 19.847.15-.068c-.052-.005-.107-.019-.15.068m.181-.067.009-.019-.017-.041.006.046-.029.013zm-9.02-18.604c-.019-.006-.04-.02-.057-.017-.155.02.078.144.057.017m16.756 3.402-.043-.031-.016.047Zm4.038 33.161.039-.008-.032-.033ZM42.918 42.465l-.107.026-.02.02zm29.695.173h-.006"/><path d="M72.613 42.638"/><path fill="#fff6de" d="M41.838 43.139c-.091.067-.218.09-.259.218a.42.42 0 0 0 .259-.218m-.264.232q-.001-.007.005-.014a.1.1 0 0 1-.035.01h.03m-.371.054.341-.054a.34.34 0 0 0-.341.054M25.946 9.718c-.019.046.018.062.061.051q.03-.084-.061-.051M55.599 72.63l-.113.005c.039.015.078.026.113-.005m-.114.005a.4.4 0 0 0-.06-.02v.023h.057m-1.702.086c-.017.015-.048.03-.048.045-.006.165.216-.032.048-.045M39.543 46.19l.023.057c.1.009.048-.114-.023-.057M8.352 26.235c.267.023.088-.288 0 0m-.001-.001h-.026c0 .008.01.016.014.024h.006q-.002-.01.006-.019m42.034 47.952c-.012.28.33.122 0 0m25.744-14.358c-.015-.1-.084-.029-.144-.02.016.092.085.028.144.02M30.941 17.008c.012-.1-.062-.051-.122-.056 0 .092.062.056.122.056m4.874 31.814c.07.015.141.039.2-.046-.092-.077-.142-.009-.2.046m-.012.013.012-.012-.033-.006Zm23.903 30.25c-.066.015-.05.04-.026.087.063-.012.042-.042.026-.087m26.503 1.044a.046.046 0 0 0 .084 0q-.044-.07-.084 0M64.976 64.602c-.011.048.021.086.063.072.084-.055 0-.123-.063-.072M37.998 20.457l-.025-.054c-.042.029-.046.054-.014.094zm43.336 35.989.052.025v-.05ZM32.698 15.449c-.1.144.076.221 0 0M20.718 59.12l.031-.019q.046.002.091-.007h-.109l-.013.022m-.185.165a.28.28 0 0 0 .185-.161c-.07.043-.153.073-.185.161m11.725-45.184-.021-.006a.1.1 0 0 0-.039.006h.039c0 .021-.007.077.018 0m9.582 6.201c.026-.174-.036-.11 0 0m33.566 40.138.012-.019-.014-.041v.048l-.035.019.035-.007m.579.834c.171.047.126-.152 0 0m-9.373 3.508-.112.008a.4.4 0 0 0 .112-.008M42.062 43.065l-.163.032c.058.027.122.1.163-.032m-.163.032a.1.1 0 0 0-.033-.009q-.013.027-.028.051a.3.3 0 0 0 .043-.039h.018m3.06.316v-.045l-.054.023ZM7.912 66.693v-.029h-.019v.013l.023.013m.101.063-.1-.057v.114l.105-.057m33.65-22.899-.043-.048-.1.047c.034.089.087.023.146 0M4.963.15l.025-.039-.04-.008Zm23.282 69.536-.069-.077-.087.071c.041.078.1.027.157.006M6.796 25.564c0-.039.017-.077.025-.115a1 1 0 0 0-.027.115m26.961-7.496-.133-.016.009.01h.008l.116.01m48.339 4.467-.029-.056-.025.058ZM50.386 74.168h-.048c.015.017.03.013.047.021v-.023m-.143.007h.1c-.03-.028-.057-.077-.1 0M1.711 49.702l-.054.042a.08.08 0 0 0 .054-.042m15.658-32.059c.169-.106-.046-.186 0 0m0 0-.013.01-.009.016h.028v-.024M20.28 5.008l.058-.021-.015-.056c-.052.008-.069.023-.043.077m56.881 19.81.047-.015-.039-.029Zm-37.559 7.707v.085zm0-.063v.062zm1.793.307-.053.014.043.032Zm-.706.37c.01 0 .023 0 .029-.014l-.022-.016q.002.017-.007.03m.035-.014c.265.191.219-.289 0 0m16.7.713q-.002-.06.006-.119c-.083-.034-.021 0-.007.015v.1m-15.232 9.622c-.031.079.093.03 0 0m33.361 2.061-.008-.051zM36.047 5.965a.04.04 0 0 1-.019.019c.047.069.088 0 .019-.019m-.019.019c-.038-.035-.025.008 0 0m-6.225 39.915-.036.032q.055.053.025-.017l.041-.009ZM76.272 8.111l-.031-.026q-.022.032.027.026M64.74 47.294l-.013-.033-.012.013a.1.1 0 0 1 .02.025v-.005m.001.005c-.053.048.018.04 0 0m-.022-.027-.016.02v.008a.1.1 0 0 1 .017-.026m-36.445.338c.061-.009.028-.084-.017-.029v-.005l-.02.022h.011l-.009.011c.012.008.04.016.033 0m-.103-36.892.016-.034-.009-.02-.011.009.01.005Zm.072 36.896c-.051-.026-.024.022 0 0m34.894 1.183-.015-.019-.028.02h.027v.037Zm.379.663-.044-.023.02.042c.077.048.152.1.231.147v-.024zm-61.879.303.027-.021a.2.2 0 0 1-.043 0 2 2 0 0 1-.2.193h.037l.179-.179M29.05 19.6c-.058.043.03.108-.008.02l.037-.013Zm8.187.681a.1.1 0 0 0 .053-.012Zm-9.842.574a.1.1 0 0 0-.058.005v.026c0-.009.011-.018.015-.028Zm12.126.566-.011.019.015.042v-.044h.026ZM9.068 24.952l-.014.019.024.041-.007-.041h.028Zm-.41 1.6-.031-.011v.015l.012.008ZM21.03 59.084l.054.131-.041-.132h-.015a1.3 1.3 0 0 0-.19.009l.19-.008m-.548.228h.041l.012-.028-.03.007Zm17.703.401h.028l.013.041v-.04l-.016-.017Zm30.997 5.606a.1.1 0 0 0 .05-.017Zm-14.979 3.685.036-.016a.06.06 0 0 0-.036.016m-1.452 3.361-.017-.023-.015.013Zm2.677.25.006.05zM15 36.147l-.031-.038.023.054ZM78.346.141l.02-.011-.078-.13h-.022zm-1.028 1.011-.1.22.021.006.094-.208Zm-.082.226-.045-.011Zm-4.724 41.254-.013.019.015.041v-.042l.093-.011-.094-.006m4.358-40.538v.04l.02-.022Zm-4.943 41.36v.014a1 1 0 0 0 .168.006v-.017h-.17m-48.858 30.74.02-.008a2.1 2.1 0 0 1 .271.646c.328-.118.649-.082.879-.31.117-.116.408-.117.358-.324-.2-.838.5-1.814-.391-2.551-.382-.285.2-1-.3-1.156-.212.488.094.994-.208 1.452-.776.787-.2 2.1-.645 2.247h.026m1.161 1.522a.494.494 0 0 0 .768.034c-.48-.243-.48-.243-.768-.034m-7.296-6.377v-.045l-.038.027Zm43.892-19.425.023.017h.013v-.011Zm1.259-9.841a.3.3 0 0 0-.059-.005Zm24.961-13.567c.159-.06.053-.214.107-.309-.068.089-.155.171-.107.309m3.177 55.09h-4.349a9 9 0 0 0-.2 1.949c-.72-1.227-1.137-1.835-2.515-1.153-1.048.533-2.733.889-2.653 2.409a2.645 2.645 0 0 0 5.259.138 2.77 2.77 0 0 0 1.785 1.649c1.2.742 1.493-.035 2.322-.875 2.772-2.818.524-2.462.35-4.117m-78.88 0h-1.05c-.713.482-1.663.383-2.325 1.124-.175-.438-.023-.823-.224-1.124H3.103c-2.7 2.491 1.778 4.776 4.129 1.722.923 4.735 8.2 1.24 4.119-1.722m49.792 0h-3.449c.073.275.424.365.438.676-2.32.1-1.738 2.347-1.53 4.054.369 2 3.76 2.175 3.776-.041a3.28 3.28 0 0 0-1.369-3.4c-.088-.054-.131-.152-.047-.323a2.26 2.26 0 0 0 2.18-.966M78.89 84.82c1.823-.493 1.52-1.767 1.144-3.224h-5.849c-.524 3.276 2.157 3.85 4.7 3.224"/><path fill="#fff6de" d="M.061 81.588 0 85.229l1.741.108A2.678 2.678 0 0 0 .1 81.596l-.043-.008m34.504 5.156c1.851.382 2.426-3.821 1.834-5.146-3.066-1.03-5.223 4.458-1.834 5.146m21.033-2.707c-.2-.282-.515.109-.69-.22-.133-.25-.387-.275-.657-.226-.341-.1.15-1.039-.658-.436-.983.956-1.7-.624-.762-1.113-.875-.418-1.379.428-2.056.566-.162-.471.158-.712.32-1.013h-4.049c.476 1.7 1.344 1.966 3.231.992.156.788-.547 1.559.651 1.732 1.262.078 3.918 1.033 4.67-.283m-3.89-.948a.168.168 0 0 1 .335.011c-.009.212-.346.183-.335-.011M14.92 85.869c2.688.432 1.475-3.056.481-4.273h-2.25c-.238.626.162 1.184.186 1.784-.039 1.241.742 1.857 1.607 2.514Zm58.666-4.273h-6.743c.848 3.22 5.546 2.768 6.748 0"/><path fill="#fff6de" d="M42.843 81.596h-5.249c-2.18 3.894 4.738 2.5 5.249 0m49.188 6.762v-.922a3.02 3.02 0 0 0-2.631.382 1.26 1.26 0 0 0-.138.922c.923 0 1.846.007 2.769.01v-.084a.22.22 0 0 1 0-.307m-58.635-6.763h-5.1c1.076 2.759 3.767 1.77 5.1 0m22.794 0h-3c.277.147.337.456.491.7.775-.538 1.944.259 2.509-.7m27.593 0h-3.449a3.05 3.05 0 0 0 3.449 0m-17.845 0h-3.3c.97.4 2.482.7 3.3 0m26.094 2.767v-1.691a1.26 1.26 0 0 0 0 1.691m-.3-2.768.3.154c.023-.3-.206-.09-.3-.154m-27.45 1.123c-1.424-.348-5.1-1.234-3.729 1.49.674 1.227.442 2.667 1.279 3.829a3 3 0 0 1-.524.1l1.216.035-.1-.036c4.362-.131 8.949-4.723 1.858-5.414m-.409 3.04c-.035.024-.08.021-.085-.026 0-.092.1-.047.085.026"/><path fill="#fff6de" d="M75.332 85.972c-.036-.8-.3-1.078-1.121-1.282-1.555-.167-5.07-1.126-5.654.988-.1 1.689 2.808 1.843 3.947 2.211a2.9 2.9 0 0 0-1.012.525l2.445.056a3.1 3.1 0 0 0-.8-.5c1.195-.248 2.312-.45 2.2-2m1.056.724a3.48 3.48 0 0 0-1.715 1.791q4.307.1 8.616.169c-.222-.28-.7-.251-.915-.559-.7-.868-1.362.129-1.978-.169 1.045-3.588-2.229-2.8-4.008-1.233m-9.59 1.258a2.6 2.6 0 0 0-.633.325q1.734.047 3.468.089a2.56 2.56 0 0 0-1.016-1.111l.021.017c-.918-.6-1.279.043-1.841.68m-45.947-5.799c-.966.05-2.219-.369-2.773 1.008-1.084.63-.573 1.838-.52 2.854q-.002.133.006.251 2.14.117 4.28.23c.872-1.586.881-3.906-.994-4.343m1.372 4.362q1.662.087 3.324.169c-1.274-1.224-2.7-1.287-3.324-.169m32.1-.853c-.77-1.661-1.748.028-2.108 2.173q1.9.068 3.8.133c-.191-1.653-.756-2.977-1.7-2.306m-46.712-.183c-.356-.306-.661-.831-1.277-.568-.538.229-1.114.388-1.656.609q1.514.092 3.027.181a.5.5 0 0 0-.094-.222m78.521 1.459a1.724 1.724 0 0 0-2.133 1.729q2.317.038 4.634.068a4.9 4.9 0 0 0-2.5-1.8m-49.764.264q2.532.113 5.063.219a2.3 2.3 0 0 0-.134-.465c-.947-.29-.95-1.72-2.039-1.814v-.016h-.177l.006.018c-1.354-.624-1.429.79-2.206.987-.072 0-.116.116-.085.185.19.472-.136.668-.433.884m2.888-2.06c-.052.127-.106.1-.16 0zm8.971-1.536c-3.21.326-2.053 2.907-.169 4.082q1.688.064 3.377.126a1.56 1.56 0 0 0 .2-1.963 4.79 4.79 0 0 0-3.412-2.244m-35.943 2.366 3.01.17a1 1 0 0 1-.334-.241c-.448 0-.77-.33-1.163-.476a1.2 1.2 0 0 0-1.513.547"/><path fill="#fff6de" d="M26.21 81.917a11.6 11.6 0 0 0-2.577.646c-1.7.677-.245 2.662 1 2.847 4.283 1.126 6.531-1.757 1.579-3.492m-1.023 1.6c-.175-.244.145-.468.017-.7.227.373.227.373-.017.7m1.374.649c.314.083.68-.188.867.264.118.635-1.017.422-.867-.264m16.21 1.949a4.17 4.17 0 0 0 3.925-3.054c.248-4.029-9.329 2.224-3.925 3.054m-14.183.138c-.086.131-.242.331-.405.562l.865.041.039-.014c-.179-.166-.194-.473-.5-.589"/><path fill="#fff6de" d="m29.152 86.862 1.918.092a1.35 1.35 0 0 1 .572-.811c-.024-.2-.117-.432.032-.577.45-.441.166-.957.02-1.322-.15-.454-1.586-.13-1.683.3.276 1.134 1.191-.514.788 2.395-.294-.916-1-.26-1.647-.078m14.755-.155a.24.24 0 0 0 .042.212c.311.319.467-.247.758-.082.2.625-.538.581-1.03.673l1.453.059a.13.13 0 0 1 .127.005l1.049.04c-.1-.936-1.791-1.585-2.4-.908m-1.212.764.252.01a1.3 1.3 0 0 1-.118-.307q-.075.15-.134.3m11.193-5.142c.266.862 1.271.742 1.678 1.41-.318-1.355-.7-1.636-1.882-1.445h-.006c.069.007.2 0 .212.035m-21.655 4.114-.091.287c.125-.079.163-.167.091-.287m58.797-.219c.456.138.161-.357 0 0m0-.001a5 5 0 0 0-.507.083c-.062.039.031.1-.015.018l.518-.093v-.008"/><path fill="#fff6de" d="m31.645 86.134-.008.006a1 1 0 0 1-.006.124l.014-.131"/></g></g></g><g clip-path="url(#c)" transform="translate(1341.103 2241)"><path fill="#4e8e69" d="M34.83 149.399h-1.026v-15.22a37.76 37.76 0 0 1 7.994-23.8l2.466-3.042.726.895-2.466 3.042a36.34 36.34 0 0 0-7.694 22.91Z"/><path fill="#adecd1" d="M81.774 85.014h-5.605a2.675 2.675 0 0 1 0-5.235h6.678a49.7 49.7 0 0 0-.783-18.322 26.96 26.96 0 0 0-26.962 5.158v12.323a2.04 2.04 0 1 1-3.991 0v-8.267c-8.551 10.285-11.19 25.26-8.024 38.869 10.912 3.862 22.908.721 31.237-9.552a40 40 0 0 0 7.456-14.972"/><path fill="#4e8e69" d="M75.758 88.964a.63.63 0 0 0-.554-.683H61.098l15.424-19.024a.8.8 0 0 0 0-.966.483.483 0 0 0-.783 0l-6.936 8.555V69.19a.566.566 0 1 0-1.107 0v9.022l-18.748 23.124v-18.5a.566.566 0 1 0-1.107 0V102.7l-4.926 6.075c.055.254.107.508.166.761.2.073.411.138.617.206l16.293-20.1h15.215a.63.63 0 0 0 .554-.683M19.647 79.76h1.026v87.941h-1.026z"/><path fill="#adecd1" d="m36.301 20.519-4.81 5.933a2.247 2.247 0 0 1-3.642 0 3.72 3.72 0 0 1 0-4.492l5.73-7.066A44.26 44.26 0 0 0 20.16 0C10.044 6.914 2.708 18.872.613 32.963l8.573 10.574a3.5 3.5 0 0 1 0 4.224 2.113 2.113 0 0 1-3.425 0L.009 40.667l-.008.003c-.18 17.876 7.974 33.52 20.159 41.848 12.051-8.236 20.16-23.628 20.16-41.259a54.7 54.7 0 0 0-4.019-20.74"/><path fill="#4e8e69" d="M33.888 30.275a.586.586 0 0 0-.95 0L20.831 45.207V12.556a.687.687 0 1 0-1.344 0v14.68l-5.327-6.57a.586.586 0 0 0-.95 0 .97.97 0 0 0 0 1.172l6.277 7.742v39.69L6.617 53.396a.586.586 0 0 0-.95 0 .97.97 0 0 0 0 1.172l13.821 17.046v10.422c.223.159.446.322.672.476.226-.154.449-.316.672-.476V47.551l13.056-16.1a.97.97 0 0 0 0-1.172"/></g></g></svg>