<svg xmlns="http://www.w3.org/2000/svg" width="112.113" height="112.788" viewBox="0 0 112.113 112.788"><g transform="translate(6731.113 2607.923)"><ellipse cx="56.056" cy="56.394" fill="#fff" rx="56.056" ry="56.394" transform="translate(-6731.113 -2607.923)"/><path fill="#fff" d="M-6675.057-2604.923a52.7 52.7 0 0 0-37.51 15.632 53.567 53.567 0 0 0 0 75.523A53.089 53.089 0 0 0-6622-2551.53a53.41 53.41 0 0 0-32.413-49.201 52.4 52.4 0 0 0-20.644-4.192m0-3a56.4 56.4 0 1 1-56.056 56.394 56.226 56.226 0 0 1 56.056-56.394"/><g transform="translate(-6701 -2581.808)"><path fill="#01cffa" d="M25.776 42.253a17.24 17.24 0 0 1 17.217-17.269 17 17 0 0 1 3.441.364V2.084A1.194 1.194 0 0 0 45.243.893H2.084A1.194 1.194 0 0 0 .893 2.084v52.115a1.194 1.194 0 0 0 1.191 1.191h29.564a17.4 17.4 0 0 1-5.872-13.137"/><path fill="#01bff9" d="M4.586 54.199V2.084A1.194 1.194 0 0 1 5.777.893H2.084A1.194 1.194 0 0 0 .893 2.084v52.115a1.194 1.194 0 0 0 1.191 1.191h3.693a1.194 1.194 0 0 1-1.191-1.191"/><path fill="#fff" d="M38.633 9.489H8.688a.6.6 0 0 0-.6.6v4.752a.6.6 0 0 0 .6.6h29.945a.6.6 0 0 0 .6-.6v-4.757a.6.6 0 0 0-.6-.595"/><path fill="#d8e6eb" d="M11.85 14.836v-4.752a.6.6 0 0 1 .6-.6H8.688a.6.6 0 0 0-.6.6v4.752a.6.6 0 0 0 .6.6h3.753a.6.6 0 0 1-.591-.6"/><path fill="#c7eefd" d="M39.228 25.388v-3.417a.6.6 0 0 0-.6-.6H8.688a.6.6 0 0 0-.6.6v4.752a.6.6 0 0 0 .6.6h25.641a17 17 0 0 1 4.899-1.935"/><path fill="#98e5fb" d="M11.85 26.721v-4.75a.6.6 0 0 1 .6-.6H8.688a.6.6 0 0 0-.6.6v4.752a.6.6 0 0 0 .6.6h3.753a.6.6 0 0 1-.591-.602"/><path fill="#fff" d="M28.303 33.259H8.688a.6.6 0 0 0-.6.6v4.752a.6.6 0 0 0 .6.6h17.365a17.4 17.4 0 0 1 2.25-5.952"/><path fill="#d8e6eb" d="M11.85 38.606v-4.752a.6.6 0 0 1 .6-.6H8.688a.6.6 0 0 0-.6.6v4.752a.6.6 0 0 0 .6.6h3.753a.6.6 0 0 1-.591-.6"/><path fill="#fd646f" d="M60.067 42.396a17.147 17.147 0 1 1-17.075-17.412 17.24 17.24 0 0 1 17.075 17.412"/><ellipse cx="12.909" cy="13.057" fill="#fff" rx="12.909" ry="13.057" transform="translate(30.012 29.268)"/><path fill="#d8e6eb" d="M33.712 42.324a13.01 13.01 0 0 1 11.06-12.922 13 13 0 0 0-1.85-.134 13.057 13.057 0 1 0 1.85 25.979 13.01 13.01 0 0 1-11.06-12.923"/><path d="M8.695 8.596a1.49 1.49 0 0 0-1.488 1.488v4.752a1.49 1.49 0 0 0 1.488 1.488h29.938a1.49 1.49 0 0 0 1.488-1.488v-4.752a1.49 1.49 0 0 0-1.488-1.488Zm29.64 5.942H8.99v-4.156h29.345Zm-20.04 31.499a.893.893 0 0 0 0-1.786h-10.2a.893.893 0 0 0 0 1.786Z"/><path d="M47.326 24.642V14.325a.893.893 0 0 0-1.786 0v9.959a18 18 0 0 0-2.54-.193h-.08a18 18 0 0 0-2.8.218v-2.34a1.49 1.49 0 0 0-1.488-1.488H8.693A1.49 1.49 0 0 0 7.2 21.969v4.752a1.49 1.49 0 0 0 1.493 1.491H31.5q-.679.563-1.31 1.2a18.4 18.4 0 0 0-2.384 2.959h-9.827a.893.893 0 1 0 0 1.786h8.809a18 18 0 0 0-1.467 4.155H8.99v-4.16h4.821a.893.893 0 1 0 0-1.786H8.693A1.49 1.49 0 0 0 7.2 33.854v4.752a1.49 1.49 0 0 0 1.488 1.488h16.329a19 19 0 0 0-.134 2.155A18.27 18.27 0 0 0 29.5 54.497H2.084a.3.3 0 0 1-.3-.3V2.084a.3.3 0 0 1 .3-.3h43.158a.3.3 0 0 1 .3.3v8.074a.893.893 0 0 0 1.786 0V2.084A2.086 2.086 0 0 0 45.244 0H2.084A2.086 2.086 0 0 0 0 2.084v52.115a2.086 2.086 0 0 0 2.084 2.084h29.245a17.84 17.84 0 0 0 11.519 4.275h.076a17.82 17.82 0 0 0 12.729-5.316 18.315 18.315 0 0 0-8.327-30.6M8.99 26.423v-4.156h29.346v2.417a17.7 17.7 0 0 0-4.257 1.74Zm45.4 27.561a16.05 16.05 0 0 1-11.462 4.789h-.068a16.491 16.491 0 0 1-11.4-28.107 16.05 16.05 0 0 1 11.46-4.789h.069a16.491 16.491 0 0 1 11.4 28.107Z"/><path d="M55.779 43.807a.893.893 0 0 0-1.037.72 12.033 12.033 0 1 1-11.82-14.366 11.92 11.92 0 0 1 7.921 3.016 12.2 12.2 0 0 1 3.981 7.462.893.893 0 0 0 1.769-.242 13.98 13.98 0 0 0-4.565-8.556 13.7 13.7 0 0 0-9.107-3.467 13.95 13.95 0 1 0 13.578 16.47.893.893 0 0 0-.72-1.037"/><path d="M42.922 33.238a.893.893 0 0 0-.893.893v8.194a.893.893 0 0 0 .893.893h5.551a.893.893 0 0 0 0-1.786h-4.658v-7.3a.893.893 0 0 0-.893-.894"/></g></g></svg>