<svg xmlns="http://www.w3.org/2000/svg" width="112.113" height="112.788" viewBox="0 0 112.113 112.788"><g transform="translate(6041.113 -1124.406)"><ellipse cx="56.056" cy="56.394" fill="#fff" rx="56.056" ry="56.394" transform="translate(-6041.113 1124.406)"/><path fill="#fff" d="M-5985.057 1127.406a52.7 52.7 0 0 0-37.51 15.632 53.567 53.567 0 0 0 0 75.523 53.089 53.089 0 0 0 90.567-37.762 53.41 53.41 0 0 0-32.413-49.201 52.4 52.4 0 0 0-20.644-4.192m0-3a56.4 56.4 0 1 1-56.056 56.394 56.226 56.226 0 0 1 56.056-56.394"/><g transform="translate(-6020.112 1146.761)"><path fill="#92e016" d="M31.754 23.653c6.33 6.323 4.912 17.989 4.912 17.989s-11.681 1.416-18.01-4.905-4.912-17.989-4.912-17.989 11.68-1.417 18.01 4.905"/><path fill="#5eb71b" d="M51.456 36.479c-7.235 7.226-21.285 4.906-21.285 4.906s-2.315-14.034 4.914-21.26 21.285-4.906 21.285-4.906 2.322 14.035-4.914 21.26"/><circle cx="4.422" cy="4.422" r="4.422" fill="#ffe66d" transform="translate(58.162 3.306)"/><circle cx="4.422" cy="4.422" r="4.422" fill="#ffe66d" transform="translate(3.106 8.612)"/><path fill="#ffdbac" d="m62.805 50.623-4.422 6.633-5.648 3.765a2.21 2.21 0 0 0-.985 1.84v4.345H41.8l1.106-8.844 2.211-6.633 5.429-7.239a2.121 2.121 0 0 1 3.538 2.325l-3.439 6.02 4.422-2.211 3.317-3.317 5.063-10.126a1.682 1.682 0 0 1 3.111 1.247Zm-55.278 0 4.422 6.633 5.648 3.765a2.21 2.21 0 0 1 .985 1.84v4.345h9.95l-1.106-8.844-2.211-6.633-5.429-7.239a2.121 2.121 0 0 0-3.538 2.325l3.439 6.02-4.425-2.212-3.317-3.317-5.059-10.125a1.682 1.682 0 0 0-3.111 1.247Z"/><path d="M12.645 18.602c-.06.5-1.4 12.272 5.225 18.924 4.568 4.547 11.537 5.363 15.931 5.363.345 0 .663-.008.975-.017.214 0 .423.009.647.009 4.936 0 12.138-.92 16.819-5.6 7.546-7.545 5.318-21.641 5.218-22.238a1.11 1.11 0 0 0-.91-.911c-.6-.1-14.692-2.328-22.237 5.219a15.7 15.7 0 0 0-2.329 2.994c-6.724-6.043-17.888-4.778-18.376-4.713a1.106 1.106 0 0 0-.963.965Zm23.231 2.313c5.782-5.78 16.5-5.044 19.508-4.705.343 3.012 1.086 13.717-4.706 19.508-5.057 5.058-13.888 5.128-18.039 4.838l14.688-14.697-1.559-1.562-14.727 14.726c-.3-4.113-.264-13.013 4.836-18.113ZM14.77 19.757c2.756-.163 11.245-.221 16.152 4.619a26.3 26.3 0 0 0-2.02 7.953l-6.191-6.191-1.56 1.564 7.569 7.567a40 40 0 0 0 .2 5 17.34 17.34 0 0 1-9.491-4.322c-4.879-4.9-4.827-13.428-4.66-16.2ZM57.738 8.749a5.58 5.58 0 0 1 3.824 3.824 1.106 1.106 0 0 0 2.043 0 5.58 5.58 0 0 1 3.824-3.824 1.106 1.106 0 0 0 0-2.043 5.58 5.58 0 0 1-3.824-3.824 1.106 1.106 0 0 0-2.043 0 5.58 5.58 0 0 1-3.824 3.823 1.106 1.106 0 0 0 0 2.043Zm4.846-2.995a6.3 6.3 0 0 0 1.972 1.974A6.34 6.34 0 0 0 62.584 9.7a6.34 6.34 0 0 0-1.972-1.973 6.3 6.3 0 0 0 1.972-1.973M2.682 14.056a5.58 5.58 0 0 1 3.824 3.823 1.106 1.106 0 0 0 2.043 0 5.58 5.58 0 0 1 3.824-3.823 1.106 1.106 0 0 0 0-2.043A5.58 5.58 0 0 1 8.549 8.19a1.106 1.106 0 0 0-2.043 0 5.58 5.58 0 0 1-3.824 3.823 1.106 1.106 0 0 0 0 2.043m4.846-2.995A6.3 6.3 0 0 0 9.5 13.035a6.3 6.3 0 0 0-1.972 1.972 6.3 6.3 0 0 0-1.973-1.973 6.3 6.3 0 0 0 1.973-1.973m59.666 25.215a2.788 2.788 0 0 0-4.736.41l-4.984 9.966-3.063 3.062-.995.5 1.627-2.849a3.226 3.226 0 0 0-5.382-3.538l-5.429 7.24a1.1 1.1 0 0 0-.164.314l-2.211 6.633a1 1 0 0 0-.049.212l-1.106 8.844a1.106 1.106 0 0 0 1.1 1.243h9.95a1.106 1.106 0 0 0 1.106-1.106v-4.346a1.1 1.1 0 0 1 .492-.92l5.644-3.765a1.1 1.1 0 0 0 .306-.306l4.422-6.633a1 1 0 0 0 .137-.289l3.753-12.2a2.77 2.77 0 0 0-.418-2.472m-1.693 1.826-3.707 12.043-4.21 6.316-5.465 3.643a3.31 3.31 0 0 0-1.477 2.759v3.239h-7.59l.936-7.493 2.123-6.364 5.322-7.1a1.015 1.015 0 0 1 1.694 1.113l-3.443 6.023a1.106 1.106 0 0 0 1.454 1.548l4.422-2.211a1.1 1.1 0 0 0 .287-.208l3.317-3.317a1.1 1.1 0 0 0 .208-.287l5.062-10.125a.576.576 0 0 1 1.068.421Zm-52.644 8.55-4.981-9.967a2.788 2.788 0 0 0-5.158 2.067l3.753 12.193a1 1 0 0 0 .137.289l4.422 6.633a1.1 1.1 0 0 0 .306.306l5.65 3.772a1.1 1.1 0 0 1 .492.92v4.345a1.106 1.106 0 0 0 1.106 1.106h9.95a1.106 1.106 0 0 0 1.1-1.243l-1.109-8.848a1 1 0 0 0-.049-.212l-2.211-6.633a1.1 1.1 0 0 0-.164-.314l-5.429-7.239a3.226 3.226 0 0 0-5.382 3.538l1.627 2.849-.995-.5Zm7.79 5.638-3.439-6.021a1.015 1.015 0 0 1 1.694-1.112l5.32 7.088 2.119 6.359.94 7.493h-7.592v-3.236a3.31 3.31 0 0 0-1.477-2.764l-5.465-3.642-4.21-6.31-3.7-12.041a.576.576 0 0 1 1.066-.428L10.957 47.8a1.1 1.1 0 0 0 .208.287l3.317 3.317a1.1 1.1 0 0 0 .287.208l4.422 2.211a1.106 1.106 0 0 0 1.454-1.542Z"/></g></g></svg>