<svg xmlns="http://www.w3.org/2000/svg" width="87.334" height="87.234" viewBox="0 0 87.334 87.234"><g transform="translate(123.385 4611.605)"><path fill="#fff" d="M-37.051-4568.592a43.218 43.218 0 1 0-43.218 43.22 43.047 43.047 0 0 0 43.218-43.22"/><path fill="#fff" d="M-79.162-4611.606a44.1 44.1 0 0 1 31.985 13.686l.025.028a44.217 44.217 0 0 1-65.1 59.834l-.025-.028a44.2 44.2 0 0 1 33.114-73.52Zm30.525 15.053a42.217 42.217 0 1 0 10.589 27.96 41.85 41.85 0 0 0-10.592-27.959Z"/><g transform="translate(-110.103 -4598.851)"><path fill="#ffd75e" d="M54.88 33.806a26.96 26.96 0 0 1-26.963 26.959 26.9 26.9 0 0 1-10.31-2.043 26.99 26.99 0 0 1-16.4-21.211 27 27 0 0 1-.254-3.705A26.96 26.96 0 0 1 27.917 6.845 26.96 26.96 0 0 1 54.88 33.806"/><path fill="#d17334" d="M27.919 6.845a27 27 0 0 0-4.19.324A26.97 26.97 0 0 1 46.5 33.805a26.966 26.966 0 0 1-22.769 26.634 27 27 0 0 0 4.188.325 26.96 26.96 0 0 0 26.959-26.958A26.96 26.96 0 0 0 27.919 6.845"/><path fill="#fdd7bd" d="m58.245 31.813-15.4 10.194a5.24 5.24 0 0 1-3.724.807 5.26 5.26 0 0 0-3.733.805l-2.06 1.365-11.533-17.011 2.831-12.23a12.8 12.8 0 0 0 .329-2.878 12.77 12.77 0 0 0-2.122-7.048 3.04 3.04 0 0 1-.507-1.683 3.05 3.05 0 0 1 1.366-2.546 3.05 3.05 0 0 1 3.809.353l1.834 1.777a19.6 19.6 0 0 1 4.731 7.252l.995 2.677 10.24-6.766a3.49 3.49 0 0 1 4.892 1.065 3.54 3.54 0 0 1-1.1 4.8.04.04 0 0 0-.015.048.04.04 0 0 0 .05.02 3.5 3.5 0 0 1 1.248-.232 3.5 3.5 0 0 1 1.9.56 3.5 3.5 0 0 1 1.012 1 3.48 3.48 0 0 1 .513 2.605 3.57 3.57 0 0 1-1.464 2.212.075.075 0 0 0-.019.1.074.074 0 0 0 .1.019 3.6 3.6 0 0 1 .847-.1 3.7 3.7 0 0 1 1.969.57 3.4 3.4 0 0 1 1.018 1 3.49 3.49 0 0 1-.984 4.839l-.119.079a.055.055 0 0 0-.018.068.03.03 0 0 0 .013.013.06.06 0 0 0 .07 0 3.42 3.42 0 0 1 2.962.382 3.5 3.5 0 0 1 1.043 1.034 3.493 3.493 0 0 1-.974 4.85"/><path fill="#adecd1" d="m33.48 48.212-6.494 4.3-9.377 6.21a26.99 26.99 0 0 1-16.4-21.212l10.881-7.206 6.624-4.387a1.657 1.657 0 0 1 2.3.469l12.932 19.527a1.66 1.66 0 0 1-.466 2.299"/><path fill="#78a492" d="m33.48 48.212-6.494 4.3-14.891-22.207 6.624-4.387a1.657 1.657 0 0 1 2.3.469l12.932 19.527a1.66 1.66 0 0 1-.471 2.298"/><path fill="#fac5aa" d="m52.283 13.145-5.122 2.741a1.66 1.66 0 0 1-2.117-.476l4.039-2.614a.04.04 0 0 0 .05.02 3.5 3.5 0 0 1 1.248-.232 3.5 3.5 0 0 1 1.902.561m2.961 6.422-5.011 2.68a1.66 1.66 0 0 1-2.117-.475l4.039-2.613.174-.082a.073.073 0 0 0 .1.02 3.6 3.6 0 0 1 .847-.1 3.67 3.67 0 0 1 1.968.57m2.941 6.371L53.771 28.3a1.66 1.66 0 0 1-2.116-.476l3.5-2.264a.06.06 0 0 0 .069 0 3.42 3.42 0 0 1 2.961.378"/><path fill="#00223d" d="M60.028 26.443a4.42 4.42 0 0 0-2.737-1.884 4.46 4.46 0 0 0-.229-4.527 4.44 4.44 0 0 0-2.737-1.883 4.5 4.5 0 0 0 .421-1.185 4.42 4.42 0 0 0-.651-3.345 4.42 4.42 0 0 0-2.738-1.885 4.46 4.46 0 0 0-.229-4.527 4.457 4.457 0 0 0-6.17-1.253l-4.431 2.934a27.7 27.7 0 0 0-7.482-2.532 20.6 20.6 0 0 0-2.855-3.454l-1.833-1.777A4.035 4.035 0 0 0 23.35.661a4.016 4.016 0 0 0-1.13 5.559l.142.22a27.93 27.93 0 0 0-15.54 9.078A27.9 27.9 0 0 0 0 33.806a28 28 0 0 0 .262 3.836 28 28 0 0 0 16.979 21.967 27.8 27.8 0 0 0 10.677 2.115 27.74 27.74 0 0 0 16.213-5.187 27.85 27.85 0 0 0 10.055-13.25.96.96 0 0 0-.572-1.226.96.96 0 0 0-1.229.577 25.94 25.94 0 0 1-9.366 12.339 25.82 25.82 0 0 1-15.1 4.829 25.9 25.9 0 0 1-8.208-1.323l7.809-5.171 6.49-4.3a2.6 2.6 0 0 0 1.12-1.661 2.6 2.6 0 0 0-.382-1.967l-.086-.13 1.26-.835a4.27 4.27 0 0 1 3.046-.658 6.2 6.2 0 0 0 4.41-.954l10.456-6.924a26 26 0 0 1-.353 2.7.96.96 0 0 0 .769 1.119 1 1 0 0 0 .176.017.96.96 0 0 0 .942-.785 28 28 0 0 0 .458-4.365l2.947-1.952a4.42 4.42 0 0 0 1.9-2.825 4.42 4.42 0 0 0-.645-3.349m-21.364-16.32-2.933 1.942-.577-1.555a21 21 0 0 0-.824-1.907 25.7 25.7 0 0 1 4.334 1.519ZM8.272 16.776A26 26 0 0 1 23.28 8.219a11.86 11.86 0 0 1 .6 7.182L21.54 25.51a2.6 2.6 0 0 0-1.383-.773 2.6 2.6 0 0 0-1.967.382l-6.628 4.389-9.56 6.331a27 27 0 0 1-.079-2.033 26 26 0 0 1 6.349-17.03M33.25 46.968a.7.7 0 0 1-.3.444l-5.7 3.774-10.579-15.777a.96.96 0 0 0-1.332-.263.96.96 0 0 0-.262 1.331l10.572 15.768-8.137 5.389a26.08 26.08 0 0 1-15.263-19.7l9.571-6.317 1.1 1.643a.96.96 0 0 0 .8.425.95.95 0 0 0 .534-.162.96.96 0 0 0 .263-1.332l-1.093-1.63 5.825-3.845a.7.7 0 0 1 .524-.1.7.7 0 0 1 .444.3l12.932 19.528a.7.7 0 0 1 .101.524m25.548-17.563a2.52 2.52 0 0 1-1.084 1.607l-3.368 2.231-12.023 7.962a4.27 4.27 0 0 1-3.046.658 6.2 6.2 0 0 0-4.41.954l-1.261.835-10.592-15.991 2.738-11.827a13.8 13.8 0 0 0-1.01-9.052 1 1 0 0 0-.041-.085 14 14 0 0 0-.878-1.536 2.094 2.094 0 0 1 .589-2.9 2.105 2.105 0 0 1 2.611.242l1.833 1.777a18.8 18.8 0 0 1 4.5 6.9l1 2.689.006.014.008.019.021.045a1 1 0 0 0 .065.119.96.96 0 0 0 1.33.27l10.237-6.778a2.534 2.534 0 0 1 3.509.713 2.536 2.536 0 0 1-.712 3.51l-.889.589-1.982 1.313-.008.005-.031.023a.96.96 0 0 0-.232 1.3.96.96 0 0 0 1.331.271l1.983-1.314a2.52 2.52 0 0 1 1.9-.369 2.52 2.52 0 0 1 1.607 1.084 2.5 2.5 0 0 1 .371 1.9 2.52 2.52 0 0 1-1.084 1.607l-2.871 1.9a.96.96 0 0 0-.27 1.33.96.96 0 0 0 .8.43.96.96 0 0 0 .529-.16l.444-.294 1.538-1.018a2.535 2.535 0 0 1 3.509.713 2.535 2.535 0 0 1-.713 3.51l-1.434.95-.023.015-1.414.937a.96.96 0 0 0-.271 1.33.96.96 0 0 0 .8.43.96.96 0 0 0 .529-.159l.444-.294 1.538-1.018a2.52 2.52 0 0 1 1.9-.37 2.52 2.52 0 0 1 1.607 1.083 2.52 2.52 0 0 1 .37 1.9"/></g></g></svg>