<svg xmlns="http://www.w3.org/2000/svg" width="112.051" height="113.157" viewBox="0 0 112.051 113.157"><defs><filter id="a" width="112.051" height="113.157" x="0" y="0" filterUnits="userSpaceOnUse"><feOffset dy="3"/><feGaussianBlur result="b" stdDeviation="3"/><feFlood flood-opacity=".161"/><feComposite in2="b" operator="in"/><feComposite in="SourceGraphic"/></filter><path id="b" d="M10.275 9.456h7.93L8.749 0v7.93a1.526 1.526 0 0 0 1.526 1.526"/></defs><g transform="translate(-6384.274 9919.992)"><g filter="url(#a)" transform="translate(6384.27 -9919.99)"><ellipse cx="47.025" cy="47.579" fill="#fff" rx="47.025" ry="47.579" transform="translate(9 6)"/></g><g transform="translate(6419.299 -9892.46)"><g transform="translate(.814 .814)"><path fill="#e6e2e6" d="m37.261 36.492 2.886-2.886L44.24 37.7l-2.886 2.885Z"/><path fill="#ecdaec" d="m37.261 36.492 2.886-2.886L44.24 37.7l-2.886 2.885Z"/><path fill="#e2cbe2" d="m37.261 36.492 1.373-1.373 4.094 4.093-1.374 1.373Z"/><path fill="#f9f6f6" d="M0 1.526A1.526 1.526 0 0 1 1.526 0h25.685l9.456 9.456v39.482a1.526 1.526 0 0 1-1.526 1.526H1.526A1.526 1.526 0 0 1 0 48.938Z"/><path fill="#ecdaec" d="M35.14 48.633H1.526A1.526 1.526 0 0 1 0 47.107v1.831a1.526 1.526 0 0 0 1.526 1.526H35.14a1.526 1.526 0 0 0 1.526-1.526v-1.831a1.526 1.526 0 0 1-1.526 1.526"/><g fill="#e2cbe2" transform="translate(18.462)"><use href="#b"/><use href="#b"/><circle cx="12.665" cy="12.665" r="12.665" transform="translate(0 14.799)"/></g><path fill="#dab9d8" d="M40.082 34.589a12.666 12.666 0 0 1-21.588-8.04 12.665 12.665 0 1 0 25.265 0 12.62 12.62 0 0 1-3.677 8.04"/><circle cx="9.17" cy="9.17" r="9.17" fill="#ffe27a" transform="translate(21.957 18.294)"/><path fill="#f9cf58" d="M37.612 32.117a9.17 9.17 0 0 1-15.608-5.569 9.17 9.17 0 1 0 18.248 0 9.13 9.13 0 0 1-2.64 5.569"/><path fill="#98db7c" d="M30.307 31.236a1.6 1.6 0 0 1-1.118-.454l-2.1-2.046a1.604 1.604 0 1 1 2.236-2.3l.956.93 2.873-2.946a1.605 1.605 0 0 1 2.3 2.239l-3.991 4.093a1.6 1.6 0 0 1-1.156.484"/><path fill="#82d361" d="m35.446 24.829-3.991 4.093a1.6 1.6 0 0 1-2.266.03l-2.1-2.046a1.6 1.6 0 0 1-.2-.233 1.6 1.6 0 0 0 .2 2.064l2.1 2.046a1.6 1.6 0 0 0 2.266-.03l3.991-4.093a1.6 1.6 0 0 0 .167-2.036 1.6 1.6 0 0 1-.167.205"/><path fill="#ff4755" d="m44.817 37.131-4.024 4.024 4.814 4.814a2.845 2.845 0 0 0 4.024-4.024Z"/><path fill="#fc2b3a" d="m46.979 44.594-4.813-4.813-1.374 1.374 4.814 4.814a2.847 2.847 0 0 0 4.591-.81 2.85 2.85 0 0 1-3.218-.565"/><path fill="#98db7c" d="M9.5 19.27H6.162a.944.944 0 0 1-.944-.944v-3.338a.944.944 0 0 1 .944-.944H9.5a.944.944 0 0 1 .944.944v3.338a.944.944 0 0 1-.944.944m0 10.699H6.162a.944.944 0 0 1-.944-.944v-3.338a.944.944 0 0 1 .944-.944H9.5a.944.944 0 0 1 .944.944v3.338a.944.944 0 0 1-.944.944m0 10.917H6.162a.944.944 0 0 1-.944-.944v-3.338a.944.944 0 0 1 .944-.944H9.5a.944.944 0 0 1 .944.944v3.338a.944.944 0 0 1-.944.944"/><path fill="#82d361" d="M9.5 17.439H6.162a.944.944 0 0 1-.944-.944v1.831a.944.944 0 0 0 .944.944H9.5a.944.944 0 0 0 .944-.944v-1.831a.944.944 0 0 1-.944.944m0 10.7H6.162a.944.944 0 0 1-.944-.944v1.831a.944.944 0 0 0 .944.944H9.5a.944.944 0 0 0 .944-.944v-1.831a.944.944 0 0 1-.944.944m0 10.916H6.162a.944.944 0 0 1-.944-.944v1.831a.944.944 0 0 0 .944.944H9.5a.944.944 0 0 0 .944-.944v-1.831a.944.944 0 0 1-.944.944"/><path fill="#ecdaec" d="M27.211 7.93v1.831a1.526 1.526 0 0 0 1.526 1.526h7.93V9.456h-7.93a1.526 1.526 0 0 1-1.526-1.526"/></g><path d="M31.135 32.827a2.35 2.35 0 0 0 1.7-.716l4-4.1a2.373 2.373 0 0 0-3.4-3.311l-2.346 2.405-.411-.4a2.371 2.371 0 1 0-3.306 3.4l2.109 2.05a2.36 2.36 0 0 0 1.654.672m-2.712-5.008a.843.843 0 0 1 1.191-.017l.958.932a.765.765 0 0 0 1.081-.014l2.879-2.952a.842.842 0 1 1 1.206 1.176l-4 4.1a.846.846 0 0 1-1.19.016l-2.109-2.05a.843.843 0 0 1-.017-1.191Z"/><path d="M25.224 33.348a.765.765 0 0 0-1.221.921 10 10 0 0 0 .915 1.052 9.946 9.946 0 1 0-2.444-4 .765.765 0 0 0 1.457-.465 8.431 8.431 0 1 1 2.068 3.387 9 9 0 0 1-.775-.895"/><path d="m51.04 42.251-4.824-4.824a.765.765 0 0 0-1.082 0l-.03.03-1.855-1.857a13.43 13.43 0 0 0 2.138-6.467.765.765 0 0 0-1.526-.1A11.917 11.917 0 0 1 31.968 40.2h-.067a11.92 11.92 0 1 1 11.8-14.033.765.765 0 0 0 1.5-.267 13.46 13.46 0 0 0-6.929-9.5v-6.161a.77.77 0 0 0-.224-.541L28.573.224A.78.78 0 0 0 28.032 0H2.294A2.3 2.3 0 0 0 .001 2.294V8.72a.765.765 0 0 0 1.529 0V2.294a.765.765 0 0 1 .765-.765h24.973V8.71A2.3 2.3 0 0 0 29.562 11h7.181v4.705a13.5 13.5 0 0 0-4.64-.873H15.008a.765.765 0 1 0 0 1.529h10.706a13.4 13.4 0 0 0-3.05 2.19h-7.656a.765.765 0 1 0 0 1.529h6.28a13.3 13.3 0 0 0-2.509 5.467h-3.77a.765.765 0 1 0 0 1.529h3.547q-.053.6-.054 1.205 0 .5.036.99h-3.53a.765.765 0 1 0 0 1.529h3.728a13.3 13.3 0 0 0 2.554 5.684h-6.282a.765.765 0 1 0 0 1.529h7.659a13.4 13.4 0 0 0 3.045 2.187h-10.7a.765.765 0 1 0 0 1.529h16.945a13.5 13.5 0 0 0 4.786-.875V49.8a.766.766 0 0 1-.765.765H2.294a.766.766 0 0 1-.765-.765V11.779a.765.765 0 0 0-1.529 0V49.8a2.3 2.3 0 0 0 2.294 2.293h33.684a2.3 2.3 0 0 0 2.294-2.293v-9.636q.512-.272 1-.591l1.856 1.856a.77.77 0 0 0-.03 1.111l4.824 4.824a3.615 3.615 0 0 0 5.113-5.113ZM29.562 9.474a.766.766 0 0 1-.761-.764v-6.1l6.865 6.864Zm10.962 29.184q.489-.4.948-.862t.862-.948l1.69 1.69-1.81 1.81Zm9.435 7.624a2.1 2.1 0 0 1-2.951 0L42.725 42l2.951-2.95 4.284 4.283a2.1 2.1 0 0 1-.001 2.949"/><path d="M6.936 20.837h3.345a1.71 1.71 0 0 0 1.71-1.71v-3.345a1.71 1.71 0 0 0-1.71-1.71H6.936a1.71 1.71 0 0 0-1.71 1.71v3.345a1.71 1.71 0 0 0 1.71 1.71m-.181-5.055a.18.18 0 0 1 .181-.181h3.345a.18.18 0 0 1 .181.181v3.345a.18.18 0 0 1-.181.181H6.936a.18.18 0 0 1-.181-.181ZM5.229 29.847a1.71 1.71 0 0 0 1.71 1.71h3.345a1.71 1.71 0 0 0 1.71-1.71v-3.345a1.71 1.71 0 0 0-1.71-1.71H6.936a1.71 1.71 0 0 0-1.71 1.71Zm1.529-3.345a.18.18 0 0 1 .181-.181h3.345a.18.18 0 0 1 .181.181v3.345a.18.18 0 0 1-.181.181H6.936a.18.18 0 0 1-.181-.181ZM5.229 40.786a1.71 1.71 0 0 0 1.71 1.71h3.345a1.71 1.71 0 0 0 1.71-1.71v-3.34a1.71 1.71 0 0 0-1.71-1.71H6.936a1.71 1.71 0 0 0-1.71 1.71Zm1.529-3.345a.18.18 0 0 1 .181-.181h3.345a.18.18 0 0 1 .181.181v3.345a.18.18 0 0 1-.181.181H6.936a.18.18 0 0 1-.181-.181Z"/></g></g></svg>