<svg xmlns="http://www.w3.org/2000/svg" width="90.389" height="90.389" viewBox="0 0 90.389 90.389"><g transform="translate(-1 -1)"><g transform="translate(11.205 2.458)"><path fill="#aab2bd" d="M74.352 17.495v2.916a2.924 2.924 0 0 1-2.916 2.916h-2.915a2.924 2.924 0 0 1-2.916-2.916v-2.916z"/><path fill="#ffeaa7" d="M69.978 17.495h-4.373L62.98 14a8.747 8.747 0 1 1 14 0l-2.624 3.5Z"/><circle cx="3.337" cy="3.337" r="3.337" fill="#fcd770" transform="translate(66.836 5.215)"/><path fill="#b4dd7f" d="m31.14 58.038-3.149 1.793a14 14 0 0 0-2.245-.933l-.962-3.5h-5.832l-.962 3.5a14 14 0 0 0-2.245.933L12.6 58.038l-.394.394H0v-1.5a17.62 17.62 0 0 1 13.31-17.1l1.268 12.654 7.289-7.289 7.289 7.289 1.27-12.657a17.62 17.62 0 0 1 13.31 17.086v1.516h-12.2Z"/><path fill="#a0d468" d="m30.426 39.83-1.269 12.654-7.289-7.289 5.832-5.832a16.6 16.6 0 0 1 2.726.467m-8.558 5.365-7.288 7.289-1.27-12.654a16.6 16.6 0 0 1 2.726-.467Z"/><path fill="#fcd770" d="M15.746 59.832a14 14 0 0 1 2.245-.933l.962-3.5h5.832l.962 3.5a14 14 0 0 1 2.245.933l3.149-1.793.394.394 3.732 3.732-1.793 3.149a14 14 0 0 1 .933 2.245l3.5.962v5.832l-3.5.962a14 14 0 0 1-.933 2.245l1.793 3.149-4.126 4.126-3.149-1.794a14 14 0 0 1-2.245.933l-.962 3.5h-5.832l-.962-3.5a14 14 0 0 1-2.245-.933l-3.149 1.793-4.126-4.126 1.793-3.149a14 14 0 0 1-.933-2.245l-3.499-.962v-5.831l3.5-.962a14 14 0 0 1 .933-2.245l-1.793-3.149 3.732-3.732.394-.394Zm13.413 11.6a7.289 7.289 0 1 0-7.289 7.289 7.29 7.29 0 0 0 7.288-7.284Z"/><path fill="#656d78" d="M23.326 11.663h-4.373a8.74 8.74 0 0 0-8.3 5.992l-.452-.16H8.748a4.35 4.35 0 0 0-3.339 1.545c-.2-.744-.379-1.487-.525-2.245a29 29 0 0 1-.51-5.365 7.15 7.15 0 0 1 5.423-6.954l.408-.1 1.021-1.021A11.46 11.46 0 0 1 19.317 0h8.616a11.43 11.43 0 0 1 11.109 8.747 11.7 11.7 0 0 1 .321 2.683 29 29 0 0 1-.51 5.365l-.525 2.245a4.35 4.35 0 0 0-3.339-1.545h-1.457a2.924 2.924 0 0 0-2.916-2.916h-1.458a7.3 7.3 0 0 1-5.832-2.916"/><path fill="#f0d0b4" d="M38.331 19.04a4.377 4.377 0 0 1-3.339 7.2h-1.461v-8.745h1.458a4.35 4.35 0 0 1 3.342 1.545M26.782 34.756l.918 4.607-5.832 5.832-5.831-5.832.918-4.607a8.2 8.2 0 0 0 2 .233h5.832a8.2 8.2 0 0 0 1.995-.233"/><path fill="#f0d0b4" d="M33.531 17.495v8.747a8.755 8.755 0 0 1-6.75 8.514 8.2 8.2 0 0 1-2 .233h-5.829a8.2 8.2 0 0 1-2-.233 8.755 8.755 0 0 1-6.747-8.514V20.41a8.77 8.77 0 0 1 8.747-8.747h4.374a7.3 7.3 0 0 0 5.832 2.916h1.457a2.924 2.924 0 0 1 2.916 2.916"/><path fill="#f0d0b4" d="M10.657 17.655a8.7 8.7 0 0 0-.452 2.755v5.832H8.748a4.374 4.374 0 1 1 0-8.747h1.458Z"/></g><g transform="translate(1 1)"><path d="M32.073 64.147a8.747 8.747 0 1 0 8.747 8.747 8.756 8.756 0 0 0-8.747-8.747m0 14.579a5.832 5.832 0 1 1 5.832-5.832 5.837 5.837 0 0 1-5.832 5.832"/><path d="m64.574 65.178 6.259 6.259H49.568v-.669A32.2 32.2 0 0 0 50.637 17.6a30 30 0 0 0 .389-4.712q-.002-.619-.061-1.222h12.578l-3.343 3.34 2.061 2.061 6.862-6.862-6.861-6.862L60.2 5.4l3.343 3.343H50.332A12.9 12.9 0 0 0 38.141 0h-8.625a12.8 12.8 0 0 0-9.11 3.773l-.742.742h-.012a8.61 8.61 0 0 0-6.531 8.367 30 30 0 0 0 .389 4.718 32.2 32.2 0 0 0 1.069 53.17v.669H0v2.916h14.579v2.57l3.827 1.047q.188.502.417 1l-1.968 3.449 5.7 5.7L26 86.146q.495.229 1 .417l1.045 3.825H36.1l1.047-3.827q.502-.187 1-.417l3.453 1.969 5.7-5.7-1.968-3.449q.229-.495.417-1l3.825-1.045v-2.57h21.259l-6.259 6.259 2.061 2.061 9.778-9.778-9.778-9.778Zm-3.343-21.442A28.93 28.93 0 0 1 47.864 68.4l-2.123-.58a15 15 0 0 0-.417-1l1.968-3.449-2.029-2.031H55.4v-2.961A18.99 18.99 0 0 0 39.128 39.5l-.458-2.292a10.22 10.22 0 0 0 6.409-8.05h.115a5.837 5.837 0 0 0 5.832-5.832 5.8 5.8 0 0 0-.4-2.067 29.12 29.12 0 0 1 10.605 22.477M22.552 57.675l-.751.751H11.663v-.045A16.08 16.08 0 0 1 22.246 43.2l1.394 13.948 8.434-8.434 8.434 8.434L41.9 43.2a16.08 16.08 0 0 1 10.584 15.181l-10.141.041-.748-.748-3.449 1.968a14 14 0 0 0-1-.417L36.1 55.4h-8.055L27 59.226q-.502.188-1 .417Zm15.872-15.312c.208.028.417.051.623.086l-.828 8.287-4.084-4.084Zm-3.435-7.374h-5.831a7.3 7.3 0 0 1-7.29-7.289v-5.832a7.3 7.3 0 0 1 7.289-7.289h3.691a8.73 8.73 0 0 0 6.514 2.916h1.458a1.46 1.46 0 0 1 1.458 1.458V27.7a7.3 7.3 0 0 1-7.289 7.289M29.158 37.9h5.832c.283 0 .56-.02.837-.042l.5 2.48-4.248 4.248-4.25-4.25.5-2.48c.278.023.555.044.838.044Zm-3.435 4.458 4.289 4.289-4.084 4.084-.828-8.282c.206-.035.414-.058.623-.086ZM45.194 20.41a2.916 2.916 0 1 1 0 5.832ZM20.361 7.348l.795-.2 1.312-1.312a9.9 9.9 0 0 1 7.05-2.92h8.625a9.98 9.98 0 0 1 9.968 9.969 27 27 0 0 1-.5 5.146 5.8 5.8 0 0 0-2.411-.537h-.268a4.37 4.37 0 0 0-4.105-2.916h-1.464a5.837 5.837 0 0 1-5.832-5.832h-2.915a8.7 8.7 0 0 0 .5 2.916h-1.958a10.21 10.21 0 0 0-9.207 5.832h-1a5.8 5.8 0 0 0-2.411.537 27 27 0 0 1-.5-5.146 5.7 5.7 0 0 1 4.324-5.537Zm-1.409 14.52v4.374a2.916 2.916 0 0 1 0-5.832h.117a10 10 0 0 0-.117 1.458M2.916 43.736a29.1 29.1 0 0 1 10.6-22.478 5.8 5.8 0 0 0-.4 2.067 5.837 5.837 0 0 0 5.832 5.832h.117a10.22 10.22 0 0 0 6.409 8.05l-.455 2.293A18.99 18.99 0 0 0 8.747 58.381v2.961h10.138l-2.031 2.031 1.968 3.449q-.229.495-.417 1l-2.123.58A28.93 28.93 0 0 1 2.916 43.736M46.652 74.7l-3.2.875-.236.765a11.6 11.6 0 0 1-.834 2l-.373.709 1.646 2.885-2.551 2.55-2.884-1.644-.707.373a11.7 11.7 0 0 1-2 .834l-.765.236-.873 3.194H30.27l-.873-3.2-.765-.236a11.6 11.6 0 0 1-2-.834l-.709-.373-2.885 1.646-2.551-2.551 1.646-2.885-.373-.709a11.6 11.6 0 0 1-.834-2l-.236-.765-3.2-.872v-3.607l3.2-.875.236-.765a11.6 11.6 0 0 1 .834-2l.373-.709-1.646-2.885 2.551-2.551 2.885 1.646.709-.373a11.6 11.6 0 0 1 2-.834l.765-.236.872-3.194h3.607l.875 3.2.765.236a11.6 11.6 0 0 1 2 .834l.707.373 2.884-1.644 2.551 2.55-1.646 2.885.373.709a11.6 11.6 0 0 1 .834 2l.236.765 3.2.875v3.6Z"/><circle cx="1.335" cy="1.335" r="1.335" transform="translate(24.988 20.021)"/><circle cx="1.335" cy="1.335" r="1.335" transform="translate(37 20.021)"/><path d="M33.532 29.158H27.7v2.916h5.832a5.837 5.837 0 0 0 5.831-5.832h-2.916a2.92 2.92 0 0 1-2.915 2.916M80.183 0a10.205 10.205 0 0 0-8.164 16.328l2.333 3.11v2.43a4.38 4.38 0 0 0 4.374 4.374h2.916a4.38 4.38 0 0 0 4.374-4.374v-2.43l2.333-3.11A10.205 10.205 0 0 0 80.183 0m1.458 23.326h-2.916a1.46 1.46 0 0 1-1.458-1.458V20.41h5.832v1.458a1.46 1.46 0 0 1-1.458 1.458m-2.916-13.121a1.458 1.458 0 1 1 1.458 1.458 1.46 1.46 0 0 1-1.458-1.458m7.289 4.374-2.186 2.916h-2.187v-3.184a4.374 4.374 0 1 0-2.916 0v3.184h-2.187l-2.187-2.916a7.289 7.289 0 1 1 11.663 0"/></g></g></svg>