<svg xmlns="http://www.w3.org/2000/svg" width="76.904" height="77.113" viewBox="0 0 76.904 77.113"><g transform="translate(1.239 1.241)"><path fill="#6cf5c2" fill-rule="evenodd" d="M.93 0h23.1a.933.933 0 0 1 .93.93v15.805a.933.933 0 0 1-.93.93H.93a.933.933 0 0 1-.93-.93V.93A.933.933 0 0 1 .93 0"/><path fill="#00e499" fill-rule="evenodd" d="M23.413 0h.62a.933.933 0 0 1 .93.93v15.805a.933.933 0 0 1-.93.93H.93a.933.933 0 0 1-.93-.93v-.62h22.483a.933.933 0 0 0 .93-.93Z"/><g fill-rule="evenodd" transform="translate(23.726 29.453)"><path fill="#ffe177" d="m14.293.172 12.382 7.124c.443.255.387.705-.126 1L14.42 15.275a1.95 1.95 0 0 1-1.739.073L.299 8.223c-.443-.255-.387-.706.126-1L12.554.244a1.95 1.95 0 0 1 1.739-.072"/><path fill="#ffd064" d="m26.418 7.148.257.148c.443.255.387.705-.126 1L14.42 15.275a1.95 1.95 0 0 1-1.739.073L.299 8.223c-.443-.255-.387-.706.126-1l.131-.075 12.125 6.976a1.95 1.95 0 0 0 1.739-.073Z"/></g><g fill-rule="evenodd" transform="translate(59.979 29.99)"><path fill="#fe646f" d="M1.496 0h11.457a1.5 1.5 0 0 1 1.5 1.5v11.457a1.5 1.5 0 0 1-1.5 1.5H1.496a1.5 1.5 0 0 1-1.5-1.5V1.496A1.5 1.5 0 0 1 1.496 0"/><path fill="#fd4755" d="M12.897 0h.055a1.5 1.5 0 0 1 1.5 1.5v11.457a1.5 1.5 0 0 1-1.5 1.5H1.496a1.5 1.5 0 0 1-1.5-1.5v-.055h11.4a1.5 1.5 0 0 0 1.5-1.5Z"/></g><g transform="translate(3.199 58.491)"><circle cx="7.224" cy="7.224" r="7.224" fill="#8ac9fe" transform="rotate(-13.3 14.251 1.661)"/><path fill="#60b7ff" fill-rule="evenodd" d="M7.902 15.894a7 7 0 0 0 .775.042 7.224 7.224 0 1 0-.775-14.407 7.224 7.224 0 0 1 0 14.365"/></g><g transform="translate(28.53 58.485)"><circle cx="7.224" cy="7.224" r="7.224" fill="#8ac9fe" transform="rotate(-13.3 14.251 1.661)"/><path fill="#60b7ff" fill-rule="evenodd" d="M7.908 15.901a7 7 0 0 0 .775.042 7.224 7.224 0 1 0-.775-14.407 7.224 7.224 0 0 1 0 14.365"/></g><g transform="translate(53.861 58.479)"><circle cx="7.224" cy="7.224" r="7.224" fill="#8ac9fe" transform="rotate(-13.3 14.251 1.661)"/><path fill="#60b7ff" fill-rule="evenodd" d="M7.914 15.907a7 7 0 0 0 .775.042 7.224 7.224 0 1 0-.775-14.407 7.224 7.224 0 0 1 0 14.365"/></g></g><path fill-rule="evenodd" d="M61.623 67.27a1.241 1.241 0 0 0-1.755 1.755l2.511 2.51a1.24 1.24 0 0 0 .878.364h.065a1.25 1.25 0 0 0 .9-.459l3.583-4.43a1.24 1.24 0 1 0-1.928-1.561l-2.718 3.357Zm-25.338 0a1.241 1.241 0 1 0-1.755 1.755l2.512 2.51a1.24 1.24 0 0 0 .878.364h.065a1.25 1.25 0 0 0 .9-.459l3.583-4.43a1.241 1.241 0 1 0-1.929-1.561l-2.716 3.358ZM20.864 13.143H6.582a1.24 1.24 0 0 0 0 2.481h14.283a1.24 1.24 0 0 0 0-2.481Zm0-8.62H6.582a1.241 1.241 0 0 0 0 2.481h14.283a1.241 1.241 0 0 0 0-2.481Zm0 4.311H6.582a1.241 1.241 0 0 0 0 2.481h14.283a1.241 1.241 0 0 0 0-2.481Zm51.041 26.167a1.247 1.247 0 0 0-1.759 0l-1.7 1.7-1.7-1.7a1.24 1.24 0 1 0-1.757 1.749l1.7 1.7-1.7 1.7a1.24 1.24 0 0 0 1.754 1.754l1.7-1.7 1.7 1.7a1.24 1.24 0 0 0 .876.363 1.24 1.24 0 0 0 .883-2.117l-1.708-1.7 1.708-1.7a1.245 1.245 0 0 0 0-1.754Zm2.525-2.27v11.451a.26.26 0 0 1-.255.256h-11.46a.26.26 0 0 1-.254-.256V32.727a.26.26 0 0 1 .254-.256h11.46a.26.26 0 0 1 .255.256Zm-24.468 5.723-11.508-6.621-11.507 6.621 11.507 6.621ZM38.454 62.46a5.984 5.984 0 1 1-5.984 5.983 5.99 5.99 0 0 1 5.984-5.983m25.337 0a5.984 5.984 0 1 1-5.984 5.983 5.99 5.99 0 0 1 5.982-5.983Zm-50.674 0a5.984 5.984 0 1 0 5.984 5.983 5.99 5.99 0 0 0-5.984-5.983M2.481 17.666V2.482h22.483v15.184zm74.423 15.061v11.455a2.737 2.737 0 0 1-2.73 2.737H62.715a2.74 2.74 0 0 1-2.735-2.737v-4.487h-7.2l-13.091 7.529v5.4h24.1a1.24 1.24 0 0 1 1.241 1.24v6.207a8.465 8.465 0 1 1-2.481 0v-4.97H39.694v4.97a8.464 8.464 0 1 1-2.481 0v-4.97H14.358v4.97a8.465 8.465 0 1 1-2.481 0v-6.207a1.24 1.24 0 0 1 1.24-1.24h24.1v-5.4l-13.085-7.53h-10.41a1.24 1.24 0 0 1-1.241-1.24V20.147H1.24A1.24 1.24 0 0 1 0 18.907V1.241A1.24 1.24 0 0 1 1.24.001h24.965a1.24 1.24 0 0 1 1.24 1.241v17.664a1.24 1.24 0 0 1-1.24 1.24H14.963v17.068h9.165l13.707-7.888a1.24 1.24 0 0 1 1.237 0l13.708 7.888h7.2v-4.487a2.74 2.74 0 0 1 2.735-2.737h11.46a2.74 2.74 0 0 1 2.73 2.737ZM12.483 68.806l2.717-3.358a1.241 1.241 0 1 1 1.929 1.561l-3.583 4.43a1.25 1.25 0 0 1-.9.459h-.065a1.24 1.24 0 0 1-.877-.364l-2.515-2.509a1.241 1.241 0 1 1 1.755-1.755Z"/></svg>